<svg width="190" height="49" viewBox="0 0 190 49" fill="none" xmlns="http://www.w3.org/2000/svg">
<path d="M46.8081 22.5598L26.4626 2.21428C25.2947 1.04641 23.3893 1.04641 22.2214 2.21428L1.8759 22.5598C0.708034 23.7276 0.708034 25.6331 1.8759 26.801L22.2214 47.1465C23.3893 48.3143 25.2947 48.3143 26.4626 47.1465L46.8081 26.801C47.9759 25.6331 47.9759 23.7276 46.8081 22.5598ZM37.0349 26.1863L25.8479 37.3732C25.0489 38.1723 23.6966 38.1723 22.8361 37.3118L11.6491 26.1863C10.7886 25.3258 10.7886 23.9735 11.6491 23.1744L22.8361 11.9875C23.6966 11.127 25.0489 11.127 25.8479 11.9875L37.0349 23.1744C37.8954 24.035 37.8954 25.3872 37.0349 26.1863Z" fill="#FF6F58" stroke="black"/>
<path d="M65.9242 26.9851L45.8861 47.3305C44.5953 48.6213 42.5669 48.6213 41.2761 47.3305C39.9853 46.0397 39.9853 43.9499 41.2761 42.6591L59.04 24.6493L41.2761 6.63957C39.9853 5.34877 39.9853 3.2589 41.2761 1.9681C42.5669 0.6773 44.5953 0.6773 45.8861 1.9681L65.9242 22.3136C66.5389 22.9897 66.9077 23.7888 66.9077 24.6493C66.9077 25.5099 66.5389 26.3704 65.9242 26.9851Z" fill="#FF6F58" stroke="black" stroke-width="1.18269"/>
<path d="M90.8184 26.4316C90.634 26.616 90.3881 26.7389 90.0808 26.7389H77.2957C77.2957 28.0912 77.5416 29.3205 78.1563 30.3655C78.7095 31.4104 79.5085 32.2709 80.5535 32.8856C81.5984 33.5003 82.7663 33.8076 84.18 33.8076C85.2864 33.8076 86.2084 33.5617 87.0689 33.1315C87.9295 32.7012 88.6056 32.0865 89.1588 31.4104C89.4047 31.226 89.6505 31.1031 89.8964 31.1031C90.1423 31.1031 90.3267 31.1645 90.5111 31.3489C90.6955 31.5333 90.7569 31.7177 90.7569 31.9636C90.7569 32.2095 90.634 32.4553 90.3881 32.7012C89.6505 33.5617 88.7285 34.2993 87.6836 34.8525C86.5772 35.4057 85.4093 35.7131 84.2415 35.7131C82.5204 35.7131 80.9837 35.3443 79.6315 34.6067C78.2792 33.8691 77.2343 32.8241 76.4967 31.4719C75.7591 30.1196 75.3903 28.5829 75.3903 26.8004C75.3903 24.9564 75.7591 23.3583 76.4967 21.9445C77.2343 20.5308 78.2177 19.4858 79.4471 18.7482C80.6764 18.0106 81.9672 17.6418 83.3195 17.6418C84.6717 17.6418 85.9625 17.9492 87.1304 18.5638C88.2983 19.1785 89.2817 20.1005 90.0193 21.3298C90.7569 22.5592 91.1257 23.9729 91.1872 25.694C91.1257 26.0013 91.0028 26.2472 90.8184 26.4316ZM79.57 21.0225C78.4636 21.9445 77.726 23.2353 77.4187 24.8949H88.9744V24.649C88.8515 23.6041 88.5441 22.7436 87.9295 22.006C87.3763 21.2684 86.6387 20.6537 85.8396 20.2849C84.9791 19.9161 84.1185 19.6702 83.1965 19.6702C81.9057 19.6702 80.7379 20.1005 79.57 21.0225Z" fill="#404040" stroke="black" stroke-width="1.18269"/>
<path d="M119.462 19.855C120.445 21.0844 120.876 22.744 120.876 24.8338V34.4226C120.876 34.73 120.753 34.9758 120.568 35.1602C120.384 35.3446 120.138 35.4676 119.831 35.4676C119.523 35.4676 119.277 35.3446 119.093 35.1602C118.909 34.9758 118.786 34.73 118.786 34.4226V24.9568C118.786 23.4816 118.417 22.2522 117.741 21.3302C117.003 20.4082 115.958 19.9165 114.422 19.9165C113.5 19.9165 112.578 20.1624 111.717 20.5926C110.857 21.0229 110.18 21.6376 109.689 22.4366C109.197 23.2357 108.89 24.0348 108.89 24.9568V34.4226C108.89 34.73 108.767 34.9758 108.582 35.1602C108.398 35.3446 108.152 35.4676 107.845 35.4676C107.537 35.4676 107.291 35.3446 107.107 35.1602C106.923 34.9758 106.8 34.73 106.8 34.4226V24.8338C106.8 23.3586 106.431 22.1908 105.755 21.2688C105.079 20.3468 104.034 19.9165 102.559 19.9165C101.637 19.9165 100.776 20.1624 99.9154 20.5926C99.1164 21.0229 98.4402 21.6376 97.887 22.3752C97.3953 23.1128 97.1494 23.9733 97.1494 24.8338V34.4226C97.1494 34.73 97.0265 34.9758 96.8421 35.1602C96.6577 35.3446 96.4118 35.4676 96.1045 35.4676C95.7972 35.4676 95.5513 35.3446 95.3669 35.1602C95.1825 34.9758 95.0596 34.73 95.0596 34.4226V19.2404C95.0596 18.933 95.1825 18.6872 95.3669 18.5028C95.5513 18.3184 95.7972 18.1954 96.1045 18.1954C96.4118 18.1954 96.6577 18.3184 96.8421 18.5028C97.0265 18.6872 97.1494 18.933 97.1494 19.2404V21.2073C97.7641 20.2853 98.5632 19.4862 99.6081 18.933C100.653 18.3184 101.759 18.011 102.866 18.011C104.157 18.011 105.325 18.3184 106.247 18.933C107.169 19.5477 107.845 20.4697 108.275 21.699C108.767 20.7156 109.627 19.855 110.857 19.1174C112.147 18.3798 113.377 18.011 114.667 18.011C117.003 17.9496 118.478 18.5642 119.462 19.855Z" fill="#404040" stroke="black" stroke-width="1.18269"/>
<path d="M138.517 18.8099C139.746 19.609 140.668 20.6539 141.405 22.0062C142.082 23.3585 142.45 24.8951 142.45 26.6162C142.45 28.3373 142.082 29.8739 141.405 31.2262C140.729 32.6399 139.746 33.6849 138.578 34.4839C137.349 35.283 135.996 35.6518 134.521 35.6518C133.23 35.6518 132.063 35.3445 130.956 34.6684C129.85 33.9922 128.989 33.1931 128.313 32.0868V34.2995C128.313 34.6069 128.19 34.8527 128.006 35.0371C127.821 35.2215 127.575 35.3445 127.268 35.3445C126.961 35.3445 126.715 35.2215 126.531 35.0371C126.346 34.8527 126.223 34.6069 126.223 34.2995V11.2495C126.223 10.9422 126.346 10.6963 126.531 10.5119C126.715 10.3275 126.961 10.2046 127.268 10.2046C127.575 10.2046 127.821 10.3275 128.006 10.5119C128.19 10.6963 128.313 10.9422 128.313 11.2495V21.3915C128.928 20.2851 129.788 19.3631 130.895 18.687C132.001 18.0109 133.23 17.6421 134.521 17.6421C135.935 17.7035 137.287 18.0723 138.517 18.8099ZM137.41 32.8858C138.332 32.2711 139.07 31.4106 139.623 30.3042C140.176 29.1978 140.422 27.9685 140.422 26.6777C140.422 25.3254 140.176 24.0961 139.623 23.0511C139.07 22.0062 138.332 21.1457 137.41 20.531C136.488 19.9163 135.443 19.609 134.214 19.609C133.046 19.609 131.94 19.9163 131.018 20.531C130.096 21.1457 129.358 21.9447 128.805 23.0511C128.252 24.1575 128.006 25.3254 128.006 26.7391C128.006 28.1529 128.252 29.3207 128.805 30.4271C129.358 31.5335 130.096 32.3941 131.018 33.0088C131.94 33.6234 133.046 33.9308 134.214 33.9308C135.443 33.8693 136.488 33.5005 137.41 32.8858Z" fill="#404040" stroke="black" stroke-width="1.18269"/>
<path d="M161.444 31.3492C160.706 32.7015 159.661 33.8079 158.37 34.607C157.08 35.406 155.604 35.7748 154.006 35.7748C152.408 35.7748 150.933 35.406 149.642 34.607C148.351 33.8079 147.306 32.763 146.569 31.3492C145.831 29.997 145.462 28.4603 145.462 26.7392C145.462 25.0182 145.831 23.4815 146.569 22.1292C147.306 20.7769 148.351 19.6706 149.642 18.8715C150.933 18.0724 152.408 17.7036 154.006 17.7036C155.604 17.7036 157.08 18.0724 158.37 18.8715C159.661 19.6706 160.706 20.7155 161.444 22.1292C162.181 23.4815 162.55 25.0182 162.55 26.7392C162.55 28.3988 162.181 29.9355 161.444 31.3492ZM159.723 23.0512C159.169 21.9448 158.37 21.1458 157.387 20.4696C156.403 19.8549 155.297 19.5476 154.068 19.5476C152.838 19.5476 151.732 19.8549 150.748 20.4696C149.765 21.0843 148.966 21.9448 148.413 23.0512C147.86 24.1576 147.552 25.3255 147.552 26.7392C147.552 28.0915 147.86 29.2594 148.413 30.3658C148.966 31.4722 149.765 32.3327 150.748 32.9474C151.732 33.562 152.838 33.8694 154.068 33.8694C155.297 33.8694 156.403 33.562 157.387 32.9474C158.37 32.3327 159.169 31.4722 159.723 30.4272C160.276 29.3208 160.583 28.153 160.583 26.7392C160.522 25.387 160.276 24.1576 159.723 23.0512Z" fill="#404040" stroke="black" stroke-width="1.18269"/>
<path d="M168.697 35.0987C168.512 35.2831 168.266 35.406 167.959 35.406C167.652 35.406 167.406 35.2831 167.221 35.0987C167.037 34.9143 166.914 34.6684 166.914 34.3611V11.3111C166.914 11.0037 167.037 10.7578 167.221 10.5734C167.406 10.389 167.652 10.2661 167.959 10.2661C168.266 10.2661 168.512 10.389 168.697 10.5734C168.881 10.7578 169.004 11.0037 169.004 11.3111V34.3611C169.004 34.6684 168.881 34.9143 168.697 35.0987Z" fill="#404040" stroke="black" stroke-width="1.18269"/>
<path d="M188.981 10.6347C189.165 10.8191 189.288 11.065 189.288 11.3723V34.4223C189.288 34.7297 189.165 34.9756 188.981 35.16C188.796 35.3444 188.55 35.4673 188.243 35.4673C187.936 35.4673 187.69 35.3444 187.506 35.16C187.321 34.9756 187.198 34.7297 187.198 34.4223V32.0252C186.645 33.0701 185.784 33.9306 184.678 34.6682C183.572 35.4058 182.342 35.7746 180.99 35.7746C179.515 35.7746 178.163 35.4058 176.933 34.6068C175.704 33.8077 174.782 32.7627 174.044 31.349C173.368 29.9967 172.999 28.3986 172.999 26.739C172.999 25.0179 173.368 23.4813 174.044 22.129C174.72 20.7767 175.704 19.6703 176.933 18.8713C178.163 18.0722 179.453 17.7034 180.929 17.7034C182.281 17.7034 183.51 18.0107 184.617 18.6869C185.723 19.363 186.584 20.2235 187.198 21.2685V11.3723C187.198 11.065 187.321 10.8191 187.506 10.6347C187.69 10.4503 187.936 10.3274 188.243 10.3274C188.55 10.3274 188.796 10.4503 188.981 10.6347ZM184.371 32.9472C185.293 32.3325 186.03 31.472 186.584 30.3656C187.137 29.2591 187.383 28.0298 187.383 26.6775C187.383 25.3253 187.137 24.1574 186.584 23.051C186.03 21.9446 185.293 21.1455 184.371 20.4694C183.449 19.8547 182.404 19.5474 181.174 19.5474C180.007 19.5474 178.962 19.8547 177.978 20.4694C176.995 21.0841 176.319 21.9446 175.765 23.051C175.212 24.1574 174.966 25.3253 174.966 26.6775C174.966 28.0298 175.212 29.2591 175.765 30.3656C176.319 31.472 177.056 32.3325 177.978 32.9472C178.9 33.5618 179.945 33.8692 181.174 33.8692C182.404 33.8692 183.449 33.5618 184.371 32.9472Z" fill="#404040" stroke="black" stroke-width="1.18269"/>
</svg>
