<svg width="190" height="30" viewBox="0 0 190 30" fill="none" xmlns="http://www.w3.org/2000/svg">
<mask id="mask0_1_110" style="mask-type:alpha" maskUnits="userSpaceOnUse" x="1" y="1" width="29" height="28">
<path d="M3.15406 1.09489C4.74275 1.09489 6.2429 1.84962 7.22098 3.14097L18.4566 17.9752C18.6024 18.1677 18.6816 18.4049 18.6816 18.6492V28.2905C18.6816 28.5324 18.4915 28.7285 18.257 28.7285C18.1263 28.7285 18.0029 28.6664 17.9225 28.5602L12.538 21.4542C12.3921 21.2617 12.3129 21.0244 12.3129 20.78V16.5799C12.3129 16.4817 12.2809 16.3865 12.2222 16.3093L1.17636 1.80337C1.03151 1.61315 1.06359 1.33784 1.24799 1.18843C1.32279 1.12783 1.41514 1.09489 1.51025 1.09489H3.15406ZM29.0473 1.09489C29.3991 1.09489 29.6842 1.38901 29.6842 1.75182C29.6842 1.899 29.6363 2.04191 29.5482 2.15765L20.8293 13.6059C20.6844 13.7961 20.4175 13.8292 20.2331 13.6798C20.2062 13.6579 20.1819 13.6328 20.1609 13.605L18.2181 11.0404C18.0979 10.8817 18.0981 10.6589 18.2186 10.5004L22.0212 5.50012C22.0936 5.40496 22.0774 5.26732 21.9852 5.19267C21.9478 5.16243 21.9017 5.14599 21.8542 5.14599L13.9616 5.14606C13.8309 5.14606 13.7075 5.08397 13.627 4.97774L11.2219 1.80249C11.0775 1.61189 11.1102 1.33666 11.295 1.18774C11.3697 1.12757 11.4617 1.09489 11.5564 1.09489H29.0473Z" fill="white"/>
</mask>
<g mask="url(#mask0_1_110)">
<path d="M3.15406 1.09489C4.74275 1.09489 6.2429 1.84962 7.22098 3.14097L18.4566 17.9752C18.6024 18.1677 18.6816 18.4049 18.6816 18.6492V28.2905C18.6816 28.5324 18.4915 28.7285 18.257 28.7285C18.1263 28.7285 18.0029 28.6664 17.9225 28.5602L12.538 21.4542C12.3921 21.2617 12.3129 21.0244 12.3129 20.78V16.5799C12.3129 16.4817 12.2809 16.3865 12.2222 16.3093L1.17636 1.80337C1.03151 1.61315 1.06359 1.33784 1.24799 1.18843C1.32279 1.12783 1.41514 1.09489 1.51025 1.09489H3.15406ZM29.0473 1.09489C29.3991 1.09489 29.6842 1.38901 29.6842 1.75182C29.6842 1.899 29.6363 2.04191 29.5482 2.15765L20.8293 13.6059C20.6844 13.7961 20.4175 13.8292 20.2331 13.6798C20.2062 13.6579 20.1819 13.6328 20.1609 13.605L18.2181 11.0404C18.0979 10.8817 18.0981 10.6589 18.2186 10.5004L22.0212 5.50012C22.0936 5.40496 22.0774 5.26732 21.9852 5.19267C21.9478 5.16243 21.9017 5.14599 21.8542 5.14599L13.9616 5.14606C13.8309 5.14606 13.7075 5.08397 13.627 4.97774L11.2219 1.80249C11.0775 1.61189 11.1102 1.33666 11.295 1.18774C11.3697 1.12757 11.4617 1.09489 11.5564 1.09489H29.0473Z" fill="url(#paint0_linear_1_110)"/>
</g>
<path d="M43.1451 23.227C44.1748 23.227 45.0986 23.0864 45.9163 22.8053C46.7341 22.5241 47.4307 22.1375 48.0061 21.6454C48.5815 21.1534 49.0283 20.5793 49.3463 19.9233C49.6643 19.2672 49.8309 18.5565 49.846 17.7911C49.8612 17.6505 49.8195 17.5334 49.7211 17.4396C49.6227 17.3459 49.5053 17.2991 49.369 17.2991H47.2111C47.0445 17.2991 46.9082 17.3381 46.8022 17.4162C46.6962 17.4943 46.6205 17.6427 46.575 17.8614C46.3479 18.8767 45.9352 19.5757 45.3371 19.9584C44.7389 20.3411 44.0007 20.5325 43.1224 20.5325C42.1077 20.5325 41.2976 20.2396 40.6918 19.6538C40.0861 19.0681 39.7605 18.1035 39.7151 16.7601C39.6697 15.4168 39.6697 14.1047 39.7151 12.8238C39.7605 11.4804 40.0861 10.5159 40.6918 9.93011C41.2976 9.34434 42.1077 9.05146 43.1224 9.05146C44.0007 9.05146 44.7351 9.2389 45.3257 9.6138C45.9163 9.98869 46.3328 10.6916 46.575 11.7226C46.6205 11.9256 46.6962 12.0701 46.8022 12.156C46.9082 12.2419 47.0445 12.2849 47.2111 12.2849H49.369C49.5053 12.2849 49.6227 12.238 49.7211 12.1443C49.8195 12.0506 49.8612 11.9334 49.846 11.7928C49.8309 11.0274 49.6643 10.3167 49.3463 9.66066C49.0283 9.0046 48.5815 8.43055 48.0061 7.9385C47.4307 7.44646 46.7341 7.05985 45.9163 6.77869C45.0986 6.49752 44.1748 6.35693 43.1451 6.35693C41.7519 6.35693 40.5669 6.61077 39.5902 7.11843C38.6134 7.62609 37.8638 8.35635 37.3414 9.3092C36.8189 10.262 36.5274 11.3945 36.4668 12.7066C36.4517 13.3783 36.4441 14.0812 36.4441 14.8154C36.4441 15.5496 36.4517 16.2369 36.4668 16.8773C36.5274 18.205 36.8151 19.3414 37.33 20.2865C37.8449 21.2315 38.5907 21.9578 39.5674 22.4655C40.5442 22.9732 41.7367 23.227 43.1451 23.227ZM55.7136 23.227C56.3648 23.227 56.9289 23.145 57.4059 22.981C57.8829 22.817 58.288 22.6022 58.6211 22.3366C58.9543 22.0711 59.2193 21.7977 59.4162 21.5166V22.4304C59.4162 22.5866 59.4654 22.7193 59.5638 22.8287C59.6622 22.938 59.7948 22.9927 59.9613 22.9927H61.8013C61.9527 22.9927 62.0814 22.938 62.1874 22.8287C62.2934 22.7193 62.3464 22.5866 62.3464 22.4304V15.0731C62.3464 14.4639 62.2556 13.886 62.0738 13.3393C61.8921 12.7926 61.6044 12.3161 61.2107 11.91C60.8169 11.5039 60.2907 11.1797 59.632 10.9376C58.9732 10.6955 58.1668 10.5745 57.2128 10.5745C56.3345 10.5745 55.5849 10.6916 54.964 10.9259C54.3431 11.1602 53.8396 11.4453 53.4535 11.7811C53.0673 12.117 52.7796 12.4645 52.5903 12.8238C52.401 13.1831 52.2988 13.4877 52.2836 13.7376C52.2836 13.8938 52.3253 14.0188 52.4086 14.1125C52.4919 14.2062 52.6168 14.2531 52.7834 14.2531H54.5779C54.805 14.2531 54.9792 14.1515 55.1003 13.9485C55.2669 13.5736 55.5205 13.2729 55.8613 13.0464C56.202 12.8199 56.6449 12.7066 57.1901 12.7066C57.9624 12.7066 58.5076 12.8863 58.8256 13.2455C59.1436 13.6048 59.3026 14.1125 59.3026 14.7685V15.2606L56.1906 15.7292C54.7974 15.9479 53.6693 16.3814 52.8061 17.0296C51.9429 17.6778 51.5113 18.5487 51.5113 19.6421C51.5113 20.3138 51.6968 20.9191 52.0678 21.458C52.4389 21.9969 52.9424 22.4265 53.5784 22.7467C54.2144 23.0669 54.9262 23.227 55.7136 23.227ZM56.4859 21.0011C56.1376 21.0011 55.8045 20.9425 55.4865 20.8254C55.1684 20.7082 54.9072 20.5286 54.7028 20.2865C54.4984 20.0443 54.3961 19.7515 54.3961 19.4078C54.3961 18.9548 54.6157 18.5721 55.0549 18.2597C55.494 17.9473 56.1603 17.7208 57.0538 17.5802L59.3253 17.2053V17.6974C59.3253 18.4472 59.2004 19.0681 58.9505 19.5601C58.7006 20.0522 58.3599 20.4153 57.9283 20.6496C57.4967 20.8839 57.0159 21.0011 56.4859 21.0011ZM69.6365 23.227C70.5451 23.227 71.3023 23.0708 71.908 22.7584C72.5138 22.446 73.0211 22.0164 73.43 21.4697V22.4304C73.43 22.5866 73.4792 22.7193 73.5776 22.8287C73.676 22.938 73.8085 22.9927 73.9751 22.9927H75.815C75.9665 22.9927 76.0952 22.938 76.2012 22.8287C76.3072 22.7193 76.3602 22.5866 76.3602 22.4304V11.3711C76.3602 11.2149 76.3072 11.0821 76.2012 10.9728C76.0952 10.8634 75.9665 10.8088 75.815 10.8088H73.8161C73.6647 10.8088 73.536 10.8634 73.43 10.9728C73.3239 11.0821 73.271 11.2149 73.271 11.3711V17.8145C73.271 18.7205 73.04 19.4312 72.5781 19.9467C72.1163 20.4622 71.4916 20.7199 70.7041 20.7199C69.0535 20.7199 68.2282 19.7515 68.2282 17.8145V11.3711C68.2282 11.2149 68.179 11.0821 68.0806 10.9728C67.9821 10.8634 67.8496 10.8088 67.683 10.8088H65.6841C65.5327 10.8088 65.404 10.8634 65.298 10.9728C65.1919 11.0821 65.1389 11.2149 65.1389 11.3711V17.9551C65.1389 19.0329 65.3207 19.9662 65.6841 20.7551C66.0476 21.5439 66.5662 22.1531 67.2401 22.5827C67.914 23.0122 68.7128 23.227 69.6365 23.227ZM83.837 23.227C84.9879 23.227 85.9533 23.0669 86.7332 22.7467C87.5131 22.4265 88.1037 21.9852 88.505 21.4228C88.9063 20.8605 89.1069 20.2279 89.1069 19.525C89.1069 18.947 88.982 18.4198 88.7321 17.9434C88.4822 17.467 88.0582 17.0452 87.4601 16.6781C86.8619 16.3111 86.0555 16.0338 85.0409 15.8464C84.1474 15.6589 83.4811 15.4793 83.042 15.3074C82.6028 15.1356 82.3113 14.9521 82.1675 14.7568C82.0236 14.5616 81.9517 14.3312 81.9517 14.0656C81.9517 13.6751 82.1031 13.351 82.406 13.0932C82.7088 12.8355 83.148 12.7066 83.7234 12.7066C84.1777 12.7066 84.545 12.7691 84.8251 12.8941C85.1053 13.0191 85.3438 13.1714 85.5406 13.351C85.7375 13.5306 85.9192 13.6985 86.0858 13.8547C86.1464 13.9016 86.207 13.9407 86.2675 13.9719C86.3281 14.0031 86.3962 14.0188 86.472 14.0188H88.1529C88.2892 14.0188 88.4103 13.968 88.5163 13.8665C88.6223 13.7649 88.6678 13.6282 88.6526 13.4564C88.6375 13.2221 88.5239 12.9449 88.3119 12.6246C88.0999 12.3044 87.7932 11.9881 87.3919 11.6757C86.9906 11.3633 86.4871 11.1016 85.8814 10.8908C85.2756 10.6799 84.5639 10.5745 83.7462 10.5745C82.7013 10.5745 81.8267 10.7541 81.1226 11.1134C80.4184 11.4726 79.8884 11.9295 79.5325 12.4841C79.1766 13.0386 78.9987 13.6204 78.9987 14.2296C78.9987 14.8545 79.135 15.4012 79.4076 15.8698C79.6802 16.3384 80.0966 16.7289 80.6569 17.0413C81.2172 17.3537 81.9214 17.6115 82.7694 17.8145C83.6326 18.002 84.2989 18.1777 84.7683 18.3417C85.2378 18.5057 85.5596 18.6893 85.7337 18.8923C85.9079 19.0954 85.9949 19.361 85.9949 19.689C85.9949 20.142 85.7943 20.4895 85.393 20.7316C84.9917 20.9738 84.4957 21.0948 83.9052 21.0948C83.4509 21.0948 83.0723 21.0284 82.7694 20.8957C82.4665 20.7629 82.2053 20.6028 81.9857 20.4153C81.7662 20.2279 81.5579 20.0482 81.3611 19.8764C81.2854 19.7983 81.2248 19.7515 81.1793 19.7358C81.1339 19.7202 81.0809 19.7124 81.0203 19.7124H79.2258C79.0896 19.7124 78.9646 19.7632 78.8511 19.8647C78.7375 19.9662 78.6883 20.1029 78.7034 20.2747C78.7185 20.4934 78.8246 20.7668 79.0214 21.0948C79.2183 21.4228 79.5211 21.7509 79.93 22.0789C80.3389 22.4069 80.8651 22.6803 81.5087 22.899C82.1523 23.1177 82.9284 23.227 83.837 23.227ZM94.8723 23.227C95.5235 23.227 96.0875 23.145 96.5646 22.981C97.0416 22.817 97.4467 22.6022 97.7798 22.3366C98.113 22.0711 98.378 21.7977 98.5748 21.5166V22.4304C98.5748 22.5866 98.6241 22.7193 98.7225 22.8287C98.8209 22.938 98.9534 22.9927 99.12 22.9927H100.96C101.111 22.9927 101.24 22.938 101.346 22.8287C101.452 22.7193 101.505 22.5866 101.505 22.4304V15.0731C101.505 14.4639 101.414 13.886 101.233 13.3393C101.051 12.7926 100.763 12.3161 100.369 11.91C99.9756 11.5039 99.4494 11.1797 98.7906 10.9376C98.1319 10.6955 97.3255 10.5745 96.3715 10.5745C95.4932 10.5745 94.7436 10.6916 94.1227 10.9259C93.5018 11.1602 92.9983 11.4453 92.6121 11.7811C92.226 12.117 91.9383 12.4645 91.749 12.8238C91.5597 13.1831 91.4574 13.4877 91.4423 13.7376C91.4423 13.8938 91.4839 14.0188 91.5672 14.1125C91.6505 14.2062 91.7755 14.2531 91.942 14.2531H93.7365C93.9637 14.2531 94.1378 14.1515 94.259 13.9485C94.4255 13.5736 94.6792 13.2729 95.0199 13.0464C95.3607 12.8199 95.8036 12.7066 96.3488 12.7066C97.1211 12.7066 97.6662 12.8863 97.9843 13.2455C98.3023 13.6048 98.4613 14.1125 98.4613 14.7685V15.2606L95.3493 15.7292C93.9561 15.9479 92.8279 16.3814 91.9647 17.0296C91.1016 17.6778 90.67 18.5487 90.67 19.6421C90.67 20.3138 90.8555 20.9191 91.2265 21.458C91.5975 21.9969 92.101 22.4265 92.7371 22.7467C93.3731 23.0669 94.0848 23.227 94.8723 23.227ZM95.6446 21.0011C95.2963 21.0011 94.9631 20.9425 94.6451 20.8254C94.3271 20.7082 94.0659 20.5286 93.8615 20.2865C93.657 20.0443 93.5548 19.7515 93.5548 19.4078C93.5548 18.9548 93.7744 18.5721 94.2135 18.2597C94.6527 17.9473 95.319 17.7208 96.2125 17.5802L98.484 17.2053V17.6974C98.484 18.4472 98.3591 19.0681 98.1092 19.5601C97.8593 20.0522 97.5186 20.4153 97.087 20.6496C96.6554 20.8839 96.1746 21.0011 95.6446 21.0011ZM106.864 22.9927C107.016 22.9927 107.145 22.938 107.251 22.8287C107.357 22.7193 107.41 22.5866 107.41 22.4304V6.91927C107.41 6.76306 107.357 6.63029 107.251 6.52095C107.145 6.4116 107.016 6.35693 106.864 6.35693H104.979C104.828 6.35693 104.699 6.4116 104.593 6.52095C104.487 6.63029 104.434 6.76306 104.434 6.91927V22.4304C104.434 22.5866 104.487 22.7193 104.593 22.8287C104.699 22.938 104.828 22.9927 104.979 22.9927H106.864ZM113.243 22.9927C113.41 22.9927 113.546 22.938 113.652 22.8287C113.758 22.7193 113.811 22.5866 113.811 22.4304V16.6196H120.648C120.815 16.6196 120.951 16.5649 121.057 16.4555C121.163 16.3462 121.216 16.2134 121.216 16.0572V14.4171C121.216 14.2453 121.163 14.1047 121.057 13.9953C120.951 13.886 120.815 13.8313 120.648 13.8313H113.811V9.37949H121.103C121.269 9.37949 121.405 9.32872 121.511 9.22719C121.617 9.12566 121.67 8.98898 121.67 8.81715V7.17701C121.67 7.00518 121.617 6.8646 121.511 6.75525C121.405 6.64591 121.269 6.59124 121.103 6.59124H111.244C111.093 6.59124 110.964 6.64591 110.858 6.75525C110.752 6.8646 110.699 7.00518 110.699 7.17701V22.4304C110.699 22.5866 110.752 22.7193 110.858 22.8287C110.964 22.938 111.093 22.9927 111.244 22.9927H113.243ZM128.459 23.227C129.368 23.227 130.125 23.0708 130.731 22.7584C131.337 22.446 131.844 22.0164 132.253 21.4697V22.4304C132.253 22.5866 132.302 22.7193 132.4 22.8287C132.499 22.938 132.631 22.9927 132.798 22.9927H134.638C134.789 22.9927 134.918 22.938 135.024 22.8287C135.13 22.7193 135.183 22.5866 135.183 22.4304V11.3711C135.183 11.2149 135.13 11.0821 135.024 10.9728C134.918 10.8634 134.789 10.8088 134.638 10.8088H132.639C132.488 10.8088 132.359 10.8634 132.253 10.9728C132.147 11.0821 132.094 11.2149 132.094 11.3711V17.8145C132.094 18.7205 131.863 19.4312 131.401 19.9467C130.939 20.4622 130.314 20.7199 129.527 20.7199C127.876 20.7199 127.051 19.7515 127.051 17.8145V11.3711C127.051 11.2149 127.002 11.0821 126.903 10.9728C126.805 10.8634 126.672 10.8088 126.506 10.8088H124.507C124.356 10.8088 124.227 10.8634 124.121 10.9728C124.015 11.0821 123.962 11.2149 123.962 11.3711V17.9551C123.962 19.0329 124.144 19.9662 124.507 20.7551C124.87 21.5439 125.389 22.1531 126.063 22.5827C126.737 23.0122 127.536 23.227 128.459 23.227ZM140.729 22.9927C140.881 22.9927 141.009 22.938 141.115 22.8287C141.221 22.7193 141.274 22.5866 141.274 22.4304V15.9869C141.274 15.0809 141.509 14.3702 141.978 13.8547C142.448 13.3393 143.076 13.0815 143.864 13.0815C144.681 13.0815 145.306 13.3393 145.738 13.8547C146.169 14.3702 146.385 15.0809 146.385 15.9869V22.4304C146.385 22.5866 146.438 22.7193 146.544 22.8287C146.65 22.938 146.779 22.9927 146.93 22.9927H148.929C149.081 22.9927 149.209 22.938 149.315 22.8287C149.421 22.7193 149.474 22.5866 149.474 22.4304V15.8464C149.474 14.7529 149.289 13.8157 148.918 13.0347C148.547 12.2536 148.021 11.6484 147.339 11.2188C146.658 10.7892 145.855 10.5745 144.931 10.5745C144.023 10.5745 143.262 10.7424 142.648 11.0782C142.035 11.4141 141.532 11.8319 141.138 12.3318V11.3711C141.138 11.2149 141.085 11.0821 140.979 10.9728C140.873 10.8634 140.744 10.8088 140.593 10.8088H138.73C138.579 10.8088 138.45 10.8634 138.344 10.9728C138.238 11.0821 138.185 11.2149 138.185 11.3711V22.4304C138.185 22.5866 138.238 22.7193 138.344 22.8287C138.45 22.938 138.579 22.9927 138.73 22.9927H140.729ZM154.906 22.9927C155.058 22.9927 155.186 22.938 155.292 22.8287C155.398 22.7193 155.451 22.5866 155.451 22.4304V15.9869C155.451 15.0809 155.686 14.3702 156.155 13.8547C156.625 13.3393 157.253 13.0815 158.041 13.0815C158.859 13.0815 159.483 13.3393 159.915 13.8547C160.346 14.3702 160.562 15.0809 160.562 15.9869V22.4304C160.562 22.5866 160.615 22.7193 160.721 22.8287C160.827 22.938 160.956 22.9927 161.107 22.9927H163.106C163.258 22.9927 163.386 22.938 163.492 22.8287C163.598 22.7193 163.651 22.5866 163.651 22.4304V15.8464C163.651 14.7529 163.466 13.8157 163.095 13.0347C162.724 12.2536 162.198 11.6484 161.516 11.2188C160.835 10.7892 160.032 10.5745 159.108 10.5745C158.2 10.5745 157.439 10.7424 156.826 11.0782C156.212 11.4141 155.709 11.8319 155.315 12.3318V11.3711C155.315 11.2149 155.262 11.0821 155.156 10.9728C155.05 10.8634 154.921 10.8088 154.77 10.8088H152.907C152.756 10.8088 152.627 10.8634 152.521 10.9728C152.415 11.0821 152.362 11.2149 152.362 11.3711V22.4304C152.362 22.5866 152.415 22.7193 152.521 22.8287C152.627 22.938 152.756 22.9927 152.907 22.9927H154.906ZM171.627 23.227C172.475 23.227 173.229 23.1138 173.887 22.8873C174.546 22.6608 175.095 22.3757 175.534 22.032C175.973 21.6884 176.31 21.3369 176.545 20.9777C176.78 20.6184 176.905 20.3138 176.92 20.0639C176.935 19.9233 176.893 19.8061 176.795 19.7124C176.697 19.6187 176.572 19.5718 176.42 19.5718H174.467C174.3 19.5718 174.175 19.5914 174.092 19.6304C174.009 19.6695 173.899 19.7827 173.762 19.9701C173.687 20.0795 173.558 20.2201 173.376 20.3919C173.195 20.5637 172.96 20.716 172.672 20.8488C172.384 20.9816 172.029 21.048 171.605 21.048C171.09 21.048 170.647 20.9074 170.276 20.6262C169.905 20.345 169.625 19.9741 169.435 19.5132C169.246 19.0524 169.144 18.5487 169.129 18.002V17.8145H176.67C176.837 17.8145 176.973 17.7599 177.079 17.6505C177.185 17.5412 177.238 17.4084 177.238 17.2522V16.7601C177.238 15.5418 177.026 14.4678 176.602 13.5384C176.178 12.609 175.549 11.8827 174.717 11.3594C173.884 10.8361 172.854 10.5745 171.627 10.5745C170.522 10.5745 169.56 10.8049 168.742 11.2657C167.925 11.7265 167.285 12.3825 166.823 13.2338C166.361 14.0851 166.1 15.1044 166.039 16.2915C166.024 16.4321 166.017 16.6235 166.017 16.8656C166.017 17.1077 166.024 17.3069 166.039 17.4631C166.115 19.3063 166.645 20.7277 167.629 21.7274C168.614 22.7272 169.946 23.227 171.627 23.227ZM174.149 15.8464H169.129V15.7761C169.129 15.1669 169.223 14.6319 169.413 14.1711C169.602 13.7103 169.886 13.351 170.264 13.0932C170.643 12.8355 171.097 12.7066 171.627 12.7066C172.157 12.7066 172.612 12.8355 172.99 13.0932C173.369 13.351 173.656 13.7103 173.853 14.1711C174.05 14.6319 174.149 15.1669 174.149 15.7761V15.8464ZM182.105 22.9927C182.257 22.9927 182.385 22.938 182.491 22.8287C182.597 22.7193 182.65 22.5866 182.65 22.4304V6.91927C182.65 6.76306 182.597 6.63029 182.491 6.52095C182.385 6.4116 182.257 6.35693 182.105 6.35693H180.22C180.069 6.35693 179.94 6.4116 179.834 6.52095C179.728 6.63029 179.675 6.76306 179.675 6.91927V22.4304C179.675 22.5866 179.728 22.7193 179.834 22.8287C179.94 22.938 180.069 22.9927 180.22 22.9927H182.105Z" fill="url(#paint1_linear_1_110)"/>
<defs>
<linearGradient id="paint0_linear_1_110" x1="24.7374" y1="3.30044" x2="8.02019" y2="42.8708" gradientUnits="userSpaceOnUse">
<stop stop-color="#32C5FF"/>
<stop offset="0.512584" stop-color="#B620E0"/>
<stop offset="1" stop-color="#F7B500"/>
</linearGradient>
<linearGradient id="paint1_linear_1_110" x1="-143.842" y1="15.0331" x2="176.686" y2="-8.2188" gradientUnits="userSpaceOnUse">
<stop stop-color="#B620E0"/>
<stop offset="1" stop-color="#32C5FF"/>
</linearGradient>
</defs>
</svg>
