<svg width="399" height="318" viewBox="0 0 399 318" fill="none" xmlns="http://www.w3.org/2000/svg">
<g clip-path="url(#clip0_1_130)">
<path d="M350.488 308.582L342.193 308.582L338.247 276.573L350.489 276.574L350.488 308.582Z" fill="#FFB7B7"/>
<path d="M350.779 317.239L325.272 317.238V316.916C325.273 311.43 329.717 306.983 335.2 306.983H335.201L339.86 303.447L348.553 306.984L350.78 306.984L350.779 317.239Z" fill="#444359"/>
<path d="M313.714 308.582L305.42 308.582L301.474 276.573L313.716 276.574L313.714 308.582Z" fill="#FFB7B7"/>
<path d="M314.006 317.239L288.499 317.238V316.916C288.499 311.43 292.944 306.983 298.427 306.983H298.428L303.087 303.447L311.78 306.984L314.007 306.984L314.006 317.239Z" fill="#444359"/>
<path d="M309.762 129.948L357.617 130.956C357.617 130.956 366.221 145.067 359.652 164.974L360.388 170.518L357.365 179.086L355.854 205.292L357.365 209.324L356.358 216.884C356.358 216.884 360.388 266.777 350.313 291.976L338.223 291.472L333.69 225.727L336.208 220.916L335.705 218.9L329.66 188.661L323.615 204.284V212.965L318.074 219.404C318.074 219.404 320.089 278.873 314.547 290.968H301.012L295.909 210.332L300.946 163.462L299.939 160.439L301.45 158.927L300.443 153.887L309.762 129.948L309.762 129.948Z" fill="#444359"/>
<path d="M330.163 37.9725L344.772 34.4447L348.802 44.0202C348.802 44.0202 369.652 55.1077 370.659 70.227C370.659 70.227 373.485 82.3224 370.966 87.8661C368.448 93.4098 357.869 111.049 357.869 111.049C357.869 111.049 367.44 141.792 364.921 143.303C362.403 144.815 302.457 141.792 302.457 138.768C302.457 135.744 312.434 103.993 312.434 103.993L314.547 49.564L328.148 44.5242L330.163 37.9725L330.163 37.9725V37.9725Z" fill="#0F3267"/>
<path d="M369.109 162.034C366.051 160.492 364.821 156.763 366.362 153.704C366.517 153.396 366.7 153.112 366.896 152.842L358.767 97.0839L370.021 97.444L375.908 151.772C378.042 153.582 378.749 156.676 377.435 159.286C375.894 162.345 372.166 163.575 369.109 162.034H369.109Z" fill="#FFB7B7"/>
<path d="M262.325 135.718C261.094 132.521 262.686 128.932 265.881 127.7C266.203 127.576 266.529 127.488 266.855 127.42L298.258 80.6432L306.355 88.4709L274.252 132.682C274.617 135.457 273.065 138.224 270.339 139.275C267.144 140.507 263.557 138.914 262.325 135.718V135.718Z" fill="#FFB7B7"/>
<path d="M348.602 83.02C345.422 72.091 350.703 60.9407 362.08 60.9946C365.369 61.0101 367.924 61.9648 368.632 64.6074C371.11 73.8564 372.461 87.8178 372.461 87.8178L375.401 102.682L373.62 105.769L377.333 115.73L375.532 120.443L375.143 144.51L366.075 144.006L356.085 125.659L352.265 123.386C352.265 123.386 355.332 93.722 349.23 85.181L348.602 83.0201H348.602V83.02Z" fill="#0F3267"/>
<path d="M307.987 56.1235C313.289 46.0524 326.863 43.6669 335.009 51.6133C337.363 53.9101 338.538 56.3725 337.212 58.7653C332.572 67.1404 321.817 76.1578 321.817 76.1578L308.572 97.4605L305.148 98.4429L300.901 108.188L291.8 118.894L279.745 125.254L272.692 118.199L274.19 109.129L292.338 84.9361C292.338 84.9361 305.396 68.4989 306.939 58.1148L307.987 56.1235V56.1235V56.1235Z" fill="#0F3267"/>
<path d="M332.939 35.027C333.273 35.0671 333.605 35.0972 333.936 35.1123C334.966 35.1688 335.983 35.1101 336.963 34.9438C339.941 34.4662 342.647 33.0549 344.735 30.9852C346.942 28.8013 348.453 25.8864 348.861 22.568C349.818 14.7351 344.243 7.59994 336.414 6.64286C328.697 5.69395 321.662 11.0938 320.539 18.7469C320.522 18.8654 320.504 18.9789 320.491 19.0968C319.535 26.9347 325.104 34.0654 332.939 35.027V35.027V35.027Z" fill="#FFB7B7"/>
<path d="M317.32 18.2226C319.348 19.226 322.662 16.0715 323.931 17.8864C324.137 17.4942 324.365 17.1149 324.59 16.7562C324.793 16.4352 325.085 15.75 325.422 15.6326C324.995 16.6619 325.089 18.0558 325.532 19.25C327.532 19.9979 330.151 18.3425 332.003 16.3844C334.91 13.3142 339.658 21.1872 338.535 25.2616C339.964 23.5163 343.064 24.5007 344.114 26.4963C345.164 28.4869 343.39 30.0819 343.011 32.3023L345.875 31.9384C347.681 30.1777 347.555 27.2108 349.043 25.1702C351.528 21.7551 352.491 18.2705 350.623 14.746C348.966 11.6296 348.811 7.59625 345.77 5.79954C347.099 5.14973 342.375 6.16489 343.637 4.04723C344.904 1.93401 338.148 1.67752 337.707 2.80967C335.777 0.498152 333.83 -1.02588 331.455 0.826307C329.123 2.64856 329.364 4.56396 326.625 4.39231C325.34 4.31263 325.481 6.71021 324.717 7.75551C323.957 8.79522 321.004 9.46268 320.86 9.35141C320.08 8.74091 317.427 13.9381 317.427 13.9381C317.427 13.9381 315.275 17.2058 317.32 18.2226H317.32Z" fill="#444359"/>
<path d="M138.57 108.933C186.559 108.933 225.461 147.854 225.461 195.865C225.461 243.875 186.559 282.796 138.57 282.796C90.5817 282.796 24.1672 235.195 51.6792 195.865C79.1911 156.534 90.5817 108.933 138.57 108.933Z" fill="white"/>
<path d="M254.868 113.069C254.088 113.069 253.455 113.703 253.455 114.482V159.715C253.455 160.494 254.088 161.128 254.868 161.128C255.647 161.128 256.281 160.494 256.281 159.715V114.482C256.281 113.703 255.647 113.069 254.868 113.069Z" fill="#0F3267"/>
<path d="M17.5067 79.1441C16.7275 79.1441 16.0938 79.778 16.0938 80.5576V91.8658C16.0938 92.6453 16.7275 93.2793 17.5067 93.2793C18.2859 93.2793 18.9195 92.6453 18.9195 91.8658V80.5576C18.9195 79.778 18.2859 79.1441 17.5067 79.1441Z" fill="#0F3267"/>
<path d="M17.5067 113.069C16.7275 113.069 16.0938 113.703 16.0938 114.482V136.392C16.0938 137.171 16.7275 137.805 17.5067 137.805C18.2859 137.805 18.9195 137.171 18.9195 136.392V114.482C18.9195 113.703 18.2859 113.069 17.5067 113.069Z" fill="#0F3267"/>
<path d="M17.5067 144.166C16.7275 144.166 16.0938 144.8 16.0938 145.58V167.489C16.0938 168.269 16.7275 168.903 17.5067 168.903C18.2859 168.903 18.9195 168.269 18.9195 167.489V145.58C18.9195 144.8 18.2859 144.166 17.5067 144.166Z" fill="#0F3267"/>
<path d="M144.222 34.6183C143.443 34.6183 142.809 35.2522 142.809 36.0318V57.9413C142.809 58.7209 143.443 59.3549 144.222 59.3549C145.001 59.3549 145.635 58.7209 145.635 57.9413V36.0318C145.635 35.2522 145.001 34.6183 144.222 34.6183Z" fill="#0F3267"/>
<path d="M360.67 305.75C362.129 305.841 362.936 304.027 361.832 302.97L361.722 302.533C361.736 302.498 361.751 302.463 361.765 302.428C363.241 298.907 368.243 298.931 369.707 302.458C371.006 305.587 372.659 308.722 373.066 312.031C373.249 313.492 373.167 314.98 372.843 316.414C375.886 309.763 377.488 302.5 377.488 295.196C377.488 293.361 377.387 291.526 377.182 289.695C377.013 288.198 376.78 286.71 376.479 285.236C374.85 277.265 371.323 269.674 366.236 263.333C363.79 261.996 361.751 259.905 360.519 257.399C360.076 256.495 359.729 255.523 359.565 254.532C359.844 254.569 360.615 250.328 360.405 250.068C360.793 249.479 361.487 249.186 361.91 248.612C364.017 245.754 366.92 246.253 368.435 250.136C371.672 251.771 371.704 254.481 369.717 257.089C368.454 258.747 368.28 260.992 367.171 262.767C367.285 262.913 367.404 263.055 367.518 263.201C369.61 265.885 371.419 268.77 372.944 271.801C372.513 268.433 373.15 264.374 374.234 261.758C375.469 258.778 377.784 256.267 379.823 253.691C382.271 250.596 387.292 251.946 387.723 255.87C387.728 255.908 387.732 255.946 387.736 255.984C387.433 256.155 387.136 256.336 386.847 256.528C385.194 257.622 385.765 260.185 387.723 260.487L387.768 260.494C387.658 261.585 387.471 262.667 387.197 263.73C389.812 273.848 384.167 277.533 376.105 277.699C375.927 277.79 375.754 277.882 375.576 277.968C376.393 280.269 377.045 282.629 377.529 285.021C377.962 287.134 378.263 289.271 378.432 291.416C378.642 294.123 378.624 296.844 378.396 299.546L378.409 299.451C378.989 296.474 380.604 293.694 382.949 291.768C386.443 288.897 391.379 287.839 395.148 285.531C396.963 284.42 399.287 285.856 398.971 287.96L398.955 288.061C398.394 288.289 397.847 288.554 397.317 288.851C397.015 289.022 396.718 289.203 396.428 289.395C394.776 290.489 395.347 293.052 397.305 293.354L397.349 293.361C397.381 293.366 397.409 293.37 397.441 293.375C396.478 295.662 395.136 297.784 393.457 299.615C391.822 308.447 384.799 309.285 377.287 306.713H377.282C376.461 310.292 375.261 313.789 373.719 317.121H360.989C360.943 316.98 360.902 316.834 360.861 316.692C362.038 316.765 363.225 316.697 364.384 316.482C363.439 315.323 362.495 314.154 361.55 312.994C361.527 312.972 361.509 312.949 361.491 312.926C361.012 312.333 360.528 311.744 360.049 311.15L360.049 311.15C360.019 309.328 360.237 307.512 360.669 305.75L360.67 305.75L360.67 305.75H360.67Z" fill="#BFBFBF"/>
<path d="M0 317.159C0 317.625 0.37443 318 0.840696 318H398.06C398.526 318 398.901 317.625 398.901 317.159C398.901 316.692 398.526 316.318 398.06 316.318H0.840696C0.37443 316.318 0 316.692 0 317.159Z" fill="#B7B7B7"/>
<path d="M100.579 190.005H51.6792V188.591H100.579C104.827 188.591 108.283 185.133 108.283 180.883V147.805H109.696V180.883C109.696 185.913 105.606 190.005 100.579 190.005H100.579Z" fill="#0F3267"/>
<path d="M193.884 261.709H82.666V263.123H193.884V261.709Z" fill="#0F3267"/>
<path d="M264.448 180.553H205.043C201.837 180.553 199.229 177.944 199.229 174.736V116.029C199.229 112.821 201.837 110.212 205.043 110.212H264.448C267.654 110.212 270.262 112.821 270.262 116.029V174.736C270.262 177.944 267.654 180.553 264.448 180.553Z" fill="white"/>
<path d="M216.106 111.945C207.741 111.945 200.961 118.729 200.961 127.097V173.491C200.961 176.434 203.346 178.82 206.288 178.82H242.612C256.926 178.82 268.529 167.211 268.529 152.891V117.274C268.529 114.331 266.145 111.945 263.203 111.945H216.106V111.945Z" fill="#ACACAC"/>
<path d="M250.656 129.006H218.71C218.101 129.006 217.605 128.51 217.605 127.9C217.605 127.29 218.101 126.794 218.71 126.794H250.656C251.265 126.794 251.761 127.29 251.761 127.9C251.761 128.51 251.265 129.006 250.656 129.006Z" fill="white"/>
<path d="M250.656 152.586H218.71C218.101 152.586 217.605 152.09 217.605 151.48C217.605 150.87 218.101 150.375 218.71 150.375H250.656C251.265 150.375 251.761 150.87 251.761 151.48C251.761 152.09 251.265 152.586 250.656 152.586Z" fill="white"/>
<path d="M263.628 140.804H205.738C205.129 140.804 204.633 140.308 204.633 139.698C204.633 139.088 205.129 138.592 205.738 138.592H263.628C264.237 138.592 264.733 139.088 264.733 139.698C264.733 140.308 264.237 140.804 263.628 140.804Z" fill="white"/>
<path d="M264.219 162.174H243.306C242.697 162.174 242.201 161.678 242.201 161.068C242.201 160.458 242.697 159.962 243.306 159.962H264.219C264.828 159.962 265.324 160.458 265.324 161.068C265.324 161.678 264.828 162.174 264.219 162.174Z" fill="white"/>
<path d="M139.67 297.525H92.4979C89.9522 297.525 87.8812 295.453 87.8812 292.906V246.288C87.8812 243.741 89.9522 241.669 92.4979 241.669H139.67C142.215 241.669 144.286 243.741 144.286 246.288V292.906C144.286 295.453 142.215 297.525 139.67 297.525H139.67Z" fill="white"/>
<path d="M101.283 243.046C94.6409 243.046 89.2567 248.432 89.2567 255.077V291.917C89.2567 294.254 91.1504 296.149 93.4864 296.149H122.331C133.697 296.149 142.911 286.931 142.911 275.559V247.277C142.911 244.94 141.017 243.046 138.681 243.046H101.283L101.283 243.046H101.283Z" fill="#ACACAC"/>
<path d="M128.718 256.593H103.351C102.867 256.593 102.473 256.199 102.473 255.715C102.473 255.231 102.867 254.837 103.351 254.837H128.718C129.202 254.837 129.595 255.231 129.595 255.715C129.595 256.199 129.202 256.593 128.718 256.593Z" fill="white"/>
<path d="M128.718 275.317H103.351C102.867 275.317 102.473 274.923 102.473 274.439C102.473 273.955 102.867 273.561 103.351 273.561H128.718C129.202 273.561 129.595 273.955 129.595 274.439C129.595 274.923 129.202 275.317 128.718 275.317Z" fill="white"/>
<path d="M139.019 265.961H93.05C92.5661 265.961 92.1723 265.567 92.1723 265.083C92.1723 264.599 92.5661 264.205 93.05 264.205H139.019C139.502 264.205 139.896 264.599 139.896 265.083C139.896 265.567 139.502 265.961 139.019 265.961Z" fill="white"/>
<path d="M139.488 282.93H122.882C122.398 282.93 122.004 282.536 122.004 282.052C122.004 281.568 122.398 281.174 122.882 281.174H139.488C139.972 281.174 140.365 281.568 140.365 282.052C140.365 282.536 139.972 282.93 139.488 282.93Z" fill="white"/>
<path d="M106.7 147.448H71.814C69.9314 147.448 68.3998 145.916 68.3998 144.032V109.557C68.3998 107.673 69.9314 106.141 71.814 106.141H106.7C108.582 106.141 110.114 107.673 110.114 109.557V144.032C110.114 145.916 108.582 147.448 106.7 147.448Z" fill="white"/>
<path d="M78.3108 107.158C73.3989 107.158 69.4171 111.142 69.4171 116.056V143.301C69.4171 145.029 70.8175 146.43 72.5451 146.43H93.8767C102.282 146.43 109.096 139.613 109.096 131.204V110.288C109.096 108.56 107.696 107.158 105.968 107.158H78.3108V107.158L78.3108 107.158Z" fill="#ACACAC"/>
<path d="M98.6001 117.177H79.8403C79.4824 117.177 79.1912 116.886 79.1912 116.528C79.1912 116.17 79.4824 115.879 79.8403 115.879H98.6001C98.958 115.879 99.2491 116.17 99.2491 116.528C99.2491 116.886 98.958 117.177 98.6001 117.177Z" fill="white"/>
<path d="M98.6001 131.025H79.8403C79.4824 131.025 79.1912 130.733 79.1912 130.375C79.1912 130.017 79.4824 129.726 79.8403 129.726H98.6001C98.958 129.726 99.2491 130.017 99.2491 130.375C99.2491 130.733 98.958 131.025 98.6001 131.025Z" fill="white"/>
<path d="M106.218 124.106H72.2224C71.8645 124.106 71.5732 123.814 71.5732 123.456C71.5732 123.098 71.8645 122.807 72.2224 122.807H106.218C106.576 122.807 106.867 123.098 106.867 123.456C106.867 123.814 106.576 124.106 106.218 124.106Z" fill="white"/>
<path d="M106.565 136.655H94.2841C93.9262 136.655 93.6349 136.364 93.6349 136.006C93.6349 135.647 93.9262 135.356 94.2841 135.356H106.565C106.923 135.356 107.214 135.647 107.214 136.006C107.214 136.364 106.923 136.655 106.565 136.655Z" fill="white"/>
<path d="M208.507 190.917C212.409 190.917 215.571 187.753 215.571 183.85C215.571 179.946 212.409 176.782 208.507 176.782C204.606 176.782 201.443 179.946 201.443 183.85C201.443 187.753 204.606 190.917 208.507 190.917Z" fill="#0F3267"/>
<path d="M108.9 154.873C112.802 154.873 115.965 151.708 115.965 147.805C115.965 143.902 112.802 140.737 108.9 140.737C104.999 140.737 101.836 143.902 101.836 147.805C101.836 151.708 104.999 154.873 108.9 154.873Z" fill="#0F3267"/>
<path d="M142.809 251.699C146.71 251.699 149.873 248.534 149.873 244.631C149.873 240.728 146.71 237.563 142.809 237.563C138.907 237.563 135.745 240.728 135.745 244.631C135.745 248.534 138.907 251.699 142.809 251.699Z" fill="#0F3267"/>
<path d="M158.069 55.73C162.931 55.73 166.873 51.8694 166.873 47.107C166.873 42.3447 162.931 38.4841 158.069 38.4841C153.206 38.4841 149.264 42.3447 149.264 47.107C149.264 51.8694 153.206 55.73 158.069 55.73Z" fill="#BFBFBF"/>
<path d="M228.65 44.1571H181.259C179.633 44.1571 178.311 42.8337 178.311 41.2071C178.311 39.5806 179.633 38.2572 181.259 38.2572H228.65C230.276 38.2572 231.599 39.5806 231.599 41.2071C231.599 42.8337 230.276 44.1571 228.65 44.1571Z" fill="#BFBFBF"/>
<path d="M265.634 54.1415H181.259C179.633 54.1415 178.311 52.8181 178.311 51.1916C178.311 49.565 179.633 48.2416 181.259 48.2416H265.634C267.26 48.2416 268.583 49.565 268.583 51.1916C268.583 52.8181 267.26 54.1415 265.634 54.1415Z" fill="#BFBFBF"/>
<path d="M30.6302 91.9709C33.7772 91.9709 36.3284 89.4723 36.3284 86.3902C36.3284 83.3081 33.7772 80.8096 30.6302 80.8096C27.4833 80.8096 24.9321 83.3081 24.9321 86.3902C24.9321 89.4723 27.4833 91.9709 30.6302 91.9709Z" fill="#BFBFBF"/>
<path d="M76.3097 84.4811H45.6389C44.5867 84.4811 43.7307 83.6246 43.7307 82.5719C43.7307 81.5192 44.5867 80.6627 45.6389 80.6627H76.3097C77.3619 80.6627 78.218 81.5192 78.218 82.5719C78.218 83.6246 77.3619 84.4811 76.3097 84.4811H76.3097Z" fill="#BFBFBF"/>
<path d="M100.245 90.9429H45.6389C44.5867 90.9429 43.7307 90.0864 43.7307 89.0337C43.7307 87.981 44.5867 87.1245 45.6389 87.1245H100.245C101.297 87.1245 102.153 87.981 102.153 89.0337C102.153 90.0864 101.297 90.9429 100.245 90.9429Z" fill="#BFBFBF"/>
<path d="M201.587 290.57C204.734 290.57 207.285 288.072 207.285 284.99C207.285 281.908 204.734 279.409 201.587 279.409C198.44 279.409 195.889 281.908 195.889 284.99C195.889 288.072 198.44 290.57 201.587 290.57Z" fill="#BFBFBF"/>
<path d="M247.266 283.081H216.595C215.543 283.081 214.687 282.224 214.687 281.171C214.687 280.119 215.543 279.262 216.595 279.262H247.266C248.318 279.262 249.174 280.119 249.174 281.171C249.174 282.224 248.318 283.081 247.266 283.081Z" fill="#BFBFBF"/>
<path d="M271.202 289.542H216.596C215.543 289.542 214.687 288.686 214.687 287.633C214.687 286.58 215.543 285.724 216.596 285.724H271.202C272.254 285.724 273.11 286.58 273.11 287.633C273.11 288.686 272.254 289.542 271.202 289.542Z" fill="#BFBFBF"/>
<path d="M133.095 110.234H131.682V177.376H133.095V110.234Z" fill="#969696"/>
<path d="M132.389 181.616C134.73 181.616 136.628 179.718 136.628 177.376C136.628 175.034 134.73 173.135 132.389 173.135C130.048 173.135 128.15 175.034 128.15 177.376C128.15 179.718 130.048 181.616 132.389 181.616Z" fill="#969696"/>
<path d="M196.674 230.383C199.015 230.383 200.913 228.484 200.913 226.142C200.913 223.8 199.015 221.902 196.674 221.902C194.333 221.902 192.436 223.8 192.436 226.142C192.436 228.484 194.333 230.383 196.674 230.383Z" fill="#969696"/>
<path d="M82.2323 172.428C84.5732 172.428 86.4709 170.53 86.4709 168.188C86.4709 165.846 84.5732 163.947 82.2323 163.947C79.8914 163.947 77.9937 165.846 77.9937 168.188C77.9937 170.53 79.8914 172.428 82.2323 172.428Z" fill="#969696"/>
<path d="M80.6659 168.194L57.4858 168.896L57.5286 170.31L80.7087 169.608L80.6659 168.194Z" fill="#969696"/>
<path d="M231.156 242.376H196.007V226.142H197.42V240.963H231.156V242.376Z" fill="#969696"/>
<path d="M80.4925 218.732C82.8334 218.732 84.7311 216.833 84.7311 214.491C84.7311 212.149 82.8334 210.251 80.4925 210.251C78.1516 210.251 76.2539 212.149 76.2539 214.491C76.2539 216.833 78.1516 218.732 80.4925 218.732Z" fill="#969696"/>
<path d="M114.556 230.725H79.4066V214.491H80.8194V229.312H114.556V230.725Z" fill="#969696"/>
<path d="M222.106 198.356H53.281V199.769H222.106V198.356Z" fill="#969696"/>
</g>
<defs>
<clipPath id="clip0_1_130">
<rect width="399" height="318" fill="white"/>
</clipPath>
</defs>
</svg>
