<svg width="87" height="40" viewBox="0 0 87 40" fill="none" xmlns="http://www.w3.org/2000/svg">
<g clip-path="url(#clip0_1_685)">
<path d="M43.5491 40.0242C29.09 40.0242 14.6308 40.0242 0.159439 40.0242C0.0490639 40.0242 0.0245361 39.9999 0.0245361 39.8908C0.0245361 26.6423 0.0245361 13.3939 0.0245361 0.157503C0.0245361 0.0484123 0.0490639 0.0241699 0.159439 0.0241699C29.0777 0.0241699 58.0082 0.0241699 86.9265 0.0241699C87.0368 0.0241699 87.0614 0.0484123 87.0614 0.157503C87.0614 13.406 87.0614 26.6545 87.0614 39.8908C87.0614 39.9999 87.0368 40.0242 86.9265 40.0242C72.4673 40.0242 58.0082 40.0242 43.5491 40.0242ZM34.1059 25.0666C34.1181 25.0787 34.1181 25.0787 34.1304 25.0908C34.1059 25.1636 34.0814 25.2242 34.0691 25.2969C33.9587 25.7333 34.0691 26.206 34.67 26.2908C35.1361 26.3636 35.5408 26.2302 35.737 25.7454C36.1049 24.8726 36.4973 24.012 36.8898 23.1393C37.1841 22.4605 37.4907 21.7939 37.7851 21.1151C37.8341 21.1514 37.8464 21.1999 37.8586 21.2484C38.3615 22.5817 38.9992 23.8545 39.7718 25.0545C40.3359 25.9272 40.9491 26.7393 41.7586 27.406C42.2614 27.8181 42.8132 28.1454 43.4878 28.206C44.2972 28.2787 44.8736 27.903 44.984 27.103C45.033 26.7393 44.8368 26.4363 44.4934 26.3878C44.334 26.3636 44.1745 26.3514 44.0274 26.3999C43.5613 26.5575 43.1812 26.412 42.8132 26.1333C42.3717 25.806 42.0161 25.406 41.6972 24.9696C40.802 23.7575 40.1397 22.4363 39.5756 21.0545C39.5388 20.9575 39.5756 20.9454 39.6492 20.909C41.3538 20.0848 42.8868 19.0423 44.2113 17.6969C44.4811 17.4181 44.7509 17.1514 44.8613 16.7636C44.9717 16.3999 44.8613 16.1333 44.5302 15.9514C44.0519 15.6848 43.5123 15.806 43.1444 16.2545C42.9481 16.4969 42.7397 16.7393 42.5189 16.9575C41.5255 17.9272 40.3973 18.7151 39.1586 19.3333C38.9624 19.4302 38.7662 19.5393 38.5331 19.5999C38.5577 19.5393 38.5822 19.4908 38.5945 19.4423C39.3916 17.709 40.1765 15.9636 40.9737 14.2302C42.2614 11.3939 43.5613 8.5575 44.8491 5.73326C45.1066 5.16356 45.3764 4.59387 45.6217 4.02417C45.8056 3.58781 45.5849 3.15144 45.1311 3.01811C44.9472 2.96962 44.7632 2.96962 44.5792 2.99387C44.2236 3.04235 43.9415 3.19993 43.7944 3.53932C43.0585 5.16356 42.3104 6.78781 41.5746 8.41205C39.8822 12.109 38.1898 15.8181 36.4973 19.5151C36.1049 20.3636 35.7492 21.2363 35.2219 22.012C34.7927 22.6666 34.3144 23.2726 33.6766 23.7575C32.9899 24.2787 32.2172 24.5696 31.3465 24.6423C30.439 24.7272 29.6786 24.4484 29.1022 23.7575C28.5503 23.0908 28.4154 22.3151 28.5258 21.4787C28.6485 20.5696 29.0286 19.7696 29.6909 19.1272C30.0465 18.7878 30.439 18.5211 30.9295 18.4242C31.3465 18.3393 31.6163 18.4605 31.7144 18.7999C31.739 18.8848 31.7512 18.9817 31.7635 19.0666C31.788 19.3211 31.6776 19.5514 31.5918 19.7817C31.4078 20.303 31.6776 20.7393 32.021 20.9454C32.5361 21.2605 33.2106 21.0666 33.3701 20.5454C33.5295 19.9999 33.5785 19.4423 33.4682 18.8848C33.1125 17.2605 31.6286 16.5333 30.1692 16.8605C29.2126 17.0787 28.4768 17.612 27.8758 18.3636C26.8702 19.6242 26.4164 21.0423 26.6372 22.6666C26.7476 23.5151 27.1032 24.2545 27.7041 24.8726C28.5994 25.7817 29.7277 26.1696 30.9786 26.1939C32.1559 26.1939 33.1984 25.8181 34.1059 25.0666ZM50.0735 24.3514C50.0857 24.3636 50.0857 24.3636 50.098 24.3636C50.1225 24.412 50.1348 24.4605 50.1593 24.509C50.6621 25.4787 51.4593 26.012 52.5753 26.0363C53.4583 26.0484 54.2555 25.7575 54.979 25.2969C56.1809 24.5211 57.0394 23.4666 57.6035 22.1696C57.6893 21.9757 57.7752 21.7817 57.8733 21.5636C58.3393 22.0969 58.9157 22.4242 59.578 22.5817C59.6884 22.606 59.7006 22.6545 59.7006 22.7393C59.6884 23.006 59.7129 23.2726 59.7497 23.5393C59.8968 24.3757 60.3016 25.0423 61.0251 25.503C61.9817 26.0969 63.0241 26.1696 64.1034 25.9878C64.9741 25.8423 65.7835 25.5151 66.5684 25.1151C67.2674 24.7636 67.3655 24.1211 67.1816 23.503C67.0957 23.1999 66.7892 23.0787 66.4948 23.212C66.409 23.2484 66.3231 23.2848 66.2618 23.3575C65.9675 23.6242 65.6241 23.7939 65.2684 23.9636C64.5081 24.3151 63.7109 24.5817 62.8402 24.4969C62.5091 24.4605 62.1902 24.3878 61.9081 24.1817C61.4544 23.8423 61.344 23.3333 61.3072 22.812C61.3072 22.7272 61.3562 22.7272 61.4053 22.7272C62.0308 22.6908 62.644 22.5817 63.2571 22.4363C64.3609 22.1696 65.4156 21.7939 66.3599 21.1636C67.2797 20.5333 67.9297 19.7333 68.0646 18.5939C68.1504 17.8423 67.8438 17.0666 67.108 16.6787C66.5439 16.3757 65.9307 16.3393 65.3298 16.4605C63.9439 16.7272 62.7543 17.3817 61.761 18.3636C61.0006 19.1151 60.4365 19.9878 60.0563 20.9939C60.0317 21.0787 59.995 21.103 59.9091 21.0787C59.7742 21.0302 59.6516 20.9696 59.5289 20.8969C58.8789 20.4726 58.7195 19.309 58.8421 18.7999C58.9035 18.5333 59.0016 18.2666 59.0506 17.9878C59.1242 17.5272 58.928 17.0666 58.5601 16.8727C58.1676 16.6666 57.5667 16.7393 57.2478 17.0302C57.0516 17.212 56.9658 17.4423 56.9535 17.6969C56.9412 17.9151 56.9903 18.1454 56.9412 18.3636C56.696 19.4423 56.3771 20.4848 55.862 21.4666C55.2856 22.5939 54.4762 23.5151 53.3479 24.1333C52.9923 24.3272 52.6121 24.4848 52.1829 24.4605C52.0112 24.4484 51.8885 24.3878 51.8395 24.2181C51.8149 24.1454 51.7904 24.0726 51.7781 23.9999C51.6923 23.5757 51.7168 23.1514 51.7781 22.7272C51.864 22.1333 52.0234 21.5514 52.3055 21.0181C52.6244 20.3999 52.9555 19.7939 53.2376 19.1636C53.446 18.703 53.6791 18.2545 53.7772 17.7575C53.863 17.2969 53.6423 16.9333 53.1762 16.812C53.0045 16.7636 52.8328 16.7514 52.6734 16.7636C52.3668 16.7878 52.1093 16.909 51.9744 17.1999C51.7046 17.7211 51.4593 18.2545 51.2017 18.7878C50.7725 19.6605 50.4046 20.5575 49.8895 21.3817C49.399 22.1575 48.8961 22.9211 48.1848 23.5151C47.7433 23.8908 47.2773 24.2181 46.6886 24.3393C46.4188 24.3999 46.3085 24.3272 46.2471 24.0726C46.1613 23.7211 46.1858 23.3696 46.2226 23.0181C46.3085 22.2545 46.566 21.5514 46.8849 20.8605C47.3386 19.8787 47.8292 18.9211 48.3197 17.9514C48.5037 17.5878 48.4056 17.1878 48.0622 16.9454C47.8782 16.812 47.6575 16.7514 47.4245 16.7393C47.0688 16.7272 46.6518 16.8605 46.4801 17.2484C46.382 17.4787 46.2594 17.6969 46.149 17.9272C45.6953 18.8726 45.2292 19.806 44.8491 20.7878C44.4689 21.7817 44.2359 22.7878 44.3094 23.8545C44.334 24.1454 44.4076 24.4242 44.567 24.6787C44.9717 25.3575 45.5971 25.7333 46.3452 25.9757C46.6641 26.0726 46.9952 26.0726 47.3141 26.012C48.0867 25.8787 48.749 25.503 49.3499 25.0181C49.6197 24.7999 49.8405 24.5817 50.0735 24.3514ZM11.7243 17.8423C12.0431 17.7939 12.3375 17.7454 12.6318 17.6848C13.8705 17.4666 15.0723 17.1272 16.2129 16.606C17.6968 15.9272 18.9722 14.9939 19.9534 13.6848C20.8854 12.4363 21.4128 11.0423 21.609 9.51508C21.7194 8.70296 21.7194 7.90296 21.5477 7.10296C21.1307 5.23629 20.1496 3.7575 18.5062 2.7272C17.1572 1.87871 15.661 1.47872 14.0667 1.36962C13.1469 1.2969 12.2394 1.3575 11.3318 1.49084C10.2649 1.64841 9.22245 1.9272 8.20455 2.30296C6.84326 2.78781 5.60461 3.49084 4.53765 4.47265C2.74712 6.10902 1.68016 8.10902 1.38583 10.509C1.26319 11.5878 1.33677 12.6666 1.58205 13.7211C1.65563 14.0484 1.91317 14.2666 2.20751 14.2787C2.51411 14.2908 2.78391 14.1939 3.00466 13.9878C3.37258 13.6484 3.40937 13.212 3.32352 12.7636C3.16409 11.8302 3.15183 10.8969 3.34805 9.96356C3.74049 8.06053 4.74613 6.52114 6.27912 5.2969C7.22344 4.54538 8.31493 4.04841 9.45547 3.67265C11.0866 3.13932 12.7545 2.86053 14.4837 3.10296C15.4893 3.24841 16.4459 3.55144 17.3166 4.08477C18.7147 4.94538 19.4628 6.20599 19.6713 7.80599C19.7449 8.39993 19.7081 8.98174 19.6222 9.57568C19.4996 10.4484 19.2298 11.2848 18.7883 12.0484C18.0157 13.3939 16.8874 14.3636 15.5016 15.0666C13.8337 15.9151 12.0309 16.303 10.179 16.4484C9.78659 16.4848 9.6149 16.6181 9.51679 16.9817C9.46773 17.1757 9.48 17.3696 9.56584 17.5514C10.4611 19.6363 11.3809 21.709 12.3865 23.7454C13.0488 25.0787 13.8827 26.3151 14.9742 27.3454C15.845 28.1575 16.8383 28.7878 18.0279 29.0302C18.4572 29.1151 18.8864 29.1878 19.3279 29.103C19.9779 28.9817 20.2967 28.1454 19.8552 27.6484C19.659 27.4181 19.377 27.3333 19.0826 27.3333C18.727 27.3333 18.3713 27.3454 18.0157 27.2605C17.3166 27.0908 16.7525 26.703 16.2497 26.2181C15.5138 25.503 14.962 24.6666 14.4469 23.7939C13.6865 22.4726 13.0611 21.0908 12.4724 19.6848C12.2271 19.0908 11.9818 18.4727 11.7243 17.8423ZM74.7484 26.1939C75.3126 26.109 75.7663 25.8545 76.0116 25.3211C77.3606 22.3878 78.6974 19.4423 80.0341 16.4969C81.6652 12.909 83.2963 9.33326 84.9274 5.74538C85.1727 5.19993 85.418 4.66659 85.6633 4.12114C85.8595 3.68477 85.6265 3.24841 85.1605 3.1272C84.9765 3.07871 84.7925 3.09084 84.6086 3.10296C84.2161 3.15144 83.8973 3.32114 83.7378 3.68477C82.8671 5.59993 81.9964 7.51508 81.1256 9.41811C78.9059 14.2787 76.6984 19.1393 74.4786 23.9999C74.2946 24.412 74.0984 24.812 73.939 25.2242C73.7673 25.6605 73.9635 25.9999 74.405 26.1211C74.5154 26.1696 74.6258 26.1939 74.7484 26.1939ZM69.6098 26.1454C70.0759 26.0726 70.5174 25.8423 70.7504 25.3575C71.8664 22.9211 72.9824 20.4848 74.0862 18.0484C75.5824 14.7757 77.0663 11.5151 78.5625 8.24235C79.1879 6.86053 79.8257 5.47871 80.4511 4.0969C80.6596 3.64841 80.4389 3.21205 79.9483 3.07871C79.8011 3.04235 79.654 3.04235 79.5068 3.05447C79.0285 3.07871 78.6851 3.27265 78.4889 3.72114C77.8757 5.09084 77.2502 6.44841 76.6248 7.81811C74.1843 13.1878 71.7315 18.5454 69.291 23.9151C69.0948 24.3393 68.874 24.7636 68.7146 25.212C68.6165 25.4787 68.6287 25.7333 68.8617 25.9272C69.058 26.0969 69.3032 26.1333 69.6098 26.1454ZM3.21315 26.0726C3.7037 26.0605 4.07162 25.8666 4.28011 25.3939C4.62349 24.606 4.97915 23.8302 5.3348 23.0423C7.73852 17.6727 10.1422 12.3151 12.546 6.94538C12.6931 6.63023 12.6563 6.3272 12.4601 6.03629C12.2516 5.73326 11.945 5.57568 11.5771 5.59993C11.2092 5.62417 10.9885 5.83023 10.829 6.16962C9.27151 9.64841 7.71399 13.1272 6.15648 16.606C4.91783 19.3696 3.67918 22.1211 2.45279 24.8848C2.39147 25.0181 2.35468 25.1514 2.34241 25.2848C2.30562 25.6605 2.52637 25.9757 2.85749 26.0363C2.96787 26.0605 3.09051 26.0848 3.21315 26.0726ZM25.5334 20.5575C25.5334 20.0969 25.4721 19.6484 25.3372 19.212C24.7731 17.2363 22.9457 16.1696 20.9345 16.6666C19.8307 16.9333 18.96 17.5757 18.2487 18.4363C17.4638 19.3939 17.01 20.4969 16.9119 21.7333C16.8383 22.6908 16.9855 23.5878 17.4761 24.4242C18.077 25.4423 18.9722 26.0242 20.1618 26.1454C20.9958 26.2302 21.7929 26.0484 22.5165 25.6363C24.4787 24.509 25.3985 22.7636 25.5334 20.5575ZM46.149 38.1575C48.0622 38.1696 49.7056 36.7272 49.7178 34.6545C49.7301 32.606 48.0499 31.1151 46.1613 31.1151C44.2604 31.1151 42.6293 32.6181 42.6048 34.606C42.5802 36.6181 44.1377 38.1575 46.149 38.1575ZM51.9253 34.6908C51.9253 34.7393 51.9253 34.7757 51.9253 34.8242C51.9253 35.8545 51.9253 36.8848 51.9253 37.9272C51.9253 38.0242 51.9253 38.109 52.048 38.1211C52.4036 38.1454 52.747 38.1454 53.1026 38.1211C53.2743 38.109 53.2989 38.0726 53.2989 37.8908C53.2989 37.2848 53.2989 36.6908 53.2989 36.0848C53.2989 35.9878 53.3234 35.9514 53.4215 35.9636C53.5564 35.9757 53.6913 35.9636 53.814 35.9636C53.8753 35.9636 53.9121 35.9757 53.9489 36.0242C54.6847 36.8242 55.4205 37.6242 56.1686 38.4363C56.279 38.5575 56.3403 38.5696 56.463 38.4605C56.696 38.2666 56.9167 38.0726 57.1375 37.8787C57.2724 37.7696 57.2724 37.709 57.1497 37.5757C56.696 37.0787 56.2422 36.5817 55.7884 36.0848C55.629 35.9151 55.629 35.9151 55.8375 35.8302C55.8743 35.8181 55.9111 35.7939 55.9479 35.7817C56.7818 35.406 57.5054 34.3636 57.2969 33.2242C57.1129 32.1575 56.1809 31.309 55.0894 31.2848C54.096 31.2605 53.1026 31.2726 52.1215 31.2848C51.9498 31.2848 51.9131 31.3333 51.9131 31.5029C51.9253 32.5575 51.9253 33.6242 51.9253 34.6908ZM22.3816 35.9029C22.492 35.8666 22.5901 35.8302 22.6882 35.7939C23.5712 35.406 24.2825 34.3272 24.0495 33.1636C23.841 32.109 22.8354 31.2726 21.7561 31.2726C20.7996 31.2726 19.843 31.2726 18.8864 31.2726C18.6902 31.2726 18.6656 31.309 18.6656 31.5029C18.6656 33.6363 18.6656 35.7696 18.6656 37.9029C18.6656 38.0969 18.6902 38.1333 18.8864 38.1333C19.2053 38.1333 19.5119 38.1333 19.8307 38.1333C20.0269 38.1333 20.0515 38.109 20.0515 37.9151C20.0515 37.309 20.0515 36.7029 20.0515 36.0969C20.0515 35.9999 20.076 35.9514 20.1741 35.9636C20.2845 35.9757 20.3949 35.9757 20.5175 35.9636C20.6156 35.9636 20.6769 35.9878 20.7382 36.0605C21.4618 36.8484 22.1976 37.6363 22.9335 38.4242C23.0561 38.5575 23.0929 38.5575 23.2401 38.4363C23.4486 38.2666 23.6571 38.0848 23.8655 37.9029C24.0372 37.7575 24.0372 37.709 23.8778 37.5393C23.375 37.006 22.8844 36.4605 22.3816 35.9029ZM37.3558 36.7757C37.4417 36.6423 37.5152 36.5454 37.5888 36.4363C38.6926 34.8605 39.8086 33.2848 40.9123 31.709C40.9982 31.5878 40.9859 31.4666 40.9491 31.3575C40.9001 31.2363 40.7897 31.2242 40.6671 31.2242C38.9746 31.2242 37.2945 31.2242 35.6021 31.2242C35.4181 31.2242 35.3691 31.2726 35.3691 31.4423C35.3691 31.7211 35.3691 31.9999 35.3691 32.2908C35.3691 32.4726 35.4059 32.509 35.5898 32.509C36.5709 32.509 37.552 32.509 38.5331 32.509C38.5822 32.509 38.6313 32.509 38.7048 32.509C38.6803 32.5454 38.6803 32.5575 38.668 32.5817C37.8954 33.6848 37.1105 34.7757 36.3379 35.8787C35.9455 36.4363 35.5408 37.006 35.1483 37.5636C35.0625 37.6848 35.0747 37.8181 35.1238 37.9514C35.1606 38.0484 35.2587 38.0726 35.3691 38.0726C37.1228 38.0726 38.8765 38.0726 40.618 38.0726C40.7407 38.0726 40.7897 38.0242 40.7897 37.9029C40.7897 37.612 40.7897 37.3332 40.7897 37.0423C40.7897 36.812 40.7652 36.7878 40.5322 36.7878C39.4897 36.7757 38.435 36.7757 37.3558 36.7757ZM62.2515 31.1272C61.9449 31.1272 61.6383 31.1514 61.3317 31.2242C60.8044 31.3454 60.3383 31.5636 60.0072 31.9878C59.3082 32.8726 59.5412 34.1211 60.5223 34.7151C61.0006 35.006 61.5279 35.1029 62.0798 35.1878C62.4845 35.2484 62.8892 35.3454 63.2326 35.5636C63.7354 35.8908 63.7232 36.4242 63.2081 36.7272C62.7543 36.9939 62.2638 37.006 61.761 36.8848C61.2213 36.7514 60.7063 36.5696 60.228 36.2908C60.1176 36.2302 60.044 36.2423 59.9827 36.3636C59.8601 36.6181 59.7251 36.8605 59.5902 37.1029C59.5289 37.2242 59.5412 37.309 59.6638 37.3817C59.8233 37.4908 59.9827 37.5878 60.1544 37.6726C60.927 38.0605 61.7487 38.206 62.6072 38.1575C63.1836 38.1211 63.7354 37.9757 64.2137 37.6484C64.7288 37.2848 65.0599 36.7999 65.0477 36.1575C65.0354 35.5878 64.7779 35.1151 64.3241 34.7635C63.7477 34.2908 63.0609 34.0848 62.3374 33.9636C61.9817 33.903 61.6261 33.8423 61.3072 33.6484C61.0496 33.5029 60.9393 33.2726 60.9515 32.9939C60.9761 32.7151 61.1723 32.5696 61.4176 32.4726C61.8468 32.3151 62.3006 32.3151 62.7421 32.3999C63.1836 32.4848 63.6005 32.6545 63.993 32.8605C64.1647 32.9454 64.226 32.9333 64.3241 32.7636C64.4713 32.5332 64.6062 32.3029 64.7533 32.0726C64.8392 31.9393 64.8269 31.8787 64.692 31.806C63.9439 31.3817 63.1345 31.1272 62.2515 31.1272ZM32.5361 38.0605C32.6833 38.0605 32.8182 38.0605 32.9653 38.0605C33.2719 38.0605 33.2965 38.0363 33.1616 37.7454C32.0946 35.5999 31.0276 33.4545 29.9607 31.2969C29.8994 31.1757 29.8381 31.1151 29.6909 31.1151C29.5437 31.1151 29.4456 31.1514 29.3843 31.2969C28.5381 33.006 27.6796 34.7029 26.8211 36.412C26.5881 36.8848 26.3428 37.3575 26.1098 37.8302C26.0362 37.9878 26.073 38.0605 26.257 38.0605C26.6004 38.0605 26.956 38.0605 27.2994 38.0605C27.4098 38.0605 27.4711 38.012 27.5202 37.9272C27.6919 37.5999 27.8758 37.2726 28.0475 36.9454C28.0966 36.8605 28.1456 36.8363 28.2437 36.8363C29.1881 36.8363 30.1324 36.8363 31.089 36.8363C31.1871 36.8363 31.2361 36.8726 31.2729 36.9575C31.4446 37.2848 31.6286 37.5999 31.8003 37.9272C31.8493 38.0242 31.9106 38.0848 32.0455 38.0726C32.1927 38.0484 32.3644 38.0605 32.5361 38.0605ZM68.1259 34.1817C69.0212 34.1817 69.7325 33.4787 69.7325 32.606C69.7325 31.7332 69.0089 31.0181 68.1259 31.006C67.2429 31.006 66.5193 31.7211 66.5193 32.606C66.5193 33.4908 67.2307 34.1817 68.1259 34.1817Z" fill="#FEFEFE"/>
<path d="M34.1059 25.0666C33.2106 25.8302 32.1559 26.1939 30.9786 26.1817C29.7277 26.1575 28.5994 25.7817 27.7041 24.8605C27.1032 24.2423 26.7475 23.5151 26.6372 22.6545C26.4164 21.0423 26.8702 19.612 27.8758 18.3514C28.4767 17.612 29.2126 17.0666 30.1692 16.8484C31.6286 16.5211 33.1125 17.2484 33.4681 18.8727C33.5908 19.4302 33.5417 19.9878 33.37 20.5333C33.2106 21.0545 32.5361 21.2484 32.021 20.9333C31.6776 20.7272 31.4078 20.2908 31.5918 19.7696C31.6776 19.5393 31.7757 19.309 31.7635 19.0545C31.7512 18.9575 31.7389 18.8727 31.7144 18.7878C31.6163 18.4484 31.3342 18.3272 30.9295 18.412C30.439 18.509 30.0465 18.7757 29.6909 19.1151C29.0164 19.7575 28.6484 20.5575 28.5258 21.4666C28.4032 22.303 28.5503 23.0787 29.1022 23.7454C29.6786 24.4363 30.439 24.703 31.3465 24.6302C32.205 24.5575 32.9899 24.2666 33.6766 23.7454C34.3021 23.2605 34.7804 22.6545 35.2219 21.9999C35.7492 21.212 36.1049 20.3514 36.4973 19.503C38.1897 15.806 39.8822 12.0969 41.5746 8.39993C42.3104 6.77568 43.0585 5.15144 43.7943 3.5272C43.9415 3.1878 44.2236 3.03023 44.5792 2.98174C44.7632 2.9575 44.9471 2.9575 45.1311 3.00599C45.5849 3.1272 45.8056 3.57568 45.6217 4.01205C45.3764 4.58174 45.1066 5.15144 44.849 5.72114C43.5613 8.5575 42.2614 11.3939 40.9736 14.2181C40.1765 15.9514 39.3916 17.6969 38.5944 19.4302C38.5699 19.4787 38.5577 19.5151 38.5331 19.5878C38.7661 19.5151 38.9624 19.4181 39.1586 19.3211C40.3972 18.703 41.5378 17.9151 42.5189 16.9454C42.7396 16.7272 42.9481 16.4848 43.1443 16.2423C43.5 15.7939 44.0519 15.6727 44.5302 15.9393C44.8613 16.1211 44.9717 16.3878 44.8613 16.7514C44.7509 17.1393 44.4811 17.406 44.2113 17.6848C42.8868 19.0302 41.3416 20.0727 39.6491 20.8969C39.5878 20.9333 39.5388 20.9454 39.5756 21.0424C40.1397 22.4242 40.8019 23.7575 41.6972 24.9575C42.0161 25.3939 42.3717 25.7939 42.8132 26.1211C43.1811 26.3878 43.5736 26.5454 44.0273 26.3878C44.1745 26.3393 44.3339 26.3514 44.4934 26.3757C44.8368 26.4242 45.033 26.7272 44.9839 27.0908C44.8736 27.8908 44.2972 28.2666 43.4877 28.1939C42.8132 28.1333 42.2736 27.806 41.7585 27.3939C40.9491 26.7272 40.3237 25.9151 39.7718 25.0424C38.9992 23.8424 38.3614 22.5696 37.8586 21.2363C37.8464 21.1878 37.8464 21.1393 37.785 21.103C37.4907 21.7817 37.1841 22.4484 36.8898 23.1272C36.5096 23.9999 36.1171 24.8605 35.737 25.7333C35.5285 26.2181 35.1238 26.3393 34.67 26.2787C34.0691 26.1939 33.9464 25.7211 34.0691 25.2848C34.0813 25.212 34.1059 25.1514 34.1304 25.0787C34.1304 25.0666 34.1427 25.0545 34.1427 25.0424C34.1181 25.0545 34.1059 25.0545 34.1059 25.0666Z" fill="#081D31"/>
<path d="M50.0734 24.3515C49.8527 24.5818 49.6197 24.8 49.3621 25.0061C48.7612 25.4909 48.099 25.8667 47.3263 26C46.9952 26.0606 46.6763 26.0606 46.3575 25.9637C45.6216 25.7333 44.9839 25.3455 44.5792 24.6667C44.432 24.4121 44.3462 24.1455 44.3217 23.8424C44.2481 22.7758 44.4811 21.7697 44.8613 20.7758C45.2415 19.794 45.7075 18.8606 46.1613 17.9152C46.2716 17.6849 46.3943 17.4667 46.4924 17.2364C46.6641 16.8485 47.081 16.7152 47.4367 16.7273C47.6575 16.7394 47.8782 16.7879 48.0744 16.9333C48.4178 17.1758 48.5159 17.5758 48.332 17.9394C47.8414 18.897 47.3509 19.8667 46.8971 20.8485C46.5782 21.5394 46.3207 22.2546 46.2348 23.0061C46.198 23.3576 46.1735 23.7091 46.2594 24.0606C46.3207 24.3152 46.4311 24.3879 46.7009 24.3273C47.2773 24.2061 47.7556 23.8667 48.1971 23.503C48.9084 22.9091 49.4112 22.1455 49.9017 21.3697C50.4168 20.5455 50.797 19.6485 51.214 18.7758C51.4715 18.2424 51.7291 17.7212 51.9866 17.1879C52.1215 16.9091 52.3791 16.7879 52.6857 16.7515C52.8573 16.7394 53.029 16.7515 53.1885 16.8C53.6422 16.9212 53.8753 17.2849 53.7894 17.7455C53.6913 18.2424 53.4583 18.6909 53.2498 19.1515C52.9677 19.7818 52.6366 20.3879 52.3177 21.0061C52.0479 21.5394 51.8885 22.1212 51.7904 22.7152C51.7291 23.1394 51.7045 23.5637 51.7904 23.9879C51.8027 24.0606 51.8272 24.1333 51.8517 24.2061C51.913 24.3637 52.0234 24.4364 52.1951 24.4485C52.6243 24.4727 53.0045 24.3152 53.3602 24.1212C54.4884 23.503 55.2856 22.5818 55.8743 21.4546C56.3894 20.4727 56.7082 19.4303 56.9535 18.3515C57.0025 18.1333 56.9535 17.903 56.9658 17.6849C56.978 17.4303 57.0639 17.2 57.2601 17.0182C57.5789 16.7152 58.1799 16.6424 58.5723 16.8606C58.9402 17.0546 59.1365 17.5152 59.0629 17.9758C59.0138 18.2546 58.928 18.5212 58.8544 18.7879C58.7318 19.297 58.8912 20.4727 59.5412 20.8849C59.6638 20.9576 59.7865 21.0182 59.9214 21.0667C60.0072 21.0909 60.044 21.0667 60.0685 20.9818C60.4364 19.9879 61.0128 19.103 61.7732 18.3515C62.7666 17.3697 63.9562 16.7152 65.342 16.4485C65.9552 16.3273 66.5561 16.3637 67.1203 16.6667C67.8438 17.0546 68.1627 17.8303 68.0768 18.5818C67.9419 19.7212 67.292 20.5212 66.3722 21.1515C65.4279 21.794 64.3732 22.1576 63.2694 22.4243C62.6562 22.5697 62.043 22.6788 61.4176 22.7152C61.3562 22.7152 61.3072 22.7152 61.3194 22.8C61.3562 23.3333 61.4666 23.8303 61.9204 24.1697C62.1902 24.3758 62.5213 24.4485 62.8524 24.4849C63.7232 24.5697 64.5081 24.303 65.2807 23.9515C65.6363 23.7818 65.9797 23.6121 66.2741 23.3455C66.3476 23.2849 66.4212 23.2364 66.5071 23.2C66.8014 23.0788 67.108 23.1879 67.1939 23.4909C67.3778 24.1091 67.2674 24.7515 66.5807 25.103C65.7958 25.4909 64.9863 25.8303 64.1156 25.9758C63.0364 26.1455 61.9817 26.0849 61.0374 25.4909C60.3138 25.0303 59.9091 24.3637 59.7619 23.5273C59.7129 23.2606 59.7006 22.994 59.7129 22.7273C59.7129 22.6303 59.7006 22.594 59.5902 22.5697C58.928 22.4 58.3516 22.0849 57.8855 21.5515C57.7874 21.7576 57.7016 21.9515 57.6157 22.1576C57.0516 23.4546 56.1931 24.5091 54.9913 25.2849C54.2554 25.7576 53.4705 26.0364 52.5875 26.0243C51.4715 26.0121 50.6744 25.4788 50.1716 24.497C50.147 24.4485 50.1225 24.4 50.1102 24.3515C50.0857 24.3637 50.0857 24.3637 50.0734 24.3515ZM61.626 21.297C61.7119 21.2849 61.7732 21.2849 61.8223 21.2727C62.3741 21.1879 62.9015 21.0424 63.4411 20.8727C64.1892 20.6424 64.9128 20.3515 65.526 19.8546C65.8816 19.5637 66.1882 19.2364 66.3231 18.8C66.4458 18.4243 66.2863 18.1697 65.9061 18.1091C65.5137 18.0364 65.1335 18.1455 64.7656 18.2788C63.9317 18.5818 63.2449 19.103 62.6685 19.7697C62.276 20.2424 61.9204 20.7273 61.626 21.297Z" fill="#081D31"/>
<path d="M11.7243 17.8423C11.9818 18.4726 12.2271 19.0908 12.4846 19.6968C13.0733 21.1029 13.6988 22.4847 14.4591 23.8059C14.9619 24.6786 15.5261 25.5271 16.2619 26.2302C16.7647 26.715 17.3289 27.1029 18.0279 27.2726C18.3836 27.3574 18.7392 27.3453 19.0949 27.3453C19.3892 27.3453 19.6713 27.4302 19.8675 27.6605C20.2967 28.1574 19.9901 28.9938 19.3401 29.115C18.8986 29.1999 18.4694 29.1271 18.0402 29.0423C16.8506 28.7877 15.8572 28.1695 14.9865 27.3574C13.8827 26.3271 13.061 25.1029 12.3988 23.7574C11.3931 21.7211 10.4611 19.6483 9.57809 17.5635C9.50451 17.3817 9.47998 17.1877 9.52903 16.9938C9.62714 16.6302 9.79884 16.4968 10.1913 16.4605C12.0431 16.315 13.8459 15.915 15.5138 15.0786C16.8996 14.3756 18.0279 13.418 18.8005 12.0605C19.242 11.2847 19.5118 10.4605 19.6345 9.58773C19.7203 9.00591 19.7571 8.41197 19.6835 7.81803C19.4873 6.21803 18.7269 4.95743 17.3289 4.09682C16.4581 3.56349 15.5015 3.24834 14.4959 3.115C12.7667 2.87258 11.0988 3.13924 9.46771 3.6847C8.32717 4.06046 7.23569 4.55743 6.29137 5.30894C4.75838 6.52106 3.75274 8.06046 3.3603 9.97561C3.16408 10.9089 3.17634 11.8423 3.33577 12.7756C3.40936 13.2241 3.37256 13.6605 3.01691 13.9999C2.79616 14.2059 2.52636 14.3029 2.21976 14.2908C1.92543 14.2786 1.66788 14.0605 1.5943 13.7332C1.33676 12.6786 1.26318 11.5999 1.39808 10.5211C1.68015 8.12106 2.74711 6.10894 4.53763 4.47258C5.60459 3.49076 6.84324 2.78773 8.20453 2.30288C9.22244 1.93924 10.2649 1.64834 11.3318 1.49076C12.2394 1.35743 13.1469 1.30894 14.0667 1.36955C15.6487 1.49076 17.1449 1.87864 18.5062 2.72712C20.1496 3.75743 21.1307 5.23621 21.5476 7.10288C21.7316 7.90288 21.7193 8.70288 21.609 9.515C21.4005 11.0423 20.8854 12.4483 19.9533 13.6847C18.9722 14.9938 17.6968 15.9271 16.2128 16.6059C15.0723 17.1271 13.8704 17.4786 12.6318 17.6847C12.3375 17.7453 12.0431 17.7938 11.7243 17.8423Z" fill="#081D31"/>
<path d="M74.7484 26.1939C74.6257 26.1939 74.5153 26.1697 74.405 26.1454C73.9635 26.0242 73.7673 25.697 73.9389 25.2485C74.0984 24.8242 74.2946 24.4242 74.4786 24.0242C76.6983 19.1636 78.9058 14.303 81.1256 9.4424C81.9963 7.52725 82.8671 5.6121 83.7378 3.70907C83.9095 3.33331 84.2284 3.16362 84.6085 3.12725C84.7925 3.10301 84.9765 3.10301 85.1604 3.15149C85.6264 3.27271 85.8472 3.69695 85.6632 4.14543C85.418 4.69089 85.1727 5.22422 84.9274 5.76968C83.2963 9.35756 81.6652 12.9333 80.0341 16.5212C78.6973 19.4666 77.3606 22.4 76.0115 25.3454C75.7663 25.8424 75.3125 26.1091 74.7484 26.1939Z" fill="#081D31"/>
<path d="M69.6098 26.1453C69.3032 26.1332 69.0579 26.0968 68.874 25.9271C68.6532 25.721 68.6287 25.4786 68.7268 25.2119C68.8862 24.7635 69.107 24.3513 69.3032 23.915C71.7437 18.5453 74.1965 13.1877 76.637 7.818C77.2502 6.44831 77.8757 5.09073 78.4889 3.72104C78.6851 3.27255 79.0407 3.07861 79.5068 3.05437C79.6539 3.04225 79.8011 3.04225 79.9483 3.07861C80.4266 3.19982 80.6473 3.63619 80.4511 4.09679C79.8256 5.47861 79.1879 6.86043 78.5625 8.24225C77.0663 11.515 75.5823 14.7756 74.0861 18.0483C72.9701 20.4847 71.8664 22.9332 70.7504 25.3574C70.5173 25.8422 70.0758 26.0725 69.6098 26.1453Z" fill="#081D31"/>
<path d="M3.21314 26.0726C3.0905 26.0847 2.96786 26.0605 2.84522 26.0362C2.5141 25.9756 2.29335 25.6483 2.33014 25.2847C2.3424 25.1392 2.37919 25.0059 2.44051 24.8847C3.67917 22.1211 4.91782 19.3695 6.14421 16.6059C7.70172 13.1271 9.25923 9.64833 10.8167 6.16954C10.9639 5.84227 11.1969 5.62409 11.5648 5.59985C11.9328 5.5756 12.2394 5.73318 12.4478 6.03621C12.6441 6.315 12.6809 6.61803 12.5337 6.9453C10.1422 12.3029 7.73851 17.6726 5.33479 23.0302C4.97914 23.818 4.62349 24.5938 4.2801 25.3817C4.07161 25.8544 3.70369 26.0605 3.21314 26.0726Z" fill="#081D31"/>
<path d="M25.5334 20.5575C25.3985 22.7515 24.491 24.4969 22.5165 25.6363C21.7929 26.0485 20.9958 26.2303 20.1618 26.1454C18.9845 26.0242 18.077 25.4424 17.476 24.4242C16.9855 23.6 16.826 22.6909 16.9119 21.7333C17.01 20.4969 17.4638 19.3939 18.2487 18.4363C18.9477 17.5757 19.8307 16.9454 20.9344 16.6666C22.9457 16.1697 24.773 17.2363 25.3372 19.2121C25.4598 19.6485 25.5334 20.0969 25.5334 20.5575ZM20.5911 24.4606C20.7382 24.4727 20.8731 24.4485 21.0203 24.4121C21.7439 24.2424 22.2835 23.806 22.725 23.2363C23.3014 22.4969 23.5957 21.6485 23.657 20.7272C23.6816 20.2909 23.6448 19.8545 23.4976 19.4424C23.2401 18.7272 22.3939 17.9515 21.3146 18.2788C20.6524 18.4727 20.1496 18.8848 19.7326 19.406C19.1807 20.0969 18.8741 20.8969 18.8005 21.7697C18.7515 22.3757 18.8251 22.9697 19.1194 23.5151C19.426 24.0969 19.892 24.4485 20.5911 24.4606Z" fill="#081D31"/>
<path d="M46.149 38.1576C44.1377 38.1576 42.5802 36.6182 42.6047 34.6182C42.617 32.6303 44.2604 31.1151 46.1613 31.1273C48.0499 31.1273 49.7301 32.6182 49.7178 34.6667C49.6933 36.7273 48.0499 38.1576 46.149 38.1576ZM46.1367 32.497C44.9594 32.497 43.9783 33.4667 43.9783 34.6424C43.9783 35.7939 44.8858 36.8 46.149 36.7879C47.4122 36.7879 48.3075 35.8182 48.3197 34.6545C48.3442 33.4909 47.3263 32.497 46.1367 32.497Z" fill="#081D31"/>
<path d="M51.9253 34.6909C51.9253 33.6242 51.9253 32.5576 51.9253 31.4909C51.9253 31.3212 51.9621 31.2727 52.1338 31.2727C53.1272 31.2727 54.1205 31.2485 55.1016 31.2727C56.1931 31.3091 57.1252 32.1576 57.3091 33.2121C57.5176 34.3515 56.7941 35.4061 55.9601 35.7697C55.9233 35.7818 55.8865 35.8061 55.8497 35.8182C55.6413 35.8909 55.6413 35.8909 55.8007 36.0727C56.2544 36.5697 56.7082 37.0667 57.162 37.5636C57.2846 37.697 57.2846 37.7455 57.1497 37.8667C56.929 38.0606 56.6959 38.2545 56.4752 38.4485C56.3526 38.5576 56.2912 38.5455 56.1809 38.4242C55.445 37.6242 54.6969 36.8242 53.9611 36.0121C53.9243 35.9636 53.8753 35.9515 53.8262 35.9515C53.6913 35.9515 53.5564 35.9636 53.4338 35.9515C53.3356 35.9394 53.3111 35.9758 53.3111 36.0727C53.3111 36.6788 53.3111 37.2727 53.3111 37.8788C53.3111 38.0606 53.2866 38.097 53.1149 38.1091C52.7592 38.1333 52.4158 38.1333 52.0602 38.1091C51.9376 38.097 51.9376 38.0121 51.9376 37.9151C51.9376 36.8848 51.9376 35.8545 51.9376 34.8121C51.9253 34.7758 51.9253 34.7394 51.9253 34.6909ZM54.1818 34.7636C54.4271 34.7515 54.7337 34.7879 55.0403 34.7394C55.7884 34.6061 56.0582 34 55.9356 33.4182C55.8252 32.897 55.3837 32.5697 54.8196 32.5576C54.3535 32.5455 53.8875 32.5576 53.4215 32.5576C53.3234 32.5576 53.3111 32.5939 53.3111 32.6788C53.3111 33.3455 53.3111 34 53.3111 34.6667C53.3111 34.7515 53.3356 34.7758 53.4215 34.7758C53.6545 34.7636 53.8875 34.7636 54.1818 34.7636Z" fill="#081D31"/>
<path d="M22.3816 35.903C22.8844 36.4606 23.375 36.9939 23.8655 37.5394C24.025 37.7091 24.025 37.7576 23.8533 37.903C23.6448 38.0848 23.4363 38.2545 23.2278 38.4364C23.0929 38.5576 23.0439 38.5454 22.9212 38.4242C22.1854 37.6364 21.4495 36.8485 20.726 36.0606C20.6647 35.9879 20.5911 35.9515 20.5052 35.9636C20.3949 35.9757 20.2845 35.9757 20.1618 35.9636C20.0515 35.9515 20.0269 36 20.0392 36.097C20.0392 36.703 20.0392 37.3091 20.0392 37.9151C20.0392 38.1091 20.0147 38.1333 19.8185 38.1333C19.4996 38.1333 19.193 38.1333 18.8741 38.1333C18.6656 38.1333 18.6534 38.1091 18.6534 37.903C18.6534 35.7697 18.6534 33.6363 18.6534 31.503C18.6534 31.3091 18.6902 31.2727 18.8741 31.2727C19.8307 31.2727 20.7873 31.2727 21.7439 31.2727C22.8231 31.2727 23.8287 32.1091 24.0372 33.1636C24.2702 34.3394 23.5589 35.406 22.6759 35.7939C22.5901 35.8303 22.492 35.8667 22.3816 35.903ZM20.0515 33.6485C20.0515 33.9879 20.0515 34.3273 20.0515 34.6667C20.0515 34.7151 20.0392 34.7757 20.125 34.7757C20.6769 34.7636 21.2288 34.8242 21.7807 34.7394C22.5288 34.6303 22.7986 33.9879 22.6759 33.406C22.5656 32.897 22.1118 32.5697 21.5477 32.5576C21.0939 32.5576 20.6401 32.5576 20.1864 32.5576C20.076 32.5576 20.0637 32.5939 20.0637 32.6909C20.0515 33.006 20.0515 33.3212 20.0515 33.6485Z" fill="#081D31"/>
<path d="M37.3558 36.7756C38.435 36.7756 39.4897 36.7756 40.5322 36.7756C40.7652 36.7756 40.7897 36.7998 40.7897 37.0301C40.7897 37.321 40.7897 37.5998 40.7897 37.8907C40.7897 38.0119 40.7406 38.0604 40.618 38.0604C38.8643 38.0604 37.1105 38.0604 35.3691 38.0604C35.2587 38.0604 35.1606 38.0362 35.1238 37.9392C35.0747 37.8059 35.0625 37.6725 35.1483 37.5513C35.553 36.9937 35.9455 36.424 36.3379 35.8665C37.1105 34.7634 37.8954 33.6725 38.668 32.5695C38.6803 32.5574 38.6803 32.5331 38.7048 32.4968C38.6313 32.4968 38.5822 32.4968 38.5331 32.4968C37.552 32.4968 36.5709 32.4968 35.5898 32.4968C35.4059 32.4968 35.3691 32.4604 35.3691 32.2786C35.3691 31.9998 35.3691 31.721 35.3691 31.4301C35.3691 31.2604 35.4181 31.2119 35.6021 31.2119C37.2945 31.2119 38.9746 31.2119 40.6671 31.2119C40.7897 31.2119 40.9001 31.224 40.9491 31.3452C40.9982 31.4665 40.9982 31.5877 40.9123 31.6968C39.7963 33.2725 38.6926 34.8483 37.5888 36.424C37.5152 36.5331 37.4417 36.6422 37.3558 36.7756Z" fill="#081D31"/>
<path d="M62.2515 31.1273C63.1345 31.1273 63.9439 31.3818 64.7043 31.8061C64.8392 31.8788 64.8514 31.9394 64.7656 32.0728C64.6307 32.3031 64.4835 32.5334 64.3363 32.7637C64.2382 32.9212 64.1769 32.9455 64.0052 32.8606C63.6128 32.6546 63.1958 32.4849 62.7543 32.4C62.3128 32.3152 61.8591 32.3152 61.4298 32.4728C61.1845 32.5576 60.9883 32.7152 60.9638 32.994C60.9393 33.2728 61.0619 33.5031 61.3194 33.6485C61.6383 33.8303 61.994 33.9031 62.3496 33.9637C63.0732 34.0849 63.7599 34.2909 64.3363 34.7637C64.7778 35.1273 65.0477 35.5879 65.0599 36.1576C65.0722 36.8122 64.7411 37.2849 64.226 37.6485C63.7477 37.9758 63.1958 38.1212 62.6194 38.1576C61.7609 38.2061 60.9393 38.0606 60.1666 37.6728C59.995 37.5879 59.8355 37.4909 59.6761 37.3818C59.5535 37.3091 59.5412 37.2122 59.6025 37.1031C59.7374 36.8606 59.8723 36.6061 59.995 36.3637C60.0563 36.2425 60.1299 36.2303 60.2402 36.2909C60.7185 36.5697 61.2336 36.7515 61.7732 36.8849C62.276 37.0061 62.7666 36.994 63.2203 36.7273C63.7354 36.4243 63.7477 35.8909 63.2449 35.5637C62.9015 35.3334 62.4968 35.2485 62.0921 35.1879C61.5525 35.1031 61.0128 35.0061 60.5346 34.7152C59.5535 34.1212 59.3204 32.8728 60.0195 31.9879C60.3629 31.5637 60.8289 31.3455 61.344 31.2243C61.6383 31.1515 61.9449 31.1152 62.2515 31.1273Z" fill="#081D31"/>
<path d="M32.5361 38.0606C32.3644 38.0606 32.205 38.0485 32.0333 38.0606C31.9106 38.0727 31.8493 38.0121 31.788 37.9152C31.6163 37.5879 31.4324 37.2727 31.2607 36.9455C31.2116 36.8606 31.1748 36.8242 31.0767 36.8242C30.1324 36.8242 29.1881 36.8242 28.2315 36.8242C28.1334 36.8242 28.0843 36.8485 28.0353 36.9333C27.8636 37.2606 27.6796 37.5879 27.5079 37.9152C27.4589 38.0121 27.3975 38.0485 27.2872 38.0485C26.9438 38.0485 26.5881 38.0485 26.2447 38.0485C26.073 38.0485 26.024 37.9758 26.0976 37.8182C26.3306 37.3455 26.5636 36.8727 26.8089 36.4C27.6673 34.6909 28.5135 32.9939 29.372 31.2848C29.4456 31.1394 29.5315 31.103 29.6786 31.103C29.8258 31.103 29.8871 31.1636 29.9484 31.2848C31.0154 33.4303 32.0823 35.5758 33.1493 37.7333C33.2842 38.0121 33.2719 38.0485 32.9531 38.0485C32.8182 38.0606 32.671 38.0606 32.5361 38.0606ZM29.6418 33.697C29.3107 34.3515 28.9796 34.9818 28.6485 35.6242C29.323 35.6242 29.9729 35.6242 30.6475 35.6242C30.3163 34.9939 29.9852 34.3636 29.6418 33.697Z" fill="#081D31"/>
<path d="M68.1259 34.1818C67.2306 34.1818 66.5193 33.4787 66.5193 32.606C66.5193 31.7212 67.2429 30.9939 68.1259 31.006C69.0089 31.006 69.7324 31.7333 69.7324 32.606C69.7324 33.4909 69.0211 34.1818 68.1259 34.1818ZM68.1259 31.3333C67.5372 31.2969 66.8381 31.7818 66.8259 32.606C66.8136 33.309 67.4145 33.8909 68.1381 33.8909C68.8494 33.8909 69.4258 33.309 69.4258 32.606C69.4136 31.8909 68.8494 31.3333 68.1259 31.3333Z" fill="#081D31"/>
<path d="M34.1059 25.0666C34.1181 25.0666 34.1304 25.0544 34.1304 25.0544C34.1304 25.0666 34.1181 25.0787 34.1181 25.0908C34.1181 25.0787 34.1059 25.0666 34.1059 25.0666Z" fill="#FEFEFE"/>
<path d="M61.626 21.2969C61.9203 20.7272 62.276 20.2424 62.6684 19.7696C63.2448 19.103 63.9194 18.5818 64.7656 18.2787C65.1335 18.1454 65.5137 18.0484 65.9061 18.109C66.2863 18.1696 66.4457 18.4363 66.3231 18.7999C66.1759 19.2363 65.8693 19.5636 65.5259 19.8545C64.9127 20.3515 64.1892 20.6424 63.4411 20.8727C62.9137 21.0424 62.3741 21.1878 61.8222 21.2727C61.7732 21.2848 61.7119 21.2969 61.626 21.2969Z" fill="#FDFDFD"/>
<path d="M20.5911 24.4605C19.9043 24.4484 19.426 24.0847 19.1071 23.5029C18.8128 22.9575 18.7392 22.3635 18.7883 21.7575C18.8619 20.8847 19.1685 20.0847 19.7203 19.3938C20.1373 18.8726 20.6401 18.4605 21.3024 18.2665C22.3939 17.9393 23.2278 18.7272 23.4853 19.4302C23.6325 19.8423 23.6693 20.2787 23.6448 20.715C23.5957 21.6484 23.2891 22.4847 22.7127 23.2241C22.2712 23.7938 21.7316 24.2302 21.008 24.3999C20.8731 24.4484 20.726 24.4726 20.5911 24.4605Z" fill="#FDFDFD"/>
<path d="M46.1367 32.4968C47.3263 32.4968 48.3442 33.4908 48.3197 34.6544C48.2952 35.8059 47.4122 36.7756 46.149 36.7877C44.8981 36.7877 43.9783 35.7938 43.9783 34.6423C43.9783 33.4665 44.9594 32.4968 46.1367 32.4968Z" fill="#FDFDFD"/>
<path d="M54.1818 34.7636C53.8875 34.7636 53.6545 34.7636 53.4092 34.7636C53.3234 34.7636 53.2988 34.7393 53.2988 34.6545C53.2988 33.9878 53.2988 33.3333 53.2988 32.6666C53.2988 32.5818 53.3111 32.5454 53.4092 32.5454C53.8752 32.5454 54.3413 32.5454 54.8073 32.5454C55.3837 32.5575 55.8129 32.8848 55.9233 33.406C56.046 33.9878 55.7761 34.5939 55.028 34.7272C54.7337 34.7878 54.4394 34.7515 54.1818 34.7636Z" fill="#FDFDFD"/>
<path d="M20.0514 33.6485C20.0514 33.3334 20.0514 33.0061 20.0514 32.691C20.0514 32.594 20.0637 32.5576 20.1741 32.5576C20.6278 32.5697 21.0816 32.5576 21.5354 32.5576C22.1118 32.5697 22.5533 32.8849 22.6637 33.4061C22.7863 33.9758 22.5288 34.6182 21.7684 34.7394C21.2165 34.8243 20.6646 34.7516 20.1128 34.7758C20.0269 34.7758 20.0392 34.7273 20.0392 34.6667C20.0514 34.3152 20.0514 33.9879 20.0514 33.6485Z" fill="#FDFDFD"/>
<path d="M29.6418 33.6968C29.9852 34.3513 30.3163 34.9816 30.6474 35.6241C29.9729 35.6241 29.323 35.6241 28.6484 35.6241C28.9796 34.9816 29.2984 34.3513 29.6418 33.6968Z" fill="#FDFDFD"/>
<path d="M68.1259 31.3333C68.8494 31.3333 69.4136 31.8908 69.4136 32.606C69.4136 33.309 68.8372 33.8908 68.1259 33.8908C67.4146 33.8908 66.8014 33.309 66.8136 32.606C66.8382 31.7696 67.5372 31.2969 68.1259 31.3333ZM67.5495 32.606C67.5495 32.8242 67.5617 33.0545 67.5495 33.2727C67.5495 33.406 67.623 33.406 67.7089 33.406C67.7947 33.406 67.8929 33.4181 67.8683 33.2727C67.8561 33.1878 67.8683 33.103 67.8683 33.006C67.8683 32.7999 67.8683 32.7999 68.0768 32.812C68.1381 32.812 68.1627 32.8484 68.1872 32.8969C68.2362 32.9939 68.273 33.103 68.3098 33.1999C68.3957 33.406 68.3957 33.406 68.6287 33.406C68.7391 33.406 68.7513 33.3575 68.7145 33.2727C68.6532 33.1393 68.6042 33.0181 68.5306 32.8969C68.4938 32.8363 68.4938 32.812 68.5674 32.7757C68.8004 32.6302 68.8862 32.4363 68.8126 32.1696C68.7513 31.9514 68.5428 31.806 68.2976 31.806C68.1013 31.806 67.9051 31.8181 67.7089 31.806C67.574 31.7939 67.5372 31.8545 67.5495 31.9757C67.5495 32.1696 67.5495 32.3878 67.5495 32.606Z" fill="#FDFDFD"/>
<path d="M67.5495 32.6059C67.5495 32.3877 67.5495 32.1816 67.5495 31.9635C67.5495 31.8422 67.574 31.7816 67.7089 31.7938C67.9051 31.8059 68.1014 31.7938 68.2976 31.7938C68.5551 31.7938 68.7514 31.9392 68.8127 32.1574C68.8863 32.4119 68.8127 32.618 68.5674 32.7634C68.5061 32.7998 68.5061 32.8241 68.5306 32.8847C68.5919 33.0059 68.6532 33.1392 68.7146 33.2604C68.7514 33.3453 68.7391 33.3937 68.6287 33.3937C68.3957 33.3937 68.3957 33.4059 68.3099 33.1877C68.2731 33.0907 68.224 32.9816 68.1872 32.8847C68.1627 32.8362 68.1382 32.8119 68.0768 32.7998C67.8684 32.7877 67.8684 32.7877 67.8684 32.9938C67.8684 33.0786 67.8561 33.1634 67.8684 33.2604C67.8806 33.4059 67.7948 33.3937 67.7089 33.3937C67.6108 33.3937 67.5372 33.3937 67.5495 33.2604C67.5618 33.0422 67.5495 32.8241 67.5495 32.6059ZM68.1136 32.5331C68.175 32.5331 68.2363 32.5331 68.2853 32.5331C68.408 32.521 68.4938 32.4362 68.4816 32.315C68.4816 32.1816 68.3957 32.121 68.2731 32.1089C68.1995 32.1089 68.1259 32.1089 68.0523 32.1089C67.8561 32.1089 67.8561 32.1089 67.8561 32.2907C67.8684 32.5331 67.8684 32.5331 68.1136 32.5331Z" fill="#081D31"/>
<path d="M68.1136 32.5331C67.8683 32.5331 67.8683 32.5331 67.8683 32.2907C67.8683 32.1089 67.8683 32.1089 68.0646 32.1089C68.1381 32.1089 68.2117 32.1089 68.2853 32.1089C68.4079 32.121 68.4815 32.1816 68.4938 32.315C68.4938 32.4362 68.4202 32.521 68.2976 32.5331C68.2363 32.5331 68.1749 32.5331 68.1136 32.5331Z" fill="#FDFDFD"/>
</g>
<defs>
<clipPath id="clip0_1_685">
<rect width="87" height="40" fill="white"/>
</clipPath>
</defs>
</svg>
