<svg width="194" height="123" viewBox="0 0 194 123" fill="none" xmlns="http://www.w3.org/2000/svg">
<g clip-path="url(#clip0_1_356)">
<path d="M27.9965 106.679H164.97V96.9906C164.97 94.9672 162.892 92.9754 159.268 91.5261L159.231 91.5111C156.785 90.4981 141.145 83.2909 132.686 83.5089C128.218 83.6237 124.392 84.5124 121.315 86.1505C111.739 91.2512 99.1605 93.1353 92.5146 91.6551C86.6576 90.3502 70.5788 88.1924 64.6378 88.2899C56.3174 88.4242 56.293 90.0552 47.7522 95.3193C44.4902 97.3282 43.2702 97.5802 27.9965 99.1827V106.679Z" fill="#CFCFCF"/>
<path d="M5.91419 92.4385C5.61592 87.2406 7.49656 81.9896 11.3934 80.0602C10.6056 85.4156 11.5762 91.3668 14.0788 96.526C15.0536 98.5355 16.3054 100.681 16.039 102.781C15.8732 104.087 15.1158 105.124 14.1902 105.799C13.2646 106.475 12.174 106.835 11.0966 107.189L10.9106 107.419C8.35013 102.765 6.21245 97.6364 5.91419 92.4385Z" fill="#CFCFCF"/>
<path d="M11.4507 80.1554C9.51817 83.6466 8.65958 87.8074 9.01703 91.9492C9.07614 92.8952 9.25672 93.8254 9.55266 94.7081C9.8763 95.5925 10.3727 96.3752 11.0016 96.9929C11.5838 97.5879 12.2298 98.1271 12.696 98.8573C12.9261 99.2136 13.0926 99.6207 13.1855 100.054C13.2784 100.488 13.2959 100.939 13.2368 101.38C13.1009 102.427 12.6393 103.301 12.1598 104.133C11.6274 105.056 11.0605 106.004 10.9639 107.192C10.9522 107.336 10.7561 107.275 10.7678 107.131C10.9358 105.064 12.4218 103.807 12.9213 101.924C13.0571 101.469 13.1034 100.984 13.0568 100.505C13.0101 100.026 12.8717 99.5656 12.6519 99.1584C12.2175 98.386 11.5518 97.8294 10.9585 97.2322C10.3373 96.6368 9.83201 95.8922 9.47673 95.0484C9.14474 94.1805 8.93436 93.2554 8.85373 92.3088C8.65225 90.2677 8.73481 88.2018 9.09816 86.1919C9.48682 83.9796 10.2322 81.8749 11.2941 79.991C11.3593 79.8762 11.5154 80.0414 11.4507 80.1554V80.1554Z" fill="white"/>
<path d="M8.84297 90.5577C8.20194 90.4104 7.61597 90.0323 7.1666 89.4761C6.71722 88.9198 6.42678 88.213 6.33569 87.4541C6.32159 87.3063 6.51749 87.306 6.5316 87.454C6.6154 88.1607 6.8859 88.8189 7.30506 89.3359C7.72422 89.8529 8.27095 90.2028 8.86836 90.3362C8.8809 90.338 8.89301 90.3426 8.904 90.3499C8.91499 90.3572 8.92463 90.367 8.93237 90.3787C8.9401 90.3905 8.94577 90.4038 8.94905 90.4182C8.95233 90.4325 8.95316 90.4474 8.95148 90.4621C8.94979 90.4768 8.94564 90.4909 8.93925 90.5037C8.93287 90.5165 8.92438 90.5276 8.91428 90.5365C8.90418 90.5454 8.89268 90.5519 8.88044 90.5555C8.8682 90.5592 8.85546 90.5599 8.84297 90.5577Z" fill="white"/>
<path d="M10.6774 96.7312C11.1557 96.313 11.5531 95.7806 11.8435 95.1692C12.1338 94.5578 12.3105 93.8811 12.362 93.1838C12.3741 93.0399 12.5703 93.101 12.5581 93.2447C12.5034 93.9702 12.3182 94.6738 12.0148 95.3091C11.7115 95.9445 11.2968 96.4973 10.7981 96.9309C10.7027 97.0128 10.5825 96.8126 10.6774 96.7312Z" fill="white"/>
<path d="M9.7153 84.15C9.93888 84.2627 10.1833 84.3065 10.4253 84.2773C10.6674 84.2481 10.8991 84.1468 11.0984 83.9831C11.1927 83.8997 11.3129 84.0999 11.2192 84.1827C10.9983 84.3624 10.7424 84.4739 10.4752 84.5069C10.2079 84.5399 9.93781 84.4933 9.68993 84.3714C9.6642 84.3627 9.64176 84.3439 9.62626 84.3183C9.61076 84.2927 9.6031 84.2616 9.60454 84.2302C9.60635 84.2158 9.61082 84.2021 9.61764 84.1899C9.62446 84.1778 9.63346 84.1675 9.64401 84.1599C9.65456 84.1522 9.66641 84.1474 9.67873 84.1457C9.69105 84.144 9.70354 84.1454 9.71532 84.15H9.7153Z" fill="white"/>
<path d="M25.611 88.5292C25.5537 88.5835 25.4963 88.6377 25.4392 88.6939C24.6732 89.4272 23.9672 90.2429 23.3305 91.1304C23.2802 91.1979 23.2303 91.2673 23.182 91.3367C21.6588 93.524 20.5439 96.062 19.9093 98.7868C19.649 99.8979 19.4664 101.032 19.3631 102.178C19.2181 103.776 19.173 105.54 18.5878 106.875C18.5285 107.015 18.4609 107.15 18.3854 107.278L11.2002 107.706C11.1823 107.698 11.1647 107.691 11.1467 107.682L10.8623 107.715C10.8641 107.654 10.867 107.591 10.8688 107.531C10.8696 107.495 10.8721 107.46 10.873 107.425C10.8741 107.401 10.8753 107.378 10.8751 107.356C10.8754 107.348 10.8758 107.34 10.8765 107.335C10.8763 107.313 10.8781 107.293 10.8782 107.274C10.8939 106.923 10.9111 106.572 10.9317 106.221C10.9313 106.219 10.9313 106.219 10.9326 106.217C11.0561 103.576 11.4647 100.965 12.1485 98.4455C12.1696 98.3719 12.1904 98.2963 12.2148 98.2225C12.5337 97.1305 12.9373 96.0751 13.4206 95.0696C13.6846 94.5254 13.9753 93.9996 14.291 93.4948C15.1087 92.1945 16.1201 91.0785 17.2763 90.2006C18.4565 89.2783 19.7847 88.6485 21.1797 88.3499C22.5747 88.0514 24.0069 88.0903 25.3886 88.4643C25.4632 88.4853 25.5362 88.5063 25.611 88.5292Z" fill="#CFCFCF"/>
<path d="M25.6124 88.6378C22.2445 89.6313 19.2913 92.0078 17.2883 95.3366C16.8486 96.0453 16.5197 96.8401 16.3169 97.6838C16.1402 98.5611 16.1691 99.478 16.4004 100.338C16.6031 101.173 16.8913 102.014 16.9207 102.864C16.9369 103.281 16.8689 103.695 16.7223 104.075C16.5758 104.454 16.3547 104.787 16.0774 105.047C15.4095 105.698 14.5442 105.996 13.6852 106.251C12.7314 106.534 11.7346 106.81 11.0272 107.59C10.9414 107.685 10.8002 107.502 10.8858 107.408C12.1167 106.051 14.0874 106.203 15.5143 105.212C16.1801 104.75 16.7005 104.029 16.7242 103.048C16.7449 102.19 16.4484 101.323 16.237 100.478C16.0016 99.6384 15.9448 98.7441 16.0717 97.873C16.2341 97.016 16.5341 96.2032 16.9558 95.478C17.8704 93.8498 19.0285 92.4292 20.3743 91.2849C21.9319 89.9494 23.6918 88.9737 25.5602 88.41C25.6779 88.374 25.7293 88.6021 25.6125 88.6378H25.6124Z" fill="white"/>
<path d="M17.8631 94.2207C16.8646 93.1129 16.6148 91.4066 17.2736 90.2354C17.3385 90.12 17.5117 90.2581 17.4467 90.3736C16.8295 91.4709 17.0681 93.045 18.0015 94.0806C18.0997 94.1896 17.9608 94.3291 17.8631 94.2207Z" fill="white"/>
<path d="M16.251 99.9219C16.857 99.9758 17.466 99.8845 18.041 99.6538C18.6161 99.423 19.1451 99.0576 19.5961 98.5796C19.6822 98.4855 19.8234 98.6676 19.7375 98.7616C19.2671 99.2579 18.7157 99.6368 18.1168 99.8754C17.5178 100.114 16.8838 100.207 16.2531 100.15C16.126 100.141 16.1246 99.9131 16.251 99.9219Z" fill="white"/>
<path d="M21.9884 90.2635C22.1394 90.5106 22.335 90.7155 22.5613 90.8637C22.7875 91.0119 23.0388 91.0997 23.2973 91.121C23.4243 91.128 23.4255 91.3558 23.2994 91.3488C23.0139 91.3239 22.7364 91.2266 22.4861 91.0634C22.2358 90.9002 22.0187 90.6751 21.85 90.4037C21.832 90.3823 21.8218 90.3535 21.8215 90.3235C21.8213 90.2935 21.8309 90.2644 21.8485 90.2426C21.8697 90.2245 21.896 90.2166 21.922 90.2205C21.948 90.2243 21.9717 90.2398 21.9884 90.2635Z" fill="white"/>
<path d="M185.806 92.4385C186.104 87.2406 184.223 81.9896 180.326 80.0602C181.114 85.4156 180.144 91.3668 177.641 96.526C176.666 98.5355 175.414 100.681 175.681 102.781C175.847 104.087 176.604 105.124 177.53 105.799C178.455 106.475 179.546 106.835 180.623 107.189L180.809 107.419C183.37 102.765 185.507 97.6364 185.806 92.4385Z" fill="#CFCFCF"/>
<path d="M180.269 80.1554C182.202 83.6466 183.06 87.8074 182.703 91.9492C182.644 92.8952 182.463 93.8254 182.167 94.7081C181.843 95.5925 181.347 96.3752 180.718 96.9929C180.136 97.5879 179.49 98.1271 179.024 98.8573C178.794 99.2136 178.627 99.6207 178.534 100.054C178.441 100.488 178.424 100.939 178.483 101.38C178.619 102.427 179.081 103.301 179.56 104.133C180.092 105.056 180.659 106.004 180.756 107.192C180.768 107.336 180.964 107.275 180.952 107.131C180.784 105.064 179.298 103.807 178.798 101.924C178.663 101.469 178.616 100.984 178.663 100.505C178.71 100.026 178.848 99.5656 179.068 99.1584C179.502 98.386 180.168 97.8294 180.761 97.2322C181.382 96.6368 181.888 95.8922 182.243 95.0484C182.575 94.1805 182.785 93.2554 182.866 92.3088C183.067 90.2677 182.985 88.2018 182.622 86.1919C182.233 83.9796 181.488 81.8749 180.426 79.991C180.36 79.8762 180.204 80.0414 180.269 80.1554V80.1554Z" fill="white"/>
<path d="M182.877 90.5577C183.518 90.4104 184.104 90.0323 184.553 89.4761C185.003 88.9198 185.293 88.213 185.384 87.4541C185.398 87.3063 185.202 87.306 185.188 87.454C185.104 88.1607 184.834 88.8189 184.415 89.3359C183.996 89.8529 183.449 90.2028 182.851 90.3362C182.839 90.338 182.827 90.3426 182.816 90.3499C182.805 90.3572 182.795 90.367 182.787 90.3787C182.78 90.3905 182.774 90.4038 182.771 90.4182C182.767 90.4325 182.767 90.4474 182.768 90.4621C182.77 90.4768 182.774 90.4909 182.781 90.5037C182.787 90.5165 182.795 90.5276 182.805 90.5365C182.816 90.5454 182.827 90.5519 182.839 90.5555C182.852 90.5592 182.864 90.5599 182.877 90.5577Z" fill="white"/>
<path d="M181.042 96.7312C180.564 96.313 180.167 95.7806 179.876 95.1692C179.586 94.5578 179.409 93.8811 179.358 93.1838C179.346 93.0399 179.15 93.101 179.162 93.2447C179.216 93.9702 179.402 94.6738 179.705 95.3091C180.008 95.9445 180.423 96.4973 180.922 96.9309C181.017 97.0128 181.137 96.8126 181.042 96.7312Z" fill="white"/>
<path d="M182.004 84.15C181.781 84.2627 181.536 84.3065 181.294 84.2773C181.052 84.2481 180.821 84.1468 180.621 83.9831C180.527 83.8997 180.407 84.0999 180.501 84.1827C180.721 84.3624 180.977 84.4739 181.245 84.5069C181.512 84.5399 181.782 84.4933 182.03 84.3714C182.056 84.3627 182.078 84.3439 182.094 84.3183C182.109 84.2927 182.117 84.2616 182.115 84.2302C182.113 84.2158 182.109 84.2021 182.102 84.1899C182.095 84.1778 182.086 84.1675 182.076 84.1599C182.065 84.1522 182.053 84.1474 182.041 84.1457C182.029 84.144 182.016 84.1454 182.004 84.15H182.004Z" fill="white"/>
<path d="M166.109 88.5293C166.166 88.5835 166.224 88.6377 166.281 88.6939C167.047 89.4272 167.753 90.2429 168.389 91.1304C168.44 91.1979 168.49 91.2673 168.538 91.3367C170.061 93.524 171.176 96.0621 171.811 98.7868C172.071 99.8979 172.253 101.032 172.357 102.178C172.502 103.776 172.547 105.54 173.132 106.875C173.191 107.015 173.259 107.15 173.334 107.278L180.52 107.706C180.537 107.698 180.555 107.691 180.573 107.682L180.857 107.715C180.856 107.654 180.853 107.591 180.851 107.531C180.85 107.495 180.848 107.46 180.847 107.425C180.846 107.401 180.844 107.378 180.845 107.356C180.844 107.348 180.844 107.34 180.843 107.335C180.843 107.313 180.842 107.293 180.842 107.274C180.826 106.923 180.809 106.572 180.788 106.221C180.788 106.219 180.788 106.219 180.787 106.217C180.664 103.576 180.255 100.965 179.571 98.4455C179.55 98.3719 179.529 98.2963 179.505 98.2226C179.186 97.1305 178.782 96.0751 178.299 95.0696C178.035 94.5254 177.745 93.9996 177.429 93.4948C176.611 92.1945 175.6 91.0785 174.444 90.2006C173.263 89.2783 171.935 88.6485 170.54 88.3499C169.145 88.0514 167.713 88.0903 166.331 88.4643C166.257 88.4853 166.184 88.5063 166.109 88.5293Z" fill="#CFCFCF"/>
<path d="M166.107 88.6378C169.475 89.6313 172.429 92.0078 174.432 95.3366C174.871 96.0453 175.2 96.8401 175.403 97.6838C175.58 98.5611 175.551 99.478 175.319 100.338C175.117 101.173 174.829 102.014 174.799 102.864C174.783 103.281 174.851 103.695 174.997 104.075C175.144 104.454 175.365 104.787 175.642 105.047C176.31 105.698 177.176 105.996 178.035 106.251C178.988 106.534 179.985 106.81 180.693 107.59C180.778 107.685 180.92 107.502 180.834 107.408C179.603 106.051 177.632 106.203 176.206 105.212C175.54 104.75 175.019 104.029 174.996 103.048C174.975 102.19 175.271 101.323 175.483 100.478C175.718 99.6384 175.775 98.7441 175.648 97.873C175.486 97.016 175.186 96.2032 174.764 95.478C173.849 93.8498 172.691 92.4292 171.346 91.2849C169.788 89.9494 168.028 88.9737 166.16 88.41C166.042 88.374 165.991 88.6021 166.107 88.6378Z" fill="white"/>
<path d="M173.857 94.2207C174.855 93.1129 175.105 91.4066 174.446 90.2354C174.381 90.12 174.208 90.2581 174.273 90.3736C174.89 91.4709 174.652 93.045 173.718 94.0806C173.62 94.1896 173.759 94.3291 173.857 94.2207Z" fill="white"/>
<path d="M175.469 99.9219C174.863 99.9758 174.254 99.8845 173.679 99.6538C173.104 99.423 172.575 99.0576 172.124 98.5796C172.038 98.4855 171.896 98.6676 171.982 98.7616C172.453 99.2579 173.004 99.6368 173.603 99.8754C174.202 100.114 174.836 100.207 175.467 100.15C175.594 100.141 175.595 99.9131 175.469 99.9219Z" fill="white"/>
<path d="M169.731 90.2635C169.58 90.5106 169.385 90.7155 169.159 90.8637C168.932 91.0119 168.681 91.0997 168.423 91.121C168.296 91.128 168.294 91.3558 168.42 91.3488C168.706 91.3239 168.984 91.2266 169.234 91.0634C169.484 90.9002 169.701 90.6751 169.87 90.4037C169.888 90.3823 169.898 90.3535 169.898 90.3235C169.899 90.2935 169.889 90.2644 169.871 90.2426C169.85 90.2245 169.824 90.2166 169.798 90.2205C169.772 90.2243 169.748 90.2398 169.731 90.2635Z" fill="white"/>
<path d="M12.2844 66.7051H10.9673V67.2202H12.2844V66.7051Z" fill="#989898"/>
<path d="M178.043 67.2202H175.37V66.7051H178.043V67.2202ZM172.696 67.2202H170.022V66.7051H172.696V67.2202ZM167.349 67.2202H164.675V66.7051H167.349V67.2202ZM162.002 67.2202H159.328V66.7051H162.002V67.2202ZM156.655 67.2202H153.981V66.7051H156.655V67.2202ZM151.308 67.2202H148.634V66.7051H151.308V67.2202ZM145.961 67.2202H143.287V66.7051H145.961V67.2202ZM140.614 67.2202H137.94V66.7051H140.614L140.614 67.2202ZM135.267 67.2202H132.593V66.7051H135.267V67.2202ZM129.92 67.2202H127.246V66.7051H129.92V67.2202ZM124.573 67.2202H121.899V66.7051H124.573V67.2202ZM119.226 67.2202H116.552V66.7051H119.226V67.2202ZM113.878 67.2202H111.205V66.7051H113.878V67.2202ZM108.531 67.2202H105.858V66.7051H108.531V67.2202ZM103.184 67.2202H100.511V66.7051H103.184V67.2202ZM97.8373 67.2202H95.1638V66.7051H97.8373V67.2202ZM92.4903 67.2202H89.8168V66.7051H92.4903V67.2202ZM87.1432 67.2202H84.4697V66.7051H87.1432V67.2202ZM81.7961 67.2202H79.1226V66.7051H81.7961V67.2202ZM76.4491 67.2202H73.7756V66.7051H76.4491V67.2202ZM71.102 67.2202H68.4285V66.7051H71.102V67.2202ZM65.7549 67.2202H63.0815V66.7051H65.7549V67.2202ZM60.4079 67.2202H57.7344V66.7051H60.4079V67.2202ZM55.0608 67.2202H52.3873V66.7051H55.0609L55.0608 67.2202ZM49.7137 67.2202H47.0403V66.7051H49.7137V67.2202ZM44.3668 67.2202H41.6932V66.7051H44.3668V67.2202ZM39.0197 67.2202H36.3461V66.7051H39.0197V67.2202ZM33.6727 67.2202H30.9991V66.7051H33.6727V67.2202ZM28.3256 67.2202H25.652V66.7051H28.3256V67.2202ZM22.9785 67.2202H20.305V66.7051H22.9785V67.2202ZM17.6315 67.2202H14.9579V66.7051H17.6315V67.2202Z" fill="#989898"/>
<path d="M182.034 66.7051H180.717V67.2202H182.034V66.7051Z" fill="#989898"/>
<path d="M12.2844 63.0991H10.9673V63.6143H12.2844V63.0991Z" fill="#989898"/>
<path d="M178.043 63.6143H175.37V63.0991H178.043V63.6143ZM172.696 63.6143H170.022V63.0991H172.696V63.6143ZM167.349 63.6143H164.675V63.0991H167.349V63.6143ZM162.002 63.6143H159.328V63.0991H162.002V63.6143ZM156.655 63.6143H153.981V63.0991H156.655V63.6143ZM151.308 63.6143H148.634V63.0991H151.308V63.6143ZM145.961 63.6143H143.287V63.0991H145.961V63.6143ZM140.614 63.6143H137.94V63.0991H140.614L140.614 63.6143ZM135.267 63.6143H132.593V63.0991H135.267V63.6143ZM129.92 63.6143H127.246V63.0991H129.92V63.6143ZM124.573 63.6143H121.899V63.0991H124.573V63.6143ZM119.226 63.6143H116.552V63.0991H119.226V63.6143ZM113.878 63.6143H111.205V63.0991H113.878V63.6143ZM108.531 63.6143H105.858V63.0991H108.531V63.6143ZM103.184 63.6143H100.511V63.0991H103.184V63.6143ZM97.8373 63.6143H95.1638V63.0991H97.8373V63.6143ZM92.4903 63.6143H89.8168V63.0991H92.4903V63.6143ZM87.1432 63.6143H84.4697V63.0991H87.1432V63.6143ZM81.7961 63.6143H79.1226V63.0991H81.7961V63.6143ZM76.4491 63.6143H73.7756V63.0991H76.4491V63.6143ZM71.102 63.6143H68.4285V63.0991H71.102V63.6143ZM65.7549 63.6143H63.0815V63.0991H65.7549V63.6143ZM60.4079 63.6143H57.7344V63.0991H60.4079V63.6143ZM55.0608 63.6143H52.3873V63.0991H55.0609L55.0608 63.6143ZM49.7137 63.6143H47.0403V63.0991H49.7137V63.6143ZM44.3668 63.6143H41.6932V63.0991H44.3668V63.6143ZM39.0197 63.6143H36.3461V63.0991H39.0197V63.6143ZM33.6727 63.6143H30.9991V63.0991H33.6727V63.6143ZM28.3256 63.6143H25.652V63.0991H28.3256V63.6143ZM22.9785 63.6143H20.305V63.0991H22.9785V63.6143ZM17.6315 63.6143H14.9579V63.0991H17.6315V63.6143Z" fill="#989898"/>
<path d="M182.034 63.0991H180.717V63.6143H182.034V63.0991Z" fill="#989898"/>
<path d="M12.2844 55.6298H10.9673V56.1449H12.2844V55.6298Z" fill="#989898"/>
<path d="M178.043 56.1449H175.37V55.6298H178.043V56.1449ZM172.696 56.1449H170.022V55.6298H172.696V56.1449ZM167.349 56.1449H164.675V55.6298H167.349V56.1449ZM162.002 56.1449H159.328V55.6298H162.002V56.1449ZM156.655 56.1449H153.981V55.6298H156.655V56.1449ZM151.308 56.1449H148.634V55.6298H151.308V56.1449ZM145.961 56.1449H143.287V55.6298H145.961V56.1449ZM140.614 56.1449H137.94V55.6298H140.614L140.614 56.1449ZM135.267 56.1449H132.593V55.6298H135.267V56.1449ZM129.92 56.1449H127.246V55.6298H129.92V56.1449ZM124.573 56.1449H121.899V55.6298H124.573V56.1449ZM119.226 56.1449H116.552V55.6298H119.226V56.1449ZM113.878 56.1449H111.205V55.6298H113.878V56.1449ZM108.531 56.1449H105.858V55.6298H108.531V56.1449ZM103.184 56.1449H100.511V55.6298H103.184V56.1449ZM97.8373 56.1449H95.1638V55.6298H97.8373V56.1449ZM92.4903 56.1449H89.8168V55.6298H92.4903V56.1449ZM87.1432 56.1449H84.4697V55.6298H87.1432V56.1449ZM81.7961 56.1449H79.1226V55.6298H81.7961V56.1449ZM76.4491 56.1449H73.7756V55.6298H76.4491V56.1449ZM71.102 56.1449H68.4285V55.6298H71.102V56.1449ZM65.7549 56.1449H63.0815V55.6298H65.7549V56.1449ZM60.4079 56.1449H57.7344V55.6298H60.4079V56.1449ZM55.0608 56.1449H52.3873V55.6298H55.0609L55.0608 56.1449ZM49.7137 56.1449H47.0403V55.6298H49.7137V56.1449ZM44.3668 56.1449H41.6932V55.6298H44.3668V56.1449ZM39.0197 56.1449H36.3461V55.6298H39.0197V56.1449ZM33.6727 56.1449H30.9991V55.6298H33.6727V56.1449ZM28.3256 56.1449H25.652V55.6298H28.3256V56.1449ZM22.9785 56.1449H20.305V55.6298H22.9785V56.1449ZM17.6315 56.1449H14.9579V55.6298H17.6315V56.1449Z" fill="#989898"/>
<path d="M182.034 55.6298H180.717V56.1449H182.034V55.6298Z" fill="#989898"/>
<path d="M12.2844 50.4785H10.9673V50.9936H12.2844V50.4785Z" fill="#989898"/>
<path d="M178.043 50.9936H175.37V50.4785H178.043V50.9936ZM172.696 50.9936H170.022V50.4785H172.696V50.9936ZM167.349 50.9936H164.675V50.4785H167.349V50.9936ZM162.002 50.9936H159.328V50.4785H162.002V50.9936ZM156.655 50.9936H153.981V50.4785H156.655V50.9936ZM151.308 50.9936H148.634V50.4785H151.308V50.9936ZM145.961 50.9936H143.287V50.4785H145.961V50.9936ZM140.614 50.9936H137.94V50.4785H140.614L140.614 50.9936ZM135.267 50.9936H132.593V50.4785H135.267V50.9936ZM129.92 50.9936H127.246V50.4785H129.92V50.9936ZM124.573 50.9936H121.899V50.4785H124.573V50.9936ZM119.226 50.9936H116.552V50.4785H119.226V50.9936ZM113.878 50.9936H111.205V50.4785H113.878V50.9936ZM108.531 50.9936H105.858V50.4785H108.531V50.9936ZM103.184 50.9936H100.511V50.4785H103.184V50.9936ZM97.8373 50.9936H95.1638V50.4785H97.8373V50.9936ZM92.4903 50.9936H89.8168V50.4785H92.4903V50.9936ZM87.1432 50.9936H84.4697V50.4785H87.1432V50.9936ZM81.7961 50.9936H79.1226V50.4785H81.7961V50.9936ZM76.4491 50.9936H73.7756V50.4785H76.4491V50.9936ZM71.102 50.9936H68.4285V50.4785H71.102V50.9936ZM65.7549 50.9936H63.0815V50.4785H65.7549V50.9936ZM60.4079 50.9936H57.7344V50.4785H60.4079V50.9936ZM55.0608 50.9936H52.3873V50.4785H55.0609L55.0608 50.9936ZM49.7137 50.9936H47.0403V50.4785H49.7137V50.9936ZM44.3668 50.9936H41.6932V50.4785H44.3668V50.9936ZM39.0197 50.9936H36.3461V50.4785H39.0197V50.9936ZM33.6727 50.9936H30.9991V50.4785H33.6727V50.9936ZM28.3256 50.9936H25.652V50.4785H28.3256V50.9936ZM22.9785 50.9936H20.305V50.4785H22.9785V50.9936ZM17.6315 50.9936H14.9579V50.4785H17.6315V50.9936Z" fill="#989898"/>
<path d="M182.034 50.4785H180.717V50.9936H182.034V50.4785Z" fill="#989898"/>
<path d="M12.2844 39.4032H10.9673V39.9183H12.2844V39.4032Z" fill="#989898"/>
<path d="M178.043 39.9183H175.37V39.4032H178.043V39.9183ZM172.696 39.9183H170.022V39.4032H172.696V39.9183ZM167.349 39.9183H164.675V39.4032H167.349V39.9183ZM162.002 39.9183H159.328V39.4032H162.002V39.9183ZM156.655 39.9183H153.981V39.4032H156.655V39.9183ZM151.308 39.9183H148.634V39.4032H151.308V39.9183ZM145.961 39.9183H143.287V39.4032H145.961V39.9183ZM140.614 39.9183H137.94V39.4032H140.614L140.614 39.9183ZM135.267 39.9183H132.593V39.4032H135.267V39.9183ZM129.92 39.9183H127.246V39.4032H129.92V39.9183ZM124.573 39.9183H121.899V39.4032H124.573V39.9183ZM119.226 39.9183H116.552V39.4032H119.226V39.9183ZM113.878 39.9183H111.205V39.4032H113.878V39.9183ZM108.531 39.9183H105.858V39.4032H108.531V39.9183ZM103.184 39.9183H100.511V39.4032H103.184V39.9183ZM97.8373 39.9183H95.1638V39.4032H97.8373V39.9183ZM92.4903 39.9183H89.8168V39.4032H92.4903V39.9183ZM87.1432 39.9183H84.4697V39.4032H87.1432V39.9183ZM81.7961 39.9183H79.1226V39.4032H81.7961V39.9183ZM76.4491 39.9183H73.7756V39.4032H76.4491V39.9183ZM71.102 39.9183H68.4285V39.4032H71.102V39.9183ZM65.7549 39.9183H63.0815V39.4032H65.7549V39.9183ZM60.4079 39.9183H57.7344V39.4032H60.4079V39.9183ZM55.0608 39.9183H52.3873V39.4032H55.0609L55.0608 39.9183ZM49.7137 39.9183H47.0403V39.4032H49.7137V39.9183ZM44.3668 39.9183H41.6932V39.4032H44.3668V39.9183ZM39.0197 39.9183H36.3461V39.4032H39.0197V39.9183ZM33.6727 39.9183H30.9991V39.4032H33.6727V39.9183ZM28.3256 39.9183H25.652V39.4032H28.3256V39.9183ZM22.9785 39.9183H20.305V39.4032H22.9785V39.9183ZM17.6315 39.9183H14.9579V39.4032H17.6315V39.9183Z" fill="#989898"/>
<path d="M182.034 39.4032H180.717V39.9183H182.034V39.4032Z" fill="#989898"/>
<path d="M74.7401 24.5193C74.7401 27.2923 74.0393 30.003 72.7264 32.3087C71.4134 34.6143 69.5473 36.4114 67.3639 37.4725C65.1806 38.5337 62.778 38.8114 60.4602 38.2704C58.1424 37.7294 56.0133 36.3941 54.3422 34.4333C52.6711 32.4725 51.5331 29.9743 51.0721 27.2546C50.611 24.5349 50.8476 21.7159 51.752 19.154C52.6564 16.5921 54.1879 14.4024 56.1529 12.8618C58.1179 11.3212 60.428 10.4989 62.7913 10.4989C64.3624 10.4907 65.9193 10.8478 67.3722 11.5494C68.825 12.2511 70.145 13.2836 71.256 14.5871C72.3669 15.8907 73.2468 17.4395 73.8448 19.1443C74.4428 20.849 74.7471 22.6759 74.7401 24.5193Z" fill="#CFCFCF"/>
<path d="M67.6781 21.1647L67.619 21.2897C68.1452 19.768 67.6667 17.8928 66.728 16.7453C65.7892 15.5979 64.4842 15.0733 63.1991 14.8652C62.2453 14.6678 61.2643 14.7572 60.3479 15.1252C59.0344 15.7189 58.0308 17.0934 57.1929 18.5232C56.8097 19.1772 56.4328 19.9228 56.471 20.7402C56.5064 21.4988 56.8902 22.1425 57.2044 22.7861C57.5187 23.4296 57.7812 24.2281 57.5556 24.9305C57.4212 25.3491 57.1371 25.6506 56.9067 25.993C56.6762 26.3354 56.4866 26.7983 56.5979 27.2279C56.6473 27.3923 56.7323 27.5388 56.8444 27.6531C56.9565 27.7675 57.092 27.8457 57.2376 27.8802C57.5196 27.9354 57.808 27.9274 58.0875 27.8566L65.4122 26.5581C65.9099 26.4698 66.3821 26.2417 66.7884 25.893C67.1948 25.5444 67.5232 25.0856 67.7458 24.5559C67.9684 24.0261 68.0785 23.441 68.0667 22.8505C68.0549 22.2601 67.9216 21.6817 67.6781 21.1647Z" fill="#2F2E41"/>
<path d="M62.2299 26.4982C64.2077 26.4982 65.8111 24.6168 65.8111 22.2961C65.8111 19.9753 64.2077 18.094 62.2299 18.094C60.252 18.094 58.6487 19.9753 58.6487 22.2961C58.6487 24.6168 60.252 26.4982 62.2299 26.4982Z" fill="#FFB9B9"/>
<path d="M71.7635 33.7765C69.6934 36.5403 66.78 38.2381 63.6523 38.5033C60.5247 38.7685 57.4335 37.5799 55.0463 35.1941L56.0711 31.8385C56.3028 31.2425 56.6683 30.7318 57.1284 30.361C57.5886 29.9902 58.1262 29.7733 58.6834 29.7337L59.3354 29.6868L60.8901 28.1134C60.8901 28.1134 65.0791 27.9379 65.017 27.8539L67.5544 29.6448L67.5523 29.6324L68.5498 29.7041C69.1071 29.7435 69.6447 29.9603 70.1049 30.3311C70.5651 30.7019 70.9306 31.2128 71.162 31.8089L71.7635 33.7765Z" fill="#FC97C6"/>
<path d="M65.6268 18.396C65.5343 17.8222 65.0355 17.5597 64.6082 17.4326C63.3686 17.0615 62.0791 16.9784 60.8124 17.188C59.889 17.3425 58.9436 17.6832 58.2736 18.529C57.7333 19.2411 57.4272 20.156 57.4102 21.1092C57.3829 21.6792 57.4914 22.2468 57.7236 22.7484C57.8275 22.982 57.9813 23.1798 58.17 23.3225C58.3587 23.4652 58.5758 23.5479 58.8 23.5624L58.843 23.7378C59.77 23.5625 60.6538 23.1544 61.4339 22.5412C62.2141 21.9281 62.8721 21.1244 63.3631 20.1852C63.1656 21.0124 62.7728 21.7571 62.2298 22.3333C63.4437 21.7634 64.4989 20.8092 65.2779 19.577C65.4906 19.2457 65.6971 18.8326 65.6268 18.396Z" fill="#2F2E41"/>
<path d="M164.616 42.9839C171.215 42.9839 176.565 36.7067 176.565 28.9634C176.565 21.2202 171.215 14.943 164.616 14.943C158.017 14.943 152.667 21.2202 152.667 28.9634C152.667 36.7067 158.017 42.9839 164.616 42.9839Z" fill="#CFCFCF"/>
<path d="M161.335 23.7024C162.267 23.7024 163.022 22.8162 163.022 21.723C163.022 20.6298 162.267 19.7435 161.335 19.7435C160.403 19.7435 159.648 20.6298 159.648 21.723C159.648 22.8162 160.403 23.7024 161.335 23.7024Z" fill="#2F2E41"/>
<path d="M164.034 31.2244C166.394 31.2244 168.308 28.9793 168.308 26.2098C168.308 23.4403 166.394 21.1952 164.034 21.1952C161.674 21.1952 159.761 23.4403 159.761 26.2098C159.761 28.9793 161.674 31.2244 164.034 31.2244Z" fill="#2F2E41"/>
<path d="M164.388 31.2231C166.306 31.2231 167.861 29.3987 167.861 27.1482C167.861 24.8977 166.306 23.0732 164.388 23.0732C162.47 23.0732 160.915 24.8977 160.915 27.1482C160.915 29.3987 162.47 31.2231 164.388 31.2231Z" fill="#9E616A"/>
<path d="M166.746 22.9944C166.138 22.559 165.441 22.3236 164.728 22.3125C164.015 22.3015 163.313 22.5154 162.695 22.9317C162.077 23.348 161.566 23.9516 161.214 24.6792C160.863 25.4069 160.685 26.2319 160.698 27.068C162.468 27.5893 164.327 27.9883 166.214 27.1927L166.66 25.9129L166.922 27.1937C167.497 27.4693 168.073 27.7025 168.65 27.191C168.673 26.3572 168.51 25.5308 168.176 24.7944C167.842 24.0579 167.349 23.4372 166.746 22.9944Z" fill="#2F2E41"/>
<path d="M159.764 16.3496C159.172 16.0529 158.521 15.9567 157.884 16.0717C157.248 16.1868 156.652 16.5085 156.163 17.0006C155.685 17.5066 155.321 18.1436 155.104 18.8547C154.886 19.5657 154.822 20.3288 154.917 21.076C155.109 22.5957 155.896 23.9043 156.622 25.1828C157.347 26.4613 158.056 27.8622 158.056 29.3984C158.055 30.5048 157.681 31.5658 157.014 32.3487C156.348 33.1315 155.444 33.5724 154.501 33.5746C155.608 34.1337 156.763 34.7037 157.967 34.6374C159.17 34.5711 160.432 33.6632 160.628 32.2684C160.77 31.2633 160.349 30.2832 159.999 29.3512C159.428 27.8326 159.015 26.2387 158.77 24.6041C158.653 23.824 158.576 23.0038 158.793 22.2536C158.966 21.6976 159.286 21.2215 159.707 20.8954C160.128 20.5692 160.627 20.4104 161.13 20.4422L161.528 20.0224C161.596 19.2711 161.463 18.5135 161.147 17.8552C160.83 17.1968 160.347 16.6705 159.764 16.3496Z" fill="#2F2E41"/>
<path d="M173.607 38.3441C171.537 41.1079 168.623 42.8057 165.496 43.0709C162.368 43.3362 159.277 42.1476 156.89 39.7617L157.915 36.4062C158.146 35.8102 158.512 35.2994 158.972 34.9286C159.432 34.5578 159.97 34.341 160.527 34.3014L161.179 34.2544L162.733 32.6811C162.733 32.6811 166.922 32.5055 166.86 32.4215L169.398 34.2124L169.396 34.2L170.393 34.2717C170.95 34.3111 171.488 34.5279 171.948 34.8987C172.408 35.2695 172.774 35.7804 173.005 36.3765L173.607 38.3441Z" fill="#FC97C6"/>
<path d="M142.568 14.0453C142.564 16.8183 141.859 19.5275 140.543 21.8304C139.226 24.1333 137.357 25.9265 135.173 26.9831C132.988 28.0397 130.585 28.3124 128.268 27.7666C125.951 27.2208 123.824 25.881 122.155 23.9168C120.487 21.9525 119.353 19.452 118.896 16.7313C118.439 14.0106 118.68 11.1921 119.588 8.63209C120.497 6.07207 122.031 3.88557 123.999 2.34908C125.966 0.812583 128.277 -0.00489456 130.641 2.20478e-05C132.211 -0.00149315 133.766 0.361129 135.216 1.06705C136.667 1.77296 137.984 2.80826 139.093 4.11344C140.201 5.41862 141.079 6.96794 141.675 8.67238C142.272 10.3768 142.575 12.2028 142.568 14.0453Z" fill="#CFCFCF"/>
<path d="M125.081 9.45965C125.575 7.61205 126.699 5.91748 128.253 5.29289C129.807 4.6683 132.082 5.61976 133.25 6.98587C135.387 9.48477 135.909 18.0694 134.441 20.7822C134.149 20.7641 133.141 20.7506 132.845 20.7377L132.427 19.1026V20.7215C131.956 20.7045 131.482 20.6927 131.004 20.6862C129.4 20.6628 127.867 19.911 126.726 18.5887C125.585 17.2664 124.926 15.4766 124.887 13.5956C124.848 11.7962 124.887 10.1878 125.081 9.45965Z" fill="#2F2E41"/>
<path d="M130.442 15.583C132.323 15.583 133.848 13.7941 133.848 11.5873C133.848 9.3805 132.323 7.59155 130.442 7.59155C128.562 7.59155 127.037 9.3805 127.037 11.5873C127.037 13.7941 128.562 15.583 130.442 15.583Z" fill="#9E616A"/>
<path d="M127.503 8.0781L131.424 5.77441C132.226 6.19826 132.916 6.86603 133.424 7.70846C133.931 8.55088 134.238 9.5373 134.311 10.5654L134.408 11.939L132.767 11.4486L132.587 9.69218L132.308 11.3116L131.55 11.0854L131.557 8.35855L130.799 11.0834L128.093 10.3539L127.503 8.0781Z" fill="#2F2E41"/>
<path d="M139.486 23.2986C137.416 26.0624 134.503 27.7602 131.375 28.0254C128.248 28.2906 125.156 27.102 122.769 24.7162L123.794 21.3606C124.026 20.7646 124.391 20.2539 124.851 19.8831C125.312 19.5123 125.849 19.2954 126.406 19.2558L127.058 19.2089L128.613 17.6355C128.613 17.6355 132.802 17.46 132.74 17.376L135.277 19.1668L135.275 19.1545L136.273 19.2262C136.83 19.2656 137.368 19.4824 137.828 19.8532C138.288 20.224 138.653 20.7349 138.885 21.331L139.486 23.2986Z" fill="#FC97C6"/>
<path d="M97.7711 50.7108C104.37 50.7108 109.72 44.4336 109.72 36.6904C109.72 28.9471 104.37 22.6699 97.7711 22.6699C91.1719 22.6699 85.8223 28.9471 85.8223 36.6904C85.8223 44.4336 91.1719 50.7108 97.7711 50.7108Z" fill="#CFCFCF"/>
<path d="M97.4413 38.4271C99.5479 38.4271 101.256 36.4234 101.256 33.9517C101.256 31.4799 99.5479 29.4762 97.4413 29.4762C95.3348 29.4762 93.6271 31.4799 93.6271 33.9517C93.6271 36.4234 95.3348 38.4271 97.4413 38.4271Z" fill="#FFB6B6"/>
<path d="M106.735 46.071C104.665 48.8349 101.752 50.5326 98.6243 50.7979C95.4966 51.0631 92.4055 49.8745 90.0182 47.4886L91.0431 44.1331C91.2747 43.5371 91.6402 43.0263 92.1004 42.6555C92.5605 42.2847 93.0981 42.0679 93.6553 42.0283L94.3073 41.9813L95.862 40.408C95.862 40.408 100.051 40.2325 99.9889 40.1484L102.526 41.9393L102.524 41.9269L103.522 41.9986C104.079 42.038 104.617 42.2548 105.077 42.6256C105.537 42.9964 105.902 43.5073 106.134 44.1034L106.735 46.071Z" fill="#FC97C6"/>
<path d="M101.464 31.1761C101.142 29.8225 100.409 28.6534 99.4046 27.8884C98.6039 27.2874 97.6046 26.9806 96.6974 27.2984C95.7902 27.6162 95.0391 28.6609 95.0985 29.7896C94.9305 29.7377 94.7534 29.7422 94.5874 29.8023C94.4213 29.8625 94.273 29.976 94.1591 30.13C93.9315 30.4453 93.7732 30.8212 93.6982 31.2249C93.407 32.4904 93.4263 33.8266 93.7538 35.0798L93.7358 35.2597C94.1784 35.1737 94.5141 34.7282 94.7229 34.2534C94.9316 33.7787 95.0517 33.252 95.278 32.7888C95.5043 32.3257 95.88 31.9126 96.3282 31.8981L96.2887 32.7021C96.6744 32.4689 97.06 32.2358 97.4456 32.0027C97.3539 32.2601 97.2621 32.5176 97.1704 32.7751C97.5072 32.6099 97.844 32.4447 98.1807 32.2796C98.1431 32.5271 98.1054 32.7747 98.0678 33.0223C98.1561 32.8074 98.2807 32.6157 98.4339 32.4589C98.5872 32.3021 98.7659 32.1834 98.9594 32.11C99.1528 32.0367 99.357 32.0101 99.5595 32.0319C99.7619 32.0538 99.9585 32.1236 100.137 32.2371C100.54 32.5551 100.83 33.0342 100.954 33.5851C101.076 34.1346 101.142 34.6994 101.15 35.2673C101.67 33.9922 101.782 32.5399 101.464 31.1761Z" fill="#2F2E41"/>
<path d="M28.5954 57.0846C35.1945 57.0846 40.5442 50.8074 40.5442 43.0641C40.5442 35.3209 35.1945 29.0437 28.5954 29.0437C21.9962 29.0437 16.6465 35.3209 16.6465 43.0641C16.6465 50.8074 21.9962 57.0846 28.5954 57.0846Z" fill="#CFCFCF"/>
<path d="M28.3323 44.5185C30.3343 44.5185 31.9573 42.6142 31.9573 40.2651C31.9573 37.9159 30.3343 36.0116 28.3323 36.0116C26.3303 36.0116 24.7073 37.9159 24.7073 40.2651C24.7073 42.6142 26.3303 44.5185 28.3323 44.5185Z" fill="#9E616A"/>
<path d="M37.4058 52.3212C35.3358 55.085 32.4224 56.7828 29.2947 57.048C26.1671 57.3132 23.0759 56.1246 20.6887 53.7388L21.7135 50.3832C21.9452 49.7872 22.3106 49.2764 22.7708 48.9056C23.231 48.5348 23.7685 48.318 24.3258 48.2784L24.9778 48.2314L26.5325 46.6581C26.5325 46.6581 30.7215 46.4826 30.6594 46.3986L33.1968 48.1894L33.1947 48.1771L34.1922 48.2488C34.7495 48.2882 35.287 48.5049 35.7473 48.8758C36.2075 49.2466 36.5729 49.7574 36.8044 50.3535L37.4058 52.3212Z" fill="#FC97C6"/>
<path d="M25.0393 42.2323C25.0321 42.2088 25.0255 42.185 25.0184 42.1614C25.0043 42.176 24.9908 42.191 24.9755 42.2046L25.0393 42.2323Z" fill="#2F2E41"/>
<path d="M32.6747 38.7518C32.6561 38.3202 32.5598 37.8982 32.392 37.5134C32.2243 37.1287 31.9889 36.7901 31.7015 36.5199C31.4728 36.3522 31.2712 36.1383 31.106 35.8882C31.0263 35.697 30.9586 35.4991 30.9037 35.2962C30.6254 34.519 29.8324 34.106 29.121 34.2237C28.7672 34.3025 28.4306 34.4643 28.1314 34.6993C27.8321 34.9343 27.5763 35.2376 27.3792 35.5912C27.1749 35.4764 26.9468 35.4326 26.7219 35.4651C26.497 35.4976 26.2848 35.6051 26.1104 35.7747C25.9359 35.9444 25.8066 36.1691 25.7376 36.4224C25.6687 36.6756 25.663 36.9467 25.7213 37.2036C25.3529 36.8554 24.757 37.134 24.527 37.619C24.2971 38.1041 24.3336 38.6977 24.4019 39.247C24.5258 40.2397 24.7321 41.2158 25.018 42.1614C25.3767 41.7907 25.3546 41.1157 25.3108 40.5451C25.2653 39.9524 25.2925 39.2286 25.7343 38.9361C26.1611 38.6535 26.6792 38.9638 27.1498 39.1243C27.5218 39.2479 27.9123 39.2754 28.2944 39.2049C28.6764 39.1344 29.0408 38.9675 29.3626 38.7158C29.5941 38.4996 29.8372 38.301 30.0902 38.121C30.218 38.0325 30.3632 37.9843 30.5116 37.9812C30.6599 37.9781 30.8065 38.0202 30.9368 38.1033C31.1432 38.312 31.2819 38.5979 31.3294 38.9127C31.5106 39.6337 31.6918 40.3547 31.873 41.0757C32.1389 40.7768 32.3479 40.4152 32.4861 40.0146C32.6243 39.614 32.6886 39.1837 32.6747 38.7518Z" fill="#2F2E41"/>
<path d="M28.6352 67.8751H27.4946V107.103H28.6352V67.8751Z" fill="#3F3D56"/>
<path d="M62.7827 49.5543H61.6421V107.103H62.7827V49.5543Z" fill="#3F3D56"/>
<path d="M97.0005 61.5994H95.8599V107.103H97.0005V61.5994Z" fill="#3F3D56"/>
<path d="M131.218 39.5167H130.078V107.103H131.218V39.5167Z" fill="#3F3D56"/>
<path d="M165.436 54.9077H164.296V107.103H165.436V54.9077Z" fill="#3F3D56"/>
<path d="M62.2827 54.571C64.2098 54.571 65.772 52.7379 65.772 50.4768C65.772 48.2156 64.2098 46.3826 62.2827 46.3826C60.3557 46.3826 58.7935 48.2156 58.7935 50.4768C58.7935 52.7379 60.3557 54.571 62.2827 54.571Z" fill="#FC97C6"/>
<path d="M130.718 43.8642C132.645 43.8642 134.208 42.0311 134.208 39.77C134.208 37.5088 132.645 35.6758 130.718 35.6758C128.791 35.6758 127.229 37.5088 127.229 39.77C127.229 42.0311 128.791 43.8642 130.718 43.8642Z" fill="#FC97C6"/>
<path d="M96.5006 65.9468C98.4276 65.9468 99.9898 64.1138 99.9898 61.8526C99.9898 59.5915 98.4276 57.7584 96.5006 57.7584C94.5735 57.7584 93.0113 59.5915 93.0113 61.8526C93.0113 64.1138 94.5735 65.9468 96.5006 65.9468Z" fill="#FC97C6"/>
<path d="M28.0649 71.9694C29.9919 71.9694 31.5541 70.1364 31.5541 67.8752C31.5541 65.614 29.9919 63.781 28.0649 63.781C26.1378 63.781 24.5756 65.614 24.5756 67.8752C24.5756 70.1364 26.1378 71.9694 28.0649 71.9694Z" fill="#FC97C6"/>
<path d="M164.936 58.586C166.863 58.586 168.425 56.7529 168.425 54.4918C168.425 52.2306 166.863 50.3976 164.936 50.3976C163.009 50.3976 161.447 52.2306 161.447 54.4918C161.447 56.7529 163.009 58.586 164.936 58.586Z" fill="#FC97C6"/>
<path d="M189.412 106.699H4.17022L3.00714 107.381C3.00715 107.562 3.06842 107.736 3.17748 107.863C3.28654 107.991 3.43445 108.063 3.58868 108.063H189.412C189.567 108.063 189.715 107.991 189.824 107.863C189.933 107.736 189.994 107.562 189.994 107.381C189.994 107.2 189.933 107.026 189.824 106.898C189.715 106.77 189.567 106.699 189.412 106.699Z" fill="#3F3D56"/>
<path d="M3.48926 111.152C5.41633 111.152 6.97852 109.319 6.97852 107.058C6.97852 104.797 5.41633 102.964 3.48926 102.964C1.5622 102.964 0 104.797 0 107.058C0 109.319 1.5622 111.152 3.48926 111.152Z" fill="#3F3D56"/>
<path d="M28.0742 123C30.0013 123 31.5635 121.167 31.5635 118.906C31.5635 116.645 30.0013 114.812 28.0742 114.812C26.1472 114.812 24.585 116.645 24.585 118.906C24.585 121.167 26.1472 123 28.0742 123Z" fill="#989898"/>
<path d="M62.3176 123C64.2447 123 65.8069 121.167 65.8069 118.906C65.8069 116.645 64.2447 114.812 62.3176 114.812C60.3906 114.812 58.8284 116.645 58.8284 118.906C58.8284 121.167 60.3906 123 62.3176 123Z" fill="#989898"/>
<path d="M96.561 123C98.4881 123 100.05 121.167 100.05 118.906C100.05 116.645 98.4881 114.812 96.561 114.812C94.634 114.812 93.0718 116.645 93.0718 118.906C93.0718 121.167 94.634 123 96.561 123Z" fill="#989898"/>
<path d="M130.585 123C132.512 123 134.074 121.167 134.074 118.906C134.074 116.645 132.512 114.812 130.585 114.812C128.658 114.812 127.096 116.645 127.096 118.906C127.096 121.167 128.658 123 130.585 123Z" fill="#989898"/>
<path d="M164.828 123C166.755 123 168.317 121.167 168.317 118.906C168.317 116.645 166.755 114.812 164.828 114.812C162.901 114.812 161.339 116.645 161.339 118.906C161.339 121.167 162.901 123 164.828 123Z" fill="#989898"/>
<path d="M190.511 111.152C192.438 111.152 194 109.319 194 107.058C194 104.797 192.438 102.964 190.511 102.964C188.584 102.964 187.021 104.797 187.021 107.058C187.021 109.319 188.584 111.152 190.511 111.152Z" fill="#3F3D56"/>
</g>
<defs>
<clipPath id="clip0_1_356">
<rect width="194" height="123" fill="white"/>
</clipPath>
</defs>
</svg>
