<svg width="207" height="122" viewBox="0 0 207 122" fill="none" xmlns="http://www.w3.org/2000/svg">
<g clip-path="url(#clip0_1_538)">
<g opacity="0.1">
<path opacity="0.1" d="M152.193 120.201C154.402 120.201 156.193 117.821 156.193 114.887C156.193 111.952 154.402 109.573 152.193 109.573C149.983 109.573 148.192 111.952 148.192 114.887C148.192 117.821 149.983 120.201 152.193 120.201Z" fill="#E173FF"/>
<path opacity="0.1" d="M155.359 92.1529C155.919 91.1656 156.21 90.0444 156.201 88.905C156.201 85.9641 154.41 83.5911 152.2 83.5911C149.991 83.5911 148.201 85.9696 148.201 88.905C148.19 90.0437 148.478 91.1649 149.036 92.1529C148.489 93.1449 148.201 94.2629 148.201 95.3999C148.201 96.5369 148.489 97.6549 149.036 98.6469C148.489 99.6393 148.202 100.758 148.202 101.895C148.202 103.032 148.489 104.15 149.036 105.143C148.478 106.131 148.19 107.252 148.201 108.391C148.201 111.332 149.993 113.705 152.2 113.705C154.408 113.705 156.201 111.326 156.201 108.391C156.212 107.252 155.924 106.131 155.366 105.143C155.913 104.15 156.201 103.032 156.201 101.895C156.201 100.758 155.913 99.6393 155.366 98.6469C155.913 97.6549 156.201 96.5369 156.201 95.3999C156.201 94.2629 155.913 93.1449 155.366 92.1529H155.359Z" fill="#E173FF"/>
<path opacity="0.1" d="M152.193 87.725C154.402 87.725 156.193 85.3459 156.193 82.4111C156.193 79.4763 154.402 77.0972 152.193 77.0972C149.983 77.0972 148.192 79.4763 148.192 82.4111C148.192 85.3459 149.983 87.725 152.193 87.725Z" fill="#E173FF"/>
<path opacity="0.1" d="M152.193 81.2292C154.402 81.2292 156.193 78.8501 156.193 75.9153C156.193 72.9805 154.402 70.6013 152.193 70.6013C149.983 70.6013 148.192 72.9805 148.192 75.9153C148.192 78.8501 149.983 81.2292 152.193 81.2292Z" fill="#E173FF"/>
<path opacity="0.1" d="M167.167 31.4664C167.712 30.7599 168.21 30.0162 168.655 29.2404L158.151 27.4887L169.519 27.5751C170.608 25.167 171.203 22.5586 171.265 19.9095C171.327 17.2604 170.856 14.6263 169.881 12.1682L154.629 20.1933L168.697 9.70513C167.378 7.39592 165.606 5.38683 163.489 3.80295C161.373 2.21907 158.958 1.09428 156.395 0.498613C153.832 -0.0970559 151.175 -0.15086 148.59 0.340552C146.006 0.831964 143.548 1.85807 141.371 3.355C139.194 4.85193 137.344 6.78764 135.936 9.04164C134.528 11.2956 133.592 13.8197 133.187 16.4566C132.781 19.0936 132.915 21.7871 133.58 24.3693C134.244 26.9516 135.425 29.3674 137.049 31.4664C136.198 32.5653 135.466 33.7541 134.865 35.0121L148.508 42.2064L133.961 37.2435C132.938 40.3069 132.683 43.581 133.221 46.7693C133.758 49.9577 135.071 52.9596 137.04 55.5032C134.817 58.3714 133.434 61.8166 133.05 65.4449C132.665 69.0732 133.294 72.738 134.865 76.0205C136.436 79.303 138.885 82.0707 141.933 84.007C144.98 85.9433 148.503 86.9702 152.099 86.9702C155.694 86.9702 159.217 85.9433 162.265 84.007C165.312 82.0707 167.761 79.303 169.332 76.0205C170.903 72.738 171.532 69.0732 171.148 65.4449C170.763 61.8166 169.38 58.3714 167.157 55.5032C169.814 52.0758 171.258 47.8417 171.258 43.4811C171.258 39.1205 169.814 34.8864 167.157 31.459L167.167 31.4664Z" fill="#CFCFCF"/>
<path opacity="0.1" d="M132.949 43.4893C132.942 47.8508 134.387 52.0867 137.049 55.5105C134.826 58.3787 133.444 61.8239 133.059 65.4522C132.674 69.0805 133.303 72.7454 134.874 76.0279C136.445 79.3104 138.894 82.078 141.942 84.0143C144.989 85.9506 148.512 86.9775 152.108 86.9775C155.703 86.9775 159.226 85.9506 162.274 84.0143C165.321 82.078 167.77 79.3104 169.341 76.0279C170.912 72.7454 171.541 69.0805 171.157 65.4522C170.772 61.8239 169.389 58.3787 167.166 55.5105C169.734 52.2019 132.949 41.3057 132.949 43.4893Z" fill="black"/>
</g>
<g opacity="0.1">
<path opacity="0.1" d="M39.9892 114.517C41.3335 114.517 42.4232 113.069 42.4232 111.282C42.4232 109.495 41.3335 108.047 39.9892 108.047C38.6449 108.047 37.5552 109.495 37.5552 111.282C37.5552 113.069 38.6449 114.517 39.9892 114.517Z" fill="#E173FF"/>
<path opacity="0.1" d="M41.9252 97.4431C42.265 96.8414 42.4406 96.1587 42.4341 95.4653C42.4341 93.6786 41.3475 92.2302 39.9983 92.2302C38.6491 92.2302 37.5642 93.6786 37.5642 95.4653C37.5572 96.1585 37.7322 96.8412 38.0713 97.4431C37.7389 98.0473 37.5644 98.7279 37.5644 99.4199C37.5644 100.112 37.7389 100.793 38.0713 101.397C37.7389 102.001 37.5644 102.682 37.5644 103.374C37.5644 104.066 37.7389 104.746 38.0713 105.351C37.7319 105.952 37.5569 106.634 37.5642 107.326C37.5642 109.115 38.6509 110.563 39.9983 110.563C41.3457 110.563 42.4341 109.115 42.4341 107.326C42.4409 106.634 42.2652 105.951 41.9252 105.351C42.2587 104.747 42.4338 104.066 42.4338 103.374C42.4338 102.681 42.2587 102.001 41.9252 101.397C42.2587 100.793 42.4338 100.112 42.4338 99.4199C42.4338 98.7277 42.2587 98.047 41.9252 97.4431Z" fill="#E173FF"/>
<path opacity="0.1" d="M39.9892 94.7466C41.3335 94.7466 42.4232 93.2982 42.4232 91.5115C42.4232 89.7249 41.3335 88.2765 39.9892 88.2765C38.6449 88.2765 37.5552 89.7249 37.5552 91.5115C37.5552 93.2982 38.6449 94.7466 39.9892 94.7466Z" fill="#E173FF"/>
<path opacity="0.1" d="M39.9892 90.7929C41.3335 90.7929 42.4232 89.3445 42.4232 87.5578C42.4232 85.7711 41.3335 84.3228 39.9892 84.3228C38.6449 84.3228 37.5552 85.7711 37.5552 87.5578C37.5552 89.3445 38.6449 90.7929 39.9892 90.7929Z" fill="#E173FF"/>
<path opacity="0.1" d="M30.8779 60.4973C30.5455 60.0676 30.243 59.6149 29.9724 59.1426L36.3708 58.0765L29.4509 58.1298C28.7884 56.6646 28.4269 55.0777 28.3887 53.466C28.3504 51.8542 28.636 50.2515 29.2281 48.7555L38.506 53.6467L29.9453 47.2501C30.7482 45.8453 31.8274 44.6232 33.1156 43.6598C34.4039 42.6965 35.8737 42.0125 37.4336 41.6504C38.9935 41.2884 40.6101 41.256 42.1829 41.5553C43.7557 41.8545 45.2509 42.4791 46.5757 43.3901C47.9004 44.3011 49.0263 45.479 49.8832 46.8505C50.7402 48.2221 51.3099 49.758 51.5569 51.3626C51.8039 52.9672 51.7229 54.6063 51.319 56.1778C50.9151 57.7493 50.1969 59.2196 49.2091 60.4973C49.7273 61.1654 50.173 61.8883 50.5384 62.6534L42.2331 67.0354L51.089 64.0191C51.7109 65.8846 51.8647 67.8781 51.5365 69.8192C51.2083 71.7603 50.4084 73.5876 49.2091 75.1359C50.5622 76.882 51.4038 78.9793 51.6378 81.1879C51.8719 83.3966 51.4889 85.6276 50.5326 87.6257C49.5763 89.6239 48.0853 91.3086 46.2301 92.4873C44.3749 93.666 42.2304 94.291 40.0417 94.291C37.853 94.291 35.7085 93.666 33.8533 92.4873C31.9981 91.3086 30.5072 89.6239 29.5509 87.6257C28.5946 85.6276 28.2116 83.3966 28.4456 81.1879C28.6796 78.9793 29.5213 76.882 30.8743 75.1359C29.2575 73.0491 28.3785 70.4713 28.3785 67.8166C28.3785 65.1619 29.2575 62.5841 30.8743 60.4973H30.8779Z" fill="#CFCFCF"/>
<path opacity="0.1" d="M51.7047 67.8166C51.7086 70.472 50.8293 73.0509 49.2091 75.1359C50.5622 76.882 51.4038 78.9793 51.6379 81.1879C51.8719 83.3966 51.4889 85.6276 50.5326 87.6257C49.5763 89.6239 48.0853 91.3086 46.2301 92.4873C44.3749 93.666 42.2304 94.291 40.0417 94.291C37.853 94.291 35.7085 93.666 33.8533 92.4873C31.9981 91.3086 30.5072 89.6239 29.5509 87.6257C28.5946 85.6276 28.2116 83.3966 28.4456 81.1879C28.6796 78.9793 29.5213 76.882 30.8743 75.1359C29.3114 73.1306 51.7047 66.4877 51.7047 67.8166Z" fill="black"/>
</g>
<g opacity="0.1">
<path opacity="0.1" d="M94.8632 117.333C96.6626 117.333 98.1212 115.395 98.1212 113.004C98.1212 110.614 96.6626 108.676 94.8632 108.676C93.0638 108.676 91.6052 110.614 91.6052 113.004C91.6052 115.395 93.0638 117.333 94.8632 117.333Z" fill="#E173FF"/>
<path opacity="0.1" d="M97.4421 94.4836C97.8962 93.6783 98.1306 92.7646 98.1212 91.8368C98.1212 89.4473 96.6724 87.5081 94.8614 87.5081C93.0504 87.5081 91.6015 89.4473 91.6015 91.8368C91.592 92.7649 91.8271 93.6787 92.2825 94.4836C91.8361 95.2919 91.6017 96.203 91.6017 97.1296C91.6017 98.0562 91.8361 98.9672 92.2825 99.7755C91.8361 100.583 91.6016 101.494 91.6016 102.421C91.6016 103.347 91.8361 104.258 92.2825 105.066C91.8271 105.87 91.592 106.784 91.6015 107.712C91.6015 110.102 93.0612 112.041 94.8614 112.041C96.6615 112.041 98.1212 110.102 98.1212 107.712C98.1306 106.785 97.8962 105.871 97.4421 105.066C97.8875 104.257 98.1214 103.347 98.1214 102.421C98.1214 101.494 97.8875 100.584 97.4421 99.7755C97.8875 98.9669 98.1213 98.056 98.1213 97.1296C98.1213 96.2032 97.8875 95.2922 97.4421 94.4836Z" fill="#E173FF"/>
<path opacity="0.1" d="M94.8632 90.8755C96.6626 90.8755 98.1212 88.9374 98.1212 86.5467C98.1212 84.1561 96.6626 82.218 94.8632 82.218C93.0638 82.218 91.6052 84.1561 91.6052 86.5467C91.6052 88.9374 93.0638 90.8755 94.8632 90.8755Z" fill="#E173FF"/>
<path opacity="0.1" d="M94.8632 85.5836C96.6626 85.5836 98.1212 83.6456 98.1212 81.2549C98.1212 78.8642 96.6626 76.9261 94.8632 76.9261C93.0638 76.9261 91.6052 78.8642 91.6052 81.2549C91.6052 83.6456 93.0638 85.5836 94.8632 85.5836Z" fill="#E173FF"/>
<path opacity="0.1" d="M82.6732 45.0444C82.2279 44.4695 81.8224 43.8639 81.4598 43.232L90.0205 41.8056L80.7626 41.8755C79.8743 39.9138 79.3896 37.7889 79.3382 35.6306C79.2868 33.4723 79.6698 31.326 80.4637 29.3231L92.8874 35.8631L81.429 27.3159C82.4995 25.4277 83.9422 23.7839 85.6669 22.4872C87.3916 21.1905 89.3613 20.2687 91.4529 19.7795C93.5444 19.2903 95.7129 19.2442 97.8228 19.6439C99.9327 20.0437 101.939 20.8809 103.716 22.1031C105.492 23.3253 107.002 24.9062 108.149 26.7472C109.297 28.5882 110.058 30.6495 110.385 32.8025C110.712 34.9555 110.598 37.1539 110.051 39.2602C109.503 41.3666 108.533 43.3356 107.202 45.0444C107.895 45.94 108.491 46.9087 108.98 47.9339L97.8677 53.7937L109.717 49.7499C110.55 52.2462 110.756 54.9138 110.316 57.5112C109.877 60.1086 108.807 62.5539 107.202 64.6256C109.012 66.9622 110.139 69.7688 110.452 72.7244C110.765 75.6801 110.252 78.6655 108.973 81.3394C107.693 84.0133 105.698 86.2678 103.215 87.8451C100.733 89.4224 97.8627 90.2589 94.9338 90.2589C92.0049 90.2589 89.1351 89.4224 86.6525 87.8451C84.1699 86.2678 82.1747 84.0133 80.895 81.3394C79.6153 78.6655 79.1027 75.6801 79.4159 72.7244C79.7291 69.7688 80.8553 66.9622 82.666 64.6256C80.5026 61.833 79.3266 58.3837 79.3266 54.8313C79.3266 51.2789 80.5026 47.8296 82.666 45.037L82.6732 45.0444Z" fill="#CFCFCF"/>
<path opacity="0.1" d="M110.541 54.8395C110.547 58.3926 109.37 61.8434 107.202 64.6329C109.012 66.9695 110.139 69.7761 110.452 72.7317C110.765 75.6874 110.252 78.6728 108.973 81.3467C107.693 84.0206 105.698 86.2751 103.215 87.8524C100.733 89.4297 97.8627 90.2662 94.9338 90.2662C92.0049 90.2662 89.1351 89.4297 86.6525 87.8524C84.1699 86.2751 82.1747 84.0206 80.895 81.3467C79.6153 78.6728 79.1027 75.6874 79.4159 72.7317C79.7291 69.7761 80.8553 66.9695 82.6659 64.6329C80.5742 61.9383 110.541 53.0603 110.541 54.8395Z" fill="black"/>
</g>
<path d="M207 116.943C207 118.206 197.905 119.36 182.868 120.252C180.133 120.412 177.203 120.564 174.096 120.708C171.41 120.83 168.596 120.946 165.653 121.055C162.801 121.158 159.84 121.254 156.769 121.342C147.073 121.623 136.354 121.825 124.966 121.926C122.202 121.952 119.402 121.972 116.565 121.985C113.609 121.999 110.62 122.005 107.597 122.004C52.6972 122.004 8.19489 119.741 8.19489 116.949C8.19489 114.157 52.6972 111.894 107.597 111.894C131.232 111.894 152.937 112.315 169.997 113.014L171.863 113.091H171.873C193.363 114.015 207 115.407 207 116.943Z" fill="#E173FF"/>
<path opacity="0.15" d="M207 116.943C207 118.206 197.905 119.36 182.868 120.252C180.133 120.412 177.203 120.564 174.096 120.708C171.41 120.83 168.596 120.946 165.653 121.055C162.801 121.158 159.84 121.254 156.769 121.342C147.073 121.623 136.354 121.825 124.966 121.926C122.202 121.952 119.402 121.972 116.565 121.985C113.609 121.999 110.62 122.005 107.597 122.004C52.6972 122.004 8.19489 119.741 8.19489 116.949C8.19489 114.157 52.6972 111.894 107.597 111.894C131.232 111.894 152.937 112.315 169.997 113.014L171.863 113.091H171.873C193.363 114.015 207 115.407 207 116.943Z" fill="black"/>
<path d="M198.805 116.054C198.805 117.109 189.71 118.076 174.673 118.811C171.94 118.945 169.008 119.072 165.902 119.191C163.216 119.294 160.402 119.391 157.459 119.482C154.608 119.568 151.647 119.648 148.576 119.723C138.878 119.958 128.159 120.127 116.771 120.211C114.01 120.232 111.21 120.248 108.37 120.259C105.414 120.27 102.425 120.276 99.4035 120.276C44.5041 120.276 0 118.384 0 116.048C0 113.712 44.5041 111.821 99.4035 111.821C123.037 111.821 144.742 112.172 161.802 112.756L163.668 112.82H163.68C185.177 113.605 198.805 114.762 198.805 116.054Z" fill="#E173FF"/>
<path d="M25.6731 77.6504L23.1775 69.8955L82.9413 69.2319L85.3898 76.9097L25.6731 77.6504Z" fill="#E173FF"/>
<path opacity="0.15" d="M25.6731 77.6504L23.1775 69.8955L82.9413 69.2319L85.3898 76.9097L25.6731 77.6504Z" fill="black"/>
<path d="M21.6888 77.6504L19.1932 69.8955L78.957 69.2319L81.4055 76.9097L21.6888 77.6504Z" fill="#E173FF"/>
<path d="M123.713 65.734C117.534 65.734 112.664 63.2446 109.103 58.2658C105.543 53.287 103.763 47.2556 103.763 40.1716C103.763 33.0398 105.484 27.0206 108.928 22.1141C112.371 17.2076 117.228 14.7568 123.499 14.7617C130.149 14.7617 135.16 17.3467 138.531 22.5167C141.902 27.6866 143.588 33.6702 143.589 40.4675C143.589 47.2158 141.844 53.1148 138.355 58.1647C134.866 63.2146 129.985 65.7377 123.713 65.734ZM123.894 60.1333C127.959 60.1333 130.997 58.335 133.009 54.7385C135.02 51.142 136.026 46.608 136.026 41.1366C136.026 35.0464 134.997 30.0596 132.938 26.1763C130.88 22.293 127.722 20.3508 123.467 20.3495C115.377 20.3495 111.333 26.8711 111.333 39.9142C111.333 53.3949 115.519 60.1345 123.89 60.1333H123.894ZM125.929 113.767H116.992L175.503 15.7598H184.272L125.929 113.767ZM177.692 114.773C171.42 114.773 166.53 112.261 163.023 107.236C159.516 102.212 157.755 96.1802 157.74 89.1403C157.74 82.0563 159.45 76.061 162.869 71.1545C166.288 66.2481 171.157 63.7973 177.477 63.8022C184.08 63.8022 189.055 66.3871 192.403 71.5571C195.751 76.727 197.426 82.7101 197.427 89.5061C197.427 96.2103 195.694 102.098 192.227 107.17C188.761 112.242 183.915 114.776 177.689 114.773H177.692ZM177.797 109.029C181.843 109.029 184.865 107.261 186.863 103.726C188.861 100.19 189.86 95.6748 189.86 90.1788C189.86 84.2969 188.849 79.3641 186.827 75.3803C184.805 71.3966 181.654 69.4016 177.375 69.3955C169.239 69.3955 165.171 75.9171 165.171 88.9602C165.168 102.34 169.376 109.03 177.794 109.029H177.797Z" fill="#E173FF"/>
<path d="M123.713 65.734C117.534 65.734 112.664 63.2446 109.103 58.2658C105.543 53.287 103.763 47.2556 103.763 40.1716C103.763 33.0398 105.484 27.0206 108.928 22.1141C112.371 17.2076 117.228 14.7568 123.499 14.7617C130.149 14.7617 135.16 17.3467 138.531 22.5167C141.902 27.6866 143.588 33.6702 143.589 40.4675C143.589 47.2158 141.844 53.1148 138.355 58.1647C134.866 63.2146 129.985 65.7377 123.713 65.734ZM123.894 60.1333C127.959 60.1333 130.997 58.335 133.009 54.7385C135.02 51.142 136.026 46.608 136.026 41.1366C136.026 35.0464 134.997 30.0596 132.938 26.1763C130.88 22.293 127.722 20.3508 123.467 20.3495C115.377 20.3495 111.333 26.8711 111.333 39.9142C111.333 53.3949 115.519 60.1345 123.89 60.1333H123.894ZM125.929 113.767H116.992L175.503 15.7598H184.272L125.929 113.767ZM177.692 114.773C171.42 114.773 166.53 112.261 163.023 107.236C159.516 102.212 157.755 96.1802 157.74 89.1403C157.74 82.0563 159.45 76.061 162.869 71.1545C166.288 66.2481 171.157 63.7973 177.477 63.8022C184.08 63.8022 189.055 66.3871 192.403 71.5571C195.751 76.727 197.426 82.7101 197.427 89.5061C197.427 96.2103 195.694 102.098 192.227 107.17C188.761 112.242 183.915 114.776 177.689 114.773H177.692ZM177.797 109.029C181.843 109.029 184.865 107.261 186.863 103.726C188.861 100.19 189.86 95.6748 189.86 90.1788C189.86 84.2969 188.849 79.3641 186.827 75.3803C184.805 71.3966 181.654 69.4016 177.375 69.3955C169.239 69.3955 165.171 75.9171 165.171 88.9602C165.168 102.34 169.376 109.03 177.794 109.029H177.797Z" fill="#E173FF"/>
<path opacity="0.15" d="M123.713 65.734C117.534 65.734 112.664 63.2446 109.103 58.2658C105.543 53.287 103.763 47.2556 103.763 40.1716C103.763 33.0398 105.484 27.0206 108.928 22.1141C112.371 17.2076 117.228 14.7568 123.499 14.7617C130.149 14.7617 135.16 17.3467 138.531 22.5167C141.902 27.6866 143.588 33.6702 143.589 40.4675C143.589 47.2158 141.844 53.1148 138.355 58.1647C134.866 63.2146 129.985 65.7377 123.713 65.734ZM123.894 60.1333C127.959 60.1333 130.997 58.335 133.009 54.7385C135.02 51.142 136.026 46.608 136.026 41.1366C136.026 35.0464 134.997 30.0596 132.938 26.1763C130.88 22.293 127.722 20.3508 123.467 20.3495C115.377 20.3495 111.333 26.8711 111.333 39.9142C111.333 53.3949 115.519 60.1345 123.89 60.1333H123.894ZM125.929 113.767H116.992L175.503 15.7598H184.272L125.929 113.767ZM177.692 114.773C171.42 114.773 166.53 112.261 163.023 107.236C159.516 102.212 157.755 96.1802 157.74 89.1403C157.74 82.0563 159.45 76.061 162.869 71.1545C166.288 66.2481 171.157 63.7973 177.477 63.8022C184.08 63.8022 189.055 66.3871 192.403 71.5571C195.751 76.727 197.426 82.7101 197.427 89.5061C197.427 96.2103 195.694 102.098 192.227 107.17C188.761 112.242 183.915 114.776 177.689 114.773H177.692ZM177.797 109.029C181.843 109.029 184.865 107.261 186.863 103.726C188.861 100.19 189.86 95.6748 189.86 90.1788C189.86 84.2969 188.849 79.3641 186.827 75.3803C184.805 71.3966 181.654 69.4016 177.375 69.3955C169.239 69.3955 165.171 75.9171 165.171 88.9602C165.168 102.34 169.376 109.03 177.794 109.029H177.797Z" fill="black"/>
<path d="M118.099 65.734C111.919 65.734 107.05 63.2446 103.489 58.2658C99.9287 53.287 98.1484 47.2556 98.1484 40.1716C98.1484 33.0398 99.8701 27.0206 103.313 22.1141C106.757 17.2076 111.614 14.7568 117.885 14.7617C124.535 14.7617 129.546 17.3467 132.916 22.5167C136.287 27.6866 137.973 33.6702 137.975 40.4675C137.975 47.2158 136.23 53.1148 132.741 58.1647C129.252 63.2146 124.371 65.7377 118.099 65.734ZM118.28 60.1333C122.345 60.1333 125.383 58.335 127.395 54.7385C129.406 51.142 130.412 46.608 130.412 41.1366C130.412 35.0464 129.383 30.0596 127.324 26.1763C125.265 22.293 122.108 20.3508 117.852 20.3495C109.763 20.3495 105.719 26.8711 105.719 39.9142C105.719 53.3949 109.904 60.1345 118.276 60.1333H118.28ZM120.315 113.767H111.378L169.889 15.7598H178.658L120.315 113.767ZM172.078 114.773C165.806 114.773 160.916 112.261 157.409 107.236C153.901 102.212 152.14 96.1802 152.126 89.1403C152.126 82.0563 153.836 76.061 157.255 71.1545C160.674 66.2481 165.543 63.7973 171.863 63.8022C178.466 63.8022 183.441 66.3871 186.789 71.5571C190.137 76.727 191.812 82.7101 191.813 89.5061C191.813 96.2103 190.08 102.098 186.613 107.17C183.147 112.242 178.301 114.776 172.074 114.773H172.078ZM172.183 109.029C176.229 109.029 179.251 107.261 181.249 103.726C183.247 100.19 184.246 95.6748 184.246 90.1788C184.246 84.2969 183.235 79.3641 181.213 75.3803C179.191 71.3966 176.039 69.4016 171.758 69.3955C163.621 69.3955 159.553 75.9171 159.553 88.9602C159.553 102.34 163.762 109.03 172.179 109.029H172.183Z" fill="#E173FF"/>
<path d="M137.65 116.227C138.397 114.822 137.549 113.102 136.575 111.848C135.6 110.595 134.412 109.293 134.438 107.696C134.474 105.404 136.872 104.049 138.784 102.832C140.207 101.93 141.518 100.861 142.692 99.645C143.184 99.1768 143.59 98.6243 143.893 98.0128C144.29 97.1158 144.277 96.0957 144.255 95.1141C144.172 91.8399 144.013 88.5705 143.777 85.306" stroke="#E173FF" stroke-width="4" stroke-miterlimit="10"/>
<path d="M147.421 85.126C147.394 84.5271 147.218 83.9447 146.911 83.4327C146.604 82.9206 146.174 82.4954 145.662 82.1961L144.873 83.7805L144.896 81.8615C144.52 81.7498 144.127 81.702 143.736 81.72C143.039 81.7531 142.368 81.9951 141.808 82.4152C141.247 82.8353 140.821 83.4148 140.585 84.0803C140.349 84.7458 140.312 85.4675 140.48 86.1542C140.648 86.8408 141.012 87.4615 141.528 87.9378C142.043 88.4141 142.686 88.7246 143.375 88.83C144.065 88.9354 144.769 88.8311 145.4 88.5301C146.031 88.2291 146.559 87.7451 146.919 87.1392C147.279 86.5332 147.453 85.8326 147.421 85.126Z" fill="#CFCFCF"/>
<path d="M141.137 109.341C140.767 110.07 140.161 110.648 139.422 110.978C138.682 111.308 137.853 111.37 137.073 111.153C136.294 110.936 135.612 110.454 135.141 109.787C134.671 109.12 134.44 108.31 134.489 107.491C134.537 106.672 134.861 105.895 135.407 105.29C135.953 104.686 136.687 104.29 137.486 104.169C138.285 104.048 139.101 104.21 139.797 104.627C140.493 105.044 141.026 105.692 141.307 106.461L139.105 108.279L141.532 107.705C141.53 108.275 141.395 108.836 141.137 109.341Z" fill="#CFCFCF"/>
<path d="M139.396 102.391C138.934 102.413 138.472 102.343 138.036 102.183C137.601 102.024 137.201 101.779 136.858 101.463C136.516 101.147 136.239 100.765 136.042 100.34C135.845 99.9148 135.732 99.4544 135.711 98.9852C135.683 98.4249 135.788 97.8661 136.015 97.3548C136.226 96.877 136.537 96.4518 136.927 96.1091C137.316 95.7665 137.776 95.5147 138.272 95.3715L138.252 96.842L139.05 95.2391C139.984 95.1948 140.897 95.5287 141.588 96.1674C142.279 96.8062 142.692 97.6974 142.736 98.6451C142.779 99.5928 142.45 100.519 141.821 101.221C141.192 101.922 140.314 102.341 139.38 102.386L139.396 102.391Z" fill="#CFCFCF"/>
<path d="M147.952 96.6141C147.484 96.6456 147.014 96.5821 146.571 96.4274C146.128 96.2726 145.719 96.0296 145.37 95.7127C145.02 95.3958 144.736 95.0113 144.534 94.5816C144.333 94.152 144.218 93.6858 144.196 93.2105C144.174 92.7352 144.246 92.2601 144.407 91.8133C144.568 91.3664 144.815 90.9566 145.134 90.6079C145.453 90.2592 145.838 89.9786 146.265 89.7825C146.692 89.5864 147.153 89.4787 147.622 89.4657C148.281 89.4332 148.935 89.5906 149.509 89.9198L148.886 91.6512L150.168 90.4032C150.856 91.0398 151.267 91.9277 151.311 92.8717C151.327 93.2028 151.297 93.5346 151.22 93.857C151.045 94.6148 150.631 95.294 150.041 95.7916C149.451 96.2892 148.718 96.5779 147.952 96.6141Z" fill="#CFCFCF"/>
<path opacity="0.1" d="M146.946 86.0799C146.133 86.17 145.344 86.4273 144.527 86.4788C143.71 86.5302 142.814 86.3317 142.298 85.6865C142.019 85.341 141.881 84.9017 141.646 84.523C141.423 84.1705 141.118 83.8794 140.758 83.6757C140.532 84.1291 140.404 84.6262 140.381 85.1339C140.359 85.6416 140.444 86.1483 140.63 86.6201C140.816 87.092 141.099 87.5182 141.46 87.8704C141.821 88.2226 142.252 88.4927 142.724 88.6627C143.196 88.8326 143.698 88.8986 144.197 88.8561C144.696 88.8137 145.18 88.6638 145.617 88.4164C146.055 88.1691 146.435 87.83 146.734 87.4217C147.032 87.0134 147.241 86.5454 147.347 86.0487C147.213 86.056 147.08 86.0652 146.946 86.0799Z" fill="black"/>
<path opacity="0.1" d="M147.952 96.614C147.344 96.6421 146.74 96.5104 146.198 96.2318C145.655 95.9531 145.193 95.5369 144.856 95.0235C144.518 94.5102 144.318 93.9171 144.273 93.3017C144.228 92.6864 144.34 92.0697 144.599 91.5115C144.879 91.7035 145.119 91.9481 145.307 92.232C145.559 92.6162 145.711 93.061 146.006 93.4139C146.55 94.0701 147.493 94.2833 148.343 94.2447C149.192 94.2061 150.014 93.9598 150.862 93.8771C150.98 93.8661 151.099 93.8587 151.224 93.855C151.049 94.6139 150.635 95.2939 150.044 95.7919C149.453 96.2899 148.719 96.5785 147.952 96.614Z" fill="black"/>
<path opacity="0.1" d="M139.396 102.391C138.934 102.413 138.472 102.342 138.036 102.183C137.601 102.024 137.201 101.779 136.858 101.463C136.516 101.147 136.239 100.765 136.042 100.34C135.845 99.9147 135.732 99.4544 135.711 98.9851C135.683 98.4249 135.788 97.866 136.015 97.3547C136.306 97.5512 136.558 97.8005 136.759 98.09C137.033 98.4815 137.205 98.9337 137.525 99.2958C138.12 99.9667 139.119 100.204 140.019 100.182C140.919 100.16 141.733 99.9465 142.6 99.8784C142.385 100.581 141.962 101.198 141.389 101.648C140.816 102.098 140.12 102.357 139.396 102.391Z" fill="black"/>
<path opacity="0.1" d="M141.137 109.341C140.727 110.159 140.022 110.786 139.17 111.091C138.317 111.397 137.381 111.359 136.556 110.984C135.731 110.609 135.079 109.926 134.735 109.077C134.392 108.228 134.383 107.277 134.711 106.422C135.001 106.616 135.262 106.852 135.484 107.122C135.82 107.538 136.04 108.008 136.428 108.394C137.152 109.111 138.311 109.407 139.347 109.435C139.945 109.44 140.543 109.408 141.137 109.341Z" fill="black"/>
<path d="M192.162 116.043C192.908 114.638 192.061 112.918 191.087 111.664C190.112 110.411 188.924 109.109 188.949 107.512C188.986 105.22 191.384 103.865 193.296 102.649C194.718 101.747 196.03 100.677 197.204 99.4613C197.696 98.9931 198.102 98.4405 198.405 97.8291C198.801 96.9321 198.789 95.9119 198.767 94.9304C198.684 91.6561 198.524 88.3868 198.289 85.1223" stroke="#E173FF" stroke-width="4" stroke-miterlimit="10"/>
<path d="M201.933 84.9421C201.905 84.3432 201.73 83.7609 201.423 83.2488C201.115 82.7368 200.686 82.3115 200.174 82.0122L199.385 83.5967L199.408 81.6777C199.032 81.566 198.639 81.5182 198.247 81.5362C197.551 81.5693 196.88 81.8112 196.319 82.2313C195.759 82.6515 195.333 83.2309 195.097 83.8965C194.861 84.562 194.824 85.2837 194.992 85.9703C195.16 86.6569 195.524 87.2776 196.04 87.7539C196.555 88.2302 197.198 88.5407 197.887 88.6461C198.576 88.7516 199.281 88.6472 199.912 88.3462C200.542 88.0453 201.071 87.5612 201.431 86.9553C201.791 86.3494 201.965 85.6488 201.933 84.9421Z" fill="#CFCFCF"/>
<path d="M195.648 109.157C195.279 109.886 194.673 110.464 193.933 110.794C193.193 111.124 192.364 111.186 191.585 110.969C190.806 110.752 190.124 110.27 189.653 109.603C189.182 108.936 188.952 108.126 189 107.307C189.049 106.488 189.373 105.711 189.919 105.107C190.465 104.502 191.199 104.106 191.998 103.985C192.797 103.864 193.613 104.026 194.309 104.443C195.004 104.861 195.537 105.508 195.819 106.277L193.617 108.095L196.043 107.521C196.042 108.091 195.907 108.652 195.648 109.157Z" fill="#CFCFCF"/>
<path d="M193.908 102.207C193.446 102.229 192.984 102.159 192.548 101.999C192.113 101.84 191.713 101.595 191.37 101.279C191.028 100.963 190.751 100.581 190.554 100.156C190.357 99.7309 190.244 99.2706 190.223 98.8013C190.195 98.2411 190.3 97.6822 190.527 97.1709C190.737 96.6931 191.049 96.2679 191.438 95.9253C191.828 95.5826 192.287 95.3308 192.783 95.1876L192.764 96.6581L193.562 95.0553H193.571C194.034 95.0333 194.496 95.104 194.931 95.2633C195.367 95.4226 195.767 95.6673 196.109 95.9836C196.451 96.2999 196.729 96.6815 196.926 97.1066C197.123 97.5317 197.235 97.992 197.257 98.4613C197.278 98.9305 197.209 99.3995 197.052 99.8414C196.895 100.283 196.654 100.69 196.342 101.037C196.03 101.384 195.655 101.666 195.236 101.866C194.817 102.066 194.363 102.18 193.901 102.202L193.908 102.207Z" fill="#CFCFCF"/>
<path d="M202.463 96.4303C201.996 96.4618 201.526 96.3984 201.083 96.2436C200.64 96.0888 200.231 95.8458 199.881 95.5289C199.532 95.212 199.248 94.8274 199.046 94.3978C198.845 93.9681 198.729 93.502 198.708 93.0267C198.686 92.5513 198.757 92.0763 198.918 91.6295C199.08 91.1826 199.327 90.7728 199.646 90.4241C199.965 90.0754 200.349 89.7948 200.777 89.5987C201.204 89.4026 201.665 89.2949 202.134 89.2819C202.792 89.2493 203.447 89.4068 204.021 89.7359L203.398 91.4674L204.68 90.2193C205.368 90.856 205.779 91.7439 205.823 92.6879C205.839 93.019 205.808 93.3508 205.732 93.6731C205.557 94.431 205.143 95.1102 204.553 95.6078C203.963 96.1054 203.23 96.3941 202.463 96.4303Z" fill="#CFCFCF"/>
<path opacity="0.1" d="M201.458 85.8961C200.645 85.9861 199.856 86.2435 199.039 86.2949C198.222 86.3464 197.326 86.1479 196.809 85.5027C196.53 85.1571 196.393 84.7178 196.157 84.3392C195.935 83.9867 195.63 83.6956 195.27 83.4918C195.044 83.9452 194.915 84.4423 194.893 84.95C194.871 85.4578 194.956 85.9644 195.142 86.4363C195.328 86.9082 195.611 87.3344 195.972 87.6866C196.333 88.0388 196.764 88.3089 197.235 88.4788C197.707 88.6488 198.21 88.7147 198.709 88.6723C199.207 88.6298 199.692 88.4799 200.129 88.2326C200.567 87.9853 200.947 87.6462 201.245 87.2379C201.544 86.8296 201.753 86.3615 201.859 85.8648C201.725 85.8722 201.592 85.8813 201.458 85.8961Z" fill="black"/>
<path opacity="0.1" d="M202.463 96.4302C201.856 96.4583 201.252 96.3266 200.709 96.0479C200.167 95.7693 199.705 95.3531 199.368 94.8397C199.03 94.3263 198.829 93.7332 198.785 93.1179C198.74 92.5025 198.852 91.8859 199.111 91.3276C199.39 91.5197 199.631 91.7643 199.819 92.0482C200.071 92.4323 200.223 92.8771 200.518 93.2301C201.062 93.8863 202.005 94.0995 202.855 94.0609C203.704 94.0223 204.526 93.776 205.374 93.6933C205.491 93.6822 205.611 93.6749 205.736 93.6712C205.561 94.43 205.146 95.1101 204.556 95.608C203.965 96.106 203.23 96.3947 202.463 96.4302Z" fill="black"/>
<path opacity="0.1" d="M193.908 102.207C193.446 102.229 192.984 102.159 192.548 101.999C192.113 101.84 191.713 101.595 191.37 101.279C191.028 100.963 190.751 100.581 190.554 100.156C190.357 99.731 190.244 99.2707 190.223 98.8014C190.195 98.2411 190.3 97.6823 190.527 97.171C190.818 97.3675 191.07 97.6168 191.271 97.9063C191.545 98.2978 191.717 98.7499 192.037 99.112C192.631 99.7829 193.631 100.02 194.531 99.998C195.404 99.9796 196.244 99.7627 197.112 99.6947C196.897 100.397 196.474 101.015 195.901 101.464C195.327 101.914 194.632 102.173 193.908 102.207Z" fill="black"/>
<path opacity="0.1" d="M195.648 109.157C195.238 109.975 194.534 110.602 193.682 110.908C192.829 111.213 191.893 111.175 191.068 110.8C190.242 110.425 189.591 109.742 189.247 108.893C188.904 108.044 188.895 107.094 189.223 106.238C189.513 106.432 189.774 106.668 189.996 106.939C190.331 107.354 190.552 107.825 190.94 108.211C191.664 108.927 192.823 109.223 193.859 109.251C194.457 109.256 195.054 109.225 195.648 109.157Z" fill="black"/>
<path d="M19.9086 113.653C19.1624 112.249 20.01 110.528 20.9843 109.275C21.9587 108.021 23.1467 106.72 23.1213 105.123C23.0851 102.831 20.6873 101.476 18.7749 100.259C17.3525 99.3572 16.0406 98.2873 14.8667 97.0718C14.3751 96.6035 13.9686 96.051 13.666 95.4395C13.2694 94.5426 13.282 93.5224 13.3038 92.5409C13.3871 89.2666 13.5464 85.9972 13.7819 82.7328" stroke="#E173FF" stroke-width="4" stroke-miterlimit="10"/>
<path d="M10.1381 82.5526C10.1654 81.9537 10.3407 81.3714 10.648 80.8593C10.9554 80.3473 11.3848 79.922 11.8966 79.6227L12.6862 81.2071L12.6627 79.2882C13.0393 79.1765 13.4316 79.1287 13.8236 79.1466C14.5198 79.1798 15.1907 79.4217 15.7515 79.8418C16.3123 80.2619 16.7377 80.8414 16.9741 81.5069C17.2104 82.1725 17.2469 82.8942 17.0791 83.5808C16.9113 84.2674 16.5467 84.8881 16.0313 85.3644C15.5159 85.8407 14.873 86.1512 14.1838 86.2566C13.4945 86.362 12.79 86.2577 12.1592 85.9567C11.5284 85.6557 10.9997 85.1717 10.64 84.5658C10.2802 83.9598 10.1056 83.2593 10.1381 82.5526Z" fill="#CFCFCF"/>
<path d="M16.4224 106.768C16.7921 107.497 17.3977 108.075 18.1376 108.405C18.8774 108.735 19.7065 108.796 20.4858 108.579C21.2651 108.363 21.9472 107.88 22.4178 107.214C22.8884 106.547 23.1188 105.736 23.0705 104.918C23.0221 104.099 22.6978 103.322 22.1521 102.717C21.6063 102.112 20.8723 101.716 20.073 101.595C19.2737 101.475 18.4579 101.637 17.7622 102.054C17.0665 102.471 16.5334 103.118 16.2521 103.887L18.4543 105.705L16.0276 105.132C16.0286 105.701 16.1639 106.262 16.4224 106.768Z" fill="#CFCFCF"/>
<path d="M18.1628 99.8178C18.6251 99.8398 19.0872 99.7691 19.5226 99.6099C19.9581 99.4506 20.3583 99.2058 20.7006 98.8896C21.0428 98.5733 21.3203 98.1917 21.5172 97.7665C21.7141 97.3414 21.8266 96.8811 21.8482 96.4118C21.8756 95.8515 21.7713 95.2927 21.5439 94.7814C21.3334 94.3036 21.0223 93.8784 20.6324 93.5357C20.2425 93.1931 19.7834 92.9413 19.2874 92.7981L19.3073 94.2686L18.5087 92.6658C17.5749 92.6214 16.6621 92.9553 15.9709 93.5941C15.2798 94.2328 14.8669 95.1241 14.8232 96.0718C14.7795 97.0195 15.1085 97.9459 15.7379 98.6474C16.3672 99.3489 17.2453 99.7679 18.1791 99.8123L18.1628 99.8178Z" fill="#CFCFCF"/>
<path d="M9.60747 94.0407C10.0753 94.0722 10.5446 94.0087 10.988 93.854C11.4313 93.6992 11.8398 93.4562 12.1895 93.1393C12.5393 92.8224 12.8232 92.4378 13.0248 92.0082C13.2263 91.5786 13.3414 91.1124 13.3633 90.6371C13.3852 90.1618 13.3135 89.6867 13.1524 89.2399C12.9913 88.793 12.744 88.3832 12.4249 88.0345C12.1059 87.6858 11.7215 87.4052 11.2944 87.2091C10.8672 87.013 10.4058 86.9053 9.93708 86.8923C9.28147 86.8615 8.63057 87.0189 8.05904 87.3464L8.68204 89.0778L7.39077 87.8353C6.7039 88.4706 6.293 89.3562 6.24802 90.2983C6.23198 90.6294 6.26247 90.9612 6.33857 91.2836C6.51383 92.0414 6.9278 92.7206 7.51771 93.2182C8.10762 93.7158 8.84128 94.0045 9.60747 94.0407Z" fill="#CFCFCF"/>
<path opacity="0.1" d="M10.6126 83.5065C11.4258 83.5966 12.2154 83.8539 13.0321 83.9054C13.8489 83.9569 14.7454 83.7584 15.2615 83.1132C15.5404 82.7676 15.678 82.3283 15.9135 81.9497C16.1358 81.5972 16.4407 81.3061 16.8009 81.1023C17.0271 81.5557 17.1555 82.0528 17.1776 82.5605C17.1997 83.0683 17.115 83.5749 16.929 84.0468C16.743 84.5187 16.4601 84.9449 16.0991 85.2971C15.7381 85.6493 15.3073 85.9194 14.8354 86.0893C14.3635 86.2593 13.8614 86.3253 13.3624 86.2828C12.8634 86.2403 12.3791 86.0904 11.9416 85.8431C11.5042 85.5958 11.1237 85.2567 10.8256 84.8484C10.5274 84.4401 10.3183 83.972 10.2124 83.4753C10.3464 83.4827 10.4786 83.4918 10.6126 83.5065Z" fill="black"/>
<path opacity="0.1" d="M9.60748 94.0407C10.2148 94.0688 10.8189 93.9371 11.3614 93.6585C11.9038 93.3798 12.366 92.9636 12.7033 92.4503C13.0406 91.9369 13.2414 91.3438 13.2863 90.7284C13.3312 90.1131 13.2187 89.4964 12.9597 88.9382C12.6805 89.1303 12.4401 89.3749 12.2516 89.6588C11.9998 90.0429 11.8477 90.4877 11.5525 90.8406C11.0092 91.4968 10.0657 91.71 9.2163 91.6714C8.36693 91.6328 7.54473 91.3865 6.69717 91.3038C6.57945 91.2928 6.45992 91.2855 6.33496 91.2818C6.51006 92.0406 6.92442 92.7206 7.51508 93.2186C8.10574 93.7166 8.84042 94.0052 9.60748 94.0407Z" fill="black"/>
<path opacity="0.1" d="M18.1627 99.8179C18.6251 99.8399 19.0872 99.7692 19.5226 99.61C19.958 99.4507 20.3583 99.2059 20.7005 98.8896C21.0428 98.5734 21.3203 98.1918 21.5172 97.7666C21.7141 97.3415 21.8266 96.8811 21.8482 96.4119C21.8756 95.8516 21.7713 95.2928 21.5439 94.7815C21.2533 94.978 21.001 95.2272 20.7996 95.5167C20.5261 95.9082 20.3541 96.3604 20.0335 96.7225C19.4395 97.3934 18.4398 97.6305 17.5398 97.6085C16.6668 97.5901 15.8265 97.3732 14.959 97.3052C15.1741 98.0073 15.5969 98.6252 16.1702 99.0747C16.7434 99.5243 17.4391 99.7838 18.1627 99.8179Z" fill="black"/>
<path opacity="0.1" d="M16.4224 106.768C16.8325 107.586 17.5367 108.212 18.3893 108.518C19.2419 108.824 20.1777 108.785 21.0031 108.41C21.8285 108.035 22.4803 107.353 22.8237 106.504C23.167 105.655 23.1757 104.704 22.8479 103.849C22.5577 104.043 22.2972 104.278 22.0746 104.549C21.7395 104.964 21.5186 105.435 21.131 105.821C20.4066 106.538 19.2476 106.834 18.2117 106.861C17.6139 106.866 17.0164 106.835 16.4224 106.768Z" fill="black"/>
<path d="M121.973 96.4284C121.976 95.9828 121.876 95.5425 121.682 95.1429C121.488 94.7433 121.204 94.3954 120.853 94.1271C120.81 92.4416 119.625 91.0648 118.102 90.8516C117.985 90.2789 117.721 89.7478 117.337 89.3116C116.953 88.8753 116.462 88.5494 115.915 88.3665C115.781 88.3237 115.645 88.2911 115.507 88.2691H115.467L115.397 88.2599H115.337H115.277H115.199H115.152H115.024C113.47 88.2599 112.177 89.4657 111.91 91.0556C110.905 90.8204 109.984 91.1255 109.819 91.7707C109.776 91.9417 109.786 92.1217 109.846 92.2872C110.016 92.7871 110.57 93.265 111.322 93.5022L111.42 93.5316C111.469 93.5463 111.517 93.5573 111.566 93.5683H111.599C111.323 94.1663 111.283 94.8491 111.489 95.4756C111.695 96.1021 112.131 96.6242 112.705 96.9339C112.683 96.9465 112.661 96.9606 112.64 96.9762C112.547 97.0626 112.473 97.1678 112.423 97.285C112.241 97.6084 112.1 97.9536 112.003 98.3125C111.93 98.6194 111.918 98.9411 111.822 99.2444C111.657 99.7958 111.233 100.279 111.184 100.866C111.162 101.127 111.204 101.434 111.021 101.612C110.976 101.652 110.927 101.688 110.876 101.72C110.748 101.809 110.64 101.925 110.558 102.059C110.504 102.169 110.433 102.27 110.346 102.356C110.181 102.483 109.909 102.47 109.828 102.665C109.746 102.86 109.956 103.09 109.907 103.303C109.868 103.476 109.681 103.555 109.545 103.671C109.393 103.838 109.287 104.042 109.237 104.264C108.967 104.317 108.688 104.309 108.421 104.24C108.154 104.171 107.905 104.043 107.693 103.865C107.766 104.055 107.819 104.251 107.852 104.452C107.636 104.218 107.281 104.15 107.019 104.029C106.68 103.871 106.378 103.644 106.131 103.36L106.606 103.294L104.505 100.059L103.886 99.93L104.442 101.013C104.396 101.035 104.356 101.067 104.325 101.107C104.294 101.147 104.272 101.194 104.261 101.244C104.231 101.364 104.223 101.489 104.239 101.612C104.268 101.902 104.316 102.19 104.382 102.474L104.543 103.235C104.557 103.306 104.574 103.377 104.596 103.446C104.386 103.439 104.176 103.463 103.973 103.518C103.556 103.362 103.123 103.257 102.681 103.207C102.584 103.19 102.485 103.195 102.39 103.222C102.282 103.272 102.189 103.35 102.118 103.446C101.756 103.871 101.435 104.33 101.158 104.817C100.03 106.81 98.5233 108.549 97.1125 110.35C96.1382 110.753 95.1566 111.135 94.1733 111.514L92.0598 112.332C91.6378 112.495 91.1995 112.663 90.7504 112.633C90.5476 112.62 90.3013 112.589 90.1872 112.764C90.1316 112.85 90.0884 112.944 90.0586 113.043C89.9844 113.043 89.9101 113.061 89.8413 113.065H89.8286C89.6946 112.727 89.5787 112.365 89.3215 112.118C89.2698 112.126 89.2208 112.148 89.1791 112.18C89.1373 112.212 89.1041 112.254 89.0825 112.302C89.0318 112.398 89.001 112.503 88.943 112.591C88.8289 112.76 88.6315 112.843 88.4903 112.986C88.349 113.129 88.2603 113.354 88.1081 113.493C87.8951 113.65 87.6455 113.749 87.3837 113.778C86.9917 113.872 86.6135 114.018 86.2591 114.212C86.1284 114.294 85.9885 114.359 85.8425 114.407C85.682 114.438 85.5176 114.444 85.3554 114.423L84.2362 114.341C84.1366 114.327 84.0355 114.332 83.9373 114.354C83.822 114.396 83.724 114.477 83.6585 114.582C83.5929 114.688 83.5636 114.812 83.5751 114.936C83.5888 115.059 83.6271 115.178 83.6879 115.286C83.7486 115.393 83.8304 115.487 83.9283 115.561C84.1226 115.706 84.3376 115.819 84.5658 115.898C85.5383 116.28 86.541 116.578 87.563 116.789V117.019C88.2714 117.381 89.0535 117.57 89.8467 117.57C89.9052 117.575 89.9638 117.564 90.017 117.539C90.0903 117.483 90.1411 117.402 90.16 117.311C90.3975 116.59 90.5477 115.843 90.6073 115.085C90.7472 115.076 90.8842 115.04 91.0112 114.98C91.397 114.874 91.7791 115.142 92.1757 115.186C92.6647 115.24 93.1192 114.951 93.581 114.773C93.6481 114.747 93.7151 114.725 93.7821 114.703C93.6503 114.876 93.4948 115.029 93.3203 115.157C93.1283 115.297 92.9128 115.399 92.7244 115.545C92.5679 115.69 92.4002 115.822 92.2228 115.94C92.0977 115.999 91.9689 116.049 91.837 116.091C91.6459 116.161 91.4636 116.254 91.2937 116.368C91.1416 116.459 91.0126 116.585 90.917 116.736C90.8689 116.806 90.8393 116.888 90.8311 116.973C90.8229 117.058 90.8363 117.144 90.8701 117.223C90.9038 117.301 90.9568 117.37 91.024 117.421C91.0912 117.473 91.1703 117.507 91.2539 117.519C91.4051 117.546 91.5596 117.55 91.7121 117.532C92.317 117.486 92.92 117.429 93.5231 117.374C93.7784 117.356 94.0321 117.319 94.2819 117.263C94.4141 117.23 94.5445 117.186 94.6767 117.151C94.9023 117.091 95.1336 117.056 95.3667 117.046C95.4344 117.041 95.5025 117.048 95.5677 117.067C95.709 117.113 95.8086 117.25 95.9517 117.287C96.0446 117.296 96.1383 117.283 96.2252 117.249C96.6666 117.151 97.1172 117.103 97.5689 117.103C97.7663 117.092 97.9981 117.054 98.0905 116.868C98.2028 116.638 98.0144 116.381 97.9402 116.133C97.9023 115.975 97.8817 115.814 97.8786 115.651C97.8442 115.251 97.7309 114.861 97.5454 114.506C97.4468 114.34 97.3637 114.166 97.2973 113.984C98.1627 113.65 98.9908 113.224 99.7675 112.712C100.213 112.431 100.673 112.128 101.176 112.025C101.763 111.905 102.368 112.063 102.946 112.232C104.322 112.636 105.676 113.116 107.001 113.668C107.635 113.931 108.268 114.21 108.917 114.403C109.106 114.663 109.336 114.89 109.596 115.076C110.031 115.361 110.561 115.444 111.072 115.484C111.762 115.548 112.455 115.574 113.147 115.563C113.676 115.554 114.221 115.517 114.694 115.273C114.809 115.212 114.918 115.14 115.018 115.056C115.38 115.122 115.752 114.925 116.036 114.673C116.412 114.348 116.684 113.916 116.815 113.433C116.981 112.769 116.853 111.995 117.255 111.453C117.362 111.308 117.501 111.19 117.606 111.043C117.735 110.846 117.799 110.612 117.787 110.376L117.805 110.348C117.896 110.135 117.957 109.91 117.986 109.679C118.034 109.499 118.095 109.323 118.168 109.152C118.372 108.639 118.549 108.115 118.7 107.584C118.805 107.231 118.887 106.872 118.946 106.509C118.99 106.218 119.015 105.926 119.039 105.634C119.068 105.176 119.155 104.724 119.299 104.29C119.657 103.253 119.859 102.167 119.899 101.07C119.899 101.048 119.899 101.027 119.899 101.005C120.425 100.947 120.91 100.691 121.26 100.289C121.61 99.8863 121.8 99.3657 121.791 98.829C121.792 98.5054 121.725 98.1854 121.596 97.8897C121.846 97.4447 121.976 96.9406 121.973 96.4284ZM111.731 109.058C111.762 109.17 111.798 109.282 111.834 109.394C111.668 109.227 111.503 109.054 111.335 108.889C111.402 108.909 111.469 108.931 111.534 108.955C111.603 108.983 111.67 109.017 111.733 109.058H111.731ZM110.92 108.507C109.931 107.635 108.786 106.959 107.774 106.117C108.317 106.395 108.861 106.716 109.404 107.025C110.037 107.393 110.677 107.744 111.324 108.08C111.218 108.244 111.082 108.386 110.925 108.499L110.92 108.507ZM111.342 106.312L111.389 106.262C111.389 106.385 111.389 106.501 111.389 106.606C111.3 106.577 111.208 106.547 111.123 106.514C111.201 106.449 111.275 106.379 111.344 106.305L111.342 106.312ZM102.636 108.672C103.043 108.205 103.398 107.692 103.692 107.145C104.083 107.841 104.721 108.343 105.264 108.926C104.391 108.801 103.516 108.703 102.638 108.665L102.636 108.672Z" fill="url(#paint0_linear_1_538)"/>
<path d="M104.049 100.198L104.674 100.327L106.801 103.518L105.862 103.647L104.049 100.198Z" fill="#2F2E41"/>
<path d="M88.9176 113.15C89.0861 113.715 89.2937 114.268 89.5388 114.804C90.2439 114.654 90.9375 114.453 91.6143 114.203C91.4833 113.996 91.3393 113.797 91.1832 113.609C91.0169 113.421 90.818 113.266 90.5964 113.151C90.3809 113.056 90.1147 113.128 89.8847 113.14C89.5623 113.153 89.24 113.156 88.9176 113.15Z" fill="#FBBEBE"/>
<path d="M90.6001 114.002C90.2488 113.89 90.0332 113.53 89.8902 113.183C89.7471 112.835 89.6312 112.457 89.3595 112.201C89.3078 112.209 89.259 112.23 89.2172 112.262C89.1755 112.295 89.1423 112.337 89.1205 112.385C89.068 112.477 89.0372 112.582 88.9774 112.67C88.8651 112.835 88.6659 112.916 88.5229 113.058C88.3798 113.199 88.291 113.414 88.1371 113.556C87.9235 113.712 87.6741 113.809 87.4127 113.839C87.0179 113.93 86.6367 114.073 86.279 114.265C86.1466 114.343 86.0056 114.405 85.8588 114.449C85.6971 114.48 85.5315 114.486 85.3681 114.466L84.2398 114.383C84.1395 114.37 84.0378 114.375 83.9392 114.398C83.8242 114.438 83.726 114.517 83.6604 114.621C83.5947 114.725 83.5653 114.848 83.577 114.971C83.5919 115.094 83.6319 115.212 83.6942 115.318C83.7566 115.424 83.84 115.515 83.9392 115.587C84.1353 115.729 84.3514 115.841 84.5803 115.918C85.5633 116.293 86.5747 116.586 87.6047 116.794V117.021C88.3205 117.38 89.1078 117.569 89.9065 117.572C89.9685 117.578 90.0309 117.567 90.0876 117.541C90.161 117.486 90.2124 117.407 90.2325 117.316C90.5032 116.513 90.6611 115.676 90.7015 114.828C90.7223 114.613 90.7064 114.397 90.6544 114.188C90.5929 113.982 90.8029 114.069 90.6073 113.988" fill="#2F2E41"/>
<path d="M112.231 109.687C108.886 109.892 105.583 108.896 102.232 108.79C101.816 108.764 101.399 108.791 100.99 108.871C100.563 108.987 100.15 109.149 99.7584 109.356C97.9637 110.203 96.1056 110.905 94.2493 111.607L92.1195 112.413C91.6921 112.572 91.252 112.736 90.7975 112.708C90.5946 112.696 90.3465 112.664 90.2306 112.837C89.8847 113.357 90.0495 114.124 90.2777 114.708C90.352 114.892 90.4769 115.103 90.6761 115.126C90.8171 115.116 90.9551 115.08 91.0836 115.021C91.4712 114.916 91.8587 115.181 92.2571 115.223C92.7516 115.276 93.2097 114.991 93.6752 114.817C94.4467 114.528 95.2906 114.537 96.102 114.399C97.4638 114.17 98.7243 113.528 99.9051 112.797C100.354 112.519 100.811 112.221 101.325 112.12C101.917 112.003 102.527 112.157 103.109 112.324C104.495 112.722 105.859 113.194 107.196 113.738C107.892 114.045 108.606 114.309 109.333 114.528C110.919 114.952 112.596 114.853 114.122 114.245C114.665 114.03 115.237 113.651 115.268 113.065C115.286 112.731 115.031 112.436 114.861 112.146C114.75 111.962 114.641 111.778 114.522 111.604C113.946 110.751 113.247 109.624 112.231 109.687Z" fill="#2F2E41"/>
<path opacity="0.1" d="M112.231 109.687C108.886 109.892 105.583 108.896 102.232 108.79C101.816 108.764 101.399 108.791 100.99 108.871C100.563 108.987 100.15 109.149 99.7584 109.356C97.9637 110.203 96.1056 110.905 94.2493 111.607L92.1195 112.413C91.6921 112.572 91.252 112.736 90.7975 112.708C90.5946 112.696 90.3465 112.664 90.2306 112.837C89.8847 113.357 90.0495 114.124 90.2777 114.708C90.352 114.892 90.4769 115.103 90.6761 115.126C90.8171 115.116 90.9551 115.08 91.0836 115.021C91.4712 114.916 91.8587 115.181 92.2571 115.223C92.7516 115.276 93.2097 114.991 93.6752 114.817C94.4467 114.528 95.2906 114.537 96.102 114.399C97.4638 114.17 98.7243 113.528 99.9051 112.797C100.354 112.519 100.811 112.221 101.325 112.12C101.917 112.003 102.527 112.157 103.109 112.324C104.495 112.722 105.859 113.194 107.196 113.738C107.892 114.045 108.606 114.309 109.333 114.528C110.919 114.952 112.596 114.853 114.122 114.245C114.665 114.03 115.237 113.651 115.268 113.065C115.286 112.731 115.031 112.436 114.861 112.146C114.75 111.962 114.641 111.778 114.522 111.604C113.946 110.751 113.247 109.624 112.231 109.687Z" fill="black"/>
<path d="M95.3377 113.315C95.8617 113.495 96.3893 113.662 96.9205 113.815C97.2194 113.317 97.7772 112.971 97.9039 112.403C97.9111 112.379 97.9111 112.352 97.9039 112.328C97.8901 112.304 97.8692 112.284 97.8442 112.273C97.4624 112.059 97.0388 111.933 96.6036 111.905C96.2595 111.883 96.1038 112.247 95.948 112.503C95.8937 112.605 95.4772 113.363 95.3377 113.315Z" fill="#FBBEBE"/>
<path d="M96.0748 112.951C95.9184 112.925 95.7692 112.865 95.6366 112.777C95.5041 112.689 95.3912 112.573 95.3051 112.438C95.2308 112.308 95.153 112.131 95.0045 112.14C94.856 112.15 94.8053 112.315 94.7745 112.453C94.6742 112.968 94.5293 113.473 94.3416 113.962C94.1523 114.453 93.8318 114.88 93.4162 115.195C93.2224 115.331 93.0069 115.434 92.8168 115.578C92.6583 115.721 92.4887 115.852 92.3097 115.967C92.1836 116.026 92.0534 116.075 91.9203 116.114C91.7252 116.184 91.5386 116.276 91.3643 116.388C91.2116 116.479 91.0819 116.605 90.9858 116.756C90.9395 116.833 90.9123 116.919 90.9066 117.009C90.9009 117.099 90.9169 117.189 90.9532 117.271C90.9922 117.337 91.0447 117.395 91.1071 117.439C91.1695 117.484 91.2405 117.515 91.3154 117.53C91.4681 117.556 91.6236 117.559 91.7772 117.541C92.3875 117.495 92.996 117.44 93.6045 117.385C93.8622 117.368 94.1182 117.333 94.3706 117.278C94.5046 117.245 94.635 117.201 94.7672 117.166C94.9954 117.107 95.2291 117.072 95.4645 117.063C95.5327 117.058 95.6014 117.065 95.6673 117.083C95.8086 117.129 95.9082 117.267 96.0531 117.3C96.1464 117.31 96.2407 117.297 96.3283 117.263C96.7737 117.168 97.2277 117.12 97.683 117.12C97.8822 117.109 98.1176 117.07 98.2082 116.888C98.3223 116.662 98.1339 116.409 98.0579 116.166C98.0203 116.011 97.999 115.852 97.9945 115.692C97.9602 115.297 97.8461 114.913 97.6594 114.565C97.5037 114.275 97.2972 113.955 97.4005 113.646C97.456 113.55 97.4911 113.442 97.5037 113.332C97.4783 112.833 96.3501 113.017 96.0748 112.951Z" fill="#2F2E41"/>
<path d="M107.216 104.242C106.624 103.977 106.149 103.498 105.883 102.898C105.829 102.77 105.782 102.636 105.729 102.505C105.553 102.074 105.28 101.69 104.933 101.384C104.895 101.342 104.85 101.309 104.799 101.288C104.748 101.266 104.693 101.255 104.637 101.257C104.584 101.273 104.535 101.303 104.497 101.345C104.459 101.386 104.432 101.437 104.42 101.492C104.389 101.612 104.381 101.737 104.396 101.86C104.427 102.145 104.476 102.428 104.541 102.707L104.704 103.457C104.725 103.572 104.759 103.685 104.806 103.792C104.875 103.918 104.968 104.029 105.077 104.121C105.226 104.26 105.376 104.395 105.528 104.525C105.612 104.602 105.704 104.67 105.802 104.727C105.963 104.805 106.134 104.856 106.311 104.878C106.975 105.003 107.651 105.183 108.211 105.613C108.211 105.613 108.211 105.112 108.198 105.062C108.191 104.916 108.142 104.776 108.057 104.659C107.846 104.43 107.484 104.362 107.216 104.242Z" fill="#FBBEBE"/>
<path opacity="0.1" d="M107.216 104.242C106.624 103.977 106.149 103.498 105.883 102.898C105.829 102.77 105.782 102.636 105.729 102.505C105.553 102.074 105.28 101.69 104.933 101.384C104.895 101.342 104.85 101.309 104.799 101.288C104.748 101.266 104.693 101.255 104.637 101.257C104.584 101.273 104.535 101.303 104.497 101.345C104.459 101.386 104.432 101.437 104.42 101.492C104.389 101.612 104.381 101.737 104.396 101.86C104.427 102.145 104.476 102.428 104.541 102.707L104.704 103.457C104.725 103.572 104.759 103.685 104.806 103.792C104.875 103.918 104.968 104.029 105.077 104.121C105.226 104.26 105.376 104.395 105.528 104.525C105.612 104.602 105.704 104.67 105.802 104.727C105.963 104.805 106.134 104.856 106.311 104.878C106.975 105.003 107.651 105.183 108.211 105.613C108.211 105.613 108.211 105.112 108.198 105.062C108.191 104.916 108.142 104.776 108.057 104.659C107.846 104.43 107.484 104.362 107.216 104.242Z" fill="black"/>
<path d="M114.026 98.5073C114.475 98.5073 114.839 98.1354 114.839 97.6765C114.839 97.2177 114.475 96.8457 114.026 96.8457C113.577 96.8457 113.212 97.2177 113.212 97.6765C113.212 98.1354 113.577 98.5073 114.026 98.5073Z" fill="#2F2E41"/>
<path d="M113.522 97.1746C113.304 97.1241 113.075 97.1575 112.879 97.2683C112.785 97.3527 112.711 97.4568 112.66 97.5735C112.477 97.8908 112.335 98.2306 112.236 98.5844C112.164 98.8877 112.151 99.2039 112.055 99.5035C111.889 100.055 111.461 100.524 111.412 101.099C111.391 101.356 111.432 101.66 111.248 101.834C111.202 101.873 111.153 101.908 111.101 101.939C110.972 102.027 110.863 102.141 110.78 102.273C110.725 102.393 110.648 102.501 110.554 102.591C110.387 102.716 110.114 102.704 110.032 102.897C109.951 103.09 110.161 103.314 110.112 103.523C110.072 103.694 109.884 103.773 109.75 103.891C109.597 104.055 109.49 104.257 109.44 104.477C109.168 104.529 108.888 104.521 108.62 104.453C108.351 104.384 108.1 104.258 107.885 104.082C108.111 104.65 108.116 105.277 108.125 105.889C108.151 106.085 108.1 106.283 107.982 106.44C108.631 106.455 109.261 106.624 109.893 106.777C110.163 106.869 110.456 106.869 110.726 106.777C110.871 106.698 111 106.593 111.108 106.468C111.452 106.113 111.813 105.733 111.896 105.238C111.918 104.96 111.923 104.681 111.91 104.402C111.944 104.058 112.014 103.718 112.119 103.389C112.301 102.706 112.422 102.008 112.481 101.303C112.519 100.867 112.888 100.518 113.084 100.128C113.446 99.3932 113.826 98.6304 113.855 97.8069C113.881 97.5385 113.79 97.2095 113.522 97.1746Z" fill="#2F2E41"/>
<path opacity="0.1" d="M113.522 97.1746C113.304 97.1241 113.075 97.1575 112.879 97.2683C112.785 97.3527 112.711 97.4568 112.66 97.5735C112.477 97.8908 112.335 98.2306 112.236 98.5844C112.164 98.8877 112.151 99.2039 112.055 99.5035C111.889 100.055 111.461 100.524 111.412 101.099C111.391 101.356 111.432 101.66 111.248 101.834C111.202 101.873 111.153 101.908 111.101 101.939C110.972 102.027 110.863 102.141 110.78 102.273C110.725 102.393 110.648 102.501 110.554 102.591C110.387 102.716 110.114 102.704 110.032 102.897C109.951 103.09 110.161 103.314 110.112 103.523C110.072 103.694 109.884 103.773 109.75 103.891C109.597 104.055 109.49 104.257 109.44 104.477C109.168 104.529 108.888 104.521 108.62 104.453C108.351 104.384 108.1 104.258 107.885 104.082C108.111 104.65 108.116 105.277 108.125 105.889C108.151 106.085 108.1 106.283 107.982 106.44C108.631 106.455 109.261 106.624 109.893 106.777C110.163 106.869 110.456 106.869 110.726 106.777C110.871 106.698 111 106.593 111.108 106.468C111.452 106.113 111.813 105.733 111.896 105.238C111.918 104.96 111.923 104.681 111.91 104.402C111.944 104.058 112.014 103.718 112.119 103.389C112.301 102.706 112.422 102.008 112.481 101.303C112.519 100.867 112.888 100.518 113.084 100.128C113.446 99.3932 113.826 98.6304 113.855 97.8069C113.881 97.5385 113.79 97.2095 113.522 97.1746Z" fill="black"/>
<path d="M112.762 110.402C112.064 110.065 111.555 109.438 110.992 108.902C109.916 107.876 108.602 107.152 107.472 106.19C106.724 105.554 106.054 104.814 105.23 104.281C104.505 103.811 103.683 103.519 102.828 103.426C102.73 103.409 102.63 103.414 102.535 103.441C102.427 103.49 102.333 103.566 102.261 103.661C101.896 104.079 101.572 104.531 101.292 105.012C99.8598 107.479 97.8261 109.554 96.14 111.85C96.0859 111.904 96.0539 111.977 96.0502 112.054C96.0465 112.131 96.0714 112.206 96.1201 112.265L96.4624 112.947C96.6543 113.328 96.9622 113.773 97.3679 113.697C97.554 113.643 97.7207 113.535 97.8478 113.387L99.3872 111.892L101.001 110.326C101.946 109.407 102.908 108.47 103.525 107.297C104.007 108.144 104.862 108.699 105.449 109.477C105.671 109.771 105.853 110.096 106.052 110.409C106.372 110.911 106.735 111.381 107.097 111.85L108.949 114.249C109.183 114.59 109.473 114.889 109.806 115.131C110.244 115.412 110.779 115.488 111.295 115.533C111.99 115.598 112.688 115.624 113.386 115.611C113.919 115.602 114.473 115.567 114.944 115.326C115.415 115.085 115.815 114.591 115.79 114.052C115.761 113.77 115.67 113.498 115.523 113.256C114.87 112.025 114.004 110.995 112.762 110.402Z" fill="#2F2E41"/>
<path d="M114.526 98.8897C114.871 98.8897 115.15 98.6041 115.15 98.2518C115.15 97.8996 114.871 97.614 114.526 97.614C114.18 97.614 113.901 97.8996 113.901 98.2518C113.901 98.6041 114.18 98.8897 114.526 98.8897Z" fill="#E8E8F0"/>
<path d="M114.388 97.772C114.529 98.0573 114.554 98.3875 114.457 98.6911C114.36 98.9897 114.225 99.2741 114.055 99.5366C113.908 99.8078 113.733 100.062 113.531 100.294C114.497 100.342 115.433 99.9575 116.284 99.4907C116.97 99.123 117.655 98.6543 118.021 97.954C117.912 97.9804 117.799 97.9833 117.689 97.9628C117.579 97.9422 117.474 97.8985 117.381 97.8345C117.197 97.7043 117.032 97.5483 116.891 97.3713L116.407 96.8199C116.293 96.6989 116.193 96.5651 116.108 96.421C116.002 96.2254 115.958 96.0017 115.98 95.7795C115.787 95.9841 115.572 96.1654 115.339 96.3199C114.993 96.5497 114.614 96.7151 114.265 96.9412C114.142 97.0221 113.868 97.1526 113.939 97.3088C114.009 97.4651 114.29 97.5956 114.388 97.772Z" fill="#FBBEBE"/>
<path opacity="0.1" d="M114.388 97.772C114.529 98.0573 114.554 98.3875 114.457 98.6911C114.36 98.9897 114.225 99.2741 114.055 99.5366C113.908 99.8078 113.733 100.062 113.531 100.294C114.497 100.342 115.433 99.9575 116.284 99.4907C116.97 99.123 117.655 98.6543 118.021 97.954C117.912 97.9804 117.799 97.9833 117.689 97.9628C117.579 97.9422 117.474 97.8985 117.381 97.8345C117.197 97.7043 117.032 97.5483 116.891 97.3713L116.407 96.8199C116.293 96.6989 116.193 96.5651 116.108 96.421C116.002 96.2254 115.958 96.0017 115.98 95.7795C115.787 95.9841 115.572 96.1654 115.339 96.3199C114.993 96.5497 114.614 96.7151 114.265 96.9412C114.142 97.0221 113.868 97.1526 113.939 97.3088C114.009 97.4651 114.29 97.5956 114.388 97.772Z" fill="black"/>
<path d="M114.401 97.8676C114.303 98.0076 114.251 98.1749 114.251 98.3464C114.251 98.5179 114.303 98.6852 114.401 98.8252C114.428 98.8601 114.531 99.0789 114.582 99.0807C114.624 99.077 114.664 99.0566 114.692 99.0237C114.911 98.7917 115.115 98.5462 115.304 98.2885C115.495 98.0275 115.771 97.8438 116.083 97.7702C116.461 97.7095 116.825 97.9135 117.157 98.1084C117.299 98.1802 117.423 98.2846 117.519 98.4135C117.589 98.5413 117.63 98.6831 117.64 98.8289C117.736 99.7052 117.772 100.587 117.749 101.468C117.767 102.104 117.725 102.74 117.626 103.367C117.564 103.691 117.472 104.007 117.429 104.334C117.397 104.622 117.384 104.912 117.391 105.202V106.415C117.383 106.637 117.398 106.859 117.438 107.078C117.512 107.339 117.6 107.596 117.7 107.848C117.788 108.148 117.849 108.456 117.881 108.768L118.044 110.023C118.097 110.42 118.135 110.852 117.898 111.17C117.793 111.315 117.651 111.429 117.535 111.572C117.128 112.098 117.264 112.861 117.083 113.513C116.949 113.992 116.675 114.419 116.297 114.736C116.009 114.984 115.636 115.181 115.263 115.103C114.761 115.008 114.458 114.477 114.321 113.975C114.183 113.473 114.14 112.925 113.837 112.504C113.595 112.157 113.22 111.94 112.881 111.692C112.542 111.444 112.209 111.126 112.135 110.707C112.102 110.523 112.122 110.339 112.104 110.155C112.077 109.921 111.989 109.698 111.848 109.511C111.707 109.323 111.519 109.178 111.304 109.089C111.047 108.988 110.728 108.951 110.579 108.722C110.948 108.487 111.217 108.12 111.333 107.694C111.445 107.274 111.506 106.842 111.514 106.407L111.601 104.948C111.639 104.295 111.657 103.648 111.939 103.062C112.066 102.801 112.224 102.555 112.354 102.296C112.529 101.932 112.678 101.556 112.8 101.171C113.004 100.573 113.211 99.974 113.394 99.3693C113.467 99.0764 113.576 98.7942 113.72 98.5293C113.888 98.2536 114.111 97.9227 114.401 97.8676Z" fill="#E8E8F0"/>
<path d="M111.208 107.35L111.588 107.363L111.67 106.781C111.68 106.664 111.707 106.55 111.749 106.441C111.812 106.326 111.886 106.217 111.968 106.115C112.343 105.578 112.316 104.865 112.408 104.213C112.532 103.343 112.89 102.527 113.245 101.726L113.984 100.055C114.05 99.9176 114.103 99.7742 114.142 99.6267C114.174 99.4639 114.189 99.2982 114.187 99.1322C114.187 98.8749 114.27 97.9356 114.276 97.6764C114.276 97.5808 114.069 97.6341 114.026 97.5496C113.933 97.3658 113.807 97.8657 113.633 97.976C113.469 98.1032 113.349 98.2804 113.292 98.4815C113.133 98.9024 113.035 99.3454 112.887 99.7682C112.756 100.201 112.519 100.593 112.197 100.906C112.046 101.042 111.871 101.149 111.727 101.292C111.267 101.753 111.224 102.481 111.208 103.13C111.197 103.533 111.123 107.35 111.208 107.35Z" fill="#2F2E41"/>
<path d="M116.686 97.171C116.324 97.3181 116.114 97.7225 116.011 98.1158C115.907 98.5092 115.864 98.9246 115.665 99.2738C115.201 100.094 114.018 100.333 113.691 101.219C113.607 101.518 113.563 101.827 113.558 102.138C113.5 102.772 113.294 103.386 113.232 104.02C113.2 104.513 113.212 105.008 113.267 105.499L113.682 110.505C113.762 111.242 113.72 111.987 113.557 112.71C113.982 112.772 114.416 112.7 114.799 112.503C115.188 112.319 115.543 112.076 115.916 111.867C116.559 111.499 117.269 111.251 117.831 110.764C117.932 110.683 118.02 110.586 118.09 110.475C118.18 110.265 118.241 110.043 118.271 109.815C118.318 109.638 118.379 109.465 118.452 109.297C118.66 108.792 118.841 108.277 118.995 107.753C119.101 107.405 119.183 107.051 119.243 106.692C119.288 106.407 119.312 106.119 119.337 105.832C119.366 105.381 119.455 104.936 119.6 104.509C119.959 103.489 120.163 102.42 120.203 101.338C120.215 101.182 120.205 101.024 120.172 100.871C120.11 100.685 120.026 100.508 119.922 100.342C119.75 100.013 119.647 99.6506 119.484 99.3179C119.122 98.5643 118.472 97.9927 117.793 97.5129C117.445 97.2795 117.063 97.0258 116.686 97.171Z" fill="#2F2E41"/>
<path d="M108.04 105.338C107.746 105.182 107.48 104.977 107.252 104.731C107.149 104.608 107.071 104.47 106.959 104.349C106.693 104.061 106.348 103.861 105.968 103.775C105.592 103.691 105.206 103.653 104.82 103.663C104.563 103.645 104.304 103.677 104.058 103.757C103.934 103.798 103.823 103.87 103.734 103.966C103.646 104.063 103.582 104.18 103.551 104.308C103.495 104.621 103.696 104.924 103.936 105.123C104.16 105.308 104.424 105.439 104.706 105.503C104.936 105.544 105.168 105.571 105.402 105.586C106.771 105.731 107.993 106.486 109.192 107.176C110.246 107.78 111.321 108.345 112.416 108.872C112.459 108.54 112.477 108.204 112.47 107.869C112.47 107.619 112.452 107.236 112.218 107.089C111.947 106.917 111.494 106.878 111.193 106.775C110.487 106.541 109.798 106.259 109.13 105.93C108.752 105.744 108.39 105.547 108.04 105.338Z" fill="#FBBEBE"/>
<path d="M114.026 97.4872C115.373 97.4872 116.465 96.3721 116.465 94.9966C116.465 93.6211 115.373 92.506 114.026 92.506C112.678 92.506 111.586 93.6211 111.586 94.9966C111.586 96.3721 112.678 97.4872 114.026 97.4872Z" fill="#FBBEBE"/>
<path d="M117.383 99.9943C117.189 100.271 117.03 100.572 116.911 100.889C116.608 101.52 116.136 102.06 115.9 102.728C115.65 103.421 115.659 104.246 115.176 104.792C115.079 104.875 115.005 104.983 114.964 105.104C114.961 105.18 114.952 105.256 114.938 105.33C114.87 105.529 114.549 105.538 114.489 105.74C114.473 105.799 114.489 105.863 114.46 105.924C114.411 106.055 114.243 106.073 114.129 106.152C113.892 106.316 113.948 106.694 113.767 106.929C113.693 107.017 113.598 107.083 113.491 107.121C113.384 107.159 113.27 107.168 113.158 107.146C112.936 107.099 112.723 107.018 112.524 106.906C112.455 106.866 112.378 106.841 112.298 106.834C112.203 106.836 112.112 106.867 112.035 106.924C111.584 107.214 111.373 107.792 111.376 108.336C111.408 108.88 111.535 109.414 111.751 109.913C111.777 109.999 111.819 110.079 111.876 110.148C112.025 110.308 112.285 110.282 112.485 110.192C112.671 110.08 112.87 109.99 113.077 109.924C113.453 109.854 113.823 110.119 114.205 110.097C114.485 110.053 114.748 109.935 114.967 109.755C115.355 109.516 115.703 109.215 115.996 108.863C116.163 108.641 116.286 108.387 116.433 108.15C116.62 107.859 116.826 107.58 117.048 107.315L118.455 105.567C118.597 105.402 118.723 105.224 118.834 105.036C118.961 104.782 119.06 104.515 119.129 104.238C119.28 103.778 119.378 103.301 119.421 102.818C119.428 102.417 119.393 102.018 119.317 101.625C119.27 101.234 119.168 100.852 119.015 100.491C118.702 99.8473 117.957 99.3142 117.383 99.9943Z" fill="#2F2E41"/>
<path d="M122.284 96.75C122.286 96.3084 122.184 95.8727 121.988 95.4786C121.791 95.0846 121.506 94.7436 121.154 94.4836C121.143 93.6997 120.859 92.9451 120.351 92.3543C119.843 91.7635 119.145 91.3749 118.381 91.2578C118.234 90.5152 117.832 89.8494 117.248 89.3775C116.664 88.9057 115.935 88.6582 115.189 88.6787C114.443 88.6991 113.728 88.9861 113.17 89.4892C112.612 89.9923 112.247 90.6792 112.139 91.4287C111.124 91.1971 110.197 91.4986 110.029 92.1327C109.848 92.7963 110.572 93.572 111.644 93.8661C111.98 93.9624 112.33 93.9979 112.678 93.9708C112.928 94.3424 113.251 94.657 113.627 94.8944C114.003 95.1318 114.424 95.2867 114.862 95.3494C114.991 95.949 115.282 96.5001 115.703 96.9408C116.124 97.3815 116.657 97.6942 117.244 97.8437C117.406 98.2416 117.658 98.5954 117.979 98.8767C117.979 98.9539 117.966 99.0329 117.966 99.1138C117.955 99.3964 118 99.6784 118.098 99.9429C118.197 100.207 118.347 100.449 118.54 100.653C118.732 100.857 118.964 101.02 119.22 101.131C119.477 101.242 119.752 101.299 120.031 101.299C120.31 101.299 120.585 101.242 120.842 101.131C121.098 101.02 121.33 100.857 121.522 100.653C121.715 100.449 121.865 100.207 121.964 99.9429C122.062 99.6784 122.107 99.3964 122.096 99.1138C122.096 98.7966 122.028 98.4831 121.898 98.1948C122.153 97.7573 122.286 97.2581 122.284 96.75Z" fill="#F86D70"/>
<path opacity="0.1" d="M110.717 92.2596C110.885 91.6255 111.804 91.324 112.827 91.5556C112.946 90.7943 113.326 90.1002 113.9 89.5957C114.475 89.0913 115.206 88.8089 115.965 88.7985C116.036 88.7985 116.107 88.7985 116.175 88.7985C115.882 88.7076 115.577 88.6618 115.27 88.6625C114.51 88.6729 113.779 88.9552 113.205 89.4597C112.631 89.9642 112.25 90.6583 112.131 91.4196C111.117 91.188 110.19 91.4895 110.022 92.1236C109.84 92.7872 110.565 93.5628 111.637 93.8569C111.836 93.913 112.041 93.9488 112.247 93.9635C111.229 93.6621 110.545 92.9085 110.717 92.2596Z" fill="black"/>
<path opacity="0.1" d="M118.655 99.2425C118.655 99.1617 118.655 99.0826 118.667 99.0036C118.346 98.7231 118.094 98.3699 117.932 97.9724C117.346 97.8214 116.813 97.508 116.392 97.0672C115.972 96.6264 115.68 96.0756 115.551 95.4763C115.112 95.414 114.691 95.2591 114.315 95.0217C113.939 94.7843 113.616 94.4695 113.366 94.0977C113.164 94.114 112.96 94.1085 112.758 94.0812C113.008 94.4237 113.323 94.7122 113.685 94.9299C114.046 95.1477 114.446 95.2903 114.862 95.3495C114.991 95.949 115.282 96.5002 115.703 96.9409C116.124 97.3816 116.657 97.6943 117.244 97.8438C117.406 98.2417 117.658 98.5954 117.979 98.8768C117.979 98.954 117.966 99.033 117.966 99.1139C117.957 99.6774 118.168 100.222 118.553 100.628C118.938 101.034 119.465 101.27 120.02 101.283C119.615 101.124 119.267 100.844 119.023 100.479C118.779 100.115 118.651 99.6833 118.655 99.2425Z" fill="black"/>
<path d="M115.142 95.9091C115.307 95.7814 115.306 95.4963 115.138 95.2724C114.971 95.0485 114.7 94.9705 114.535 95.0982C114.369 95.2259 114.371 95.511 114.538 95.7349C114.706 95.9589 114.976 96.0369 115.142 95.9091Z" fill="#FBBEBE"/>
<path d="M56.8299 108.302L59.2422 106.863C58.9162 106.298 58.4994 105.791 58.0089 105.365L53.4596 106.801L57.0237 104.674C56.1412 104.184 55.148 103.935 54.1419 103.952C53.1358 103.969 52.1515 104.252 51.2858 104.773C50.4201 105.294 49.703 106.034 49.2048 106.921C48.7067 107.809 48.4448 108.812 48.4449 109.834C48.4449 113.082 51.0401 113.194 54.2402 113.194C57.4403 113.194 60.0355 113.082 60.0355 109.834C60.0374 109.01 59.8676 108.196 59.5374 107.444L56.8299 108.302Z" fill="#CFCFCF"/>
<path opacity="0.1" d="M57.4439 111.46C57.1869 111.199 56.8999 110.97 56.589 110.778C56.1526 110.483 55.698 110.181 55.1819 110.082C54.7291 109.994 54.2619 110.069 53.8001 110.041C52.9982 109.992 52.2434 109.64 51.683 109.056C51.3534 108.711 51.0944 108.286 50.6978 108.021C50.2545 107.754 49.7315 107.657 49.2236 107.747C49.0764 107.768 48.9307 107.798 48.7872 107.837C48.5602 108.478 48.4444 109.153 48.4449 109.834C48.4449 113.082 51.0401 113.194 54.2402 113.194C55.794 113.194 57.203 113.168 58.2443 112.769L58.0632 112.44C57.8987 112.088 57.6906 111.759 57.4439 111.46Z" fill="black"/>
</g>
<defs>
<linearGradient id="paint0_linear_1_538" x1="102.776" y1="117.572" x2="102.776" y2="88.2286" gradientUnits="userSpaceOnUse">
<stop stop-color="#808080" stop-opacity="0.25"/>
<stop offset="0.54" stop-color="#808080" stop-opacity="0.12"/>
<stop offset="1" stop-color="#808080" stop-opacity="0.1"/>
</linearGradient>
<clipPath id="clip0_1_538">
<rect width="207" height="122" fill="white"/>
</clipPath>
</defs>
</svg>
