<svg width="146" height="92" viewBox="0 0 146 92" fill="none" xmlns="http://www.w3.org/2000/svg">
<g clip-path="url(#clip0_1_2241)">
<path d="M33.4527 80.3992C33.8138 76.5816 35.6134 72.8202 38.3826 71.5779C37.2905 75.5072 37.2907 79.8178 38.3833 83.7469C38.8088 85.2602 39.402 86.8851 39.0017 88.4103C38.7527 89.3593 38.1434 90.0854 37.4624 90.5394C36.7813 90.9934 36.0255 91.2097 35.2791 91.4218L35.1322 91.5815C33.9474 88.0641 33.0916 84.2168 33.4527 80.3992Z" fill="#ACACAC"/>
<path d="M38.4098 71.6501C36.7971 74.0258 35.7948 77.0091 35.5452 80.1763C35.4822 80.8569 35.5013 81.5463 35.6016 82.219C35.7155 82.8703 35.9599 83.4695 36.3095 83.9546C36.6285 84.4154 36.9955 84.8383 37.2237 85.393C37.3374 85.6793 37.4037 85.9939 37.4184 86.3163C37.4331 86.6386 37.3957 86.9614 37.3089 87.2634C37.1073 88.0234 36.7101 88.6429 36.3056 89.2309C35.8565 89.8838 35.3822 90.5526 35.1913 91.4182C35.1681 91.5231 35.0457 91.4698 35.0688 91.3651C35.4009 89.8591 36.5129 89.0037 37.0432 87.6473C37.2906 87.0144 37.3945 86.2796 37.1625 85.6115C36.9597 85.0272 36.5815 84.5908 36.2554 84.1278C35.9091 83.6612 35.655 83.0903 35.5152 82.4648C35.3891 81.8009 35.3499 81.1136 35.3992 80.4324C35.4916 78.8965 35.7672 77.3893 36.2157 75.9659C36.7208 74.3376 37.434 72.835 38.3245 71.523C38.3796 71.4418 38.4646 71.5695 38.4098 71.6501L38.4098 71.6501Z" fill="white"/>
<path d="M35.5802 79.1502C35.1817 79.023 34.8306 78.7138 34.5895 78.2776C34.3485 77.8415 34.2332 77.3069 34.2642 76.7693C34.2708 76.6605 34.3997 76.6688 34.3931 76.7777C34.3634 77.2783 34.4709 77.7762 34.696 78.1818C34.9211 78.5873 35.2491 78.8737 35.6207 78.9892C35.7014 79.0145 35.6605 79.1753 35.5802 79.1502Z" fill="white"/>
<path d="M36.1243 83.7489C36.844 83.1839 37.3754 82.283 37.6123 81.2258C37.6357 81.1211 37.7582 81.1744 37.7348 81.279C37.4866 82.3785 36.9323 83.3146 36.1823 83.9004C36.1108 83.9561 36.0532 83.8044 36.1243 83.7489Z" fill="white"/>
<path d="M36.8405 74.4982C36.9869 74.5897 37.1483 74.6319 37.3101 74.6211C37.472 74.6103 37.6293 74.5468 37.7679 74.4363C37.8388 74.3794 37.8964 74.5312 37.8259 74.5878C37.6723 74.7089 37.4986 74.7787 37.3198 74.7912C37.1409 74.8036 36.9625 74.7583 36.8001 74.6592C36.7842 74.6516 36.7711 74.6362 36.7635 74.6164C36.7559 74.5965 36.7543 74.5735 36.7591 74.5521C36.7645 74.5309 36.7761 74.5133 36.7914 74.5032C36.8066 74.4931 36.8243 74.4913 36.8405 74.4982Z" fill="white"/>
<path d="M46.8239 78.3965C46.7804 78.4337 46.7368 78.471 46.6933 78.5096C46.11 79.0138 45.559 79.5795 45.0454 80.201C45.0051 80.2482 44.9648 80.2969 44.9257 80.3455C43.7006 81.8603 42.7001 83.6609 41.975 85.6559C41.687 86.4501 41.4454 87.2719 41.2522 88.1143C40.9855 89.2777 40.7668 90.567 40.2389 91.5186C40.1847 91.6187 40.1258 91.7142 40.0626 91.8047H35.292C35.2811 91.7976 35.2702 91.7919 35.2593 91.7847L35.0688 91.7962C35.0765 91.7518 35.0852 91.706 35.0928 91.6616C35.0972 91.6359 35.1026 91.6101 35.107 91.5844C35.1102 91.5672 35.1135 91.55 35.1157 91.5343C35.1167 91.5286 35.1178 91.5229 35.1189 91.5186C35.1211 91.5028 35.1244 91.4885 35.1266 91.4742C35.1744 91.2181 35.2238 90.9619 35.2746 90.7058C35.2746 90.7043 35.2746 90.7043 35.2756 90.7029C35.6484 88.7463 36.1965 86.8546 36.9083 85.0677C36.9301 85.0148 36.9518 84.9604 36.9758 84.9075C37.3054 84.1165 37.6836 83.3622 38.1067 82.6523C38.3393 82.2645 38.5867 81.8924 38.8479 81.5375C39.5242 80.6223 40.3058 79.8525 41.1641 79.2566C42.8751 78.0689 44.856 77.6138 46.6846 78.3393C46.7314 78.3579 46.7771 78.3765 46.8239 78.3965Z" fill="#ACACAC"/>
<path d="M46.813 78.4761C44.4374 79.0965 42.2709 80.6851 40.6211 83.0164C40.2592 83.5099 39.9587 84.0754 39.7308 84.692C39.5234 85.3021 39.4442 85.9741 39.5012 86.6381C39.5449 87.2586 39.6442 87.8866 39.5724 88.5103C39.5321 88.8288 39.4409 89.1325 39.305 89.4015C39.1691 89.6705 38.9915 89.8987 38.7839 90.0711C38.2749 90.5183 37.674 90.6985 37.0818 90.8479C36.4242 91.0137 35.7392 91.1722 35.1904 91.7122C35.1239 91.7777 35.0506 91.6382 35.1169 91.5729C36.0718 90.6333 37.3513 90.8305 38.3959 90.1672C38.8833 89.8577 39.3027 89.3533 39.4235 88.6362C39.5291 88.0092 39.427 87.3614 39.3787 86.7336C39.3158 86.0869 39.3744 85.4299 39.5492 84.8198C39.7526 84.19 40.036 83.6102 40.3873 83.1053C41.1645 81.9521 42.0747 80.9668 43.0847 80.1853C44.2336 79.285 45.4912 78.6498 46.8031 78.3071C46.8843 78.2859 46.8936 78.4551 46.813 78.4761V78.4761Z" fill="white"/>
<path d="M41.1187 82.2246C40.8588 81.8076 40.7201 81.2827 40.7273 80.7436C40.7346 80.2046 40.8873 79.6865 41.1583 79.2818C41.2134 79.2002 41.3125 79.3088 41.2573 79.3906C41.0045 79.7667 40.8622 80.2494 40.8562 80.7514C40.8502 81.2533 40.9809 81.7416 41.2247 82.128C41.2776 82.2121 41.1713 82.3081 41.1187 82.2246Z" fill="white"/>
<path d="M39.4476 86.3273C40.281 86.4458 41.1178 86.1471 41.7911 85.4906C41.8578 85.4255 41.9311 85.5649 41.8646 85.63C41.1629 86.3114 40.2916 86.62 39.4246 86.4941C39.3419 86.482 39.3654 86.3152 39.4476 86.3273Z" fill="white"/>
<path d="M44.2559 79.508C44.3309 79.6969 44.4404 79.8583 44.5746 79.9778C44.7087 80.0973 44.8634 80.1711 45.0247 80.1926C45.1074 80.2033 45.0838 80.3701 45.0016 80.3595C44.8236 80.3346 44.6528 80.2528 44.5043 80.1212C44.3559 79.9896 44.2341 79.8122 44.1498 79.6045C44.1406 79.5858 44.1372 79.5632 44.1402 79.5413C44.1433 79.5194 44.1525 79.4998 44.1661 79.4866C44.1802 79.4739 44.1975 79.469 44.2143 79.473C44.2311 79.477 44.2461 79.4896 44.2559 79.508Z" fill="white"/>
<path d="M119.316 81.7493C119.004 78.4489 117.448 75.1972 115.054 74.1231C115.998 77.5201 115.998 81.2466 115.054 84.6434C114.686 85.9517 114.173 87.3564 114.519 88.675C114.734 89.4954 115.261 90.1231 115.85 90.5156C116.439 90.9081 117.092 91.0951 117.737 91.2784L117.864 91.4165C118.889 88.3756 119.628 85.0496 119.316 81.7493Z" fill="#ACACAC"/>
<path d="M115.03 74.1855C116.425 76.2393 117.291 78.8184 117.507 81.5565C117.561 82.1449 117.545 82.7409 117.458 83.3225C117.36 83.8855 117.148 84.4036 116.846 84.8229C116.57 85.2213 116.253 85.5868 116.056 86.0665C115.958 86.314 115.9 86.5859 115.888 86.8646C115.875 87.1433 115.907 87.4223 115.982 87.6834C116.156 88.3404 116.5 88.876 116.85 89.3844C117.238 89.9488 117.648 90.527 117.813 91.2753C117.833 91.366 117.939 91.3199 117.919 91.2293C117.632 89.9274 116.67 89.1879 116.212 88.0153C115.998 87.4681 115.908 86.8329 116.109 86.2553C116.284 85.7502 116.611 85.3729 116.893 84.9727C117.192 84.5693 117.412 84.0757 117.533 83.5349C117.642 82.961 117.676 82.3668 117.633 81.7779C117.553 80.4501 117.315 79.1471 116.927 77.9166C116.491 76.5089 115.874 75.2099 115.104 74.0756C115.057 74.0054 114.983 74.1158 115.03 74.1855H115.03Z" fill="white"/>
<path d="M117.477 80.6695C117.821 80.5595 118.125 80.2922 118.333 79.9151C118.542 79.538 118.641 79.0759 118.614 78.6111C118.609 78.5171 118.497 78.5243 118.503 78.6184C118.529 79.0512 118.436 79.4817 118.241 79.8322C118.047 80.1828 117.763 80.4304 117.442 80.5303C117.372 80.5521 117.407 80.6912 117.477 80.6695Z" fill="white"/>
<path d="M117.006 84.6451C116.384 84.1566 115.925 83.3778 115.72 82.4639C115.7 82.3733 115.594 82.4194 115.614 82.5098C115.828 83.4604 116.308 84.2696 116.956 84.776C117.018 84.8242 117.068 84.693 117.006 84.6451Z" fill="white"/>
<path d="M116.387 76.6478C116.26 76.7269 116.121 76.7634 115.981 76.754C115.841 76.7447 115.705 76.6898 115.585 76.5943C115.524 76.5451 115.474 76.6763 115.535 76.7252C115.668 76.8299 115.818 76.8903 115.973 76.9011C116.127 76.9119 116.282 76.8727 116.422 76.787C116.436 76.7804 116.447 76.7671 116.454 76.7499C116.46 76.7327 116.462 76.7129 116.457 76.6944C116.453 76.676 116.443 76.6608 116.429 76.6521C116.416 76.6433 116.401 76.6418 116.387 76.6478L116.387 76.6478Z" fill="white"/>
<path d="M107.756 80.0179C107.794 80.0501 107.832 80.0823 107.869 80.1157C108.373 80.5515 108.85 81.0406 109.294 81.5779C109.329 81.6187 109.364 81.6608 109.397 81.7028C110.456 83.0124 111.321 84.569 111.948 86.2937C112.197 86.9803 112.406 87.6908 112.573 88.419C112.804 89.4248 112.993 90.5394 113.449 91.3621C113.496 91.4486 113.547 91.5312 113.602 91.6095H117.726C117.735 91.6033 117.745 91.5983 117.754 91.5922L117.919 91.602C117.912 91.5637 117.905 91.5241 117.898 91.4858C117.894 91.4635 117.89 91.4412 117.886 91.419C117.883 91.4041 117.88 91.3893 117.878 91.3757C117.877 91.3707 117.876 91.3658 117.875 91.3621C117.874 91.3484 117.871 91.3361 117.869 91.3237C117.827 91.1023 117.785 90.8808 117.741 90.6594C117.741 90.6582 117.741 90.6582 117.74 90.6569C117.418 88.9654 116.944 87.33 116.329 85.7852C116.31 85.7395 116.291 85.6925 116.27 85.6467C115.985 84.9629 115.658 84.3108 115.292 83.697C115.091 83.3618 114.878 83.0402 114.652 82.7333C114.067 81.9421 113.391 81.2766 112.649 80.7614C111.17 79.7346 109.458 79.3412 107.877 79.9684C107.836 79.9845 107.797 80.0006 107.756 80.0179Z" fill="#ACACAC"/>
<path d="M107.766 80.0868C109.819 80.623 111.692 81.9964 113.119 84.0118C113.431 84.4385 113.691 84.9274 113.888 85.4605C114.068 85.9879 114.136 86.5688 114.087 87.1428C114.049 87.6793 113.963 88.2222 114.025 88.7614C114.06 89.0368 114.139 89.2993 114.256 89.5319C114.374 89.7644 114.527 89.9616 114.707 90.1107C115.147 90.4974 115.666 90.6532 116.178 90.7823C116.747 90.9256 117.339 91.0627 117.814 91.5295C117.871 91.5861 117.934 91.4655 117.877 91.409C117.052 90.5968 115.945 90.7672 115.042 90.1938C114.621 89.9263 114.258 89.4902 114.154 88.8703C114.063 88.3282 114.151 87.7682 114.193 87.2254C114.247 86.6664 114.196 86.0983 114.045 85.5709C113.869 85.0264 113.624 84.5252 113.321 84.0887C112.649 83.0918 111.862 82.2399 110.989 81.5644C109.996 80.7861 108.908 80.2369 107.774 79.9406C107.704 79.9223 107.696 80.0686 107.766 80.0868Z" fill="white"/>
<path d="M112.688 83.3273C112.913 82.9668 113.033 82.513 113.027 82.047C113.021 81.581 112.889 81.1331 112.654 80.7833C112.607 80.7127 112.521 80.8066 112.569 80.8773C112.787 81.2025 112.91 81.6197 112.915 82.0537C112.921 82.4877 112.808 82.9098 112.597 83.2438C112.551 83.3165 112.643 83.3995 112.688 83.3273Z" fill="white"/>
<path d="M114.133 86.8741C113.413 86.9766 112.689 86.7184 112.107 86.1508C112.05 86.0945 111.986 86.2151 112.044 86.2713C112.65 86.8604 113.403 87.1272 114.153 87.0183C114.225 87.0079 114.204 86.8637 114.133 86.8741H114.133Z" fill="white"/>
<path d="M109.977 80.9788C109.912 81.1421 109.817 81.2817 109.701 81.385C109.585 81.4883 109.452 81.5521 109.312 81.5707C109.241 81.5799 109.261 81.7241 109.332 81.7149C109.486 81.6934 109.634 81.6227 109.762 81.509C109.89 81.3952 109.996 81.2418 110.068 81.0623C110.076 81.0461 110.079 81.0266 110.077 81.0076C110.074 80.9887 110.066 80.9718 110.054 80.9603C110.042 80.9493 110.027 80.9451 110.013 80.9486C109.998 80.952 109.985 80.9629 109.977 80.9788H109.977Z" fill="white"/>
<path d="M127.925 6.6673H30.8655C30.8281 6.6673 30.7923 6.64778 30.7659 6.61305C30.7394 6.57832 30.7246 6.53121 30.7246 6.4821C30.7246 6.43298 30.7394 6.38587 30.7659 6.35114C30.7923 6.3164 30.8281 6.29689 30.8655 6.29689H127.925C127.962 6.29689 127.998 6.3164 128.024 6.35114C128.051 6.38587 128.066 6.43298 128.066 6.4821C128.066 6.53121 128.051 6.57832 128.024 6.61305C127.998 6.64778 127.962 6.6673 127.925 6.6673Z" fill="#CACACA"/>
<path d="M34.0359 4.07446C34.8917 4.07446 35.5855 3.16236 35.5855 2.03723C35.5855 0.912099 34.8917 0 34.0359 0C33.1801 0 32.4863 0.912099 32.4863 2.03723C32.4863 3.16236 33.1801 4.07446 34.0359 4.07446Z" fill="#3F3D56"/>
<path d="M39.3889 4.07446C40.2447 4.07446 40.9385 3.16236 40.9385 2.03723C40.9385 0.912099 40.2447 0 39.3889 0C38.5331 0 37.8394 0.912099 37.8394 2.03723C37.8394 3.16236 38.5331 4.07446 39.3889 4.07446Z" fill="#3F3D56"/>
<path d="M44.7419 4.07446C45.5977 4.07446 46.2915 3.16236 46.2915 2.03723C46.2915 0.912099 45.5977 0 44.7419 0C43.8861 0 43.1924 0.912099 43.1924 2.03723C43.1924 3.16236 43.8861 4.07446 44.7419 4.07446Z" fill="#3F3D56"/>
<path d="M124.717 1.24611H120.914C120.839 1.24611 120.767 1.20709 120.714 1.13762C120.662 1.06816 120.632 0.973945 120.632 0.875708C120.632 0.77747 120.662 0.683256 120.714 0.613791C120.767 0.544327 120.839 0.505303 120.914 0.505303H124.717C124.754 0.505192 124.791 0.51469 124.825 0.533254C124.859 0.551819 124.89 0.579084 124.917 0.613491C124.943 0.647897 124.964 0.688767 124.978 0.733763C124.992 0.778758 124.999 0.826994 124.999 0.875708C124.999 0.924422 124.992 0.972658 124.978 1.01765C124.964 1.06265 124.943 1.10352 124.917 1.13793C124.89 1.17233 124.859 1.1996 124.825 1.21816C124.791 1.23673 124.754 1.24622 124.717 1.24611H124.717Z" fill="#3F3D56"/>
<path d="M124.717 2.63513H120.914C120.839 2.63513 120.767 2.59611 120.714 2.52664C120.662 2.45718 120.632 2.36296 120.632 2.26473C120.632 2.16649 120.662 2.07227 120.714 2.00281C120.767 1.93334 120.839 1.89432 120.914 1.89432H124.717C124.792 1.89432 124.863 1.93334 124.916 2.00281C124.969 2.07227 124.999 2.16649 124.999 2.26473C124.999 2.36296 124.969 2.45718 124.916 2.52664C124.863 2.59611 124.792 2.63513 124.717 2.63513H124.717Z" fill="#3F3D56"/>
<path d="M124.717 4.02415H120.914C120.839 4.02415 120.767 3.98513 120.714 3.91566C120.662 3.8462 120.632 3.75198 120.632 3.65375C120.632 3.55551 120.662 3.46129 120.714 3.39183C120.767 3.32237 120.839 3.28334 120.914 3.28334H124.717C124.754 3.28323 124.791 3.29273 124.825 3.31129C124.859 3.32986 124.89 3.35712 124.917 3.39153C124.943 3.42594 124.964 3.46681 124.978 3.5118C124.992 3.5568 124.999 3.60503 124.999 3.65375C124.999 3.70246 124.992 3.7507 124.978 3.79569C124.964 3.84069 124.943 3.88156 124.917 3.91596C124.89 3.95037 124.859 3.97764 124.825 3.9962C124.791 4.01476 124.754 4.02426 124.717 4.02415H124.717Z" fill="#3F3D56"/>
<path d="M124.999 14.6091H104.714V30.599H124.999V14.6091Z" fill="#0F3267"/>
<path d="M120.952 37.9447H108.882C108.731 37.9444 108.587 37.8655 108.481 37.7254C108.374 37.5852 108.314 37.3953 108.314 37.1973C108.314 36.9993 108.374 36.8093 108.481 36.6692C108.587 36.5291 108.731 36.4502 108.882 36.4499H120.952C121.102 36.4499 121.247 36.5286 121.354 36.6688C121.46 36.809 121.52 36.9991 121.52 37.1973C121.52 37.3955 121.46 37.5856 121.354 37.7258C121.247 37.8659 121.102 37.9447 120.952 37.9447Z" fill="#ACACAC"/>
<path d="M119.006 35.3863H110.828C110.753 35.3864 110.679 35.3672 110.61 35.3297C110.541 35.2922 110.479 35.2372 110.426 35.1678C110.373 35.0984 110.331 35.0159 110.302 34.9251C110.274 34.8344 110.259 34.7371 110.259 34.6388C110.259 34.5406 110.274 34.4433 110.302 34.3525C110.331 34.2618 110.373 34.1793 110.426 34.1099C110.479 34.0405 110.541 33.9855 110.61 33.948C110.679 33.9105 110.753 33.8913 110.828 33.8914H119.006C119.081 33.8913 119.155 33.9105 119.224 33.948C119.293 33.9855 119.356 34.0405 119.408 34.1099C119.461 34.1793 119.503 34.2618 119.532 34.3525C119.561 34.4433 119.575 34.5406 119.575 34.6388C119.575 34.7371 119.561 34.8344 119.532 34.9251C119.503 35.0159 119.461 35.0984 119.408 35.1678C119.356 35.2372 119.293 35.2922 119.224 35.3297C119.155 35.3672 119.081 35.3864 119.006 35.3863Z" fill="#ACACAC"/>
<path d="M124.999 43.686H104.714V59.6758H124.999V43.686Z" fill="#ACACAC"/>
<path d="M120.952 67.0215H108.882C108.731 67.0215 108.587 66.9428 108.48 66.8026C108.373 66.6624 108.313 66.4723 108.313 66.2741C108.313 66.0759 108.373 65.8858 108.48 65.7456C108.587 65.6054 108.731 65.5267 108.882 65.5267H120.952C121.102 65.5267 121.247 65.6054 121.354 65.7456C121.46 65.8858 121.52 66.0759 121.52 66.2741C121.52 66.4723 121.46 66.6624 121.354 66.8026C121.247 66.9428 121.102 67.0215 120.952 67.0215Z" fill="#ACACAC"/>
<path d="M119.006 64.4631H110.828C110.677 64.4631 110.533 64.3843 110.426 64.2442C110.32 64.104 110.26 63.9139 110.26 63.7157C110.26 63.5174 110.32 63.3273 110.426 63.1872C110.533 63.047 110.677 62.9682 110.828 62.9682H119.006C119.157 62.9682 119.301 63.047 119.408 63.1872C119.515 63.3273 119.574 63.5174 119.574 63.7157C119.574 63.9139 119.515 64.104 119.408 64.2442C119.301 64.3843 119.157 64.4631 119.006 64.4631Z" fill="#ACACAC"/>
<path d="M94.3116 25.8202H33.0802C32.9294 25.8202 32.7848 25.7414 32.6782 25.6012C32.5716 25.4611 32.5117 25.271 32.5117 25.0727C32.5117 24.8745 32.5716 24.6844 32.6782 24.5442C32.7848 24.4041 32.9294 24.3253 33.0802 24.3253H94.3116C94.4624 24.3253 94.607 24.4041 94.7136 24.5442C94.8202 24.6844 94.8801 24.8745 94.8801 25.0727C94.8801 25.271 94.8202 25.4611 94.7136 25.6012C94.607 25.7414 94.4624 25.8202 94.3116 25.8202Z" fill="#ACACAC"/>
<path d="M94.3116 31.4829H33.0802C32.9294 31.4829 32.7848 31.4042 32.6782 31.264C32.5716 31.1238 32.5117 30.9337 32.5117 30.7355C32.5117 30.5373 32.5716 30.3472 32.6782 30.207C32.7848 30.0668 32.9294 29.9881 33.0802 29.9881H94.3116C94.4624 29.9881 94.607 30.0668 94.7136 30.207C94.8202 30.3472 94.8801 30.5373 94.8801 30.7355C94.8801 30.9337 94.8202 31.1238 94.7136 31.264C94.607 31.4042 94.4624 31.4829 94.3116 31.4829Z" fill="#ACACAC"/>
<path d="M94.3116 37.1457H33.0802C32.9294 37.1457 32.7848 37.0669 32.6782 36.9267C32.5716 36.7866 32.5117 36.5965 32.5117 36.3982C32.5117 36.2 32.5716 36.0099 32.6782 35.8697C32.7848 35.7296 32.9294 35.6508 33.0802 35.6508H94.3116C94.4624 35.6508 94.607 35.7296 94.7136 35.8697C94.8202 36.0099 94.8801 36.2 94.8801 36.3982C94.8801 36.5965 94.8202 36.7866 94.7136 36.9267C94.607 37.0669 94.4624 37.1457 94.3116 37.1457Z" fill="#ACACAC"/>
<path d="M94.3116 42.8084H33.0802C32.9294 42.8084 32.7848 42.7297 32.6782 42.5895C32.5716 42.4493 32.5117 42.2592 32.5117 42.061C32.5117 41.8628 32.5716 41.6727 32.6782 41.5325C32.7848 41.3923 32.9294 41.3136 33.0802 41.3136H94.3116C94.4624 41.3136 94.607 41.3923 94.7136 41.5325C94.8202 41.6727 94.8801 41.8628 94.8801 42.061C94.8801 42.2592 94.8202 42.4493 94.7136 42.5895C94.607 42.7297 94.4624 42.8084 94.3116 42.8084Z" fill="#ACACAC"/>
<path d="M94.3116 54.1339H33.0802C32.9294 54.1339 32.7848 54.0551 32.6782 53.915C32.5716 53.7748 32.5117 53.5847 32.5117 53.3865C32.5117 53.1883 32.5716 52.9981 32.6782 52.858C32.7848 52.7178 32.9294 52.6391 33.0802 52.6391H94.3116C94.4624 52.6391 94.607 52.7178 94.7136 52.858C94.8202 52.9981 94.8801 53.1883 94.8801 53.3865C94.8801 53.5847 94.8202 53.7748 94.7136 53.915C94.607 54.0551 94.4624 54.1339 94.3116 54.1339Z" fill="#ACACAC"/>
<path d="M94.3116 59.7966H33.0802C32.9294 59.7966 32.7848 59.7179 32.6782 59.5777C32.5716 59.4376 32.5117 59.2475 32.5117 59.0492C32.5117 58.851 32.5716 58.6609 32.6782 58.5207C32.7848 58.3806 32.9294 58.3018 33.0802 58.3018H94.3116C94.4624 58.3018 94.607 58.3806 94.7136 58.5207C94.8202 58.6609 94.8801 58.851 94.8801 59.0492C94.8801 59.2475 94.8202 59.4376 94.7136 59.5777C94.607 59.7179 94.4624 59.7966 94.3116 59.7966Z" fill="#ACACAC"/>
<path d="M84.1966 20.1374H43.1949C43.1202 20.1376 43.0461 20.1184 42.9771 20.0809C42.908 20.0434 42.8452 19.9884 42.7923 19.9189C42.7394 19.8495 42.6975 19.7671 42.6688 19.6763C42.6402 19.5856 42.6255 19.4883 42.6255 19.39C42.6255 19.2918 42.6402 19.1945 42.6688 19.1037C42.6975 19.013 42.7394 18.9305 42.7923 18.8611C42.8452 18.7917 42.908 18.7366 42.9771 18.6992C43.0461 18.6617 43.1202 18.6425 43.1949 18.6426H84.1966C84.2713 18.6425 84.3453 18.6617 84.4144 18.6992C84.4835 18.7366 84.5462 18.7917 84.5991 18.8611C84.652 18.9305 84.694 19.013 84.7226 19.1037C84.7512 19.1945 84.766 19.2918 84.766 19.39C84.766 19.4883 84.7512 19.5856 84.7226 19.6763C84.694 19.7671 84.652 19.8495 84.5991 19.9189C84.5462 19.9884 84.4835 20.0434 84.4144 20.0809C84.3453 20.1184 84.2713 20.1376 84.1966 20.1374Z" fill="#ACACAC"/>
<path d="M99.9074 90.3679H101.091L101.654 84.3646L99.9072 84.3648L99.9074 90.3679Z" fill="#FFB6B6"/>
<path d="M99.6055 89.8598L101.937 89.8596H101.937C102.331 89.8596 102.709 90.0655 102.987 90.4318C103.266 90.7981 103.423 91.2948 103.423 91.8129V91.8764L99.6055 91.8765L99.6055 89.8598Z" fill="#2F2E41"/>
<path d="M93.8567 90.3679H95.0405L95.6037 84.3646L93.8564 84.3648L93.8567 90.3679Z" fill="#FFB6B6"/>
<path d="M93.5547 89.8598L95.886 89.8596H95.8861C96.2802 89.8596 96.658 90.0655 96.9367 90.4318C97.2153 90.7981 97.3718 91.2948 97.3719 91.8129V91.8764L93.5548 91.8765L93.5547 89.8598Z" fill="#2F2E41"/>
<path d="M107.68 23.4716C107.681 23.2103 107.637 22.9523 107.552 22.7161C107.467 22.4799 107.343 22.2713 107.19 22.1054C107.036 21.9395 106.857 21.8204 106.664 21.7566C106.471 21.6928 106.27 21.6859 106.076 21.7365C105.881 21.7871 105.697 21.8938 105.537 22.0491C105.377 22.2043 105.245 22.4042 105.151 22.6343C105.057 22.8644 105.003 23.1191 104.993 23.3799C104.983 23.6408 105.017 23.9014 105.092 24.143L102.372 29.8018L100.678 34.2889L102.076 35.9197L103.151 34.4315L106.669 25.1824C106.958 25.0854 107.214 24.8646 107.398 24.5549C107.581 24.2451 107.68 23.8639 107.68 23.4716Z" fill="#FFB6B6"/>
<path d="M93.5621 42.0329L90.8955 41.4896L90.2602 47.8321L86.7992 57.6237C86.5735 57.8087 86.3945 58.0775 86.2849 58.3962C86.1754 58.7149 86.1401 59.0691 86.1837 59.4141C86.2272 59.7591 86.3475 60.0794 86.5295 60.3345C86.7115 60.5896 86.9469 60.768 87.206 60.8473C87.465 60.9265 87.7362 60.903 87.9851 60.7797C88.234 60.6564 88.4495 60.4389 88.6044 60.1545C88.7593 59.8702 88.8466 59.5319 88.8553 59.1824C88.864 58.8329 88.7937 58.4878 88.6532 58.1908L92.2719 49.6L93.5621 42.0329Z" fill="#FFB6B6"/>
<path d="M95.04 52.5989C95.04 52.5989 92.695 55.4498 92.993 62.6181L93.6499 73.6921L93.4842 89.1287L95.8928 88.8799L97.997 63.0101L100.014 73.6166L99.2899 87.7456L101.61 87.8164L104.048 71.8488L103.47 60.0126L102.499 52.5989H95.04Z" fill="#2F2E41"/>
<path d="M97.5488 35.9046L91.9463 37.967L94.7949 49.1881L94.3691 53.4808L103.007 53.5544L101.007 45.2572C101.007 45.2572 102.13 42.222 100.848 40.0945L97.5488 35.9046Z" fill="#0F3267"/>
<path d="M96.8765 37.6724L97.5488 35.9046C97.5488 35.9046 97.5271 35.4604 99.1066 35.2406L100.96 32.8188L102.656 35.0416L99.7897 40.6186L96.8765 37.6724Z" fill="#0F3267"/>
<path d="M94.1871 39.4401C94.1871 39.4401 92.1702 36.4939 91.0497 37.967C89.9292 39.4401 90.5037 44.1243 90.5037 44.1243L93.9937 44.8363L94.1871 39.4401Z" fill="#0F3267"/>
<path d="M95.2103 28.1149C98.6451 28.1352 98.6448 35.0013 95.2101 35.0209C91.7755 35.0007 91.7758 28.1346 95.2103 28.1149Z" fill="#FFB6B6"/>
<path d="M95.5924 31.3397C96.0567 31.6992 96.5392 32.0668 97.0748 32.1439C97.6104 32.221 98.2168 31.9246 98.4317 31.275C98.4989 31.0499 98.5345 30.8107 98.5369 30.569C98.5841 29.3352 98.2594 28.1268 97.6332 27.2058C97.319 26.7543 96.9344 26.3972 96.5057 26.1589C96.0769 25.9206 95.6142 25.8066 95.1489 25.8248C94.2614 25.8755 93.4413 26.4278 92.6537 26.9682C91.9295 27.4651 91.1648 28.0126 90.7713 28.9538C90.1882 30.3485 90.6132 32.0561 90.7265 33.6406C90.806 34.8221 90.7036 36.0125 90.4254 37.1408C90.1472 38.2691 89.699 39.3122 89.1074 40.2078L93.9944 40.8165C94.5892 40.8906 95.1957 40.9639 95.7787 40.7927C96.2817 40.645 96.7448 40.3208 97.1189 39.8547C97.4929 39.3886 97.7639 38.798 97.903 38.1456C98.0422 37.4931 98.0442 36.8033 97.909 36.1495C97.7737 35.4957 97.5063 34.9023 97.135 34.4323C96.4413 33.5543 95.3257 32.9327 95.2983 31.6673" fill="#2F2E41"/>
<path d="M132.013 90.2242H130.716L130.1 83.6491H132.013L132.013 90.2242Z" fill="#9F616A"/>
<path d="M132.344 91.8765L128.163 91.8764V91.8068C128.163 91.2395 128.335 90.6953 128.64 90.2941C128.945 89.8929 129.359 89.6675 129.79 89.6675H129.79L132.344 89.6676L132.344 91.8765Z" fill="#2F2E41"/>
<path d="M144.07 90.2242H142.773L142.156 83.6491H144.07L144.07 90.2242Z" fill="#9F616A"/>
<path d="M144.4 91.8765L140.219 91.8764V91.8068C140.219 91.2395 140.391 90.6953 140.696 90.2941C141.001 89.8929 141.415 89.6675 141.846 89.6675H141.847L144.4 89.6677L144.4 91.8765Z" fill="#2F2E41"/>
<path d="M131.496 56.8576C131.496 56.8576 130.408 60.7413 130.563 62.3765C130.719 64.0117 129.475 75.4583 129.63 76.4803C129.786 77.5023 129.475 82.6124 129.63 83.43C129.786 84.2476 129.194 85.2242 129.505 86.0418C129.816 86.8594 130.252 88.54 130.252 88.54L132.273 88.3356L132.584 86.0872C132.584 86.0872 133.517 85.8828 133.362 84.6564C133.206 83.43 134.139 75.2539 134.139 75.2539L136.782 63.8073L140.513 74.2318C140.513 74.2318 140.669 81.5903 141.135 82.4079C141.602 83.2256 140.669 85.474 141.135 86.2916C141.602 87.1092 142.068 88.54 142.068 88.54H144.4V86.9048C144.4 86.9048 145.799 85.8828 144.4 82.8168L143.455 64.4039L142.522 56.0234L131.496 56.8576Z" fill="#2F2E41"/>
<path d="M137.292 31.156C138.896 31.156 140.196 29.4467 140.196 27.3382C140.196 25.2297 138.896 23.5205 137.292 23.5205C135.688 23.5205 134.388 25.2297 134.388 27.3382C134.388 29.4467 135.688 31.156 137.292 31.156Z" fill="#A0616A"/>
<path d="M134.821 27.0749C135.026 27.7631 135.231 28.4514 135.436 29.1397C135.687 29.9858 135.976 30.8911 136.566 31.3633C137.295 31.9463 138.269 31.6621 138.974 31.0305C139.609 30.4625 140.095 29.6528 140.37 28.7104C140.644 27.7679 140.692 26.7377 140.508 25.7582C140.323 24.7787 139.915 23.8968 139.339 23.2309C138.762 22.565 138.044 22.1471 137.282 22.0332L137.253 22.7243L136.608 22.0135C136.56 22.1211 136.494 22.2131 136.416 22.2826C136.337 22.3521 136.247 22.3972 136.154 22.4147C136.06 22.4321 135.964 22.4214 135.874 22.3833C135.784 22.3452 135.701 22.2807 135.633 22.1947C135.802 22.6565 135.607 23.2197 135.324 23.5734C134.977 24.008 133.985 24.5302 134.026 25.3071C134.054 25.8255 134.661 26.5376 134.821 27.0749Z" fill="#2F2E41"/>
<path d="M145.285 62.505C145.385 62.3087 145.451 62.0859 145.479 61.8524C145.506 61.6188 145.495 61.3802 145.444 61.1533C145.394 60.9264 145.307 60.7167 145.188 60.539C145.07 60.3614 144.923 60.22 144.758 60.125L144.816 56.4318L143.118 55.838L143.092 61.0551C142.988 61.4292 142.993 61.84 143.105 62.2097C143.217 62.5794 143.428 62.8823 143.699 63.061C143.969 63.2397 144.28 63.2818 144.572 63.1793C144.865 63.0769 145.118 62.8369 145.285 62.505V62.505Z" fill="#9F616A"/>
<path d="M139.449 33.5155C139.449 33.5155 137.199 32.0363 135.074 33.0224C132.948 34.0086 131.823 35.1591 131.823 35.1591L133.198 44.6918L131.323 57.5117C131.323 57.5117 140.949 56.5256 141.824 57.5117C142.7 58.4979 142.7 56.3612 142.7 56.3612L141.949 44.1987L143.325 36.4739L139.449 33.5155Z" fill="#3F3D56"/>
<path d="M129.951 62.7237C130.089 62.5722 130.2 62.3828 130.277 62.1688C130.353 61.9548 130.392 61.7214 130.393 61.4851C130.393 61.2488 130.354 61.0152 130.278 60.801C130.202 60.5867 130.091 60.3969 129.954 60.2449L130.798 56.7217L129.295 55.5249L128.156 60.5224C127.977 60.8434 127.894 61.2394 127.922 61.6355C127.95 62.0317 128.088 62.4003 128.31 62.6717C128.531 62.943 128.82 63.0982 129.123 63.1077C129.426 63.1173 129.72 62.9807 129.951 62.7237Z" fill="#9F616A"/>
<path d="M132.698 35.1591H131.823C131.823 35.1591 130.448 36.3096 130.448 37.9531C130.448 39.5967 128.448 58.8266 128.448 58.8266L130.573 59.3197L132.448 45.8423L133.823 42.2265L132.698 35.1591Z" fill="#3F3D56"/>
<path d="M140.949 36.4739H143.324C143.324 36.4739 144.075 37.4601 144.45 39.7611C144.825 42.0621 145.2 51.1018 145.2 51.1018L144.95 59.3197H143.074L142.824 48.6364L141.574 41.7334L140.949 36.4739Z" fill="#3F3D56"/>
<path d="M30.8458 47.4115C30.7859 47.4497 30.7283 47.4941 30.6736 47.5442L25.1126 44.6863L24.8922 42.8014L22.6851 42.867L22.8286 46.2536C22.8402 46.5272 22.919 46.7885 23.0532 46.9982C23.1873 47.2079 23.3696 47.3547 23.5726 47.4167L30.1898 49.4348C30.2706 49.7551 30.4237 50.0354 30.6286 50.2384C30.8336 50.4415 31.0807 50.5578 31.3371 50.5717C31.5935 50.5856 31.8471 50.4966 32.0641 50.3164C32.2811 50.1363 32.4512 49.8735 32.5519 49.5631C32.6525 49.2527 32.6789 48.9094 32.6275 48.5789C32.5761 48.2483 32.4494 47.9461 32.2642 47.7125C32.079 47.479 31.844 47.3251 31.5907 47.2713C31.3373 47.2175 31.0775 47.2664 30.8458 47.4115H30.8458Z" fill="#9F616A"/>
<path d="M22.4964 89.9955L23.9724 89.9953L24.6745 82.5105H22.4961L22.4964 89.9955Z" fill="#9F616A"/>
<path d="M22.1196 89.3619L25.0264 89.3618H25.0266C25.5179 89.3618 25.989 89.6184 26.3364 90.0751C26.6838 90.5318 26.879 91.1513 26.879 91.7972V91.8763L22.1197 91.8766L22.1196 89.3619Z" fill="#2F2E41"/>
<path d="M15.3932 89.9955L16.8693 89.9953L17.5715 82.5105H15.3931L15.3932 89.9955Z" fill="#9F616A"/>
<path d="M15.0166 89.3619L17.9234 89.3618H17.9235C18.4148 89.3618 18.886 89.6184 19.2334 90.0751C19.5808 90.5318 19.776 91.1513 19.776 91.7972V91.8763L15.0167 91.8766L15.0166 89.3619Z" fill="#2F2E41"/>
<path d="M16.2488 32.9286C15.8285 30.6468 15.4723 28.0731 16.2651 25.9714C16.8152 24.5132 18.85 24.0221 20.0165 24.5475C21.183 25.0728 22.0264 26.4981 22.3973 28.0521C22.7682 29.6061 22.7251 31.2807 22.5634 32.8962C20.4181 32.842 18.2728 32.7878 16.2488 32.9286Z" fill="#2F2E41"/>
<path d="M19.8693 32.928C21.251 32.928 22.371 31.4555 22.371 29.6391C22.371 27.8226 21.251 26.3501 19.8693 26.3501C18.4877 26.3501 17.3677 27.8226 17.3677 29.6391C17.3677 31.4555 18.4877 32.928 19.8693 32.928Z" fill="#9F616A"/>
<path d="M16.8111 28.9616C16.8032 28.408 16.8799 27.858 17.0368 27.3442C17.1937 26.8305 17.4276 26.3634 17.7245 25.9708C18.0215 25.5782 18.3754 25.268 18.7653 25.0588C19.1552 24.8496 19.5731 24.7455 19.9941 24.7528C20.4152 24.7601 20.8309 24.8786 21.2165 25.1013C21.602 25.324 21.9496 25.6463 22.2385 26.049C22.5275 26.4518 22.7519 26.9268 22.8985 27.4458C23.045 27.9649 23.1107 28.5173 23.0917 29.0704C20.9504 29.0764 18.8092 29.0824 16.8111 28.9616Z" fill="#2F2E41"/>
<path d="M17.793 45.0621L16.7467 47.3546C16.7467 47.3546 13.8815 54.4197 14.0519 60.276L14.6859 67.5704L13.9901 69.3604L14.4559 72.5098L13.5908 74.7659L15.1546 85.6575L15.2211 88.0196H17.7497L17.6166 85.6138L18.6813 75.0031L20.4779 63.674L21.4095 73.4536L21.0768 75.9031L21.5093 77.959L22.1082 84.3015L22.1747 87.3635L24.4704 87.7134L25.3355 76.3843L25.8346 70.9788L23.16 47.0117L17.793 45.0621Z" fill="#2F2E41"/>
<path d="M17.4612 33.9928L15.9036 34.8625L15.0288 39.6225L16.8708 45.8242L16.1822 48.9228C18.2666 53.6105 20.8465 54.2915 23.8824 51.2854C23.2399 48.9137 23.3327 46.4749 23.973 43.9863C23.973 43.9863 25.5701 42.0311 24.4544 39.4892L23.3903 35.6917L22.0727 34.8256L17.4612 33.9928Z" fill="#CBCBCB"/>
<path d="M23.0835 36.5195L23.4371 35.6562C23.4371 35.6562 24.3696 35.8406 24.7505 37.3165C25.1313 38.7924 25.2303 44.7545 25.2303 44.7545L23.235 44.8873L23.0835 36.5195Z" fill="#CBCBCB"/>
<path d="M71.8001 36.4497L12.5061 56.54C12.3604 56.5886 12.2059 56.5593 12.0765 56.4584C11.9471 56.3576 11.8534 56.1935 11.8158 56.002C11.7783 55.8105 11.8 55.6073 11.8762 55.4368C11.9524 55.2663 12.0769 55.1425 12.2224 55.0924L71.5163 35.0022C71.5887 34.9773 71.6641 34.9715 71.7382 34.9851C71.8123 34.9986 71.8836 35.0312 71.9481 35.0811C72.0126 35.131 72.0689 35.1971 72.114 35.2756C72.159 35.3541 72.1917 35.4436 72.2104 35.5388C72.2291 35.6341 72.2333 35.7332 72.2227 35.8306C72.2122 35.9279 72.1872 36.0216 72.1491 36.1062C72.1109 36.1908 72.0605 36.2647 72.0006 36.3237C71.9407 36.3826 71.8726 36.4254 71.8001 36.4497Z" fill="#0F3267"/>
<path d="M15.2666 56.7554C15.4359 56.6447 15.5847 56.4865 15.7024 56.292C15.8202 56.0975 15.904 55.8714 15.9481 55.6297C15.9922 55.3879 15.9955 55.1364 15.9576 54.8929C15.9198 54.6493 15.8418 54.4196 15.7291 54.22L16.6963 41.7883H14.6062L13.8376 53.9272C13.595 54.1983 13.4365 54.5769 13.3921 54.9913C13.3477 55.4057 13.4205 55.8272 13.5966 56.1758C13.7728 56.5244 14.0401 56.776 14.3478 56.8828C14.6556 56.9897 14.9826 56.9443 15.2666 56.7555V56.7554Z" fill="#9F616A"/>
<path d="M17.1765 36.2685L16.444 34.9071C16.444 34.9071 15.1559 33.759 14.4992 36.4013C13.8426 39.0437 13.9436 43.939 13.9436 43.939L16.444 45.3004L17.1765 36.2685Z" fill="#CBCBCB"/>
<path d="M56.7365 92H0.148525C0.109134 92 0.0713557 91.9794 0.0435018 91.9428C0.015648 91.9062 0 91.8565 0 91.8047C0 91.7529 0.015648 91.7033 0.0435018 91.6667C0.0713557 91.63 0.109134 91.6095 0.148525 91.6095H56.7365C56.7759 91.6095 56.8137 91.63 56.8415 91.6667C56.8694 91.7033 56.885 91.7529 56.885 91.8047C56.885 91.8565 56.8694 91.9062 56.8415 91.9428C56.8137 91.9794 56.7759 92 56.7365 92Z" fill="#CACACA"/>
<path d="M145.851 92H89.2633C89.2239 92 89.1861 91.9794 89.1583 91.9428C89.1304 91.9062 89.1147 91.8565 89.1147 91.8047C89.1147 91.7529 89.1304 91.7033 89.1583 91.6667C89.1861 91.63 89.2239 91.6095 89.2633 91.6095H145.851C145.891 91.6095 145.928 91.63 145.956 91.6667C145.984 91.7033 146 91.7529 146 91.8047C146 91.8565 145.984 91.9062 145.956 91.9428C145.928 91.9794 145.891 92 145.851 92Z" fill="#CACACA"/>
</g>
<defs>
<clipPath id="clip0_1_2241">
<rect width="146" height="92" fill="white"/>
</clipPath>
</defs>
</svg>
