<svg width="195" height="30" viewBox="0 0 195 30" fill="none" xmlns="http://www.w3.org/2000/svg">
<g clip-path="url(#clip0_1_741)">
<path d="M171.534 3.92857C171.534 1.85714 172.129 1.14286 173.12 1.14286C174.112 1.14286 174.905 1.57143 175.831 3.92857L181.449 17.7143V26.4286C181.449 28.5 180.656 29.0714 178.475 29.3571V29.9286H188.853V29.3571C186.605 29.0714 185.878 28.4286 185.878 26.4286V17.7143L191.298 4.42857C192.356 1.85714 193.414 1.28571 195 1V0.428571H187.398V1C189.976 1.28571 190.902 2.07143 190.175 3.92857L185.415 15.7143L180.524 3.64286C179.863 2 180.259 1.5 183.102 1.07143V0.5H166.775V1.07143C169.353 1.5 170.146 2 170.146 4V20.1429L158.181 0.5H152.298V1.07143C154.215 1.35714 154.81 2 154.81 4V26.5C154.81 28.5714 154.281 29.2857 153.62 29.2857C153.025 29.2857 152.695 29 151.836 26.5L142.978 0.357143H142.449L133.922 25.3571C132.997 28.1429 131.542 29.0714 130.088 29.4286V30H137.888V29.4286C135.178 29.1429 134.319 28 134.914 26.1429L136.831 20.4286H144.895L146.746 25.7857C147.539 28.2143 147.076 28.9286 144.763 29.3571V29.9286H159.569V29.3571C156.992 28.9286 156.198 28.4286 156.198 26.4286V6.28571L170.675 30H171.534V3.92857ZM67.1593 15.1429C67.1593 6 71.1915 1.21429 75.8848 1.21429C78.661 1.21429 80.4458 1.85714 81.5034 3.07143C82.2966 3.92857 82.8915 5.14286 83.5525 7.07143H84.0814V0.928571C81.3712 0.357143 78.9254 0 76.4797 0C69.4068 0 62.0695 4.92857 62.0695 15.1429C62.0695 25.3571 69.4068 30.2857 76.0169 30.2857C78.9254 30.2857 81.5034 29.7857 83.9492 29L84.7424 23.2143L84.2797 23.0714C83.6847 24.2857 82.9576 25.3571 82.1644 26.2857C80.4458 28.1429 78.1322 29.1429 75.8186 29.1429C71.3237 29.0714 67.1593 24.4286 67.1593 15.1429ZM125.792 16C125.197 16 124.403 15.9286 123.61 15.7857V1.5H125.792C129.427 1.5 131.014 3.57143 131.014 8.71428C131.014 13.9286 129.361 16 125.792 16ZM40.8508 0.428571V7.5H41.3797C42.1729 3 43.8254 1.57143 46.6017 1.57143H47.9237V26.4286C47.9237 28.5 47.1305 29.0714 44.9492 29.3571V29.9286H55.3271V29.3571C53.0797 29.0714 52.3525 28.4286 52.3525 26.4286V1.5H53.6746C56.4508 1.5 58.1034 2.92857 58.8966 7.42857H59.4254V0.357143H40.8508V0.428571ZM32.5881 30.2857C37.083 30.2857 41.8424 27.5 41.8424 21.7857C41.8424 18.4286 40.1898 15.6429 37.2814 13.9286L32.1254 10.8571C29.4153 9.21428 28.622 7.71428 28.622 5.57143C28.622 3.14286 30.2746 1.21429 33.3814 1.21429C34.9017 1.21429 36.0254 1.64286 36.9508 2.57143C37.7441 3.42857 38.5373 4.85714 39.2644 7.42857H39.7271V0.928571C37.8763 0.357143 35.9593 0 33.7119 0C29.2831 0 25.978 3 25.978 8.07143C25.978 11.2857 27.6305 14.2143 30.3407 15.9286L35.1 18.7857C37.8102 20.4286 38.6695 22 38.6695 24.3571C38.6695 27.1429 36.0254 29.1429 33.117 29.1429C31.2 29.1429 29.6136 28.4286 28.4898 27.2143C27.7627 26.4286 26.9695 25.2143 26.4407 23.6429H29.5475V23.0714C28.6881 22.8571 28.1593 22.7143 27.4322 20.8571L21.3508 5.21428H20.822L14.8729 20.5C14.0797 22.5714 13.5508 22.9286 12.6254 23.0714V23.6429H17.9136V23.0714C15.9966 22.8571 15.4678 21.8571 15.9305 20.5714L16.8559 18.1429H22.2102L23.4 21.1429C23.9288 22.5 23.1356 22.8571 21.2186 23V23.5714H25.4492V29.2143C27.5644 29.8571 30.2746 30.2857 32.5881 30.2857ZM99.7475 30L107.614 6.35714L108.208 26.5C108.275 28.5 107.547 29.0714 105.3 29.3571V29.9286H126.981V29.3571C124.403 28.9286 123.61 28.4286 123.61 26.4286V16.9286C124.469 17.0714 125.329 17.1429 125.99 17.1429C131.212 17.1429 135.707 15.0714 135.707 8.78571C135.707 2.5 131.212 0.428571 125.99 0.428571H116.669V1C118.586 1.28571 119.181 1.92857 119.181 3.92857V26.4286C119.181 28.5 118.388 29.3571 116.207 29.3571H116.141C113.827 29.3571 112.836 28.4286 112.769 26.5L111.976 4C111.91 1.92857 112.571 1.28571 114.62 1V0.428571H108.208L101.202 21.6429L94.1949 0.428571H87.3203V1C89.3695 1.28571 90.0305 2 89.9644 4L89.2373 25.5714C89.1712 27.7143 88.1136 29 86.1966 29.3571V29.9286H93.4678V29.3571C91.6169 29.0714 90.5593 27.7857 90.6254 25.5714L91.2203 5.92857L99.2186 29.9286L99.7475 30ZM78.661 23.7857C82.1644 23.7857 86.6593 20.4286 86.6593 15.1429C86.6593 9.92857 82.2305 6.5 78.661 6.5C75.1576 6.5 70.6627 9.85714 70.6627 15.1429C70.6627 20.3571 75.0915 23.7857 78.661 23.7857ZM78.661 7.71428C80.9085 7.71428 82.4288 9.71428 82.4288 15.1429C82.4288 20.6429 80.8424 22.5714 78.661 22.5714C76.4136 22.5714 74.8932 20.5714 74.8932 15.1429C74.8932 9.64286 76.4136 7.71428 78.661 7.71428ZM144.564 19.2143H137.227L140.863 8.35714L144.564 19.2143ZM21.8797 17H17.3847L19.6322 11.0714L21.8797 17ZM13.2864 18.5H13.8153V9.64286H13.2864C12.4271 12.7857 11.5678 13.5 9.98136 13.5H6.94068V1.5H11.7661C14.5424 1.5 16.1949 2.92857 16.9881 7.42857H17.5169V0.357143H0V0.928571C1.91695 1.21429 2.51186 1.85714 2.51186 3.85714V26.3571C2.51186 28.4286 1.91695 29 0 29.2857V29.8571H10.3119V29.2857C7.7339 28.8571 6.94068 28.3571 6.94068 26.3571V14.5714H9.98136C11.5017 14.6429 12.4271 15.3571 13.2864 18.5Z" fill="black"/>
</g>
<defs>
<clipPath id="clip0_1_741">
<rect width="195" height="30" fill="white"/>
</clipPath>
</defs>
</svg>
