<svg version="1.1" id="Camada_1" xmlns="http://www.w3.org/2000/svg" x="0" y="0" viewBox="0 0 1000 700.1" style="enable-background:new 0 0 1000 700.1" xml:space="preserve"><style>.st3{fill-rule:evenodd;clip-rule:evenodd;fill:#fffffe}</style><defs><filter id="Adobe_OpacityMaskFilter" filterUnits="userSpaceOnUse" x="0" y="0" width="1000" height="700.1"><feColorMatrix values="1 0 0 0 0 0 1 0 0 0 0 0 1 0 0 0 0 0 1 0"/></filter></defs><mask maskUnits="userSpaceOnUse" x="0" y="0" width="1000" height="700.1" id="b_1_"><g style="filter:url(#Adobe_OpacityMaskFilter)"><path id="a_1_" d="M1.1-.2h999.5V698H1.1V-.2z" style="fill-rule:evenodd;clip-rule:evenodd;fill:#fff"/></g></mask><path d="M416.1 76.2c32.3-33.6 77.2-54.4 126.8-54.4 66.1 0 123.5 36.7 154.3 91.5 27.4-12.2 57.1-18.6 87.1-18.6 119.1 0 215.7 97.4 215.7 217.5s-96.6 217.5-215.7 217.5c-14.6 0-28.7-1.5-42.6-4.2-27 48.1-78.6 80.8-137.4 80.8-23.9 0-47.6-5.4-69.1-15.9-27.4 64.3-91.1 109.5-165.4 109.5-77.5 0-143.3-48.9-168.7-117.6-11.3 2.4-22.8 3.6-34.3 3.6C74.6 586.1 0 510.4 0 417.4 0 355 33.6 300.6 83.4 271.2c-10.6-24.4-16-50.6-16-77.2C67.4 86.7 154.5 0 261.8 0c62.8 0 119.1 29.9 154.3 76.4" style="mask:url(#b_1_);fill-rule:evenodd;clip-rule:evenodd;fill:#00a1e0"/><path class="st3" d="M145.7 362.9c-.6 1.6.2 2 .4 2.3 1.9 1.4 3.8 2.3 5.7 3.5 10.2 5.4 19.8 7 29.9 7 20.5 0 33.3-10.9 33.3-28.5v-.3c0-16.2-14.4-22.2-27.9-26.4l-1.8-.6c-10.2-3.3-19-6.2-19-12.9v-.3c0-5.7 5.1-10 13.1-10 8.8 0 19.3 2.9 26.1 6.7 0 0 2 1.3 2.7-.6.4-1 3.8-10.2 4.2-11.2.4-1.1-.3-1.9-1-2.3-7.7-4.7-18.4-7.9-29.4-7.9h-2c-18.8 0-31.9 11.4-31.9 27.6v.3c0 17.1 14.5 22.7 28 26.6l2.2.7c9.8 3 18.4 5.7 18.4 12.6v.3c0 6.4-5.5 11.1-14.4 11.1-3.5 0-14.5-.1-26.4-7.6-1.4-.8-2.3-1.4-3.4-2.1-.6-.4-2.1-1-2.7.9l-4.1 11.1m300.2-.1c-.6 1.6.2 2 .4 2.3 1.9 1.4 3.8 2.3 5.7 3.5 10.2 5.4 19.8 7 29.9 7 20.5 0 33.3-10.9 33.3-28.5v-.3c0-16.2-14.4-22.2-27.9-26.4l-1.8-.6c-10.2-3.3-19-6.2-19-12.9v-.3c0-5.7 5.1-10 13.1-10 8.8 0 19.3 2.9 26.1 6.7 0 0 2 1.3 2.7-.6.4-1 3.8-10.2 4.2-11.2.4-1.1-.3-1.9-1-2.3-7.7-4.7-18.4-7.9-29.4-7.9h-2.1c-18.8 0-31.9 11.4-31.9 27.6v.3c0 17.1 14.5 22.7 28 26.6l2.2.7c9.9 3 18.4 5.7 18.4 12.6v.3c0 6.4-5.5 11.1-14.4 11.1-3.5 0-14.5-.1-26.4-7.6-1.4-.8-2.3-1.4-3.4-2.1-.4-.2-2.1-.9-2.7.9l-4 11.1m205-34.4c0 9.9-1.9 17.7-5.5 23.3-3.6 5.5-9.1 8.2-16.7 8.2s-13-2.7-16.6-8.1c-3.6-5.5-5.4-13.4-5.4-23.3s1.8-17.7 5.4-23.2c3.6-5.4 9-8 16.6-8s13.1 2.6 16.7 8c3.6 5.4 5.5 13.2 5.5 23.1M668 310c-1.7-5.7-4.3-10.7-7.8-14.9-3.5-4.2-7.9-7.6-13.2-10-5.2-2.4-11.4-3.7-18.4-3.7s-13.1 1.2-18.4 3.7c-5.2 2.4-9.7 5.8-13.2 10s-6.1 9.2-7.8 14.9c-1.7 5.7-2.5 11.8-2.5 18.4 0 6.6.8 12.8 2.5 18.4 1.7 5.7 4.3 10.7 7.8 14.9 3.5 4.2 7.9 7.5 13.2 9.9 5.3 2.4 11.4 3.6 18.4 3.6s13.1-1.2 18.3-3.6c5.2-2.4 9.7-5.7 13.2-9.9s6.1-9.2 7.8-14.9c1.7-5.7 2.5-11.8 2.5-18.4.1-6.5-.8-12.7-2.4-18.4m140.7 47.1c-.6-1.7-2.2-1-2.2-1-2.5 1-5.1 1.8-8 2.3-2.9.4-6 .7-9.4.7-8.3 0-14.9-2.5-19.6-7.3-4.7-4.9-7.4-12.8-7.3-23.4 0-9.7 2.4-17 6.6-22.6 4.2-5.5 10.5-8.4 19-8.4 7.1 0 12.5.8 18.1 2.6 0 0 1.3.6 2-1.2 1.5-4.2 2.6-7.1 4.2-11.7.5-1.3-.7-1.9-1.1-2-2.2-.9-7.5-2.3-11.4-2.9-3.7-.6-8-.9-12.9-.9-7.2 0-13.6 1.2-19.1 3.7-5.5 2.4-10.1 5.8-13.8 10-3.7 4.2-6.5 9.2-8.3 14.9-1.9 5.7-2.8 11.9-2.8 18.4 0 14.2 3.8 25.7 11.4 34.1 7.6 8.5 19 12.7 33.8 12.7 8.8 0 17.8-1.8 24.3-4.3 0 0 1.2-.6.7-2l-4.2-11.7m29.9-38.2c.8-5.5 2.3-10.1 4.7-13.7 3.6-5.4 9-8.4 16.6-8.4 7.6 0 12.6 3 16.2 8.4 2.4 3.6 3.4 8.3 3.8 13.7h-41.5.2zm57.7-12.2c-1.5-5.5-5.1-11-7.4-13.6-3.7-4-7.4-6.8-11-8.4-5.3-2.2-10.9-3.4-16.6-3.4-7.2 0-13.8 1.2-19.1 3.7-5.3 2.5-9.8 5.9-13.3 10.2-3.5 4.3-6.2 9.3-7.9 15.1-1.7 5.7-2.5 11.9-2.5 18.5 0 6.7.9 12.9 2.6 18.5 1.8 5.7 4.6 10.6 8.4 14.7 3.8 4.2 8.7 7.4 14.6 9.7 5.8 2.3 12.9 3.4 21.1 3.4 16.8-.1 25.6-3.8 29.2-5.8.6-.4 1.2-1 .5-2.8L891 356c-.6-1.6-2.2-1-2.2-1-4.2 1.6-10 4.3-23.8 4.3-9 0-15.7-2.7-19.8-6.8-4.3-4.3-6.4-10.5-6.7-19.3h58.1s1.5 0 1.7-1.5c-.1-.6 1.8-11.9-2-25zm-521.8 12.2c.8-5.5 2.3-10.1 4.7-13.7 3.6-5.4 9-8.4 16.6-8.4 7.6 0 12.6 3 16.2 8.4 2.4 3.6 3.4 8.3 3.8 13.7h-41.5.2zm57.7-12.2c-1.5-5.5-5.1-11-7.4-13.6-3.7-4-7.4-6.8-11-8.4-5.3-2.2-10.9-3.4-16.6-3.4-7.2 0-13.8 1.2-19.1 3.7-5.3 2.5-9.8 5.9-13.3 10.2-3.5 4.3-6.2 9.3-7.9 15.1-1.7 5.7-2.5 11.9-2.5 18.5 0 6.7.9 12.9 2.6 18.5 1.8 5.7 4.6 10.6 8.4 14.7 3.8 4.2 8.7 7.4 14.6 9.7 5.8 2.3 12.9 3.4 21.1 3.4 16.8-.1 25.6-3.8 29.2-5.8.6-.4 1.2-1 .5-2.8l-3.8-10.6c-.6-1.6-2.2-1-2.2-1-4.2 1.6-10 4.3-23.8 4.3-9 0-15.7-2.7-19.8-6.8-4.3-4.3-6.4-10.5-6.7-19.3h58.1s1.5 0 1.7-1.5c-.2-.5 1.7-11.8-2.1-24.9zm-183 50c-2.3-1.8-2.6-2.3-3.3-3.4-1.2-1.8-1.7-4.3-1.7-7.5 0-5.1 1.7-8.7 5.2-11.2 0 0 5-4.3 16.8-4.2 5.3.1 10.5.5 15.7 1.3V358s-7.3 1.6-15.7 2.1c-11.7.7-17-3.4-17-3.4zm23.1-40.8c-2.4-.2-5.4-.3-9-.3-5 0-9.8.6-14.3 1.8-4.5 1.2-8.6 3.1-12.1 5.6-3.5 2.5-6.4 5.8-8.4 9.6-2.1 3.8-3.1 8.3-3.1 13.4s.9 9.6 2.7 13.2c1.7 3.6 4.3 6.7 7.6 9.1 3.2 2.3 7.2 4.1 11.8 5.1 4.6 1 9.7 1.6 15.4 1.6 6 0 11.9-.5 17.6-1.5 4.9-.8 9.7-1.8 14.6-2.8 1.9-.4 4.1-1 4.1-1 1.4-.4 1.3-1.9 1.3-1.9v-52.9c0-11.6-3.1-20.2-9.2-25.6-6.1-5.3-15-8-26.6-8-4.3 0-11.4.6-15.5 1.4 0 0-12.6 2.5-17.9 6.5 0 0-1.1.7-.5 2.3l4.1 11c.5 1.4 1.9.9 1.9.9l1-.5c11.1-6.1 25.2-5.9 25.2-5.9 6.2 0 11.1 1.3 14.3 3.7 3.2 2.4 4.8 6.1 4.8 13.8v2.5c-5-.7-9.6-1.1-9.6-1.1h-.2zM739 286c.3-.8 0-1.7-.8-2.1-1-.4-5.9-1.4-9.7-1.6-7.3-.5-11.3.8-15 2.4-3.6 1.6-7.6 4.2-9.8 7.2v-7.1c0-1-.7-1.8-1.7-1.8h-14.8c-1 0-1.7.8-1.7 1.8v86.4c0 1 .8 1.8 1.8 1.8h15.2c1 0 1.8-.8 1.8-1.8v-43.4c0-5.8.6-11.6 1.9-15.2 1.3-3.6 3-6.5 5.1-8.5 2-2 4.5-3.5 7.2-4.3 2.5-.7 5.2-1.1 7.8-1.1 3 0 6.4.8 6.4.8 1.1.1 1.7-.6 2.1-1.6 1-2.6 3.8-10.6 4.4-12.2"/><path class="st3" d="M596.9 246.2c-1.9-.6-3.8-1-5.7-1.4-2.6-.4-5.2-.6-7.9-.6-10.5 0-18.7 3-24.5 8.8-5.8 5.8-9.7 14.7-11.6 26.3l-.7 3.9h-13.2s-1.6-.1-1.9 1.7l-2.2 12.1c-.2 1.2.3 1.9 1.9 1.9h12.8l-13 72.5c-1 5.8-2.2 10.6-3.5 14.3-1.3 3.6-2.5 6.3-4 8.2-1.5 1.9-2.9 3.3-5.3 4.1-2 .7-4.3 1-6.8 1-1.4 0-3.3-.2-4.6-.5-1.4-.3-2.1-.6-3.1-1 0 0-1.5-.6-2.1.9-.5 1.2-3.9 10.6-4.3 11.8-.4 1.1.2 2.1.9 2.3 1.7.6 3 1 5.3 1.5 3.2.8 5.9.8 8.5.8 5.3 0 10.2-.7 14.2-2.2 4.1-1.5 7.6-4 10.7-7.5 3.4-3.7 5.5-7.6 7.5-13 2-5.3 3.7-11.8 5.1-19.5l13.1-73.9h19.1s1.6.1 1.9-1.7l2.2-12.1c.2-1.2-.3-1.9-1.9-1.9h-18.5c.1-.4.9-6.9 3.1-13.1.9-2.6 2.6-4.7 4.1-6.2 1.4-1.4 3-2.4 4.9-3 2-.6 4.1-.9 6.2-.9 1.7 0 3.5.2 4.8.5 1.8.4 2.5.6 3 .7 1.9.6 2.1 0 2.5-.9l4.4-12.2c.1-1-1-1.6-1.4-1.7m-259 125.3c0 1-.7 1.8-1.7 1.8h-15.4c-1 0-1.7-.8-1.7-1.8V247.8c0-1 .7-1.7 1.7-1.7h15.4c1 0 1.7.8 1.7 1.7v123.7"/></svg>