<svg width="174" height="152" viewBox="0 0 174 152" fill="none" xmlns="http://www.w3.org/2000/svg">
<g clip-path="url(#clip0_1_445)">
<path d="M81.4301 149.427C81.4922 149.43 81.5536 149.413 81.6062 149.38C81.6587 149.347 81.6997 149.298 81.7237 149.24C81.7476 149.183 81.7534 149.119 81.7402 149.059C81.727 148.998 81.6954 148.942 81.6498 148.9L81.629 148.817L81.6373 148.797C81.6998 148.649 81.8046 148.523 81.9385 148.435C82.0724 148.346 82.2294 148.299 82.3898 148.3C82.5503 148.3 82.7069 148.348 82.8402 148.438C82.9734 148.527 83.0773 148.654 83.1387 148.803C83.3843 149.396 83.6969 149.99 83.7739 150.617C83.8078 150.894 83.7935 151.174 83.7317 151.447C84.3084 150.186 84.6079 148.815 84.6099 147.428C84.61 147.079 84.5907 146.732 84.5521 146.386C84.5201 146.102 84.4759 145.82 84.4192 145.541C84.1101 144.024 83.4463 142.602 82.4825 141.392C82.016 141.137 81.6387 140.745 81.4016 140.268C81.3156 140.097 81.2549 139.914 81.2213 139.725C81.3235 139.455 81.3772 139.168 81.38 138.879C81.4533 138.768 81.5846 138.712 81.6647 138.603C82.063 138.062 82.6118 138.157 82.8983 138.892C83.5103 139.202 83.5163 139.715 83.1407 140.209C82.9018 140.523 82.869 140.948 82.6593 141.285C82.6809 141.312 82.7033 141.339 82.7249 141.367C83.1192 141.875 83.4628 142.421 83.7508 142.996C83.6808 142.352 83.7644 141.7 83.9948 141.094C84.2283 140.529 84.6659 140.054 85.0513 139.566C85.1533 139.434 85.2917 139.337 85.4491 139.284C85.6066 139.232 85.7759 139.228 85.9358 139.272C86.0957 139.316 86.2389 139.407 86.3473 139.532C86.4558 139.658 86.5246 139.813 86.5451 139.978L86.5474 140C86.4902 140.032 86.4342 140.067 86.3793 140.103C86.3105 140.149 86.2571 140.215 86.2262 140.292C86.1954 140.369 86.1884 140.454 86.2064 140.535C86.2243 140.616 86.2662 140.69 86.3266 140.746C86.3871 140.803 86.4632 140.84 86.5451 140.853L86.5535 140.854C86.5331 141.061 86.497 141.266 86.4457 141.467C86.9401 143.384 85.8726 144.082 84.3485 144.113C84.3148 144.13 84.282 144.148 84.2484 144.164C84.5378 144.986 84.7193 145.843 84.7884 146.712C84.8275 147.224 84.8253 147.739 84.7815 148.252L84.7841 148.233C84.8946 147.664 85.1978 147.15 85.6425 146.778C86.3031 146.234 87.2363 146.034 87.9489 145.597C88.0247 145.548 88.1127 145.522 88.2027 145.522C88.2927 145.522 88.3809 145.547 88.4569 145.596C88.5329 145.644 88.5935 145.713 88.6315 145.795C88.6696 145.877 88.6835 145.968 88.6717 146.057L88.6688 146.076C88.5625 146.119 88.4591 146.169 88.3591 146.226C88.3018 146.258 88.2458 146.292 88.191 146.329C88.1221 146.375 88.0687 146.441 88.0379 146.518C88.007 146.595 88.0001 146.679 88.018 146.76C88.0359 146.842 88.0778 146.915 88.1383 146.972C88.1987 147.029 88.2749 147.066 88.3567 147.079L88.3651 147.08L88.3824 147.083C88.2009 147.517 87.9461 147.917 87.6293 148.265C87.3201 149.938 85.9923 150.096 84.5719 149.609H84.571C84.4152 150.288 84.1894 150.949 83.8973 151.581H81.4904C81.4818 151.554 81.474 151.526 81.4663 151.499C81.689 151.513 81.9127 151.5 82.1322 151.46C81.9537 151.24 81.7751 151.019 81.5965 150.799C81.5925 150.795 81.5888 150.791 81.5853 150.786C81.4947 150.674 81.4033 150.562 81.3127 150.45L81.3126 150.449C81.3078 150.105 81.3473 149.761 81.43 149.427L81.4301 149.427Z" fill="#F2F2F2"/>
<path d="M21.4607 149.427C21.3986 149.43 21.3372 149.413 21.2846 149.38C21.2321 149.347 21.1911 149.298 21.1671 149.24C21.1432 149.183 21.1374 149.119 21.1506 149.059C21.1638 148.998 21.1954 148.942 21.241 148.9L21.2618 148.817L21.2535 148.797C21.191 148.649 21.0862 148.523 20.9523 148.435C20.8184 148.346 20.6614 148.299 20.501 148.3C20.3405 148.3 20.1839 148.348 20.0506 148.438C19.9174 148.527 19.8135 148.654 19.7521 148.803C19.5065 149.396 19.1939 149.99 19.1169 150.617C19.083 150.894 19.0973 151.174 19.1591 151.447C18.5824 150.186 18.2829 148.815 18.2809 147.428C18.2808 147.079 18.3001 146.732 18.3387 146.386C18.3707 146.102 18.4149 145.82 18.4716 145.541C18.7807 144.024 19.4445 142.602 20.4083 141.392C20.8748 141.137 21.2521 140.745 21.4893 140.268C21.5752 140.097 21.6359 139.914 21.6696 139.725C21.5673 139.455 21.5136 139.168 21.5108 138.879C21.4375 138.768 21.3062 138.712 21.2261 138.603C20.8278 138.062 20.279 138.157 19.9925 138.892C19.3805 139.202 19.3745 139.715 19.7501 140.209C19.989 140.523 20.0218 140.948 20.2315 141.285C20.2099 141.312 20.1875 141.339 20.1659 141.367C19.7717 141.875 19.428 142.421 19.14 142.996C19.21 142.352 19.1264 141.7 18.896 141.094C18.6625 140.529 18.2249 140.054 17.8395 139.566C17.7375 139.434 17.5991 139.337 17.4417 139.284C17.2842 139.232 17.1149 139.228 16.955 139.272C16.7951 139.316 16.6519 139.407 16.5435 139.532C16.435 139.658 16.3662 139.813 16.3457 139.978L16.3433 140C16.4006 140.032 16.4566 140.067 16.5115 140.103C16.5803 140.149 16.6337 140.215 16.6646 140.292C16.6954 140.369 16.7024 140.454 16.6844 140.535C16.6665 140.616 16.6246 140.69 16.5642 140.746C16.5037 140.803 16.4276 140.84 16.3457 140.853L16.3373 140.854C16.3577 141.061 16.3938 141.266 16.4451 141.467C15.9507 143.384 17.0182 144.082 18.5423 144.113C18.576 144.13 18.6088 144.148 18.6424 144.164C18.353 144.986 18.1715 145.843 18.1024 146.712C18.0632 147.224 18.0656 147.739 18.1093 148.252L18.1067 148.233C17.9962 147.664 17.6931 147.15 17.2483 146.778C16.5877 146.234 15.6545 146.034 14.9419 145.597C14.8661 145.548 14.7781 145.522 14.6881 145.522C14.5981 145.522 14.5099 145.547 14.4339 145.596C14.3579 145.644 14.2974 145.713 14.2593 145.795C14.2212 145.877 14.2073 145.968 14.2191 146.057L14.222 146.076C14.3283 146.119 14.4317 146.169 14.5317 146.226C14.589 146.258 14.645 146.292 14.6998 146.329C14.7687 146.375 14.8221 146.441 14.853 146.518C14.8838 146.595 14.8907 146.679 14.8728 146.76C14.8549 146.842 14.813 146.915 14.7525 146.972C14.6921 147.029 14.6159 147.066 14.5341 147.079L14.5257 147.08L14.5084 147.083C14.69 147.517 14.9447 147.917 15.2616 148.265C15.5707 149.938 16.8985 150.096 18.3189 149.609H18.3198C18.4756 150.288 18.7014 150.949 18.9935 151.581H21.4004C21.409 151.554 21.4168 151.526 21.4246 151.499C21.2018 151.513 20.9781 151.5 20.7586 151.46C20.9372 151.24 21.1157 151.019 21.2943 150.799C21.2983 150.795 21.302 150.791 21.3055 150.786C21.3961 150.674 21.4875 150.562 21.5781 150.45L21.5782 150.449C21.583 150.105 21.5436 149.761 21.4608 149.427L21.4607 149.427Z" fill="#F2F2F2"/>
<path d="M57.8369 19.798C58.3238 18.8153 59.1022 17.9994 59.5782 17.0113C60.0543 16.0233 60.1469 14.7009 59.3537 13.9446C58.6803 13.3025 57.6254 13.2935 56.82 12.8284C54.7682 11.6434 54.7706 7.87967 52.4249 7.55447C51.2842 7.39632 50.2522 8.25372 49.5627 9.17817C48.8733 10.1026 48.324 11.1814 47.3678 11.8245C46.2855 12.5526 44.8861 12.5843 43.6842 13.09C41.3798 14.0596 40.1717 16.5528 39.1615 18.8441C38.5108 20.3202 37.8451 21.9122 38.147 23.4974C37.4907 23.9067 37.7832 25.0076 38.4383 25.4188C39.0935 25.83 39.9162 25.8209 40.6684 25.999C42.2495 26.3734 43.5441 27.6349 44.1578 29.1426C44.6362 30.3177 44.734 31.6079 44.8263 32.8737C44.9864 35.0701 45.1466 37.2664 45.3067 39.4628C45.378 40.44 45.4714 41.4784 46.0648 42.257C46.6582 43.0356 47.9433 43.3619 48.6103 42.6457C49.2478 41.9613 48.9607 40.8777 48.9478 39.9414C48.9349 39.0052 49.7793 37.8393 50.5754 38.3291L50.8562 37.6906C52.6748 37.0379 54.2672 35.8738 55.4428 34.3375C56.6184 32.8013 57.3275 30.958 57.4851 29.0284C57.6885 25.9202 56.4545 22.5876 57.8369 19.798Z" fill="#CFCFCF"/>
<path d="M59.6952 39.5072C59.8709 39.3413 59.9955 39.1284 60.0544 38.8938C60.1134 38.6592 60.1041 38.4126 60.0278 38.183C59.9515 37.9535 59.8113 37.7506 59.6237 37.5984C59.4361 37.4461 59.209 37.3508 58.9692 37.3236L58.9722 37.4291C58.6299 37.6294 58.2396 37.7322 57.8433 37.7265C57.4484 37.7202 57.0554 37.7826 56.6817 37.9109C56.4959 37.9786 56.335 38.1011 56.22 38.2623C56.105 38.4234 56.0414 38.6157 56.0375 38.8138C56.0592 38.9656 56.1172 39.11 56.2064 39.2346C56.2957 39.3592 56.4136 39.4603 56.5502 39.5295C56.8245 39.6649 57.119 39.7545 57.422 39.7948C58.203 39.9421 59.117 40.0535 59.6952 39.5072Z" fill="#CFCFCF"/>
<path d="M74.9245 19.8501C75.2516 19.6271 75.5292 19.3389 75.7401 19.0034C75.8424 18.8337 75.891 18.637 75.8796 18.439C75.8683 18.2411 75.7975 18.0513 75.6765 17.8944C75.4303 17.6802 75.1134 17.5655 74.7875 17.5725C73.9023 17.5062 73.0128 17.6114 72.1673 17.8822C73.0354 18.6531 73.9036 19.424 74.7717 20.1949L74.9245 19.8501Z" fill="#CFCFCF"/>
<path d="M70.5829 21.8551C70.9338 22.2432 70.822 22.8454 70.7226 23.3597C70.6233 23.874 70.6107 24.5166 71.052 24.7972C71.4345 25.0404 71.9714 24.842 72.2511 24.4849C72.5012 24.1041 72.6536 23.6672 72.6947 23.2131C72.8322 22.5532 72.8943 21.8797 72.8799 21.2057C72.8633 20.5267 72.6243 19.872 72.1998 19.3425C71.8984 18.9982 71.4972 18.7571 71.0522 18.6529C70.6073 18.5487 70.1409 18.5867 69.7186 18.7615L70.1219 18.7416C69.8287 19.1189 69.6064 19.5466 69.4658 20.0036C69.3984 20.2333 69.3937 20.4768 69.452 20.7089C69.5103 20.941 69.6295 21.1532 69.7973 21.3235C70.0366 21.5322 70.37 21.6194 70.5829 21.8551Z" fill="#CFCFCF"/>
<path d="M90.3729 15.3443L90.4445 15.1229C90.1446 15.2968 89.9134 15.5687 89.7896 15.8931C89.6658 16.2174 89.6569 16.5746 89.7644 16.9047C89.9951 16.7224 90.1731 16.4816 90.2801 16.2073C90.3871 15.933 90.4191 15.6351 90.3729 15.3443Z" fill="#CFCFCF"/>
<path d="M86.4744 18.5127C86.8563 18.296 87.1822 17.9926 87.426 17.6268C87.6698 17.261 87.8247 16.8431 87.8784 16.4065C87.9197 16.135 87.8884 15.8574 87.7875 15.6021C87.7357 15.4753 87.6535 15.3634 87.5481 15.2762C87.4427 15.1889 87.3175 15.1292 87.1835 15.1022L87.0201 15.3599C86.7859 15.1578 86.3925 15.3656 86.2939 15.6592C86.2304 15.9641 86.2568 16.2809 86.3699 16.571C86.4828 16.8628 86.4777 17.1872 86.3556 17.4753C86.2239 17.6447 86.0759 17.8007 85.9136 17.9408C85.8342 18.0132 85.7824 18.1109 85.767 18.2173C85.7516 18.3237 85.7736 18.4321 85.8291 18.5241C85.9828 18.7001 86.2704 18.6262 86.4744 18.5127Z" fill="#CFCFCF"/>
<path d="M84.8123 17.0732C84.9521 16.821 85.0181 16.5344 85.0026 16.2463L84.6453 16.134C84.417 16.2268 84.2145 16.3736 84.0552 16.5619C84.0068 16.6106 83.9697 16.6693 83.9467 16.734C83.9236 16.7987 83.915 16.8677 83.9217 16.9361C83.9283 17.0045 83.95 17.0705 83.985 17.1295C84.0201 17.1885 84.0678 17.239 84.1246 17.2774C84.1815 17.3158 84.2461 17.3411 84.3138 17.3516C84.3816 17.362 84.4508 17.3573 84.5165 17.3378C84.5822 17.3182 84.6428 17.2844 84.694 17.2387C84.7451 17.1929 84.7855 17.1364 84.8123 17.0732Z" fill="#CFCFCF"/>
<path d="M102.272 15.2614C102.304 15.2885 102.336 15.3163 102.368 15.3437C102.397 15.3377 102.424 15.3269 102.453 15.3234L102.272 15.2614Z" fill="#CFCFCF"/>
<path d="M101.699 18.4034C102.027 18.1375 102.355 17.8716 102.683 17.6057C102.857 17.4821 103.006 17.3257 103.12 17.1451C103.198 16.9741 103.232 16.7861 103.218 16.5985C103.204 16.411 103.143 16.23 103.041 16.0724C102.859 15.7932 102.632 15.5467 102.368 15.3436C102.079 15.4123 101.824 15.5851 101.653 15.8293C101.482 16.0734 101.406 16.372 101.44 16.6684C101.499 17.0454 101.736 17.4486 101.543 17.7777C101.468 17.9059 101.338 17.9931 101.252 18.1138C101.165 18.2344 101.137 18.4266 101.256 18.5153C101.388 18.6139 101.571 18.5072 101.699 18.4034Z" fill="#CFCFCF"/>
<path d="M102.416 20.0313C102.538 20.0379 102.66 20.0181 102.774 19.9732C102.887 19.9284 102.99 19.8596 103.075 19.7715C103.513 19.4114 103.897 18.9891 104.213 18.5178C103.475 18.7521 102.738 18.9864 102 19.2206L102.23 19.4903C102.025 19.624 102.177 19.9853 102.416 20.0313Z" fill="#CFCFCF"/>
<path d="M104.485 21.5536C104.53 21.669 104.611 21.7664 104.716 21.8309C104.822 21.8955 104.946 21.9236 105.069 21.9111C105.191 21.8947 105.308 21.8517 105.412 21.7849C105.516 21.7182 105.605 21.6294 105.671 21.5248C105.783 21.359 105.849 21.1662 105.862 20.9663C105.875 20.7664 105.834 20.5666 105.744 20.3877C105.654 20.2089 105.518 20.0573 105.35 19.9487C105.182 19.8402 104.988 19.7786 104.789 19.7703L104.992 20.0823C105.044 20.6148 104.322 21.0439 104.485 21.5536Z" fill="#CFCFCF"/>
<path d="M118.816 27.3863C119.015 27.5356 119.258 27.616 119.507 27.6154C119.756 27.6148 119.998 27.5332 120.197 27.383C120.326 27.2726 120.43 27.1367 120.505 26.9839C120.579 26.831 120.62 26.6644 120.627 26.4946C120.634 26.3248 120.606 26.1553 120.545 25.9969C120.483 25.8385 120.39 25.6945 120.27 25.574L119.893 25.7849C119.684 25.6502 119.431 25.6021 119.188 25.6506C118.944 25.6991 118.729 25.8405 118.587 26.045C118.46 26.2594 118.413 26.5122 118.455 26.758C118.497 27.0038 118.625 27.2266 118.816 27.3863Z" fill="#CFCFCF"/>
<path d="M123.198 27.8836C123.382 27.8302 123.548 27.7304 123.683 27.5939C123.817 27.4574 123.913 27.2886 123.964 27.1038L123.231 27.0073C123.027 26.853 122.79 26.7492 122.539 26.7041C122.413 26.6852 122.284 26.7103 122.174 26.7752C122.064 26.84 121.98 26.9407 121.935 27.0604C121.92 27.1623 121.931 27.2664 121.966 27.3629C122.002 27.4595 122.062 27.5451 122.141 27.6118C122.279 27.744 122.449 27.8385 122.634 27.886C122.819 27.9336 123.013 27.9328 123.198 27.8836Z" fill="#CFCFCF"/>
<path d="M120.173 29.3517C120.185 29.4712 120.232 29.5845 120.307 29.6785C120.382 29.7724 120.481 29.843 120.595 29.8822C120.719 29.9411 120.857 29.9613 120.993 29.9403C121.128 29.9192 121.254 29.8579 121.354 29.7642C121.399 29.7142 121.43 29.6543 121.447 29.5895C121.463 29.5247 121.464 29.4569 121.449 29.3917C121.435 29.3265 121.404 29.2658 121.361 29.2146C121.318 29.1635 121.264 29.1234 121.202 29.0976L120.653 28.9974C120.441 28.8872 120.169 29.1121 120.173 29.3517Z" fill="#CFCFCF"/>
<path d="M88.2914 33.2242L87.8661 32.835C87.9793 32.993 88.1241 33.1256 88.2914 33.2242Z" fill="#CFCFCF"/>
<path d="M85.0432 30.9323C85.305 32.1509 86.6146 33.1437 87.8034 32.7775L87.8661 32.835C87.4876 32.3157 87.4235 31.5474 87.5119 30.8793C87.6759 29.7344 88.125 28.6493 88.8177 27.7243C89.5104 26.7992 90.4243 26.0639 91.4753 25.5862C91.7632 25.4961 92.0206 25.328 92.2191 25.1004C92.3885 24.8521 92.3253 24.4262 92.0334 24.3561C91.8748 24.3379 91.7147 24.375 91.5802 24.4612L89.3709 25.5511C88.255 26.1016 87.1169 26.6679 86.2404 27.5523C85.3639 28.4367 84.7814 29.7136 85.0432 30.9323Z" fill="#CFCFCF"/>
<path d="M49.3799 72.838C47.3214 71.3609 45.0668 70.1799 42.6817 69.3294C41.2157 68.807 39.6405 68.4085 38.113 68.7051C37.2754 68.8788 36.4904 69.2481 35.8219 69.783C35.1534 70.3178 34.6202 71.0033 34.2656 71.7835C33.924 72.5694 33.7634 73.4223 33.7956 74.2789C33.8278 75.1355 34.0521 75.9738 34.4518 76.7317C35.1561 78.0547 36.3759 79.1084 36.7837 80.5512C37.0586 81.524 36.9284 82.5596 36.7961 83.5619C36.5256 85.61 36.2552 87.6581 35.9848 89.7063C35.7386 91.571 35.4987 93.5116 36.0877 95.2975C36.6767 97.0835 38.3576 98.6578 40.2246 98.4681L40.5946 98.4402C39.3596 97.5984 39.0134 95.8557 39.3811 94.4047C39.7489 92.9538 40.6822 91.7234 41.5935 90.5373C44.2978 87.0175 47.0021 83.4978 49.7064 79.9781C50.8006 78.554 51.9578 76.7938 51.3744 75.0943C51.0427 74.1281 50.2086 73.4329 49.3799 72.838Z" fill="#CFCFCF"/>
<path d="M30.9501 63.9402C30.6762 63.8471 30.387 64.0539 30.2259 64.2946C30.0958 64.5532 29.9429 64.7996 29.769 65.0309C29.3477 65.4661 28.58 65.3796 28.1257 64.9792C27.6713 64.5788 27.4744 63.9595 27.3863 63.3596C27.2805 62.6397 27.3261 61.8367 27.8001 61.2856C28.2881 60.7182 29.0901 60.566 29.828 60.4482C30.5904 60.3264 31.4444 60.2249 32.0689 60.6797C32.4623 60.9661 32.6916 61.4283 33.056 61.7509C33.4204 62.0736 34.0686 62.1958 34.3428 61.7934C34.4146 61.6507 34.4509 61.4928 34.4486 61.3331C34.4463 61.1734 34.4055 61.0166 34.3297 60.8761C34.1755 60.5962 34.0828 60.2865 34.0576 59.9677C34.076 59.5254 34.4304 59.1738 34.793 58.921C35.1556 58.6681 35.5651 58.45 35.803 58.0769C36.0956 57.6181 36.0645 57.027 36.2461 56.5137C36.6854 55.2713 38.2533 54.7187 38.7101 53.4827C38.8201 53.2227 38.8325 52.9315 38.7449 52.6631C38.5537 52.1708 38.037 52.2674 38.0053 51.6656C37.975 51.09 38.454 50.5255 38.9407 50.2851C39.6118 49.9537 40.3942 49.9806 41.1421 49.9604C41.8899 49.9403 42.6956 49.8406 43.2445 49.331C43.4221 49.1475 43.5591 48.9284 43.6464 48.6882C43.7338 48.4479 43.7695 48.1919 43.7513 47.9368C43.7331 47.6818 43.6614 47.4334 43.5409 47.2081C43.4203 46.9827 43.2536 46.7854 43.0518 46.6291C42.6428 46.346 42.1258 46.2475 41.7279 45.949C41.2322 45.5773 40.9976 44.9581 40.6116 44.473C40.2904 44.1037 39.923 43.7775 39.5183 43.5028C39.1871 43.2564 38.8558 43.0101 38.5246 42.7637C37.9258 42.3183 37.3027 41.8616 36.574 41.703C35.8454 41.5443 34.9776 41.7688 34.6127 42.4206C34.4688 42.7111 34.3902 43.0297 34.3824 43.3539C34.3492 44.1173 34.381 44.8822 34.4774 45.6402C34.5375 46.2503 34.5977 46.8605 34.6578 47.4706C34.7117 48.0176 34.6538 48.7387 34.1241 48.8807C32.9489 49.1956 33.3455 47.4539 33.0848 46.9204C32.6859 46.1036 30.8529 45.7114 30.0693 45.3711C29.5799 45.1585 29.0634 44.9239 28.7679 44.4788C28.4001 43.9249 28.4756 43.171 28.764 42.5717C29.0524 41.9724 29.5223 41.4846 29.9492 40.9751C30.3844 40.4556 30.7807 39.9049 31.1765 39.3548C31.6355 38.7168 32.0946 38.0787 32.5536 37.4407C33.1424 36.6224 33.7613 35.6236 33.4269 34.6721C33.3544 34.5448 33.246 34.4417 33.1154 34.3758C32.9848 34.31 32.8377 34.2842 32.6925 34.3017C32.5473 34.3193 32.4105 34.3794 32.2992 34.4745C32.188 34.5696 32.1072 34.6955 32.067 34.8364C31.9204 35.3501 32.3114 36.0061 31.9373 36.3868C31.8092 36.4902 31.6489 36.5452 31.4844 36.5421C31.3199 36.539 31.1617 36.4781 31.0375 36.3699C30.7952 36.1456 30.6107 35.8659 30.4996 35.5547C30.0465 34.5452 29.6049 33.5295 29.1397 32.5256C28.9927 32.2082 28.8392 31.6648 28.3935 31.7183C28.0066 31.7647 27.7977 32.3298 27.8111 32.6579C27.8307 33.1353 28.0939 33.5618 28.2951 33.995C28.4963 34.4281 28.637 34.9482 28.4161 35.3715C28.1364 35.9076 27.428 36.028 26.8248 36.0103C25.6877 35.9758 24.5735 35.6811 23.5675 35.1488C23.5412 35.709 23.5149 36.2692 23.4886 36.8294C22.6879 36.4934 21.8872 36.1575 21.0865 35.8216C20.931 35.7563 20.7754 35.6911 20.6199 35.6258C19.9445 35.3425 19.2682 35.0588 18.5729 34.8287C18.1781 34.6981 17.7779 34.585 17.3778 34.472C17.1346 34.4033 16.8914 34.3346 16.6482 34.2659C16.1682 34.0954 15.6592 34.0226 15.1509 34.0518C14.6168 34.119 14.1404 34.4065 13.6465 34.6214C12.5445 35.1009 11.1192 34.6186 9.93832 34.61C9.4699 33.9246 8.8375 33.3678 8.09895 32.9906C7.36041 32.6134 6.5393 32.4278 5.71072 32.4508C4.88214 32.4738 4.07254 32.7047 3.35596 33.1223C2.63939 33.5399 2.03872 34.131 1.60888 34.8413C1.40126 35.2013 1.21636 35.5739 1.05528 35.957C0.895049 36.317 0.734818 36.6769 0.574584 37.0368C0.33953 37.5648 0.099291 38.121 0.145492 38.6973C0.191693 39.2736 0.632463 39.8623 1.20925 39.8571C-0.150864 40.4743 -0.433887 42.634 0.721076 43.5824C1.04089 43.845 1.43306 44.0167 1.72086 44.3142C1.93838 44.539 2.08391 44.8239 2.13876 45.1322C2.19361 45.4406 2.15529 45.7583 2.02871 46.0446C1.90213 46.331 1.69306 46.5729 1.42835 46.7393C1.16364 46.9057 0.855353 46.9891 0.543056 46.9786C1.34884 47.2907 2.2364 47.3198 3.06077 47.061C3.88514 46.8021 4.59759 46.2708 5.08172 45.5537C5.57551 44.7787 5.79012 43.8106 6.46185 43.1844C7.35145 42.3551 8.82086 42.4195 9.8469 43.0716C10.8729 43.7237 11.522 44.834 11.9685 45.9665C12.5536 47.4506 12.928 49.1465 14.1745 50.1392C14.7772 50.6192 15.5405 50.8892 16.0732 51.4462C16.8318 52.2394 16.9631 53.4366 16.946 54.5353C16.9289 55.634 16.8108 56.7739 17.2101 57.7973C17.6094 58.8206 18.7541 59.6623 19.7806 59.2765C19.4865 60.151 19.4956 61.0994 19.8062 61.9681C20.1168 62.8368 20.7109 63.575 21.4922 64.0632C21.3052 62.9006 21.1182 61.7379 20.9312 60.5753C21.8633 60.8383 22.4674 61.7444 22.8163 62.6498C23.1652 63.5552 23.3495 64.5343 23.8553 65.362C24.6516 66.6653 26.0937 67.2269 27.5608 67.222C29.1455 67.2166 29.7472 66.4593 30.7916 65.3439C31.0014 65.1536 31.1607 64.9139 31.255 64.6465C31.2976 64.5117 31.2903 64.366 31.2342 64.2362C31.1782 64.1065 31.0773 64.0013 30.9501 63.9402Z" fill="#CFCFCF"/>
<path d="M35.4376 63.8823C34.5518 63.7427 33.666 63.6032 32.7802 63.4636C33.2445 63.7434 33.7089 64.0233 34.1733 64.3031C34.5605 64.5614 34.9815 64.7647 35.4244 64.9073C35.6465 64.9773 35.8805 65.0008 36.1121 64.9764C36.3436 64.9519 36.5677 64.8801 36.7703 64.7652L36.657 64.548C36.4783 64.0953 35.9174 63.9579 35.4376 63.8823Z" fill="#CFCFCF"/>
<path d="M34.8357 68.8176L34.8418 68.8022C34.7882 68.7132 34.7093 68.6422 34.6152 68.5985C34.5211 68.5548 34.4161 68.5403 34.3137 68.5568C34.1096 68.5934 33.901 68.5968 33.6958 68.5669C33.5656 68.5158 33.4493 68.4343 33.3569 68.329C33.2645 68.2237 33.1986 68.0978 33.1647 67.9617C33.0766 67.6962 33.0506 67.4121 32.9503 67.151C32.8779 66.9445 32.75 66.762 32.5807 66.6236C32.4115 66.4852 32.2074 66.3963 31.991 66.3667C31.7738 66.3492 31.5585 66.4181 31.3917 66.5585C31.2248 66.6989 31.1197 66.8994 31.0992 67.1168C31.1163 67.3407 31.1872 67.557 31.306 67.7473C31.4016 67.9316 31.4971 68.1158 31.5927 68.3C31.6732 68.4651 31.7658 68.6239 31.8698 68.7753C32.0389 69.0088 32.2601 69.1997 32.5157 69.3326C32.7712 69.4655 33.0542 69.5368 33.3422 69.541C33.6301 69.5451 33.915 69.4818 34.1742 69.3563C34.4335 69.2307 34.66 69.0463 34.8357 68.8176V68.8176Z" fill="#CFCFCF"/>
<path d="M29.6624 21.5689C30.3369 21.9675 31.1815 22.2422 31.502 22.9583L31.6869 23.0181C31.4852 23.2693 31.2836 23.5205 31.0819 23.7717C30.8327 24.0821 30.5706 24.4279 30.5764 24.8263C30.5845 25.375 31.111 25.7889 31.6431 25.9183C32.2108 26.0354 32.8017 25.9369 33.3011 25.6419C33.8004 25.3468 34.1726 24.8764 34.3454 24.3218C34.4087 24.0905 34.4348 23.8506 34.4903 23.6173C34.652 23.064 34.8961 22.5384 35.2144 22.0581C37.0054 19.0378 38.7965 16.0175 40.5876 12.9972C40.8107 12.6211 41.0406 12.1711 40.8729 11.7671C40.7834 11.5963 40.6449 11.4562 40.4752 11.3649C40.3055 11.2737 40.1125 11.2354 39.9209 11.2551C39.5387 11.3016 39.1699 11.4259 38.8373 11.6204C38.6895 11.3602 38.4809 11.1399 38.2295 10.9783C37.978 10.8167 37.6912 10.7187 37.3937 10.6927C36.7986 10.6467 36.2001 10.6989 35.622 10.8474C34.3159 11.0449 33.0565 11.4786 31.905 12.1273C31.2751 12.4464 30.5818 12.8406 30.3991 13.524C30.1743 14.3646 30.8988 15.2213 31.7329 15.4629C32.567 15.7045 33.4574 15.5016 34.3016 15.2983C34.397 15.7085 34.3573 16.1386 34.1883 16.5243C34.0192 16.9099 33.7301 17.2303 33.3641 17.4373C32.9982 17.6444 32.5751 17.727 32.1584 17.6727C31.7417 17.6185 31.3537 17.4304 31.0526 17.1365C30.4475 16.5459 30.1511 15.5206 29.3202 15.3682C28.492 15.2162 27.8337 16.1016 27.6509 16.9254C27.4721 17.8127 27.5691 18.7336 27.9288 19.564C28.2885 20.3943 28.8935 21.0941 29.6624 21.5689Z" fill="#CFCFCF"/>
<path d="M40.0504 36.102C39.6515 34.9752 39.1273 33.897 38.4877 32.8878C38.0029 32.0898 37.4045 31.3671 36.7115 30.7423C36.0781 30.1941 35.35 29.7666 34.5631 29.4809C33.7994 29.2041 32.9491 29.0673 32.1769 29.3197C31.4048 29.5722 30.7479 30.2918 30.7636 31.1057C30.7809 32.0056 31.5665 32.7094 32.3852 33.0792C33.2039 33.449 34.1147 33.6099 34.8871 34.069C35.4123 34.3882 35.8512 34.8319 36.1652 35.361C36.4793 35.8901 36.6589 36.4885 36.6882 37.1034L36.8827 37.4259C36.442 37.5722 36.0309 37.7965 35.6691 38.0882C35.4899 38.2364 35.3529 38.4294 35.272 38.6477C35.1911 38.866 35.1691 39.1018 35.2082 39.3313C35.3432 39.8763 35.8983 40.189 36.4003 40.4382C37.3278 40.8987 38.2554 41.3591 39.1829 41.8196C38.7107 40.408 40.2569 39.0945 40.3424 37.6082C40.3457 37.0917 40.2464 36.5797 40.0504 36.102Z" fill="#CFCFCF"/>
<path d="M16.7275 32.2909C17.2902 32.7288 18.1553 32.524 18.6708 32.0311C19.1862 31.5382 19.4373 30.8368 19.6714 30.1624C19.5859 30.8299 19.594 31.5061 19.6955 32.1714C19.7483 32.5041 19.8695 32.8221 20.0513 33.1054C20.2331 33.3887 20.4717 33.6311 20.7518 33.8172C21.0061 33.9571 21.2803 34.0571 21.5648 34.1139C22.8874 34.4156 24.2697 34.3166 25.5361 33.8295L25.5474 33.3955C24.9112 33.4682 24.4298 32.7688 24.3878 32.1284C24.3458 31.488 24.5777 30.86 24.5981 30.2185C24.6185 29.577 24.31 28.8276 23.6799 28.7134C23.7902 28.9354 23.8304 29.1858 23.7952 29.4313C23.76 29.6768 23.6511 29.9057 23.4829 30.0876C23.3147 30.2695 23.0952 30.3957 22.8537 30.4495C22.6121 30.5033 22.36 30.482 22.1308 30.3886C21.4014 30.0914 21.1365 29.2008 20.5728 28.6498C20.2246 28.3393 19.7925 28.1389 19.331 28.0739C18.8694 28.0088 18.399 28.082 17.9788 28.2841C17.5639 28.4963 17.2 28.7962 16.9121 29.1632C16.6242 29.5302 16.4192 29.9554 16.3113 30.4095C16.1401 31.0685 16.1909 31.8732 16.7275 32.2909Z" fill="#CFCFCF"/>
<path d="M34.0929 27.7202L34.119 27.6777C33.9619 27.2231 33.475 26.9565 32.9997 26.8888C32.5207 26.8572 32.0396 26.8731 31.5637 26.9364C31.0833 26.9987 30.5964 26.8912 30.1866 26.6324C29.8595 26.3873 29.6731 26.0016 29.4116 25.6871C29.15 25.3727 28.7268 25.1141 28.3469 25.2644C27.9356 25.4272 27.8259 26.0051 28.0254 26.4006C28.2606 26.7802 28.6153 27.0704 29.0334 27.2252C30.6169 27.9538 32.3987 28.1281 34.0929 27.7202Z" fill="#CFCFCF"/>
<path d="M28.6876 29.083C28.5561 29.1796 28.4669 29.3234 28.4388 29.4844C28.4106 29.6454 28.4456 29.8111 28.5365 29.9467C28.6275 30.0824 28.7672 30.1776 28.9265 30.2124C29.0859 30.2472 29.2524 30.2188 29.3914 30.1333L29.5302 30.2706C29.7147 29.9394 29.7908 29.4956 29.5548 29.199C29.4499 29.076 29.3034 28.9962 29.1434 28.9748C28.9833 28.9534 28.8211 28.9919 28.6876 29.083Z" fill="#CFCFCF"/>
<path d="M27.0639 30.2714C27.0659 30.153 27.0321 30.0369 26.967 29.9381C26.9019 29.8394 26.8085 29.7627 26.6991 29.7182C26.6246 29.7054 26.5483 29.7078 26.4748 29.7253C26.4012 29.7429 26.332 29.7751 26.2713 29.8202C26.2105 29.8652 26.1595 29.9222 26.1213 29.9875C26.0831 30.0529 26.0585 30.1253 26.0489 30.2004C26.0375 30.3535 26.0575 30.5073 26.1079 30.6523C26.1582 30.7972 26.2378 30.9303 26.3416 31.0431C26.4019 31.1341 26.4809 31.2111 26.5731 31.2692C26.6654 31.3273 26.7689 31.3652 26.8768 31.3802C27.0943 31.3874 27.316 31.1595 27.2278 30.9601L26.8958 30.9536C26.9981 30.7402 27.0553 30.508 27.0639 30.2714Z" fill="#CFCFCF"/>
<path d="M20.5704 26.8628C20.6924 26.9619 20.8143 27.061 20.9363 27.1601C21.1475 27.3431 21.3757 27.5055 21.6177 27.645C22.041 27.8801 22.5389 27.9411 23.0063 27.8154C23.237 27.7494 23.4475 27.6263 23.6183 27.4574C23.7891 27.2884 23.9147 27.0791 23.9836 26.8487C24.1294 26.298 23.8915 25.7262 23.6588 25.2064C23.6057 25.0577 23.518 24.9237 23.4031 24.8156C23.3442 24.7633 23.269 24.7331 23.1904 24.73C23.1118 24.7269 23.0346 24.7512 22.9718 24.7986C22.9262 24.8555 22.8959 24.9231 22.8838 24.995C22.8716 25.0668 22.878 25.1407 22.9023 25.2094C22.9524 25.3463 22.9752 25.4917 22.9697 25.6374C22.9465 25.7812 22.796 25.917 22.6634 25.8576L22.6423 26.3469C22.0091 26.0256 21.6742 25.1711 20.9696 25.0868C20.8114 25.0679 20.6511 25.0929 20.5062 25.1591C20.3612 25.2252 20.2372 25.33 20.1476 25.462C20.058 25.594 20.0062 25.7481 19.998 25.9075C19.9898 26.0669 20.0255 26.2256 20.1011 26.3661C20.2234 26.561 20.3829 26.7298 20.5704 26.8628Z" fill="#CFCFCF"/>
<path d="M19.0623 24.7506C19.2088 24.6499 19.3247 24.5107 19.3972 24.3482C19.4698 24.1858 19.4961 24.0064 19.4734 23.8298C19.4559 23.7443 19.4198 23.6637 19.3677 23.5938C19.3155 23.5239 19.2487 23.4663 19.1718 23.4252C19.095 23.3841 19.0101 23.3605 18.9231 23.356C18.8361 23.3515 18.7492 23.3663 18.6686 23.3993C18.4877 23.5349 18.3606 23.7304 18.31 23.951C18.1431 24.4228 17.9762 24.8946 17.8093 25.3664L18.0898 25.1619C18.4368 25.087 18.7667 24.9475 19.0623 24.7506Z" fill="#CFCFCF"/>
<path d="M22.3125 21.8551C22.3626 21.7917 22.3982 21.7182 22.4169 21.6395C22.4356 21.5609 22.4368 21.4791 22.4206 21.3999C22.4043 21.3208 22.371 21.2461 22.3228 21.1813C22.2747 21.1164 22.213 21.0629 22.142 21.0246L21.7913 20.9917C21.7116 21.0119 21.6377 21.0506 21.5755 21.1047C21.5134 21.1587 21.4648 21.2266 21.4336 21.3028C21.4023 21.3791 21.3894 21.4617 21.3957 21.5439C21.4021 21.6261 21.4276 21.7056 21.4702 21.7761C21.5128 21.8467 21.5712 21.9062 21.6409 21.95C21.7106 21.9938 21.7896 22.0206 21.8715 22.0283C21.9534 22.036 22.0359 22.0243 22.1125 21.9942C22.1891 21.9641 22.2576 21.9165 22.3125 21.8551Z" fill="#CFCFCF"/>
<path d="M25.5388 22.3977C25.866 22.5546 26.2803 22.7042 26.565 22.4788C26.6493 22.4023 26.712 22.3049 26.7468 22.1964C26.7816 22.0878 26.7873 21.972 26.7632 21.8606C26.7121 21.6383 26.6134 21.4299 26.4738 21.2497C26.0384 20.6231 25.4853 20.0878 24.8454 19.6736L24.6871 19.8796C24.4661 20.4548 24.2528 21.1263 24.561 21.6597C24.7688 22.0192 25.1648 22.2183 25.5388 22.3977Z" fill="#CFCFCF"/>
<path d="M27.9767 22.9096L28.5887 23.187C28.5287 23.0822 28.4373 22.999 28.3274 22.9492C28.2176 22.8994 28.0949 22.8855 27.9767 22.9096Z" fill="#CFCFCF"/>
<path d="M26.3276 24.8395L26.0385 24.935C25.7926 25.34 25.8993 25.8579 26.0136 26.3179C26.0859 26.6087 26.2419 26.9666 26.5406 26.9534C26.8313 26.9405 26.9599 26.5872 27.0157 26.301C27.1028 25.99 27.1122 25.6624 27.0432 25.347C27.0038 25.1908 26.9101 25.0539 26.7789 24.9608C26.6477 24.8678 26.4877 24.8248 26.3276 24.8395Z" fill="#CFCFCF"/>
<path d="M21.7163 23.4763L21.9303 23.5627C21.9804 23.5555 22.0268 23.532 22.0623 23.4957C22.0977 23.4594 22.1203 23.4124 22.1264 23.362C22.1325 23.3115 22.1218 23.2605 22.096 23.2168C22.0702 23.1731 22.0308 23.1391 21.9838 23.1201C21.9368 23.1011 21.8848 23.0982 21.836 23.1118C21.7872 23.1255 21.7442 23.1548 21.7138 23.1954C21.6833 23.236 21.667 23.2855 21.6675 23.3363C21.668 23.3871 21.6851 23.4363 21.7163 23.4763Z" fill="#CFCFCF"/>
<path d="M32.503 39.875C32.3994 39.8773 32.2978 39.9044 32.2067 39.9541C32.1157 40.0037 32.0378 40.0745 31.9795 40.1605C31.9213 40.2465 31.8844 40.3451 31.872 40.4483C31.8595 40.5515 31.8718 40.6561 31.9079 40.7535C32.1181 41.2071 32.8417 41.209 33.1633 40.8267C33.2456 40.7181 33.3047 40.5936 33.3366 40.461C33.3685 40.3284 33.3727 40.1906 33.3488 40.0563C33.325 39.922 33.2736 39.7941 33.1979 39.6807C33.1223 39.5673 33.024 39.4709 32.9093 39.3975L32.503 39.875Z" fill="#CFCFCF"/>
<path d="M42.9252 50.6175C42.8411 50.64 42.7623 50.6792 42.6936 50.7327C42.6249 50.7862 42.5675 50.853 42.525 50.9291C42.4824 51.0052 42.4555 51.0891 42.4458 51.1758C42.4362 51.2625 42.444 51.3503 42.4688 51.4339L43.0695 51.4757C43.2729 51.3734 43.4764 51.271 43.6798 51.1686C43.6675 51.0823 43.638 50.9992 43.5932 50.9245C43.5483 50.8497 43.489 50.7847 43.4186 50.7333C43.3483 50.682 43.2684 50.6452 43.1836 50.6253C43.0989 50.6055 43.011 50.6028 42.9252 50.6175Z" fill="#CFCFCF"/>
<path d="M40.4834 51.3624C40.3115 51.4847 40.1735 51.6489 40.0825 51.8395C39.9914 52.03 39.9503 52.2407 39.9629 52.4516C39.9825 52.662 40.0683 52.8607 40.208 53.019C40.3478 53.1772 40.5341 53.2868 40.7401 53.3319C40.948 53.3646 41.1605 53.3169 41.3347 53.1985C41.5089 53.0801 41.6317 52.8998 41.6783 52.694C41.7799 52.0712 41.1121 51.6151 40.8721 51.0316L40.4834 51.3624Z" fill="#CFCFCF"/>
<path d="M63.8158 47.249C63.8792 47.7166 63.4589 48.1261 63.4433 48.5977C63.4247 49.1573 64.0324 49.5926 64.5883 49.5377C64.8642 49.4898 65.1252 49.3784 65.3509 49.2122C65.5766 49.0461 65.7607 48.8297 65.8889 48.5802L65.9009 48.5277C65.6301 48.221 65.3594 47.9142 65.0887 47.6075C64.7562 47.2308 64.4037 46.802 64.4167 46.2992C64.4231 46.0514 64.5206 45.8112 64.5151 45.5633C64.5021 45.385 64.4624 45.2097 64.3974 45.0432C64.324 44.8239 64.2242 44.5768 64.0056 44.5028C63.732 44.4101 63.4558 44.6532 63.3252 44.9114C63.2077 45.1495 63.1506 45.413 63.1589 45.6786C63.1673 45.9441 63.2407 46.2035 63.3729 46.4338C63.531 46.7029 63.7738 46.9396 63.8158 47.249Z" fill="#CFCFCF"/>
<path d="M61.2624 48.8941C61.3217 48.9261 61.3871 48.9449 61.4542 48.9492C61.5214 48.9536 61.5887 48.9433 61.6515 48.9191C61.8928 48.8779 62.1246 48.7934 62.336 48.6697C62.4409 48.6065 62.5273 48.5164 62.5861 48.4088C62.6449 48.3011 62.6741 48.1797 62.6708 48.057C62.6342 47.9027 62.5528 47.7628 62.4369 47.6549C62.321 47.547 62.1757 47.4759 62.0195 47.4508C61.911 47.4126 61.7949 47.4017 61.6812 47.4191C61.5676 47.4365 61.46 47.4816 61.3679 47.5506C61.1661 47.7403 61.1902 48.0622 61.2297 48.3366L61.1872 48.4081C61.1493 48.5776 61.125 48.7883 61.2624 48.8941Z" fill="#CFCFCF"/>
<path d="M103.879 68.8758C103.821 68.7298 103.762 68.5838 103.703 68.4379C103.623 68.6361 103.653 68.8389 103.879 68.8758Z" fill="#CFCFCF"/>
<path d="M139.033 38.1733C138.282 37.356 137.821 36.8848 137.347 35.8718C137.088 35.3132 136.696 34.8272 136.205 34.4575C135.714 34.0877 135.139 33.8457 134.532 33.7529C132.973 33.4954 131.379 33.9031 129.801 33.8214C127.274 33.6905 124.995 32.3317 122.574 31.5906C121.219 31.21 119.839 30.9247 118.444 30.7367C117.64 30.6093 116.836 30.4819 116.033 30.3545C113.398 29.9369 110.747 29.518 108.08 29.5735C107.311 29.5895 106.239 29.3578 106.301 28.5893C106.378 27.6349 108.091 27.7602 108.42 26.8614C108.624 26.3054 108.136 25.7217 107.601 25.4703C107.066 25.2189 106.448 25.1433 105.963 24.8058C105.477 24.4683 105.211 23.6859 105.657 23.2976C104.42 23.9333 103.183 24.569 101.946 25.2047C100.917 25.7331 99.7682 26.4207 99.5866 27.5649C98.9668 27.729 98.4244 28.1067 98.0547 28.6316C97.3588 28.6352 96.8119 29.3049 96.6971 29.9928C96.5823 30.6808 96.791 31.3771 96.9973 32.0432C96.7449 31.5586 96.4767 31.0555 96.0318 30.7393C95.5869 30.4231 94.9096 30.3628 94.5304 30.7557C94.1411 31.1588 94.2321 31.8351 94.5075 32.3235C94.7828 32.8119 95.2058 33.2061 95.4656 33.703C96.2771 35.2549 94.8067 37.4397 93.0672 37.2669C93.1839 35.6644 93.3005 34.0619 93.4172 32.4594C93.4912 31.9665 93.4498 31.4631 93.2964 30.9889C93.1067 30.5302 92.6208 30.1535 92.1373 30.2618C91.2679 30.4566 91.3422 31.733 91.7039 32.549C92.0655 33.3651 92.426 34.4999 91.6878 34.9996C91.211 35.3223 90.5646 35.123 90.0499 34.8654C89.5353 34.6078 88.9847 34.2904 88.4221 34.4107C87.8594 34.5311 87.5056 35.3931 88.0027 35.6834C87.1783 35.5398 86.354 35.3962 85.5296 35.2526C85.4888 35.4958 85.3975 35.7278 85.2617 35.9334C85.1259 36.1391 84.9485 36.3139 84.741 36.4465C84.5336 36.5792 84.3007 36.6668 84.0574 36.7036C83.8141 36.7404 83.5657 36.7256 83.3285 36.6602C83.2475 36.3241 83.1666 35.9879 83.0857 35.6517C82.9651 35.6181 82.8444 35.5844 82.7238 35.5507C83.1025 35.6564 82.51 37.257 81.9789 38.4797C81.2649 38.3958 80.2214 38.3797 80.1024 38.1746C79.5323 37.1925 79.6 34.8534 78.6094 34.3009C78.1126 34.0238 77.6032 33.7713 77.0812 33.5434C76.8069 33.4126 76.5172 33.3173 76.219 33.2597C75.6106 33.1636 74.9973 33.3527 74.4103 33.5396C73.7168 33.7603 73.007 33.9894 72.4327 34.4375C71.9423 34.8638 71.5219 35.3649 71.1869 35.9223C70.053 37.6044 68.9191 39.2865 67.7852 40.9686C67.4474 41.4178 67.1816 41.9171 66.9974 42.4485C66.9106 42.7127 66.8816 42.9926 66.9126 43.269C66.9436 43.5455 67.0337 43.812 67.1769 44.0503C67.3277 44.284 67.5526 44.4599 67.8153 44.5499C68.078 44.6399 68.3633 44.6386 68.6252 44.5464C68.9539 44.4038 69.283 44.0806 69.6087 44.2299C69.8553 44.3429 69.917 44.6678 69.8911 44.9384C69.8284 45.2034 69.8235 45.4788 69.8767 45.7458C70.0249 46.1671 70.5953 46.3136 71.0022 46.1313C71.3978 45.915 71.6942 45.5533 71.829 45.1223C72.2211 44.1146 72.1811 42.9995 72.2787 41.9223C72.3763 40.8451 72.67 39.693 73.5174 39.0232C73.771 38.8227 74.1436 38.6782 74.4047 38.8688C74.5025 38.9579 74.57 39.0753 74.598 39.2047C74.626 39.3341 74.6129 39.469 74.5607 39.5907C74.4515 39.8313 74.3092 40.0554 74.1379 40.2564C73.8484 40.6646 73.6458 41.1282 73.5427 41.6183C73.4397 42.1084 73.4383 42.6145 73.5388 43.1051L73.712 43.2125C74.3727 43.0408 75.2569 43.3483 76.134 43.6432C75.4973 43.833 74.9367 44.2195 74.5322 44.7476C73.5183 46.1734 72.7845 47.5227 70.7788 47.5058C70.3031 47.5017 69.8313 47.4074 69.3555 47.4064C68.8752 47.3767 68.4022 47.5346 68.0356 47.847C67.6748 48.201 67.5633 48.7401 67.2547 49.1406C66.849 49.6671 66.1707 49.8813 65.5513 50.1204C65.0986 50.2952 64.6215 50.531 64.4134 50.9702C64.2826 51.3304 64.2525 51.7196 64.3262 52.0958C64.3959 52.761 64.5194 53.5175 65.0824 53.8766C65.293 53.9867 65.5233 54.0538 65.7599 54.0738C65.9965 54.0939 66.2348 54.0666 66.4608 53.9935C67.0464 53.8507 67.6192 53.5818 68.2206 53.622C69.1649 53.6851 69.9425 54.5936 69.952 55.5421C69.9569 56.0223 69.8171 56.573 70.1346 56.9326C70.433 57.2704 71.0247 57.2102 71.3338 56.8822C71.4775 56.7077 71.5764 56.5006 71.6218 56.279C71.6672 56.0573 71.6578 55.8279 71.5943 55.6108C71.463 55.1783 71.2611 54.7706 70.9968 54.4043C71.3111 54.3227 71.6439 54.3527 71.9386 54.4893C72.2333 54.6258 72.4717 54.8605 72.6133 55.1534C72.823 55.6204 72.7553 56.1594 72.8221 56.6671C72.8891 57.1749 73.1975 57.7393 73.7077 57.7686C73.8745 57.7733 74.0377 57.7193 74.169 57.616C74.3003 57.5127 74.3914 57.3666 74.4265 57.2031C74.4317 56.9454 74.4177 56.6877 74.3845 56.4321C74.4019 56.1805 74.5147 55.9451 74.6998 55.7742C74.8848 55.6033 75.1281 55.5098 75.3797 55.5129C75.2245 55.8004 75.174 56.133 75.2368 56.4538C75.2996 56.7745 75.4718 57.0633 75.7239 57.2707C76.1122 57.5718 76.6253 57.6391 77.109 57.7233C77.5927 57.8074 78.1086 57.9405 78.4208 58.3203C78.9408 58.9529 78.3046 59.2378 78.2055 59.7735C78.0839 60.4312 78.632 61.4024 78.8425 62.0316C79.8099 63.3881 80.7773 64.7446 81.7448 66.1011C81.9607 66.431 82.2154 66.7336 82.5034 67.0025C83.4584 67.8247 85.0327 67.7436 85.9485 66.8779C86.3925 66.4276 86.6808 65.8465 86.7711 65.2199C86.8614 64.5933 86.7489 63.9542 86.4501 63.3964C85.8841 62.3638 84.7627 61.7242 84.2089 60.685C85.1306 61.4498 86.2622 61.9163 87.454 62.0227C89.5627 62.4522 91.5662 63.2943 93.3497 64.501C93.4335 66.3687 94.1484 68.1523 95.3771 69.5589C95.5981 67.965 96.3394 66.4893 97.4855 65.3622C98.2308 64.6337 99.2491 64.0463 100.272 64.2422C101.294 64.4381 102.07 65.7451 101.451 66.5845C101.97 66.6231 102.488 66.6617 103.006 66.7004C103.239 67.2795 103.471 67.8587 103.703 68.4379C103.745 68.3162 103.824 68.2109 103.929 68.1376C104.035 68.0643 104.161 68.0267 104.289 68.0304C104.774 68.1039 105.114 68.5563 105.576 68.7233C106.446 69.0382 107.376 68.166 107.488 67.2458C107.601 66.3257 107.164 65.4373 106.74 64.6136C107.677 64.7876 108.644 64.6839 109.524 64.3151C110.403 63.9464 111.156 63.3287 111.691 62.5377C112.225 61.7466 112.518 60.8165 112.533 59.8612C112.548 58.9059 112.285 57.9669 111.776 57.1592C112.785 56.0975 113.972 55.2217 115.283 54.5718C116.496 53.971 117.823 53.5586 118.883 52.7159C119.943 51.8731 120.687 50.4098 120.177 49.1535C119.817 48.2659 118.913 47.6636 118.643 46.7446C118.251 45.4142 119.44 44.0381 120.784 43.7058C122.127 43.3734 123.53 43.7819 124.854 44.1873C124.651 42.8223 126.229 41.5427 127.518 42.0274C128.058 41.8083 128.598 41.5891 129.138 41.37C128.512 42.7531 127.156 43.6331 126.159 44.7765C125.161 45.9199 124.567 47.7819 125.609 48.8848C127.102 47.5283 128.596 46.1718 130.089 44.8153C131.651 43.3964 133.212 41.9775 134.774 40.5585C134.7 40.339 134.625 40.1194 134.551 39.8998C136.028 39.3372 137.62 38.8719 139.033 38.1733Z" fill="#CFCFCF"/>
<path d="M61.4767 56.4299C61.4164 56.517 61.3843 56.6205 61.3848 56.7265C61.3854 56.8325 61.4185 56.9358 61.4797 57.0223C61.5599 57.0905 61.6613 57.1287 61.7666 57.1301C61.8718 57.1315 61.9742 57.0961 62.0562 57.03C62.2166 56.8928 62.3418 56.7191 62.4214 56.5233C62.4989 56.6737 62.6208 56.7966 62.7705 56.8751C62.9201 56.9537 63.0902 56.9841 63.2578 56.9624C63.5923 56.9118 63.9093 56.7793 64.1805 56.5767C64.3957 56.4503 64.5857 56.2851 64.7409 56.0894C64.8177 55.9908 64.8704 55.8756 64.8948 55.753C64.9193 55.6304 64.9148 55.5038 64.8817 55.3832C64.8012 55.1984 64.6761 55.0364 64.5176 54.9121C64.1225 54.5463 63.7274 54.1804 63.3323 53.8146L63.1984 53.7744C63.1287 53.7001 63.0447 53.6407 62.9516 53.5997C62.8584 53.5587 62.7579 53.537 62.6562 53.5359C62.5544 53.5348 62.4535 53.5544 62.3595 53.5934C62.2655 53.6323 62.1803 53.69 62.109 53.7628C61.8637 54.0381 61.8626 54.4493 61.9001 54.8165C61.9376 55.1838 61.9959 55.575 61.8328 55.9059C61.7393 56.0957 61.5809 56.2458 61.4767 56.4299Z" fill="#CFCFCF"/>
<path d="M84.4003 68.9256C82.8649 68.583 81.4595 67.807 80.35 66.6893C79.2406 65.5716 78.4736 64.1589 78.1396 62.6182C77.9941 61.8911 77.9281 61.0967 77.4455 60.5346C76.9783 59.9904 76.2151 59.794 75.4988 59.794C74.7826 59.7941 74.0765 59.9593 73.3616 60.004C72.1118 60.0821 70.7874 59.7512 69.8937 58.872C69.4704 58.4556 69.15 57.9269 68.6557 57.5985C67.9913 57.1572 67.1105 57.1575 66.3536 57.4076C65.5104 57.6861 64.8356 58.4482 63.9136 58.3433C62.9548 58.2343 61.8436 57.8946 61.4676 59.16C61.3594 59.5244 61.3963 59.924 61.2592 60.2785C61.048 60.8248 60.4872 61.1328 60.0436 61.5144C59.1502 62.2831 58.6752 63.4509 58.5152 64.6201C58.3553 65.7894 58.479 66.9768 58.603 68.1505C58.6698 68.7835 58.7577 69.4648 59.1915 69.9297C59.7962 70.5778 60.811 70.5527 61.6933 70.4797C62.7184 70.3949 63.7434 70.31 64.7685 70.2252C65.321 70.1795 65.9506 70.1601 66.344 70.5517C66.5797 70.7864 66.6795 71.1259 66.8867 71.3861C67.0728 71.6075 67.3283 71.7592 67.6115 71.8164C67.8947 71.8737 68.1888 71.8331 68.446 71.7012C68.238 72.0734 68.1249 72.4912 68.1165 72.9177C68.108 73.3442 68.2047 73.7661 68.3978 74.1462C68.5909 74.5264 68.8745 74.8529 69.2235 75.0969C69.5725 75.341 69.9762 75.495 70.3988 75.5454L70.4778 75.5954C69.8215 76.7218 69.1406 77.9865 69.4128 79.2621C69.6461 80.3558 70.5498 81.2326 70.6976 82.3412C70.8331 83.3583 70.3037 84.3985 70.5379 85.3974C70.7751 86.409 71.7943 87.1142 72.8284 87.1895C73.8624 87.2648 74.8783 86.8051 75.6792 86.1453C76.4801 85.4855 77.0995 84.6356 77.7097 83.7956C78.0865 83.2769 78.4729 82.7371 78.6023 82.1087C78.7399 81.44 78.5804 80.6989 78.9047 80.0986C79.2789 79.4062 80.1669 79.1467 80.6152 78.5001C81.1956 77.6628 80.8536 76.5224 80.9819 75.511C81.2995 73.0079 84.4725 71.4478 84.4003 68.9256Z" fill="#CFCFCF"/>
<path d="M83.9421 77.4711C83.8553 77.8619 83.4902 78.1193 83.1423 78.316C82.7944 78.5127 82.4118 78.7112 82.2345 79.07C82.053 79.4375 82.1359 79.8755 82.2309 80.2743C82.4285 81.1042 82.6612 81.9245 82.929 82.7354C83.4482 81.7521 83.9016 80.7352 84.286 79.6915C84.4487 79.303 84.5492 78.8911 84.5837 78.4711C84.5996 78.2609 84.5714 78.0497 84.5009 77.851C84.4304 77.6524 84.3191 77.4708 84.1743 77.3179L83.9421 77.4711Z" fill="#CFCFCF"/>
<path d="M105.294 73.1178C104.858 72.6133 104.423 72.1088 103.987 71.6043C103.688 71.2593 103.348 70.8908 102.897 70.8333L102.711 70.9523C103.089 71.8546 103.467 72.7568 103.845 73.659C103.978 74.071 104.214 74.4424 104.529 74.7386C104.868 75.0051 105.417 75.0563 105.699 74.7307C105.79 74.6086 105.847 74.4647 105.865 74.3133C105.883 74.162 105.861 74.0086 105.801 73.8685C105.678 73.59 105.507 73.3358 105.294 73.1178Z" fill="#CFCFCF"/>
<path d="M109.519 74.0838C109.684 74.0264 109.835 73.9352 109.963 73.816C110.09 73.6967 110.192 73.5521 110.26 73.3914C110.395 73.0694 110.485 72.7299 110.525 72.383C110.6 71.9313 110.674 71.4795 110.749 71.0278L110.651 71.0026C110.557 70.9571 110.449 70.9475 110.348 70.9757C110.246 71.0038 110.159 71.0678 110.101 71.1557C109.991 71.3351 109.908 71.5296 109.854 71.7331C109.827 71.8347 109.777 71.9288 109.708 72.0083C109.639 72.0878 109.553 72.1506 109.456 72.1921C109.106 72.298 108.775 71.9262 108.409 71.9408C108.262 71.9596 108.125 72.028 108.021 72.1348C107.917 72.2416 107.853 72.3805 107.838 72.5289C107.816 72.8284 107.901 73.1258 108.077 73.3691C108.388 73.8538 108.966 74.2433 109.519 74.0838Z" fill="#CFCFCF"/>
<path d="M111.93 74.9402L112.935 72.2877C112.527 72.5837 112.215 72.9924 112.037 73.4636C111.858 73.9348 111.821 74.4481 111.93 74.9402Z" fill="#CFCFCF"/>
<path d="M117.058 72.802L116.854 72.8106C116.764 72.9907 116.715 73.1892 116.713 73.391C116.711 73.5927 116.756 73.7921 116.843 73.9739C117.022 74.3362 117.281 74.6523 117.601 74.8975C118.098 75.3082 118.664 75.6253 119.274 75.8334C120.167 76.0946 121.091 76.2372 122.021 76.2576C122.553 76.2925 123.085 76.3274 123.617 76.3623C123.87 76.3789 124.198 76.3467 124.269 76.1022C124.327 75.9003 124.155 75.7104 123.995 75.5748C122.588 74.3878 120.882 73.6117 119.064 73.3314C118.374 73.2263 117.642 73.1831 117.058 72.802Z" fill="#CFCFCF"/>
<path d="M122.735 79.8415C122.353 79.4697 121.97 79.0979 121.588 78.7261C121.216 78.3644 120.658 77.9812 120.232 78.2765C119.987 78.4462 119.911 78.7772 119.704 78.9912C119.577 79.1048 119.424 79.1849 119.259 79.2244C119.094 79.2638 118.921 79.2613 118.757 79.217C118.431 79.125 118.122 78.9782 117.844 78.783L116.895 78.1926C116.567 77.9889 116.239 77.7851 115.912 77.5814L115.173 78.3015C115.205 77.9471 114.734 77.7169 114.407 77.857C114.252 77.9442 114.119 78.0653 114.017 78.2114C113.915 78.3574 113.847 78.5246 113.818 78.7006C113.764 79.0523 113.669 79.3965 113.536 79.7263C113.161 80.4465 112.249 80.6598 111.448 80.7804C110.646 80.9011 109.738 81.071 109.309 81.7603C108.951 82.3346 109.058 83.0718 109.178 83.738L109.63 86.2581C109.651 86.5634 109.773 86.8529 109.977 87.0809C110.374 87.432 110.989 87.2185 111.473 87.0044C112.486 86.5162 113.572 86.2005 114.688 86.0703C115.814 85.9439 116.948 86.2348 117.874 86.8881C118.449 87.3266 118.887 87.9336 119.496 88.3231C119.915 88.5759 120.386 88.7294 120.874 88.7721C121.361 88.8147 121.852 88.7453 122.309 88.5691C123.224 88.2038 123.982 87.5266 124.448 86.6568C124.862 85.8898 125.07 85.0279 125.051 84.156C125.032 83.284 124.787 82.432 124.34 81.6838C123.884 81.0053 123.344 80.3865 122.735 79.8415Z" fill="#CFCFCF"/>
<path d="M121.607 90.1087C121.516 90.2205 121.462 90.3587 121.454 90.5032C121.446 90.6477 121.485 90.7909 121.564 90.9118C121.731 91.1513 121.985 91.3152 122.272 91.3682C122.555 91.4191 122.844 91.4324 123.132 91.4077L123.14 91.1926C123.064 90.8153 122.89 90.4646 122.637 90.1753C122.36 89.9112 121.87 89.8302 121.607 90.1087Z" fill="#CFCFCF"/>
<path d="M131.458 90.3387L131.321 90.2885C130.995 90.7816 130.668 91.2747 130.342 91.7678C130.166 92.0332 129.983 92.3518 130.09 92.6516C130.217 93.0063 130.686 93.1103 131.05 93.0166C131.328 92.9409 131.578 92.7874 131.772 92.574C131.966 92.3606 132.095 92.0963 132.145 91.8119C132.185 91.526 132.141 91.2347 132.019 90.9732C131.898 90.7116 131.703 90.4912 131.458 90.3387Z" fill="#CFCFCF"/>
<path d="M133.946 88.7737L133.045 88.0557C133.033 88.3888 133.021 88.7219 133.009 89.055L132.975 89.0556C133.183 89.2383 133.379 89.4338 133.563 89.6411C133.774 89.8208 134.128 89.9031 134.308 89.6925C134.362 89.6171 134.392 89.5274 134.396 89.4347C134.399 89.342 134.375 89.2503 134.327 89.1711C134.228 89.0144 134.099 88.8793 133.946 88.7737Z" fill="#CFCFCF"/>
<path d="M117.666 57.5336C117.288 57.5218 116.87 57.4987 116.577 57.7385C116.48 57.8249 116.396 57.9237 116.325 58.0324L116.222 58.1774C116.067 58.3802 115.932 58.5975 115.819 58.8262C115.76 58.9334 115.725 59.0521 115.715 59.1742C115.706 59.2963 115.723 59.419 115.765 59.5341C115.789 59.5891 115.825 59.638 115.87 59.6775C115.915 59.7171 115.968 59.7461 116.026 59.7627C116.084 59.7793 116.144 59.783 116.204 59.7735C116.263 59.7641 116.319 59.7417 116.369 59.7079C116.53 59.5579 116.493 59.2857 116.615 59.102C116.669 59.0328 116.738 58.977 116.817 58.9392C116.896 58.9014 116.982 58.8824 117.07 58.8839C117.244 58.8883 117.418 58.908 117.589 58.9428C118.063 59.0079 118.546 58.9356 118.981 58.7346C119.415 58.5335 119.783 58.212 120.041 57.8081C120.299 57.4042 120.436 56.9348 120.436 56.4552C120.437 55.9756 120.3 55.506 120.043 55.1017L120.012 55.0086C119.75 54.9986 119.493 55.0809 119.286 55.2412C119.078 55.4016 118.934 55.6298 118.877 55.8861C118.792 56.3277 118.971 56.8407 118.704 57.202C118.479 57.5066 118.044 57.5455 117.666 57.5336Z" fill="#CFCFCF"/>
<path d="M121.051 52.8519L120.994 52.8469C120.655 52.9089 120.331 53.0301 120.035 53.2051C119.938 53.2503 119.86 53.3292 119.816 53.4272C119.803 53.4792 119.804 53.5336 119.817 53.5855C119.83 53.6374 119.856 53.6852 119.893 53.7245C119.966 53.8023 120.052 53.8671 120.147 53.9163C120.288 54.0109 120.444 54.0809 120.609 54.1235C120.691 54.1439 120.778 54.1435 120.86 54.1221C120.942 54.1008 121.018 54.0593 121.081 54.0013C121.139 53.9208 121.179 53.8283 121.198 53.7305C121.218 53.6327 121.215 53.5319 121.191 53.4352C121.164 53.2365 121.117 53.0411 121.051 52.8519Z" fill="#CFCFCF"/>
<path d="M115.223 57.6461C115.313 57.5009 115.378 57.3409 115.413 57.1735C115.448 57.0435 115.483 56.9135 115.519 56.7835L115.142 56.554C114.962 56.6479 114.796 56.7666 114.648 56.9065C114.575 56.977 114.517 57.062 114.478 57.156C114.439 57.25 114.42 57.3511 114.422 57.4529C114.427 57.5547 114.466 57.6517 114.534 57.7281C114.601 57.8045 114.692 57.8559 114.792 57.8739C114.877 57.8765 114.962 57.8569 115.037 57.817C115.113 57.777 115.177 57.7181 115.223 57.6461Z" fill="#CFCFCF"/>
<path d="M74.1613 22.5135C74.0122 22.6066 74.0544 22.8317 74.1149 22.997C74.1843 23.1868 74.2537 23.3765 74.3231 23.5663L74.4203 23.1979C74.5056 23.0551 74.5432 22.8886 74.5277 22.7229C74.4941 22.561 74.3014 22.426 74.1613 22.5135Z" fill="#CFCFCF"/>
<path d="M168.269 56.696H105.226C103.706 56.6943 102.249 56.0886 101.175 55.0116C100.101 53.9347 99.4962 52.4745 99.4944 50.9515V5.74453C99.4962 4.22152 100.101 2.76138 101.175 1.68445C102.249 0.607514 103.706 0.00173261 105.226 0H168.269C169.788 0.00173195 171.245 0.607514 172.32 1.68445C173.394 2.76138 173.998 4.22152 174 5.74453V50.9515C173.998 52.4745 173.394 53.9347 172.32 55.0116C171.245 56.0886 169.788 56.6943 168.269 56.696Z" fill="white"/>
<path d="M168.269 56.696H105.226C103.706 56.6943 102.249 56.0886 101.175 55.0116C100.101 53.9347 99.4962 52.4745 99.4944 50.9515V5.74453C99.4962 4.22152 100.101 2.76138 101.175 1.68445C102.249 0.607514 103.706 0.00173261 105.226 0H168.269C169.788 0.00173195 171.245 0.607514 172.32 1.68445C173.394 2.76138 173.998 4.22152 174 5.74453V50.9515C173.998 52.4745 173.394 53.9347 172.32 55.0116C171.245 56.0886 169.788 56.6943 168.269 56.696ZM105.226 0.499525C103.838 0.501084 102.508 1.05418 101.527 2.03747C100.546 3.02077 99.9944 4.35395 99.9928 5.74453V50.9515C99.9944 52.3421 100.546 53.6753 101.527 54.6586C102.508 55.6418 103.838 56.1949 105.226 56.1965H168.269C169.656 56.1949 170.986 55.6418 171.967 54.6586C172.948 53.6753 173.5 52.3421 173.502 50.9515V5.74453C173.5 4.35395 172.948 3.02077 171.967 2.03747C170.986 1.05418 169.656 0.501084 168.269 0.499525H105.226Z" fill="#FCD64C"/>
<path d="M122.378 6.88323H112.411C112.146 6.88323 111.893 6.77797 111.706 6.59062C111.519 6.40326 111.414 6.14915 111.414 5.88418C111.414 5.61922 111.519 5.3651 111.706 5.17775C111.893 4.99039 112.146 4.88513 112.411 4.88513H122.378C122.642 4.88513 122.896 4.99039 123.083 5.17775C123.27 5.3651 123.375 5.61922 123.375 5.88418C123.375 6.14915 123.27 6.40326 123.083 6.59062C122.896 6.77797 122.642 6.88323 122.378 6.88323Z" fill="#CCCCCC"/>
<path d="M144.057 29.3619H112.411C112.146 29.3619 111.893 29.2566 111.706 29.0693C111.519 28.8819 111.414 28.6278 111.414 28.3628C111.414 28.0979 111.519 27.8437 111.706 27.6564C111.893 27.469 112.146 27.3638 112.411 27.3638H144.057C144.321 27.3638 144.575 27.469 144.762 27.6564C144.949 27.8437 145.054 28.0979 145.054 28.3628C145.054 28.6278 144.949 28.8819 144.762 29.0693C144.575 29.2566 144.321 29.3619 144.057 29.3619Z" fill="#CCCCCC"/>
<path d="M118.016 23.0548C121.707 23.0548 124.699 20.0558 124.699 16.3564C124.699 12.657 121.707 9.65808 118.016 9.65808C114.326 9.65808 111.334 12.657 111.334 16.3564C111.334 20.0558 114.326 23.0548 118.016 23.0548Z" fill="#FCD64C"/>
<path d="M112.909 48.4406H111.414V48.9401H112.909V48.4406Z" fill="#FCD64C"/>
<path d="M156.807 48.9401H153.672V48.4406H156.807V48.9401ZM150.536 48.9401H147.4V48.4406H150.536V48.9401ZM144.265 48.9401H141.129V48.4406H144.265V48.9401ZM137.994 48.9401H134.858V48.4406H137.994L137.994 48.9401ZM131.723 48.9401H128.587V48.4406H131.723V48.9401ZM125.451 48.9401H122.316V48.4406H125.452L125.451 48.9401ZM119.18 48.9401H116.045V48.4406H119.18V48.9401Z" fill="#FCD64C"/>
<path d="M161.438 48.4406H159.943V48.9401H161.438V48.4406Z" fill="#FCD64C"/>
<path d="M136.79 39.6021H135.544V48.094H136.79V39.6021Z" fill="#FCD64C"/>
<path d="M149.499 39.6021H148.253V48.094H149.499V39.6021Z" fill="#FCD64C"/>
<path d="M155.728 44.3475H154.482V48.094H155.728V44.3475Z" fill="#FCD64C"/>
<path d="M143.02 35.8556H141.774V48.0939H143.02V35.8556Z" fill="#FCD64C"/>
<path d="M22.4156 56.5859C23.2413 56.5859 23.9107 55.915 23.9107 55.0873C23.9107 54.2597 23.2413 53.5887 22.4156 53.5887C21.5899 53.5887 20.9205 54.2597 20.9205 55.0873C20.9205 55.915 21.5899 56.5859 22.4156 56.5859Z" fill="#FCD64C"/>
<path d="M26.4026 49.3429C27.2283 49.3429 27.8977 48.6719 27.8977 47.8443C27.8977 47.0166 27.2283 46.3457 26.4026 46.3457C25.5768 46.3457 24.9075 47.0166 24.9075 47.8443C24.9075 48.6719 25.5768 49.3429 26.4026 49.3429Z" fill="#FCD64C"/>
<path d="M70.2586 43.5982C71.0844 43.5982 71.7537 42.9273 71.7537 42.0996C71.7537 41.272 71.0844 40.6011 70.2586 40.6011C69.4329 40.6011 68.7635 41.272 68.7635 42.0996C68.7635 42.9273 69.4329 43.5982 70.2586 43.5982Z" fill="#FCD64C"/>
<path d="M35.9398 149.225L38.1949 149.224L39.2677 140.506L35.9393 140.506L35.9398 149.225Z" fill="#FFB6B6"/>
<path d="M35.8605 151.583L42.7951 151.582V151.494C42.795 150.777 42.5106 150.089 42.0045 149.582C41.4983 149.074 40.8118 148.789 40.0959 148.789H40.0958L38.8291 147.826L36.4657 148.789L35.8604 148.789L35.8605 151.583Z" fill="#2F2E41"/>
<path d="M52.8842 149.225L55.1393 149.224L56.2121 140.506L52.8837 140.506L52.8842 149.225Z" fill="#FFB6B6"/>
<path d="M52.8049 151.583L59.7395 151.582V151.494C59.7394 150.777 59.455 150.089 58.9489 149.582C58.4427 149.074 57.7562 148.789 57.0403 148.789H57.0402L55.7735 147.826L53.4101 148.789L52.8047 148.789L52.8049 151.583Z" fill="#2F2E41"/>
<path d="M35.8522 78.302L39.8542 77.7274C41.2077 79.996 41.6887 86.0341 41.6887 86.0341L45.6053 95.3648C45.8647 95.5414 46.0731 95.7834 46.2095 96.0663C46.346 96.3493 46.4056 96.6633 46.3825 96.9767C46.3594 97.2902 46.2543 97.592 46.0778 97.8518C45.9013 98.1115 45.6597 98.3201 45.3772 98.4565C45.0947 98.593 44.7813 98.6524 44.4687 98.6288C44.156 98.6053 43.855 98.4995 43.5961 98.3223C43.3371 98.1451 43.1293 97.9027 42.9935 97.6194C42.8578 97.3361 42.7989 97.0219 42.8227 96.7085L36.392 85.8479L35.8522 78.302Z" fill="#FFB6B6"/>
<path d="M38.0213 67.1655C37.4018 67.2617 36.8112 67.4935 36.2913 67.8445C35.7714 68.1955 35.335 68.657 35.0133 69.1962C34.6916 69.7354 34.4924 70.339 34.4298 70.9642C34.3673 71.5893 34.443 72.2206 34.6516 72.8131L35.5009 75.2259C35.5009 75.2259 34.4311 82.4908 36.1941 84.5415L41.6042 84.0506C41.6042 84.0506 40.615 80.3853 41.3744 78.612C41.8395 77.5259 41.8136 73.7748 41.3554 70.7234C41.0055 68.3934 40.3444 66.8049 38.0213 67.1655Z" fill="#FCD64C"/>
<path d="M56.6783 89.0549C56.6783 89.0549 60.8483 93.1313 59.9578 94.0728C59.0672 95.0143 57.0303 96.333 58.9209 96.5478C60.8115 96.7626 61.5959 97.2282 59.9578 97.6198C58.3197 98.0114 58.5729 99.0169 58.5729 99.0169C58.5729 99.0169 61.039 110.784 59.1701 118.527C59.1701 118.527 58.13 139.675 57.4773 141.322C56.8246 142.969 56.5754 141.97 56.8246 142.969C57.0738 143.968 57.5722 142.219 57.0738 143.968C56.8018 144.881 56.5865 145.81 56.4291 146.75L51.5545 146.001C51.5545 146.001 50.7697 143.521 51.5545 142.87C52.3393 142.219 53.0433 142.621 52.193 141.171C51.3426 139.722 51.0934 141.72 51.3426 139.722C51.5918 137.724 50.5515 126.917 52.193 121.206L49.1596 105.18L44.3437 121.774C44.3437 121.774 41.7893 142.04 40.9593 142.754C40.1294 143.468 38.8835 142.219 40.1294 143.468C41.3753 144.717 41.3535 144.502 41.3753 144.717C41.6073 147.008 34.4733 144.502 34.4733 144.502C34.513 143.92 34.513 143.336 34.4733 142.754C34.3982 142.219 35.296 142.048 34.4733 141.509C33.6506 140.971 34.8748 141.505 34.8748 141.505C34.8748 141.505 36.7145 126.554 38.1141 122.024L39.7338 99.9604C39.7338 99.9604 39.8367 100.401 39.7338 99.3308C39.631 98.2611 38.8835 99.0104 39.631 98.2611C40.3786 97.5119 40.8769 97.1301 40.3786 96.5717C39.8802 96.0133 38.5054 94.8836 39.3174 94.1996C40.1294 93.5157 41.7273 89.0549 41.7273 89.0549L57.3012 89.1798" fill="#2F2E41"/>
<path d="M50.8227 64.2851L48.0146 61.1158L43.5774 61.61L40.7366 65.595C39.2244 65.9434 37.903 66.8595 37.0442 68.1547C36.1854 69.45 35.8546 71.0259 36.1197 72.5582C37.2221 78.9209 40.9685 85.0919 39.7314 88.2313C37.8536 92.9968 37.7391 94.9404 42.2341 94.2723C46.7291 93.6041 61.7883 92.0639 58.8687 89.1375C55.949 86.211 55.3077 81.3208 55.3077 81.3208L55.1907 70.1329C55.3148 69.4581 55.2983 68.7649 55.1421 68.0968C54.9859 67.4288 54.6935 66.8003 54.2832 66.2511C53.873 65.7018 53.3537 65.2436 52.7582 64.9052C52.1626 64.5669 51.5036 64.3558 50.8227 64.2851Z" fill="#FCD64C"/>
<path d="M50.0555 76.5536L54.0576 75.979C55.4111 78.2475 55.8921 84.2857 55.8921 84.2857L59.8087 93.6164C60.0681 93.793 60.2765 94.035 60.4129 94.3179C60.5493 94.6009 60.609 94.9149 60.5859 95.2283C60.5627 95.5418 60.4576 95.8436 60.2811 96.1033C60.1047 96.3631 59.863 96.5717 59.5805 96.7081C59.298 96.8445 58.9847 96.904 58.672 96.8804C58.3593 96.8568 58.0584 96.7511 57.7994 96.5739C57.5405 96.3967 57.3326 96.1543 57.1969 95.871C57.0611 95.5877 57.0022 95.2735 57.0261 94.9601L50.5954 84.0995L50.0555 76.5536Z" fill="#FFB6B6"/>
<path d="M52.2246 65.4172C51.6052 65.5134 51.0145 65.7452 50.4946 66.0962C49.9747 66.4472 49.5384 66.9087 49.2167 67.4479C48.8949 67.9871 48.6957 68.5907 48.6332 69.2159C48.5707 69.841 48.6464 70.4723 48.8549 71.0648L49.7042 73.4776C49.7042 73.4776 48.6344 80.7425 50.3975 82.7932L55.8075 82.3023C55.8075 82.3023 54.8184 78.637 55.5778 76.8637C56.0428 75.7776 56.017 72.0266 55.5588 68.9751C55.2089 66.6451 54.5477 65.0566 52.2246 65.4172Z" fill="#FCD64C"/>
<path d="M44.5758 60.8429C47.5378 60.8429 49.939 58.4361 49.939 55.4672C49.939 52.4983 47.5378 50.0916 44.5758 50.0916C41.6138 50.0916 39.2126 52.4983 39.2126 55.4672C39.2126 58.4361 41.6138 60.8429 44.5758 60.8429Z" fill="#FFB6B6"/>
<path d="M43.5895 60.7296C45.0832 60.3545 45.134 59.9266 46.6277 59.5516C47.1033 59.4321 47.6544 59.244 47.7954 58.7733C47.8288 58.6011 47.822 58.4235 47.7754 58.2545C47.7287 58.0854 47.6436 57.9295 47.5267 57.799C47.2914 57.5406 47.0709 57.269 46.8664 56.9855C46.731 56.7578 46.6528 56.5005 46.6388 56.2357C46.6249 55.971 46.6754 55.7068 46.7861 55.466C46.8968 55.2252 47.0643 55.015 47.2742 54.8537C47.4841 54.6924 47.73 54.5847 47.9908 54.5399C48.4528 54.4607 48.9293 54.5834 49.3943 54.524C50.0321 54.4426 50.9701 52.0709 50.5613 51.5736C50.1633 51.0895 49.5101 50.8006 49.2906 50.2132C49.1471 49.829 49.2255 49.3994 49.1616 48.9942C49.0668 48.3933 47.8538 50.0569 48.0153 49.4705C48.4113 48.0321 41.71 47.8055 41.0123 49.6509C40.7516 50.3407 40.0457 50.4502 39.5028 50.9481C39.1469 51.2744 38.2958 52.3185 38.1724 52.8812C38.0702 53.4503 38.0899 54.0346 38.2301 54.5954C38.7867 57.2244 39.7065 59.5544 42.1551 60.6496" fill="#2F2E41"/>
<path d="M1.29622 151.923L98.409 152C98.4481 152 98.4867 151.992 98.5228 151.978C98.5589 151.963 98.5917 151.941 98.6194 151.913C98.647 151.886 98.669 151.853 98.6839 151.817C98.6989 151.78 98.7066 151.742 98.7066 151.703C98.7066 151.663 98.6989 151.625 98.6839 151.589C98.669 151.552 98.647 151.52 98.6194 151.492C98.5917 151.464 98.5589 151.443 98.5228 151.428C98.4867 151.413 98.4481 151.405 98.409 151.405L1.29622 151.328C1.25718 151.328 1.21851 151.336 1.18241 151.351C1.14631 151.366 1.1135 151.388 1.08586 151.415C1.05822 151.443 1.03629 151.476 1.02133 151.512C1.00636 151.548 0.998657 151.587 0.998657 151.626C0.998657 151.665 1.00636 151.704 1.02133 151.74C1.03629 151.776 1.05822 151.809 1.08586 151.836C1.1135 151.864 1.14631 151.886 1.18241 151.901C1.21851 151.916 1.25718 151.923 1.29622 151.923Z" fill="#CACACA"/>
</g>
<defs>
<clipPath id="clip0_1_445">
<rect width="174" height="152" fill="white"/>
</clipPath>
</defs>
</svg>
