<svg width="137" height="153" viewBox="0 0 137 153" fill="none" xmlns="http://www.w3.org/2000/svg">
<g clip-path="url(#clip0_1_290)">
<path d="M130.555 144.212C129.701 144.512 128.784 144.587 127.893 144.43C127.001 144.273 126.165 143.889 125.465 143.315C123.682 141.817 123.123 139.351 122.669 137.067L121.324 130.312L124.14 132.252C126.165 133.648 128.236 135.088 129.638 137.109C131.041 139.13 131.653 141.889 130.526 144.075" fill="#E6E6E6"/>
<path d="M130.314 152.39C130.599 150.313 130.893 148.209 130.693 146.109C130.515 144.244 129.947 142.423 128.789 140.93C128.174 140.138 127.427 139.461 126.579 138.926C126.358 138.787 126.155 139.137 126.375 139.276C127.841 140.203 128.975 141.572 129.613 143.185C130.318 144.979 130.431 146.935 130.309 148.841C130.236 149.994 130.08 151.138 129.923 152.282C129.91 152.334 129.918 152.389 129.944 152.435C129.97 152.481 130.013 152.516 130.064 152.531C130.116 152.545 130.171 152.538 130.218 152.512C130.265 152.485 130.299 152.442 130.313 152.39L130.314 152.39Z" fill="#F2F2F2"/>
<path d="M120.107 117.886H2.28461V0H120.107V117.886Z" fill="white"/>
<path d="M120.107 117.886H2.28461V0H120.107V117.886ZM4.02541 116.144H118.367V1.74175H4.02541V116.144Z" fill="#E5E5E5"/>
<path d="M99.2346 18.4432H48.2125V20.0335H99.2346V18.4432Z" fill="#E5E5E5"/>
<path d="M99.2346 22.5778H48.2125V24.168H99.2346V22.5778Z" fill="#E5E5E5"/>
<path d="M99.2346 26.7123H48.2125V28.3026H99.2346V26.7123Z" fill="#E5E5E5"/>
<path d="M99.2346 53.9458H48.2125V55.536H99.2346V53.9458Z" fill="#E5E5E5"/>
<path d="M99.2346 58.0804H48.2125V59.6706H99.2346V58.0804Z" fill="#E5E5E5"/>
<path d="M99.2346 62.215H48.2125V63.8052H99.2346V62.215Z" fill="#E5E5E5"/>
<path d="M99.2346 89.4484H48.2125V91.0386H99.2346V89.4484Z" fill="#E5E5E5"/>
<path d="M99.2346 93.5829H48.2125V95.1732H99.2346V93.5829Z" fill="#E5E5E5"/>
<path d="M99.2346 97.7175H48.2125V99.3077H99.2346V97.7175Z" fill="#E5E5E5"/>
<path d="M27.7871 31.1132C26.9155 30.6537 26.0057 30.2706 25.0679 29.9683L24.9483 28.6448L20.0987 28.122L19.4824 29.8137L17.7419 30.4671C17.6797 30.4907 17.6204 30.5216 17.5653 30.5592H17.5634C17.4663 30.6248 17.3836 30.7096 17.3203 30.8084C17.2571 30.9071 17.2146 31.0177 17.1955 31.1335C17.1769 31.2485 17.1813 31.3662 17.2084 31.4795L17.3004 31.8569C17.4328 31.936 17.569 32.0115 17.7051 32.0833L17.7916 32.1275C17.9903 32.2306 18.1927 32.3281 18.4006 32.4183C18.4429 32.4367 18.4889 32.4551 18.5312 32.4735C18.5349 32.4754 18.5367 32.4754 18.5404 32.4772C18.6379 32.5177 18.7354 32.5564 18.8348 32.5932C19.1611 32.7179 19.494 32.8248 19.8319 32.9135C20.6943 33.1435 21.5831 33.2598 22.4757 33.2595C22.8013 33.2595 23.1233 33.2448 23.4415 33.2135C24.1688 33.1464 24.8867 33.0013 25.5831 32.781C25.5849 32.781 25.5867 32.7791 25.5885 32.7791C26.0284 32.6389 26.4581 32.4685 26.8746 32.2692C26.8764 32.2674 26.8801 32.2674 26.882 32.2655C26.9757 32.2214 27.0659 32.1735 27.1579 32.1275L27.202 32.1054C27.2756 32.0667 27.3493 32.0281 27.4228 31.9876C27.6068 31.8863 27.7871 31.7796 27.9655 31.6654C28.0152 31.636 28.0631 31.6047 28.1127 31.5716C28.1826 31.5255 28.2525 31.4777 28.3206 31.428C28.1495 31.3175 27.9711 31.2126 27.7871 31.1132Z" fill="#3CD5F8"/>
<path d="M18.6857 31.9287L18.3822 30.5573H17.5893C17.5813 30.5574 17.5733 30.558 17.5654 30.5592H17.5635C17.2785 30.5833 17.0041 30.6782 16.7651 30.8353C16.6029 30.9388 16.4588 31.0681 16.3383 31.2181C16.5737 31.3967 16.8184 31.5624 17.0705 31.7207L17.0815 31.7262C17.1532 31.7704 17.2269 31.8145 17.3005 31.8569C17.4329 31.936 17.5691 32.0115 17.7052 32.0833L17.7917 32.1275C17.9904 32.2306 18.1928 32.3281 18.4006 32.4183C18.4429 32.4367 18.4889 32.4551 18.5313 32.4735C18.5349 32.4754 18.5367 32.4754 18.5404 32.4772C18.638 32.5177 18.7354 32.5564 18.8348 32.5932L18.6857 31.9287Z" fill="#3CD5F8"/>
<path d="M22.3332 27.2853C24.2622 27.2853 25.8259 25.7207 25.8259 23.7907C25.8259 21.8607 24.2622 20.2961 22.3332 20.2961C20.4042 20.2961 18.8405 21.8607 18.8405 23.7907C18.8405 25.7207 20.4042 27.2853 22.3332 27.2853Z" fill="#FFB8B8"/>
<path d="M19.9882 22.0886C20.3498 22.5167 20.9617 22.6375 21.5261 22.687C22.8457 22.7599 24.1692 22.6518 25.4595 22.3656C25.5394 23.141 25.3215 23.977 25.7779 24.6148C25.9919 23.8426 26.1163 23.0484 26.1487 22.2478C26.1828 21.9043 26.1379 21.5575 26.0176 21.234C25.9533 21.0718 25.8448 20.931 25.7045 20.8275C25.5641 20.724 25.3976 20.6619 25.2238 20.6484C25.484 20.4509 25.7888 20.3205 26.1113 20.2688L25.0023 19.7112L25.2871 19.4186L23.2792 19.2957L23.8608 18.926C22.9855 18.8057 22.1 18.7777 21.2189 18.8426C20.8072 18.8428 20.4033 18.9551 20.0505 19.1676C19.719 19.4048 19.5274 19.8762 19.7332 20.2244C19.4756 20.2667 19.233 20.3742 19.0284 20.5366C18.8239 20.699 18.6642 20.9109 18.5644 21.1523C18.4383 21.5361 18.4078 21.9448 18.4757 22.3431C18.5513 22.982 18.6997 23.6101 18.918 24.2153L19.9882 22.0886Z" fill="#2F2E41"/>
<path d="M32.1547 20.0025C31.6646 18.5939 30.8734 17.3092 29.8361 16.2381C28.7989 15.1669 27.5406 14.335 26.1489 13.8004C24.7573 13.2658 23.2659 13.0413 21.7787 13.1427C20.2915 13.244 18.8442 13.6687 17.5379 14.3872C16.2316 15.1057 15.0976 16.1006 14.2151 17.3026C13.3326 18.5046 12.7228 19.8847 12.4281 21.3468C12.1335 22.8088 12.1612 24.3176 12.5092 25.7678C12.8572 27.2181 13.5173 28.5749 14.4432 29.7437C14.5352 29.8597 14.6309 29.9756 14.7285 30.0879C14.7358 30.0953 14.7413 30.1027 14.7487 30.11C14.9885 30.3865 15.2434 30.6495 15.5122 30.8979C15.5821 30.9623 15.6557 31.0285 15.7293 31.0911C15.8691 31.2163 16.0126 31.3359 16.1616 31.4501C16.2205 31.4961 16.2775 31.5421 16.3383 31.5863C16.5737 31.7649 16.8184 31.9305 17.0705 32.0888L17.0815 32.0943C17.1532 32.1385 17.2269 32.1827 17.3005 32.225C17.4329 32.3042 17.5691 32.3797 17.7052 32.4514L17.7917 32.4956C17.9904 32.5987 18.1928 32.6963 18.4006 32.7865C18.4429 32.8049 18.4889 32.8233 18.5313 32.8417C18.5349 32.8435 18.5367 32.8435 18.5404 32.8454C18.638 32.8859 18.7354 32.9245 18.8348 32.9613C19.1612 33.0861 19.494 33.193 19.8319 33.2816C20.6944 33.5116 21.5831 33.628 22.4757 33.6277C22.8013 33.6277 23.1233 33.613 23.4416 33.5817C24.1688 33.5145 24.8868 33.3695 25.5831 33.1491C25.5849 33.1491 25.5868 33.1473 25.5886 33.1473C26.0285 33.007 26.4582 32.8367 26.8746 32.6374C26.8764 32.6355 26.8801 32.6355 26.882 32.6337C26.9758 32.5895 27.066 32.5417 27.158 32.4956L27.2021 32.4735C27.2756 32.4349 27.3493 32.3962 27.4229 32.3557C27.6068 32.2545 27.7871 32.1477 27.9655 32.0336C28.0152 32.0041 28.0631 31.9729 28.1128 31.9397C28.1827 31.8937 28.2526 31.8458 28.3207 31.7961C28.4108 31.7336 28.5009 31.6691 28.5892 31.6029C28.6168 31.5826 28.6463 31.5624 28.6739 31.5403C30.3975 30.2313 31.6626 28.4099 32.2879 26.3372C32.9132 24.2645 32.8666 22.047 32.1547 20.0025V20.0025ZM28.3354 31.093C28.2747 31.1408 28.2121 31.1869 28.1495 31.2292C28.0888 31.2752 28.0282 31.3194 27.9655 31.3599C27.9122 31.3985 27.8588 31.4354 27.8037 31.4703L27.7871 31.4814C27.7466 31.509 27.7062 31.5347 27.6657 31.5605C27.513 31.6562 27.3584 31.7483 27.2021 31.8366L27.1524 31.8643C27.0825 31.9029 27.0126 31.9397 26.9427 31.9765C26.9335 31.9821 26.9224 31.9857 26.9133 31.9913L26.9022 31.9968C26.8139 32.0428 26.7237 32.087 26.6336 32.1293C26.2857 32.2969 25.9275 32.442 25.561 32.5637C25.5131 32.5803 25.4653 32.5969 25.4175 32.6116C24.7585 32.8213 24.0787 32.9596 23.3901 33.0239C23.0884 33.0515 22.7829 33.0663 22.4757 33.0663C21.6315 33.068 20.7908 32.9578 19.9755 32.7386C19.5571 32.6293 19.147 32.4903 18.7484 32.3226C18.7281 32.3134 18.706 32.306 18.6858 32.2968C18.6638 32.2876 18.6435 32.2803 18.6232 32.2711C18.6011 32.2619 18.5809 32.2527 18.5588 32.2416C18.3859 32.1661 18.2148 32.0833 18.0474 31.9968L17.9665 31.9545C17.7622 31.8477 17.5617 31.7336 17.3667 31.6121C17.3096 31.5771 17.2508 31.5403 17.1955 31.5016C17.1809 31.4924 17.168 31.4832 17.1532 31.474C17.0226 31.3875 16.892 31.2973 16.7651 31.2034C16.6786 31.139 16.5921 31.0746 16.5075 31.0083C16.3658 30.9015 16.2297 30.7874 16.0972 30.6696C16.0274 30.6107 15.9593 30.5463 15.8931 30.4855C15.6322 30.2445 15.3853 29.9889 15.1535 29.7198C15.0762 29.6314 15.0008 29.5431 14.929 29.451C14.9127 29.4328 14.8973 29.4138 14.883 29.394C13.6876 27.8848 12.9686 26.0535 12.8177 24.1338C12.6668 22.2141 13.0907 20.2929 14.0355 18.6153C14.9803 16.9376 16.4031 15.5796 18.1224 14.7142C19.8418 13.8489 21.7797 13.5156 23.6892 13.7567C25.5987 13.9979 27.3931 14.8026 28.8436 16.0683C30.294 17.334 31.3349 19.0032 31.8334 20.8631C32.3318 22.7231 32.2653 24.6894 31.6423 26.5114C31.0193 28.3333 29.8681 29.9283 28.3354 31.093L28.3354 31.093Z" fill="#3CD5F8"/>
<path d="M32.1547 55.505C31.6647 54.0965 30.8734 52.8118 29.8362 51.7406C28.7989 50.6694 27.5406 49.8375 26.149 49.3029C24.7574 48.7683 23.266 48.5439 21.7787 48.6452C20.2915 48.7466 18.8443 49.1713 17.538 49.8898C16.2317 50.6082 15.0977 51.6032 14.2152 52.8052C13.3327 54.0072 12.7228 55.3873 12.4282 56.8493C12.1336 58.3114 12.1612 59.8201 12.5093 61.2704C12.8573 62.7206 13.5173 64.0775 14.4433 65.2463C14.5353 65.3622 14.631 65.4782 14.7284 65.5905C14.7358 65.5978 14.7413 65.6052 14.7486 65.6126C14.9885 65.889 15.2434 66.152 15.5122 66.4004C15.5821 66.4648 15.6557 66.5311 15.7292 66.5937C15.8691 66.7189 16.0126 66.8385 16.1616 66.9526C16.4526 67.1821 16.756 67.3953 17.0704 67.5914L17.0815 67.5969C17.2857 67.7239 17.4936 67.8417 17.7052 67.954L17.7916 67.9982C17.9903 68.1013 18.1927 68.1988 18.4006 68.289C18.4429 68.3074 18.4889 68.3258 18.5312 68.3442C18.5349 68.3461 18.5368 68.3461 18.5405 68.3479C18.9605 68.5227 19.392 68.6685 19.832 68.7842C20.6944 69.0142 21.5831 69.1305 22.4757 69.1302C22.8013 69.1302 23.1233 69.1155 23.4415 69.0842C24.1688 69.0171 24.8867 68.872 25.5831 68.6517C25.5849 68.6517 25.5867 68.6498 25.5885 68.6498C26.0284 68.5096 26.4581 68.3392 26.8746 68.1399C26.8764 68.1381 26.8801 68.1381 26.8819 68.1362C26.9757 68.0921 27.0659 68.0442 27.1579 67.9982L27.2021 67.9761C27.2757 67.9374 27.3493 67.8988 27.4228 67.8583C27.6068 67.757 27.7871 67.6503 27.9656 67.5361C28.0153 67.5067 28.0631 67.4754 28.1127 67.4423C28.2746 67.3355 28.4347 67.2214 28.5892 67.1054C28.6169 67.0852 28.6463 67.0649 28.6739 67.0428C30.3975 65.7338 31.6626 63.9124 32.2879 61.8398C32.9132 59.7671 32.8666 57.5495 32.1547 55.505V55.505Z" fill="white"/>
<path d="M25.8579 63.1026C26.7062 63.1026 27.3939 62.4145 27.3939 61.5658C27.3939 60.717 26.7062 60.0289 25.8579 60.0289C25.0096 60.0289 24.3219 60.717 24.3219 61.5658C24.3219 62.4145 25.0096 63.1026 25.8579 63.1026Z" fill="#2F2E41"/>
<path d="M26.2858 60.0713C26.5517 60.0713 26.813 60.1403 27.0442 60.2716C27.2754 60.4029 27.4686 60.5921 27.6048 60.8204C27.7411 61.0488 27.8158 61.3087 27.8216 61.5746C27.8275 61.8406 27.7642 62.1035 27.6381 62.3376C27.7712 62.1709 27.8682 61.9783 27.9228 61.772C27.9774 61.5657 27.9885 61.3503 27.9553 61.1395C27.9221 60.9288 27.8454 60.7272 27.7301 60.5477C27.6148 60.3682 27.4634 60.2147 27.2855 60.097C27.1076 59.9793 26.9071 59.8999 26.6969 59.864C26.4867 59.828 26.2713 59.8363 26.0644 59.8883C25.8576 59.9402 25.6638 60.0347 25.4955 60.1658C25.3271 60.2968 25.1879 60.4614 25.0867 60.6493C25.2303 60.4689 25.4127 60.3232 25.6203 60.2232C25.828 60.1231 26.0555 60.0712 26.286 60.0713L26.2858 60.0713Z" fill="#2F2E41"/>
<path d="M22.9875 61.5625C25.4795 61.5625 27.4997 59.5412 27.4997 57.0478C27.4997 54.5545 25.4795 52.5332 22.9875 52.5332C20.4955 52.5332 18.4753 54.5545 18.4753 57.0478C18.4753 59.5412 20.4955 61.5625 22.9875 61.5625Z" fill="#2F2E41"/>
<path d="M19.4461 54.2468C20.2236 53.3719 21.3104 52.8335 22.4771 52.7452C23.6438 52.6568 24.7992 53.0255 25.6995 53.7733C25.6627 53.7382 25.6259 53.7028 25.5878 53.6688C24.6964 52.8699 23.5244 52.4579 22.3295 52.5236C21.1346 52.5893 20.0147 53.1272 19.2161 54.019C18.4176 54.9108 18.0059 56.0835 18.0716 57.2791C18.1372 58.4746 18.6748 59.5951 19.5662 60.394C19.5748 60.4017 19.5833 60.4094 19.592 60.417C19.6302 60.451 19.6696 60.4832 19.7088 60.5158C18.8611 59.7089 18.3598 58.6041 18.3108 57.4344C18.2619 56.2648 18.669 55.1218 19.4463 54.2468L19.4461 54.2468Z" fill="#2F2E41"/>
<path d="M22.9492 61.5242C24.5542 61.5242 25.8553 60.2224 25.8553 58.6165C25.8553 57.0107 24.5542 55.7089 22.9492 55.7089C21.3443 55.7089 20.0432 57.0107 20.0432 58.6165C20.0432 60.2224 21.3443 61.5242 22.9492 61.5242Z" fill="#A0616A"/>
<path d="M28.1496 66.1924V67.168C27.9711 67.2821 27.7908 67.3889 27.6068 67.4901C27.5332 67.5306 27.4597 67.5693 27.3861 67.6079L27.3419 67.63C27.2499 67.676 27.1597 67.7239 27.0659 67.7681C27.0641 67.7699 27.0604 67.7699 27.0586 67.7718C26.6421 67.9711 26.2124 68.1415 25.7725 68.2817C25.7707 68.2817 25.7689 68.2835 25.767 68.2835C25.0707 68.5039 24.3528 68.6489 23.6255 68.7161C23.3072 68.7474 22.9853 68.7621 22.6596 68.7621C21.7671 68.7623 20.8784 68.646 20.016 68.416C19.576 68.3003 19.1445 68.1545 18.7244 67.9798C18.7208 67.9779 18.7189 67.9779 18.7152 67.9761C18.6729 67.9577 18.6269 67.9393 18.5846 67.9209C18.3767 67.8307 18.1743 67.7331 17.9756 67.63L17.8892 67.5859C17.6775 67.4736 17.4697 67.3558 17.2655 67.2287L17.2544 67.2232C16.94 67.0272 16.6366 66.814 16.3456 66.5845C16.1966 66.4704 16.0531 66.3507 15.9132 66.2255C15.8397 66.163 15.7661 66.0967 15.6962 66.0323C15.4274 65.7839 15.1725 65.5209 14.9326 65.2444C14.9644 65.0527 15.0112 64.8637 15.0725 64.6793L15.0743 64.6775C15.0853 64.646 15.0982 64.6153 15.1129 64.5854C15.1231 64.559 15.1347 64.5332 15.1479 64.5081C15.4772 63.8915 16.0733 63.7387 16.8129 63.7056C17.2305 63.6871 17.6923 63.7074 18.1799 63.7019C18.4374 63.7 18.7041 63.6908 18.971 63.6669C20.6543 63.5141 20.349 62.5201 20.4244 61.9845C20.4998 61.4654 20.9671 61.9145 20.9984 61.944L21.0002 61.9458C21.9528 62.3919 23.0068 62.5767 24.0542 62.4815C24.2345 62.4594 24.4148 62.4465 24.5951 62.441C25.0698 62.4354 24.9667 62.5717 24.8031 62.684C24.7236 62.7363 24.6406 62.783 24.5547 62.8239C24.5547 62.8239 24.4792 63.284 24.402 63.9725C24.3284 64.6314 25.5904 64.9407 25.6953 64.9646C25.6974 64.9661 25.7 64.9667 25.7026 64.9665C26.1635 64.8469 26.6488 64.8596 27.1028 65.0033H27.1046C27.364 65.0987 27.5954 65.2575 27.7779 65.4651C27.9604 65.6728 28.0882 65.9228 28.1496 66.1924Z" fill="#6C63FF"/>
<path d="M18.7427 67.376C18.7427 67.5122 18.7392 67.6429 18.7336 67.7663C18.7318 67.8399 18.7281 67.9117 18.7244 67.9798C18.7207 67.978 18.7189 67.978 18.7152 67.9761C18.6729 67.9577 18.6269 67.9393 18.5845 67.9209C18.3767 67.8307 18.1743 67.7331 17.9756 67.6301L17.8892 67.5859C17.6775 67.4736 17.4696 67.3558 17.2655 67.2288C17.2709 67.1643 17.2802 67.0999 17.2893 67.0355C17.3096 66.8937 17.3262 66.7502 17.3372 66.6084C17.4096 65.6127 17.2292 64.6148 16.8129 63.7074V63.7056C16.776 63.6319 16.754 63.5914 16.754 63.5914C16.754 63.5914 17.2893 63.1312 18.0528 63.5914C18.1016 63.6201 18.1447 63.6575 18.1798 63.7019C18.6398 64.2449 18.7648 66.0709 18.7427 67.376Z" fill="#2F2E41"/>
<path d="M27.0972 67.1257C27.0898 67.3318 27.0788 67.5472 27.0659 67.7662V67.7681C27.0641 67.7699 27.0604 67.7699 27.0586 67.7718C26.6421 67.9711 26.2124 68.1415 25.7725 68.2817C25.7707 68.2817 25.7689 68.2835 25.767 68.2835L25.7468 67.7662L25.7449 67.6981L25.6475 65.18C25.6449 65.123 25.6538 65.0661 25.6738 65.0126C25.6938 64.9592 25.7244 64.9103 25.7638 64.869C25.8032 64.8278 25.8505 64.7949 25.9029 64.7724C25.9553 64.7499 26.0118 64.7383 26.0688 64.7382H27.0015C27.0475 64.7382 27.0807 64.8321 27.1028 65.0014V65.0033C27.148 65.7101 27.1461 66.4191 27.0972 67.1257Z" fill="#2F2E41"/>
<path d="M20.4637 54.9819V57.8903H21.1367L21.9931 56.9721L21.8785 57.8903H24.8534L24.6694 56.9721L25.0374 57.8903H25.5117V54.9819H20.4637Z" fill="#2F2E41"/>
<path d="M20.0049 58.4253C20.1316 58.4253 20.2343 58.2369 20.2343 58.0045C20.2343 57.7721 20.1316 57.5837 20.0049 57.5837C19.8782 57.5837 19.7755 57.7721 19.7755 58.0045C19.7755 58.2369 19.8782 58.4253 20.0049 58.4253Z" fill="#A0616A"/>
<path d="M25.8938 58.4253C26.0205 58.4253 26.1232 58.2369 26.1232 58.0045C26.1232 57.7721 26.0205 57.5837 25.8938 57.5837C25.7671 57.5837 25.6644 57.7721 25.6644 58.0045C25.6644 58.2369 25.7671 58.4253 25.8938 58.4253Z" fill="#A0616A"/>
<path d="M28.7732 66.7373C28.6187 66.8533 28.4586 66.9674 28.2967 67.0742C28.2471 67.1073 28.1993 67.1386 28.1496 67.168C27.9711 67.2822 27.7908 67.3889 27.6068 67.4902C27.5332 67.5307 27.4597 67.5693 27.3861 67.608V65.5795C27.3861 65.5795 27.6804 65.8151 28.1496 66.2072C28.2084 66.2569 28.2691 66.3084 28.3336 66.3636C28.4697 66.4778 28.6169 66.6029 28.7732 66.7373Z" fill="#6C63FF"/>
<path d="M32.1547 55.505C31.6647 54.0965 30.8734 52.8118 29.8362 51.7406C28.7989 50.6694 27.5406 49.8375 26.149 49.3029C24.7574 48.7683 23.266 48.5439 21.7787 48.6452C20.2915 48.7466 18.8443 49.1713 17.538 49.8898C16.2317 50.6082 15.0977 51.6032 14.2152 52.8052C13.3327 54.0072 12.7228 55.3873 12.4282 56.8493C12.1336 58.3114 12.1612 59.8201 12.5093 61.2704C12.8573 62.7206 13.5173 64.0775 14.4433 65.2463C14.5353 65.3622 14.631 65.4782 14.7284 65.5905C14.7358 65.5978 14.7413 65.6052 14.7486 65.6126C14.9885 65.889 15.2434 66.152 15.5122 66.4004C15.5821 66.4648 15.6557 66.5311 15.7292 66.5937C15.8691 66.7189 16.0126 66.8385 16.1616 66.9526C16.4526 67.1821 16.756 67.3953 17.0704 67.5914L17.0815 67.5969C17.2857 67.7239 17.4936 67.8417 17.7052 67.954L17.7916 67.9982C17.9903 68.1013 18.1927 68.1988 18.4006 68.289C18.4429 68.3074 18.4889 68.3258 18.5312 68.3442C18.5349 68.3461 18.5368 68.3461 18.5405 68.3479C18.9605 68.5227 19.392 68.6685 19.832 68.7842C20.6944 69.0142 21.5831 69.1305 22.4757 69.1302C22.8013 69.1302 23.1233 69.1155 23.4415 69.0842C24.1688 69.0171 24.8867 68.872 25.5831 68.6517C25.5849 68.6517 25.5867 68.6498 25.5885 68.6498C26.0284 68.5096 26.4581 68.3392 26.8746 68.1399C26.8764 68.1381 26.8801 68.1381 26.8819 68.1362C26.9757 68.0921 27.0659 68.0442 27.1579 67.9982L27.2021 67.9761C27.2757 67.9374 27.3493 67.8988 27.4228 67.8583C27.6068 67.757 27.7871 67.6503 27.9656 67.5361C28.0153 67.5067 28.0631 67.4754 28.1127 67.4423C28.2746 67.3355 28.4347 67.2214 28.5892 67.1054C28.6169 67.0852 28.6463 67.0649 28.6739 67.0428C30.3975 65.7338 31.6626 63.9124 32.2879 61.8398C32.9132 59.7671 32.8666 57.5495 32.1547 55.505V55.505ZM28.3353 66.5955C28.2746 66.6434 28.2121 66.6894 28.1496 66.7317C28.0888 66.7778 28.0281 66.8219 27.9656 66.8624C27.9122 66.9011 27.8589 66.9379 27.8036 66.9729C27.7576 67.0042 27.7116 67.0336 27.6656 67.0631C27.513 67.1588 27.3585 67.2508 27.2021 67.3392L27.1523 67.3668C27.0824 67.4054 27.0126 67.4423 26.9427 67.4791C26.9334 67.4846 26.9224 67.4883 26.9132 67.4938L26.9022 67.4993C26.8139 67.5453 26.7238 67.5895 26.6336 67.6319C26.2857 67.7995 25.9274 67.9446 25.561 68.0663C25.5132 68.0828 25.4653 68.0994 25.4175 68.1141C24.7584 68.3239 24.0787 68.4621 23.3901 68.5265C23.0883 68.5541 22.7829 68.5688 22.4757 68.5688C21.6315 68.5705 20.7907 68.4604 19.9754 68.2412C19.557 68.1319 19.147 67.9929 18.7483 67.8251C18.706 67.8086 18.6637 67.7902 18.6232 67.7736C18.6012 67.7644 18.5809 67.7552 18.5588 67.7442C18.3859 67.6687 18.2148 67.5858 18.0474 67.4993L17.9664 67.457C17.7623 67.3502 17.5617 67.2361 17.3666 67.1146C17.2949 67.0704 17.2232 67.0244 17.1533 66.9766C16.9325 66.8311 16.7172 66.6747 16.5075 66.5108C16.3658 66.4041 16.2297 66.2899 16.0972 66.1721C16.0273 66.1132 15.9592 66.0488 15.893 65.9881C15.6322 65.7471 15.3852 65.4914 15.1534 65.2223C15.0762 65.134 15.0007 65.0456 14.9289 64.9536C14.9126 64.9354 14.8973 64.9163 14.8829 64.8965C13.6876 63.3873 12.9686 61.5561 12.8177 59.6364C12.6667 57.7167 13.0907 55.7955 14.0355 54.1178C14.9802 52.4402 16.403 51.0821 18.1224 50.2168C19.8417 49.3515 21.7797 49.0181 23.6892 49.2593C25.5986 49.5005 27.393 50.3052 28.8435 51.5708C30.294 52.8365 31.3349 54.5057 31.8333 56.3657C32.3318 58.2256 32.2653 60.1919 31.6423 62.0139C31.0193 63.8359 29.868 65.4309 28.3353 66.5955V66.5955Z" fill="#3CD5F8"/>
<path d="M22.5336 98.9872C24.7513 98.9872 26.5491 97.1884 26.5491 94.9695C26.5491 92.7506 24.7513 90.9518 22.5336 90.9518C20.3158 90.9518 18.518 92.7506 18.518 94.9695C18.518 97.1884 20.3158 98.9872 22.5336 98.9872Z" fill="#2F2E41"/>
<path d="M19.3992 92.8032C20.0481 92.154 20.1796 91.2329 19.6929 90.746C19.2063 90.2591 18.2857 90.3906 17.6368 91.0399C16.9879 91.6891 16.8564 92.6102 17.3431 93.0971C17.8297 93.5841 18.7503 93.4525 19.3992 92.8032Z" fill="#2F2E41"/>
<path d="M26.7188 91.5274C26.9892 90.8941 26.5243 90.0883 25.6803 89.7276C24.8364 89.367 23.9331 89.5879 23.6628 90.2212C23.3924 90.8545 23.8573 91.6603 24.7013 92.0209C25.5452 92.3816 26.4485 92.1606 26.7188 91.5274Z" fill="#2F2E41"/>
<path d="M27.3368 102.763L26.8637 102.018C26.663 101.569 26.2927 101.218 25.8339 101.042C25.3752 100.866 24.8654 100.879 24.4162 101.078C23.967 101.278 23.615 101.647 23.4374 102.105C23.2597 102.564 23.2709 103.074 23.4684 103.524L23.6029 104.007L23.756 104.554C24.3759 104.476 24.9874 104.342 25.5835 104.155C25.5853 104.155 25.5869 104.154 25.5882 104.153C26.0288 104.013 26.4589 103.843 26.8754 103.642C26.8776 103.64 26.8799 103.64 26.8823 103.638C26.975 103.594 27.0655 103.547 27.1583 103.501C27.1734 103.494 27.1881 103.486 27.2023 103.477C27.2765 103.44 27.3508 103.401 27.4227 103.361C27.4968 103.322 27.5687 103.28 27.6383 103.236L27.3368 102.763Z" fill="#CACACA"/>
<path d="M22.6609 99.3384C24.5431 99.3384 26.0689 97.8118 26.0689 95.9286C26.0689 94.0454 24.5431 92.5188 22.6609 92.5188C20.7787 92.5188 19.2529 94.0454 19.2529 95.9286C19.2529 97.8118 20.7787 99.3384 22.6609 99.3384Z" fill="#FFB6B6"/>
<path d="M27.5826 102.617C27.2067 101.991 26.7401 101.425 26.198 100.937C25.8268 100.605 25.3462 100.421 24.8483 100.422H20.0476C19.7709 100.421 19.4972 100.478 19.2433 100.588C18.9894 100.698 18.7608 100.859 18.5715 101.061C18.3822 101.262 18.2362 101.501 18.1427 101.761C18.0491 102.022 18.0099 102.299 18.0275 102.575C18.038 102.731 18.0661 102.885 18.1111 103.034C18.1453 103.143 18.188 103.248 18.2386 103.35L18.4752 103.823C18.4938 103.83 18.5123 103.839 18.5308 103.846C18.5354 103.849 18.5378 103.849 18.5401 103.851C18.6374 103.891 18.7349 103.93 18.8346 103.967C19.161 104.092 19.4939 104.199 19.8319 104.287C20.376 104.433 20.9315 104.534 21.4924 104.587C21.8194 104.617 22.1465 104.633 22.4758 104.633C22.8028 104.633 23.1228 104.617 23.4428 104.587C23.5473 104.577 23.6516 104.566 23.756 104.554C24.3758 104.476 24.9874 104.342 25.5835 104.155C25.5852 104.155 25.5869 104.154 25.5881 104.153C26.0287 104.013 26.4588 103.843 26.8753 103.642C26.8776 103.64 26.8798 103.64 26.8822 103.638C26.975 103.594 27.0654 103.547 27.1582 103.501C27.1733 103.494 27.1881 103.486 27.2022 103.477C27.2764 103.44 27.3507 103.401 27.4226 103.361C27.4968 103.322 27.5686 103.28 27.6382 103.236C27.7125 103.197 27.782 103.153 27.8539 103.109C27.7659 102.935 27.6754 102.772 27.5826 102.617Z" fill="#CACACA"/>
<path d="M20.9172 101.043C20.473 100.835 19.9645 100.812 19.503 100.978C19.0415 101.144 18.6645 101.486 18.4544 101.93L18.0276 102.575L17.8235 102.883L17.5128 103.352C17.5776 103.387 17.6403 103.422 17.7053 103.457L17.791 103.501C17.9905 103.603 18.1922 103.7 18.401 103.791C18.4241 103.802 18.4497 103.812 18.4752 103.823C18.4938 103.83 18.5123 103.839 18.5308 103.846C18.5354 103.849 18.5378 103.849 18.5401 103.851C18.6375 103.891 18.735 103.93 18.8346 103.967C19.161 104.092 19.4939 104.199 19.8319 104.287C20.376 104.433 20.9315 104.534 21.4924 104.587L21.6548 104.037L21.8125 103.512C22.0204 103.066 22.0429 102.555 21.8751 102.093C21.7073 101.63 21.3628 101.252 20.9172 101.043Z" fill="#CACACA"/>
<path d="M19.08 93.7839C19.8587 94.3209 20.7831 94.6067 21.7289 94.6029C21.3915 94.837 21.0074 94.9951 20.6031 95.0664C21.8606 95.3363 23.1603 95.3436 24.4208 95.0878C24.701 95.0429 24.9713 94.95 25.22 94.8132C25.3439 94.7439 25.4518 94.6494 25.5368 94.5357C25.6218 94.4219 25.6819 94.2916 25.7133 94.1531C25.797 93.6743 25.4242 93.2394 25.0367 92.9462C24.4434 92.5043 23.7594 92.1998 23.0341 92.0548C22.3088 91.9097 21.5604 91.9278 20.8429 92.1078C20.3649 92.204 19.9299 92.45 19.6008 92.81C19.4416 92.9933 19.3455 93.2229 19.3267 93.4649C19.3079 93.707 19.3674 93.9487 19.4963 94.1544L19.08 93.7839Z" fill="#2F2E41"/>
<path d="M32.156 91.0075C31.666 89.5988 30.8749 88.314 29.8376 87.2426C28.8003 86.1713 27.542 85.3393 26.1503 84.8046C24.7586 84.2698 23.2671 84.0453 21.7798 84.1466C20.2924 84.2479 18.8451 84.6726 17.5387 85.3912C16.2323 86.1097 15.0982 87.1047 14.2157 88.3068C13.3331 89.5089 12.7233 90.8891 12.4287 92.3513C12.1341 93.8134 12.1618 95.3223 12.51 96.7726C12.8581 98.223 13.5183 99.5799 14.4444 100.749C14.5348 100.865 14.6323 100.981 14.7297 101.092C14.7353 101.1 14.7415 101.108 14.7483 101.115C14.9885 101.392 15.2439 101.654 15.5136 101.902C15.5831 101.967 15.655 102.034 15.7293 102.097C15.8683 102.222 16.0122 102.34 16.1629 102.454C16.2209 102.501 16.2788 102.547 16.3392 102.591C16.5734 102.77 16.8192 102.935 17.0697 103.095C17.074 103.095 17.0781 103.096 17.0813 103.099C17.1532 103.143 17.2275 103.187 17.3016 103.229C17.3712 103.271 17.4431 103.313 17.5127 103.352C17.5776 103.387 17.6402 103.422 17.7052 103.457L17.791 103.501C17.9905 103.603 18.1922 103.7 18.401 103.791C18.4241 103.802 18.4497 103.812 18.4752 103.823C18.4937 103.83 18.5123 103.839 18.5308 103.846C18.5354 103.849 18.5378 103.849 18.54 103.851C18.6374 103.891 18.7349 103.93 18.8346 103.967C19.1609 104.092 19.4939 104.199 19.8319 104.287C20.376 104.433 20.9315 104.534 21.4924 104.587C21.8194 104.617 22.1464 104.633 22.4758 104.633C22.8028 104.633 23.1228 104.617 23.4428 104.587C23.5472 104.577 23.6515 104.566 23.7559 104.554C24.3758 104.476 24.9874 104.342 25.5834 104.155C25.5852 104.155 25.5868 104.154 25.5881 104.153C26.0287 104.013 26.4588 103.843 26.8753 103.642C26.8776 103.64 26.8798 103.64 26.8822 103.638C26.9749 103.593 27.0654 103.547 27.1582 103.501C27.1733 103.494 27.188 103.486 27.2022 103.477C27.2764 103.44 27.3507 103.401 27.4226 103.361C27.4968 103.322 27.5686 103.28 27.6382 103.236C27.7125 103.197 27.782 103.153 27.8539 103.109C27.8911 103.085 27.9282 103.062 27.9653 103.039C28.0163 103.009 28.0626 102.979 28.1137 102.944C28.1832 102.9 28.2529 102.851 28.32 102.802C28.4105 102.74 28.501 102.675 28.5891 102.607C28.6188 102.588 28.6474 102.567 28.6749 102.545C30.3972 101.235 31.6614 99.4134 32.2866 97.3413C32.9118 95.2691 32.8661 93.0521 32.156 91.0075L32.156 91.0075ZM28.3364 102.097C28.276 102.146 28.2134 102.192 28.1509 102.234C28.0881 102.28 28.0279 102.324 27.9653 102.366C27.9119 102.403 27.8586 102.44 27.803 102.475C27.7979 102.479 27.7925 102.483 27.7867 102.487C27.7473 102.515 27.7055 102.54 27.6661 102.566C27.6382 102.582 27.6105 102.6 27.5826 102.617C27.5014 102.668 27.4202 102.716 27.3368 102.763C27.2927 102.791 27.2463 102.816 27.2022 102.842C27.186 102.851 27.1697 102.86 27.1535 102.87C27.0816 102.909 27.0121 102.944 26.9425 102.981C26.9333 102.988 26.9216 102.99 26.9147 102.997C26.9104 102.997 26.9063 102.999 26.903 103.002C26.8149 103.048 26.7245 103.092 26.6341 103.134C26.2859 103.302 25.9272 103.447 25.5602 103.568C25.5139 103.584 25.4652 103.603 25.4188 103.617C24.8273 103.804 24.2192 103.935 23.6028 104.007C23.5333 104.016 23.4614 104.023 23.3895 104.03C23.0881 104.058 22.7842 104.072 22.4758 104.072C22.2021 104.072 21.9261 104.06 21.6548 104.037C21.0875 103.989 20.5256 103.892 19.9757 103.744C19.5572 103.635 19.1471 103.496 18.7489 103.327C18.7279 103.317 18.7071 103.31 18.6863 103.301C18.663 103.292 18.6445 103.285 18.6236 103.276C18.6004 103.266 18.5819 103.257 18.5586 103.245C18.4079 103.18 18.2572 103.109 18.1111 103.034C18.0902 103.023 18.0693 103.013 18.0485 103.002L17.9673 102.96C17.9186 102.935 17.8699 102.909 17.8235 102.883C17.6681 102.8 17.515 102.709 17.3667 102.617C17.311 102.582 17.2507 102.545 17.195 102.508L17.1532 102.48C17.0233 102.392 16.8935 102.303 16.7659 102.208C16.6801 102.143 16.592 102.081 16.5085 102.013C16.3671 101.907 16.2302 101.793 16.098 101.675C16.0284 101.617 15.9589 101.552 15.894 101.491C15.6328 101.25 15.3858 100.995 15.1542 100.725C15.0776 100.637 15.0011 100.549 14.9291 100.456C14.913 100.438 14.899 100.419 14.8827 100.398C13.6871 98.889 12.9679 97.0575 12.8168 95.1376C12.6657 93.2176 13.0896 91.2962 14.0344 89.6182C14.9792 87.9403 16.4021 86.5819 18.1216 85.7164C19.8412 84.8509 21.7794 84.5174 23.6891 84.7585C25.5988 84.9996 27.3935 85.8044 28.8442 87.0702C30.295 88.3359 31.336 90.0054 31.8346 91.8655C32.3332 93.7257 32.2667 95.6923 31.6437 97.5145C31.0207 99.3367 29.8693 100.932 28.3364 102.097H28.3364Z" fill="#3CD5F8"/>
<path d="M39.6224 40.9066C36.0537 37.8936 31.6866 35.9834 27.0526 35.4085C22.4186 34.8335 17.7175 35.6186 13.5213 37.6681C9.32509 39.7177 5.81476 42.9433 3.41743 46.9526C1.0201 50.9618 -0.160845 55.5818 0.0182849 60.2504C0.197415 64.9189 1.7289 69.4347 4.42638 73.2483C7.12387 77.0619 10.871 80.0088 15.2119 81.7304C19.5528 83.452 24.3003 83.8742 28.8766 82.9454C33.4529 82.0167 37.6607 79.7772 40.9881 76.4993L70.5346 101.444C70.9844 101.822 71.5658 102.006 72.1513 101.957C72.7367 101.907 73.2786 101.627 73.6579 101.178C74.0373 100.729 74.2233 100.147 74.1751 99.5615C74.1269 98.9756 73.8484 98.4327 73.4008 98.0519L73.3975 98.0491L43.851 73.1046C47.2834 68.1758 48.7524 62.1421 47.9702 56.1861C47.188 50.23 44.2109 44.7809 39.6224 40.9066ZM37.7177 70.7026C35.4159 73.432 32.3568 75.4171 28.9274 76.407C25.498 77.3969 21.8522 77.3471 18.451 76.2639C15.0499 75.1806 12.0462 73.1126 9.81975 70.3214C7.5933 67.5301 6.24412 64.141 5.94281 60.5825C5.6415 57.0241 6.4016 53.4561 8.12699 50.3299C9.85237 47.2037 12.4656 44.6596 15.6361 43.0193C18.8066 41.379 22.3921 40.7162 25.9391 41.1148C29.4861 41.5133 32.8353 42.9553 35.5632 45.2583C39.2212 48.3466 41.5033 52.7623 41.9073 57.534C42.3114 62.3057 40.8043 67.0426 37.7177 70.7026Z" fill="#3CD5F8"/>
<path opacity="0.3" d="M12.2869 72.8582C8.82482 69.9351 6.58805 65.8162 6.02074 61.3195C5.45342 56.8227 6.59704 52.2769 9.22452 48.5847C8.87946 48.9323 8.54589 49.2965 8.22379 49.677C6.69545 51.4893 5.53882 53.585 4.81996 55.8444C4.1011 58.1039 3.83408 60.4829 4.03415 62.8457C4.23421 65.2084 4.89744 67.5085 5.98596 69.6148C7.07449 71.7211 8.56699 73.5922 10.3783 75.1214C12.1895 76.6505 14.2841 77.8078 16.5424 78.527C18.8006 79.2463 21.1784 79.5134 23.5399 79.3133C25.9013 79.1131 28.2003 78.4495 30.3054 77.3604C32.4106 76.2713 34.2807 74.778 35.809 72.9658C36.1304 72.5847 36.433 72.1944 36.7169 71.795C33.5213 75.0076 29.2351 76.9002 24.7093 77.0972C20.1835 77.2942 15.7492 75.781 12.2869 72.8582Z" fill="black"/>
<path d="M99.1881 102.376C99.4189 102.094 99.5851 101.765 99.6751 101.412C99.765 101.059 99.7764 100.69 99.7085 100.332C99.6407 99.9744 99.4952 99.6356 99.2823 99.3399C99.0695 99.0442 98.7944 98.7988 98.4764 98.6209L93.0908 76.5655L89.162 77.8203L94.9775 99.7253C94.7143 100.279 94.6635 100.911 94.8346 101.5C95.0057 102.089 95.3869 102.595 95.9059 102.922C96.4249 103.249 97.0457 103.374 97.6506 103.273C98.2556 103.173 98.8026 102.854 99.1881 102.376H99.1881Z" fill="#FFB6B6"/>
<path d="M96.4044 88.2687L93.5333 90.747L89.5165 94.2116L87.7423 85.1294L87.5568 84.185L87.4106 83.4355L91.4808 76.342L94.8738 76.5367L95.1057 76.5506L95.1103 76.6019L95.1637 77.0776L95.8594 83.3378L95.8757 83.4889L96.4044 88.2687Z" fill="#3CD5F8"/>
<path d="M77.6378 149.917L74.7947 149.916L73.442 138.944L77.6385 138.944L77.6378 149.917Z" fill="#FFB6B6"/>
<path d="M78.3631 152.674L69.1951 152.674V152.558C69.1952 151.611 69.5712 150.703 70.2404 150.033C70.9096 149.364 71.8172 148.988 72.7635 148.988H72.7638L78.3632 148.988L78.3631 152.674Z" fill="#2F2E41"/>
<path d="M107.323 150.149L104.48 150.148L103.128 139.176L107.324 139.176L107.323 150.149Z" fill="#FFB6B6"/>
<path d="M108.049 152.906L98.8807 152.906V152.79C98.8808 151.843 99.2568 150.935 99.926 150.265C100.595 149.596 101.503 149.22 102.449 149.22H102.449L108.049 149.22L108.049 152.906Z" fill="#2F2E41"/>
<path d="M109.596 145.781L101.943 146.941L90.8083 109.239L78.9827 147.173L70.4017 146.013L81.5338 101.925V98.444L83.0413 93.223L82.8836 91.8099L81.7866 81.9272L81.3112 77.6413L81.2804 77.3645C81.2545 77.1321 81.316 76.8985 81.4529 76.709C81.5898 76.5196 81.7923 76.3879 82.0209 76.3396L85.5924 75.5878H91.4298L94.8738 76.5368L95.1104 76.6018L95.217 76.632L95.1637 77.0775L94.3566 83.8485L94.3126 84.2198L93.5333 90.7471L93.3617 92.1788C100.087 97.0517 100.319 101.925 100.319 101.925L109.596 145.781Z" fill="#2F2E41"/>
<path d="M87.8057 72.652C90.9516 72.652 93.5019 70.1004 93.5019 66.9528C93.5019 63.8052 90.9516 61.2536 87.8057 61.2536C84.6598 61.2536 82.1096 63.8052 82.1096 66.9528C82.1096 70.1004 84.6598 72.652 87.8057 72.652Z" fill="#FFB6B6"/>
<path d="M93.7885 90.8692L82.5204 92.3435L82.7309 93.9541L93.999 92.4797L93.7885 90.8692Z" fill="#3CD5F8"/>
<path d="M67.4059 92.829C67.5137 92.8988 67.6158 92.9769 67.7113 93.0627L78.8564 90.2201L79.6167 87.5299L83.8245 88.1473L82.941 93.0406C82.8697 93.4359 82.6721 93.7974 82.3779 94.0708C82.0837 94.3442 81.7088 94.5147 81.3096 94.5568L68.2963 95.9279C68.0842 96.3747 67.7412 96.7463 67.3129 96.9933C66.8845 97.2403 66.3912 97.3509 65.8985 97.3106C65.4058 97.2702 64.937 97.0806 64.5546 96.7672C64.1721 96.4538 63.8941 96.0313 63.7575 95.5559C63.621 95.0805 63.6323 94.5748 63.7899 94.106C63.9476 93.6372 64.2442 93.2275 64.6403 92.9315C65.0364 92.6355 65.5131 92.4671 66.0072 92.4488C66.5012 92.4305 66.9891 92.5631 67.4059 92.829Z" fill="#FFB6B6"/>
<path d="M84.5488 77.7922L82.5775 76.2839C82.0445 76.0816 81.3142 76.6563 81.186 77.2121L78.403 88.5822L84.2009 92.7589L85.0127 91.4827L84.5488 77.7922Z" fill="#3CD5F8"/>
<g opacity="0.2">
<path opacity="0.2" d="M95.8595 83.338C95.3675 83.5334 94.8659 83.7038 94.3567 83.8485C94.1944 83.8972 94.0274 83.9436 93.8627 83.9877C92.7773 84.289 91.662 84.4695 90.5369 84.526C90.0527 84.5465 89.5676 84.5333 89.0852 84.4866C88.5673 84.4349 88.0555 84.3339 87.5569 84.1849C87.5406 84.1803 87.522 84.1756 87.5058 84.171C86.4688 83.8764 85.5181 83.3359 84.7343 82.5954C84.5592 82.4248 84.3957 82.2426 84.245 82.0501C83.8119 81.5195 83.4942 80.9043 83.3121 80.2438C83.13 79.5834 83.0876 78.8922 83.1874 78.2145C83.2068 78.0916 83.2332 77.97 83.2664 77.8502C83.3537 77.5236 83.4693 77.2053 83.6119 76.8988C83.6745 76.7549 83.7441 76.6134 83.8183 76.4742L86.4389 75.5878H91.4298L94.8739 76.5368L95.1058 76.5507L95.1104 76.6018L95.2171 76.632L95.1638 77.0775L95.8595 83.338Z" fill="black"/>
</g>
<path d="M83.4409 62.2345C82.3756 62.1039 81.2066 62.1962 80.3763 62.8766C79.546 63.557 79.2781 64.9715 80.0642 65.7025C80.7601 66.3497 81.8484 66.1975 82.7805 66.3815C83.5836 66.5616 84.303 67.0061 84.8237 67.6437C85.3444 68.2813 85.6363 69.0753 85.6525 69.8985C85.6387 72.2593 83.3742 74.0472 82.9674 76.3727C82.6898 77.9598 83.3588 79.6302 84.5154 80.7513C85.6721 81.8724 87.2621 82.4783 88.8641 82.6424C90.4662 82.8065 92.0861 82.5558 93.643 82.144C95.2064 81.7305 96.7456 81.1438 98.0574 80.1977C99.3692 79.2515 100.445 77.9177 100.866 76.3556C101.287 74.7934 100.985 73.0023 99.8992 71.8029C98.6563 70.4295 96.5887 69.9571 95.5136 68.4486C94.3085 66.7575 94.7544 64.3493 93.7791 62.5159C93.1279 61.2918 91.8948 60.4569 90.5805 60.0171C89.2661 59.5773 87.8626 59.4905 86.4773 59.4479C85.7492 59.4255 84.9988 59.4181 84.3204 59.6837C83.642 59.9493 83.0457 60.5545 83.0105 61.2826C82.9753 62.0106 83.4409 62.2345 83.4409 62.2345Z" fill="#2F2E41"/>
<path d="M136.768 153H48.407C48.3455 153 48.2865 152.976 48.243 152.932C48.1995 152.888 48.1751 152.829 48.1751 152.768C48.1751 152.706 48.1995 152.647 48.243 152.604C48.2865 152.56 48.3455 152.536 48.407 152.536H136.768C136.83 152.536 136.889 152.56 136.932 152.604C136.976 152.647 137 152.706 137 152.768C137 152.829 136.976 152.888 136.932 152.932C136.889 152.976 136.83 153 136.768 153Z" fill="#CACACA"/>
</g>
<defs>
<clipPath id="clip0_1_290">
<rect width="137" height="153" fill="white"/>
</clipPath>
</defs>
</svg>
